<?xml version="1.0" standalone="no"?>
<!DOCTYPE svg PUBLIC "-//W3C//DTD SVG 1.1//EN" "http://www.w3.org/Graphics/SVG/1.1/DTD/svg11.dtd" >
<svg xmlns="http://www.w3.org/2000/svg" xmlns:xlink="http://www.w3.org/1999/xlink" version="1.1">
<metadata>
Created by FontForge 20170731 at Sun Nov 12 19:37:34 2023
 By Aleksey,,,
Copyright Nicky Laatz - All rights reverved 2020.
</metadata>
<defs>
<font id="JustSayingDings-Regular" horiz-adv-x="512" >
  <font-face 
    font-family="Just Saying Dings"
    font-weight="400"
    font-stretch="normal"
    units-per-em="2048"
    panose-1="0 0 0 0 0 0 0 0 0 0"
    ascent="1536"
    descent="-512"
    x-height="918"
    cap-height="1434"
    bbox="-160.533 -512.257 9886 1536.64"
    underline-thickness="102"
    underline-position="-358"
    unicode-range="U+000D-007E"
  />
<missing-glyph 
 />
    <glyph glyph-name=".notdef" 
 />
    <glyph glyph-name="uni0000" horiz-adv-x="0" 
 />
    <glyph glyph-name="uni0000" horiz-adv-x="0" 
 />
    <glyph glyph-name="uni000D" unicode="&#xd;" 
 />
    <glyph glyph-name="space" unicode=" " 
 />
    <glyph glyph-name="exclam" unicode="!" horiz-adv-x="2637" 
d="M1382 760l9 26q16 16 22 19l12 2l35 -10q35 -11 97.5 -59.5t80.5 -59.5l4 -6q52 -37 76 -43q58 96 193 272l35 17l26 -3q21 -21 23 -30l-2 -27q-16 -22 -104.5 -152.5t-88.5 -136.5q11 -8 52 -34.5t76.5 -51t74 -54t61.5 -56t23 -45.5l-10 -21q-24 -12 -33 -10l-39 12
q-21 17 -140.5 98.5t-125.5 81.5q-12 -12 -105.5 -158.5t-95.5 -154.5q-57 -73 -90 -53l-10 14l-2 13l22 69q5 18 43.5 79t74.5 114.5t36 56.5q31 31 45 74l-8 10l-23 12q-87 61 -115 76q-8 15 -34.5 31t-54.5 37.5t-40 50.5zM903 276q-46 15 -74.5 51t-36.5 81t-5 91t16 87
q38 114 123 114q20 0 51.5 -7.5t40.5 -8.5l33 12q25 0 57 -14q30 -25 46.5 -87.5t16.5 -111.5q-1 -2 -4 -28.5t-7 -58t-9 -44.5q-69 -90 -162 -90q-43 0 -86 14zM2249 430q-37 37 -50.5 83t-8 88.5t23.5 96.5q13 47 61 107l129 92q4 1 23 -0.5t22 -3.5l50 -16l18 -27
q6 -20 2 -45q25 -41 36 -138t-9 -145q-33 -68 -56.5 -88.5t-101.5 -54.5q-7 1 -35.5 3t-44.5 7q-27 9 -53 39zM-72 12q-3 11 15 58q4 17 99 141.5t124 153.5q0 18 18 22q3 6 17.5 25t15.5 30q-30 30 -91 81.5t-73 62.5q-10 10 -10 35l4 16q20 20 31 22q21 0 31 -4
q6 -2 34 -16q3 -6 65.5 -61.5t74.5 -55.5l12 6q8 12 27 31l4 10q1 1 42.5 54t70.5 81t53 33l34 -10l15 -27l-13 -36q-15 -12 -91.5 -108t-76.5 -103q15 -25 54 -61t73.5 -65.5t61.5 -66.5t26 -67l-10 -35l-18 -6l-21 8q-5 2 -54 48.5t-108 103.5t-67 65l-6 -2
q-13 -39 -163 -207.5t-175 -167.5l-21 6zM881 496q3 -9 3.5 -41t9.5 -55t34 -31l20 -7q8 -4 60 -4l47 25q10 10 14 29q11 36 0.5 104.5t-29.5 97.5q-4 -5 -9.5 -8.5t-15.5 -6.5t-14 -5l-45 16q-8 -3 -18 -11t-24 -23l-13 -15zM2298 631q-4 -9 -7.5 -28.5t-4.5 -22.5
q5 -40 15 -59.5t42 -43.5h4q23 -8 50 12t46 46l4 10q32 148 -26 246q-38 -12 -73.5 -63t-49.5 -97z" />
    <glyph glyph-name="quotedbl" unicode="&#x22;" horiz-adv-x="2965" 
d="M940 188q-14 7 -25 16.5t-19 22.5t-13.5 22.5t-11 28t-7.5 26.5t-6.5 29.5t-5.5 26.5q3 11 9.5 69.5t21.5 84.5l59 111q10 18 40.5 45.5t39.5 40.5q80 39 141 39l66 -35q45 -55 71.5 -98.5t44.5 -96.5t11 -108.5t-39 -114.5q-3 -7 -16 -23.5t-17 -27.5q-10 -3 -14 -15
q-7 -4 -36.5 -21t-37 -21t-30 -15t-34 -14t-29 -6.5t-34.5 -3.5q-62 0 -129 38zM2486 305q-40 21 -62 52t-26 61.5t-5 63.5t2.5 58.5t-3.5 47.5q8 11 19.5 38.5t15.5 35.5q9 18 29 50.5t24 39.5q14 7 63.5 52t84.5 50q32 6 69.5 -10.5t50.5 -14.5l37 -20q65 -115 83 -169
q34 -109 -11 -194q-48 -88 -103.5 -122t-162.5 -54q-40 18 -66 15zM1767 516q-8 7 -91 73.5t-137 123t-48 88.5l14 26q20 18 47 15l23 -13q3 -8 109.5 -97.5t115.5 -92.5l19 -21l22 -12q22 19 65.5 75.5t82 106t86.5 90t86 40.5l18 -11q4 -2 14 -12l2 -8q-3 -16 0 -33
l-14 -27q-22 -18 -81.5 -84.5t-109.5 -124.5t-51 -59l-8 -18l4 -13l45 -30l7 -11l14 -6l16 -20q11 -3 171 -128.5t173 -142.5q12 -27 6 -49l-4 -8q-1 -2 -5 -6t-5 -6q-11 -5 -21.5 -5.5t-22 3t-17.5 6.5t-20 11.5t-19 10.5q-52 27 -126.5 93t-146 125t-125.5 79
q-104 -100 -239 -329q-22 -19 -51 -19l-13 6l-12 19q-6 50 21 102q9 18 35.5 58.5t35.5 44.5q16 29 67.5 90t67.5 100zM29 98q-10 23 -6 54l6 10q38 66 98 129q1 2 12.5 10.5t12.5 13.5q22 16 59 53t45 56l-10 25q-47 38 -114 135t-66 143l18 23l33 10q27 -5 35 -12
q70 -131 190 -244q17 14 101 93t155.5 137t106.5 63l26 -4l37 -19l8 -16q0 -15 -20 -45q-115 -102 -187 -150l-6 -8q-6 -5 -19.5 -15.5t-19.5 -15.5l-6 -12q-30 -25 -39 -31l-8 -14q-39 -22 -53 -45q-6 -11 40 -63t104 -110.5t105 -122t42 -93.5l-7 -13q-1 -3 -14 -16
q-15 -6 -35 -2l-30 16q-28 40 -138 147.5t-137 158.5l-16 10l-8 -2q-15 -15 -50 -48.5t-60.5 -59.5t-47.5 -52q-22 -28 -29 -31l-33 -61l-10 -6l-28 -2l-23 12zM969 422q2 -15 -1.5 -42.5t-2.5 -41.5q4 -6 10 -25.5t12 -25.5l41 -21q13 -8 35 -8q41 0 89.5 27.5t66.5 58.5
l18 37q12 30 13 52.5t-11.5 52.5t-25.5 51.5t-29 49t-23 44.5l-22 12q-27 -6 -61.5 -35t-47.5 -53l-29 -53q-23 -47 -32 -80zM2509 571q-5 -11 -9 -41.5t-8 -40.5q2 -10 10.5 -28.5t10.5 -28.5q3 -2 17.5 -19t19.5 -18q62 -14 123.5 14.5t79.5 88.5q41 128 -54 237l-12 8
q-29 0 -41 -2q-15 -8 -39.5 -29.5t-38.5 -29.5z" />
    <glyph glyph-name="numbersign" unicode="#" horiz-adv-x="1626" 
d="M438 0q-64 0 -124.5 66t-53.5 131q9 85 21 125q18 60 91 148.5t126 88.5h57q14 -5 22 -11t11 -15.5t3.5 -16t-0.5 -21t-1 -20.5q0 -1 4.5 -4.5t9.5 -7t6 -4.5q45 -35 66 -68q22 -31 40.5 -87.5t18.5 -94.5q0 -29 -11 -54.5t-23 -40.5t-35.5 -39.5t-34.5 -37.5
q-88 -37 -137 -37h-56zM936 1004q-3 14 -9 35t-10 38.5t-4 34.5q0 38 29.5 95.5t34.5 76.5q16 17 34.5 32t44.5 33t38 27h80q55 0 100 -56t65.5 -122t20.5 -115q0 -72 -75.5 -125t-149.5 -53q-9 0 -29 2t-29 2q-13 10 -57 26.5t-64 39.5l-4 12zM94 668q0 25 65.5 118.5
t131 178.5t65.5 90l-4 4q-161 105 -221 186q-8 14 -4 39q4 16 16 25q18 6 21 8h12q4 -3 24.5 -16t31.5 -23t16 -23q13 -9 71.5 -58.5t94.5 -66.5l8 5q4 5 59.5 78.5t87.5 107.5q13 16 54 53.5t53 55.5l22 4l29 -13l8 -8l8 -20v-9l-8 -22q-8 -8 -24 -16q-4 -5 -51.5 -56
t-72 -79t-56 -69.5t-42.5 -66.5v-8q37 -28 145.5 -101t117.5 -73l16 -19q13 0 52 -25t52 -40q6 -23 5 -25q-10 -18 -29 -26h-37q-46 16 -158.5 92.5t-138.5 83.5q-30 30 -45 33l-12 12l-15 4q-6 12 -16 12l-4 -4q-7 -13 -34 -48t-36 -42l-4 -14q-17 -14 -66.5 -83.5
t-92.5 -131.5t-50 -64h-20l-17 8l-8 21v31zM928 559v33l4 8l20 16h41q13 0 108.5 -47t112.5 -45l28 30q29 31 42 44.5t43 45t49.5 49.5t44 40.5t43.5 36t33 18.5h12l23 -16l4 -10v-33q-14 -19 -72 -78.5t-108 -111.5t-53 -60q5 -5 113 -61.5t120 -59.5q9 -7 39.5 -28
t49.5 -39t24 -37v-8q0 -3 -2 -10.5t-2 -10.5q-16 -20 -43 -16q-62 22 -186 95t-173 95h-16q-16 -12 -63.5 -74t-93.5 -112t-69 -47l-12 14q-4 6 -4 25q0 34 22 70.5t49 62.5t52.5 56.5t30.5 51.5q-31 7 -115.5 50t-95.5 63zM401 350q-17 -12 -31 -56.5t-14 -68.5v-49
q0 -11 13.5 -33t23.5 -30q47 -21 96 -21q8 0 26 4.5t28 3.5q16 5 67 41q12 18 33 76q-19 61 -43 103t-42 58.5t-35.5 38t-24.5 46.5q-5 -6 -32.5 -30t-45 -45t-19.5 -38zM1006 1112q0 -3 1 -13t1.5 -13.5t2 -11.5t3 -11.5t4 -10.5t6 -11t9 -9t11.5 -10q46 -23 58 -23h49
q16 0 43.5 14.5t36.5 16.5q12 9 26 31.5t11 34.5q-14 113 -70 172q-8 4 -16 4l-17 -8h-14q-1 0 -25 8l-8 8h-4q-12 -8 -21 -15t-17.5 -16t-14 -14t-12 -16.5t-9.5 -15.5t-9 -18.5t-7.5 -18.5t-8.5 -22.5t-9 -23.5v-8z" />
    <glyph glyph-name="dollar" unicode="$" horiz-adv-x="698" 
d="M113 231q0 46 28 68q18 4 56 4q30 0 85 -22.5t76 -26.5q9 -7 92 -48t89 -59q62 -54 77 -96q-6 -35 -22 -43q-13 -8 -33 -8q-69 0 -241.5 82t-206.5 139v10zM45 557q-6 12 -6 37q0 29 43 73.5t96 90.5t66 67l16 4q26 23 80.5 49.5t73.5 39.5h14q14 0 32 -9t27 -20
q5 -10 5 -12v-48q0 -33 -96.5 -105.5t-197.5 -128.5t-116 -52q-19 8 -33 10zM168 469v18q0 2 1 9t1 10l18 10q62 10 224 10q12 0 40 0.5t43.5 0.5t38 -1.5t41.5 -5.5q14 -3 40 -15.5t38 -15.5q16 -20 19 -38l-8 -31q-16 -19 -38.5 -28t-31.5 -15l-37 -4l-6 -4h-115
q-41 0 -143 21t-119 42q-6 24 -6 37zM315 762q2 2 2 4q5 0 5 4t-5 4q-2 0 -2 -4q-4 0 -4 -4t4 -4zM340 784q-2 0 -2 -4q0 -2 2 -2l2 2q0 4 -2 4zM317 766q-2 2 -2 4q2 -2 2 -4z" />
    <glyph glyph-name="percent" unicode="%" horiz-adv-x="1675" 
d="M37 180q0 11 4 19l14 8q20 1 58.5 -3.5t54.5 -4.5q4 0 6.5 4t-0.5 8l-24 35q-5 25 -5 28q1 5 4 8.5t8.5 8.5t6.5 6q20 4 29 4q10 0 28 -27q3 2 8.5 7.5t8.5 8t8.5 5t11.5 2.5q9 0 21 -4l8 -6l8 -19q0 -5 -4 -21l-4 -16q10 8 42 36t52 40h14q3 0 9.5 -1t9.5 -1l4 -4
q6 -15 6 -29q0 -11 -7 -22t-14 -17.5t-20 -16.5t-16 -13v-4q20 2 46 -8.5t21 -30.5l-6 -15q-40 -26 -119 -18q-4 0 -7 -3.5t-1 -6.5q13 -29 10 -60l-10 -10h-22l-17 10h-4l-3.5 -10.5t-4.5 -12.5t-5 -11t-8 -10t-12 -5h-14q-2 0 -5.5 1t-4.5 1q-19 16 -23 41q-2 -1 -10 -8
t-10.5 -8.5t-10 -7.5t-11 -8l-10.5 -6t-11.5 -5.5t-11.5 -4t-13.5 -3t-13.5 -0.5q-2 0 -10 4q-8 8 -11 14v7q0 9 7 20t21 23.5t24 20.5t27 20t20 14q-6 7 -17 3t-14 -3q-11 4 -32 5.5t-30 4.5q-19 19 -24 33v14zM1358 1206q0 23 35 42.5t39 25.5q-4 5 -26 29t-30.5 41.5
t-5.5 37.5l6 19l10 10q22 5 27 4q10 -6 21.5 -22t17.5 -21l4 4q8 31 19 47l18 11h6q7 0 23 -11q11 -23 10 -28l-4 -37q-6 -9 -6 -23h4q60 45 96 62h27q14 -6 18.5 -13t9.5 -26q-4 -11 -29.5 -29.5t-31.5 -25.5l-12 -3q-4 -7 -26.5 -18t-27.5 -18q3 -4 19 -15
q5 -8 23.5 -27.5t31.5 -37.5t10 -33l-8 -14q-8 -4 -29 -4q-11 0 -29.5 13.5t-38.5 32.5t-26 23q-6 -34 -14 -65q-18 -22 -41 -19q-16 5 -25 33v27q-7 0 -21.5 -2t-21.5 -2l-14 6l-8 12v14zM154 977q5 18 34 47v4q0 7 -12 16.5t-12 16.5q0 6 4 18q15 18 35 21l33 -6
q2 1 5.5 18t8.5 36.5t8 25.5q4 1 10.5 7t10.5 7h12q6 0 18 -8q2 -4 7.5 -12.5t7.5 -12.5v-10h2q5 4 17.5 13t20 14.5t19 12t20.5 9.5h11q3 0 9 -1t9 -1l14 -12q5 -15 5 -25q-7 -19 -38.5 -39.5t-39.5 -30.5q32 3 59 -6q6 -6 6 -10v-12q-8 -19 -43 -39q-14 -3 -80 -8
q4 -54 -4 -80l-10 -10q-10 -5 -29 -5q-4 1 -18 15q-12 28 -14 45q-33 -38 -72 -33q-11 7 -14 16v19zM819 952q-35 0 -68.5 33.5t-33.5 67.5v32q0 3 2 9.5t2 9.5q9 10 27 39.5t34 44.5q5 5 18.5 9t18.5 9h10q54 -24 62 -65q5 -8 18.5 -16.5t23 -19.5t9.5 -30v-43
q-9 -20 -32 -41t-29 -33q-60 -6 -62 -6zM645 522q-34 0 -52 34t-18 71q0 38 37.5 82.5t75.5 40.5l19 -9q14 -8 14 -43q7 -3 22 -34v-31q0 -37 -19.5 -69t-53.5 -42h-25zM1012 664q0 2 1.5 11.5t0.5 16.5q8 21 14 33.5t18 33t27.5 31.5t32.5 11h20q2 0 6 -2t5 -2q9 -7 18 -25
v-27l12 -10q21 -61 21 -84q0 -10 -4 -20t-11 -20.5t-10 -16.5l-22 -14q-2 -1 -13 -5t-16 -4h-25q-4 0 -13 2t-13 2q-18 11 -24 17.5t-10 16.5t-13 22q-2 10 -2 33z" />
    <glyph glyph-name="ampersand" unicode="&#x26;" horiz-adv-x="1097" 
d="M154 637q-42 17 -39 55q3 36 39 45q70 18 141 33q9 2 27.5 6t27.5 6q77 15 86 92q3 19 41 205q8 39 33 43q28 7 51 -32q18 -26 32.5 -90.5t18.5 -110.5q11 -99 117 -115q59 -7 162 -35q42 -13 45 -51q0 -41 -43 -51q-7 -1 -71 -16t-97 -21q-59 -12 -80 -32.5t-31 -78.5
q-5 -23 -13 -70.5t-13 -70.5q-14 -83 -62 -88q-46 3 -55 49q-7 43 -35 185q-11 56 -31 75.5t-75 28.5q-68 15 -135 27q-7 2 -20.5 6t-20.5 6z" />
    <glyph glyph-name="quotesingle" unicode="'" horiz-adv-x="940" 
d="M403 2q-40 20 -122 131.5t-146.5 232t-58.5 160.5l-8 23v96q0 108 60.5 190.5t164.5 82.5q37 0 72.5 -16t69 -48.5t53 -55t49.5 -61.5q28 11 74 40.5t87 48t82 18.5q53 0 97 -51q3 -18 14 -41v-82q0 -55 -36 -134.5t-71 -134t-85 -126.5l-15 -21q-17 -23 -72 -81t-75 -93
q-14 -6 -30.5 -21.5t-29 -29t-32 -22.5t-42.5 -5zM256 807q-28 -12 -46 -32.5t-24.5 -52t-8 -52t-1.5 -56.5q0 -83 74.5 -236t138.5 -206l4 -14q21 -17 29 -33h8q56 50 176 206t142 214v14q23 48 33 83.5t10 82.5l-7 8h-22q-7 -3 -33 -14t-44 -19t-41.5 -20t-40.5 -24
t-25 -23q5 -33 -27 -62h-33q-16 8 -36 24t-23 28v41q-74 111 -148 143h-55z" />
    <glyph glyph-name="parenleft" unicode="(" horiz-adv-x="1968" 
d="M969 608l-11 10v27q0 64 89 84l32 -6q37 -30 37 -31l8 -24v-27q-12 -35 -32 -55q-6 -5 -27.5 -12t-28.5 -7h-30q-8 3 -29 19q-4 6 -8 22zM199 1356v41q0 6 4 18q4 5 16 12.5t17 6.5l32 -4q2 -2 10 -9.5t11.5 -11.5t9 -11t8 -14t2.5 -14v-14q-13 -32 -51 -43h-8
q-47 23 -51 43zM1462 84q0 8 8 23.5t15 21.5h41q6 0 22 -9t19 -14v-47q-3 -12 -22.5 -24t-33.5 -12h-12q-7 2 -18 9t-15 9q-4 16 -4 25v18zM1880 1079q-18 18 -18 31q5 35 18 51t47 19q20 -7 33 -23l8 -22v-11q0 -18 -33 -51q-20 -4 -30 -4t-25 10zM33 4q-21 14 -33 29v33
q0 2 2 8.5t2 9.5q3 4 33 22h14q8 0 33 -10q3 -1 14 -16.5t13 -20.5v-18q-1 -2 -4.5 -10t-7 -14t-7.5 -7q-2 -1 -8 -3.5t-11 -4.5t-7 -2h-19q-2 0 -7 2t-7 2z" />
    <glyph glyph-name="parenright" unicode=")" horiz-adv-x="2811" 
d="M1495 815q-1 3 -3 8.5t-3 9.5t0 7q10 45 26 68.5t54 37.5h33q28 0 44.5 -32t16.5 -62q0 -1 -6 -31l-25 -30q-3 -1 -12.5 -6.5t-18.5 -9t-14 -3.5h-31q-18 0 -61 43zM2656 1329q-5 28 -12 37v18q8 11 12 31l13 12q1 0 11 3.5t15 3.5h37q21 0 47 -29t33 -51v-13
q0 -18 -25 -49q-14 -12 -49 -12q-12 1 -44 20.5t-38 28.5zM797 80q22 44 30 49q41 18 58 18q22 0 37 -12q10 -15 24 -43v-24q-8 -11 -12 -31q-23 -27 -43 -37h-39q-1 0 -31 6l-18 19l-6 36v19zM12 922l-12 30v37q9 26 25 37q2 1 11 4t13.5 5t13.5 3.5t11 -0.5q38 -20 41 -22
q5 -5 20 -39v-19q-10 -26 -21 -39.5t-34 -21.5h-25q-4 2 -9 4t-11.5 4.5t-9.5 3.5z" />
    <glyph glyph-name="asterisk" unicode="*" horiz-adv-x="1533" 
d="M256 0q-141 55 -141 188v48q0 35 14.5 57t48.5 51q2 1 7 3t9 3.5t7 1.5h71q45 -17 88 -68t68 -104v-8q-6 -41 -15 -64t-17.5 -32t-29 -27.5t-38.5 -40.5q-3 -1 -15 -4.5t-18 -3.5h-39zM186 1057q-51 23 -64 35t-38 59v141q0 16 39 94l55 39q30 9 64 9q14 0 40.5 -17.5
t36.5 -30.5l31 -116v-39q0 -31 -23 -80t-46 -70q-10 -7 -47 -16.5t-48 -7.5zM1270 594q-4 4 -35 49v94q11 32 56 70.5t77 38.5h64q22 0 59.5 -37t42.5 -57v-70q-12 -22 -30.5 -42t-27 -28t-39.5 -29.5t-36 -25.5h-33q-5 0 -21.5 4t-25.5 2q-45 25 -51 31z" />
    <glyph glyph-name="plus" unicode="+" horiz-adv-x="1345" 
d="M641 -274q-21 78 -2 135q18 47 61 47q31 0 56 -25q11 -9 19 -19t16 -26t10.5 -20.5t10.5 -27.5l9 -23l3 -12t4 -15t6 -12q6 2 12.5 10t9.5 10q7 6 22 19.5t24 21.5t22.5 18t25.5 17q25 11 43 6q24 -29 29 -43q-2 -8 -8 -35q-7 -26 -21 -37q-4 -4 -12 -16
q-21 -40 -62 -91.5t-77 -84.5q-17 -17 -45 -31q-10 -6 -26.5 -3t-25.5 13q-38 48 -73 142q-4 12 -15.5 39.5t-15.5 42.5zM823 582q-30 59 -26 98q6 48 47 63q36 16 74 -18q22 -18 41.5 -53.5t27.5 -67.5q19 13 35 33q52 59 78 59q17 0 35 -18q1 -1 4.5 -3.5t5.5 -2.5v-37
q-14 -39 -78 -129q-4 -6 -14.5 -23.5t-18.5 -25.5q-27 -27 -41 -37q-12 -10 -41 -14q-17 -3 -26 6q-5 6 -15.5 18.5t-16.5 20t-13.5 19t-12.5 22.5q-21 46 -45 90zM0 371q-1 29 14 42t43 7q22 -6 37 -21q46 -42 68 -77q20 32 61 73q11 9 35 17q13 4 24 -5t13 -24
q2 -23 -12 -59q-17 -47 -51.5 -97.5t-71.5 -66.5q-24 -9 -41 12q-56 68 -96 131q-20 28 -23 68zM186 1454q-10 42 17 66q16 16 35 16q17 0 33.5 -14.5t25.5 -32.5q3 -7 9.5 -22.5t10 -24.5t6.5 -23t3 -26q15 12 22 34q3 12 14.5 31.5t14.5 28.5q4 9 20 20q28 20 45 11
q25 -10 29 -43q0 -15 -2 -23q-2 -5 -7 -20t-8 -22.5t-9 -19t-13 -20.5q-4 -6 -12.5 -18.5t-13.5 -19.5t-13.5 -16.5t-17.5 -15.5q-27 -20 -47 -20q-22 0 -47 25q-74 82 -95 149z" />
    <glyph glyph-name="comma" unicode="," horiz-adv-x="935" 
d="M49 674v35q4 17 35 43q31 16 78 8q224 -147 272 -182h17q33 29 98 109.5t126 146.5t107 84h27q7 0 23.5 -4t19.5 -5l27 -26q13 -38 8 -62q-9 -32 -47.5 -79.5t-82 -90t-88 -93t-61.5 -85.5v-18q13 -15 32.5 -31t32 -25t40.5 -27t35 -22q10 -7 21.5 -30t31.5 -31
q23 -38 35 -105q-16 -59 -54 -69h-26q-18 0 -71.5 43t-115 97t-84.5 69h-8q-29 -24 -78 -87t-89 -114.5t-95 -90t-104 -30.5l-27 25v45q0 35 34 86t76 94t80 91t45 77q-29 52 -77 61q-22 29 -86 74t-88 74z" />
    <glyph glyph-name="hyphen" unicode="-" horiz-adv-x="894" 
d="M53 20q-17 30 -8 91q26 62 112 159.5t111 153.5q-17 32 -76 96.5t-75 110.5v53l16 45l10 8h90q16 -6 80.5 -75t71.5 -84h18q16 34 155.5 179t176.5 161h45q5 0 14.5 -4t12.5 -5l27 -26q13 -33 10 -56q-14 -35 -94 -128t-148 -173t-63 -94q108 -99 204 -242v-90
q-34 -39 -53 -45q-51 7 -99 50t-99 106.5t-80 87.5q-13 -20 -35 -27q-17 -20 -92 -120t-123 -142q-23 -13 -90 -8z" />
    <glyph glyph-name="period" unicode="." horiz-adv-x="3131" 
d="M922 20q-3 5 -3 108.5t3 160.5q4 86 69.5 203.5t138.5 177.5q53 42 125.5 83.5t122.5 49.5q19 4 172 18q3 1 10.5 1t10.5 -1q160 -20 271.5 -80t185.5 -186q17 -28 54 -95.5t40 -76.5q11 -25 33.5 -90.5t23.5 -79.5q6 -34 6 -101t-6 -71l-18 -21q-37 2 -162 2t-162 -2
q-32 0 -401 -18q-109 -2 -301 -2t-195 2zM1055 289q-1 -17 -1 -76t1 -78q58 -1 257.5 -1t258.5 1q265 7 457 39q2 4 2 19t-2 20q-27 106 -83 218.5t-126 162.5q-22 13 -88 44t-84 32q-26 2 -115 2t-115 -2q-18 -1 -86 -32.5t-86 -43.5q-67 -49 -122.5 -136.5t-67.5 -168.5z
M2236 745q-3 9 -3 39t3 37q259 271 306 287q6 2 28 2t29 -2q8 -1 23.5 -25.5t15.5 -31.5q0 -3 -8.5 -18t-12.5 -19q-54 -64 -159.5 -161t-163.5 -126q-2 -1 -9 -1t-10 1q-35 14 -39 18zM750 1204q0 6 15.5 30.5t22.5 27.5q7 2 30.5 2t27.5 -2q6 -3 21 -18t16 -21
q5 -9 30.5 -89t26.5 -83q4 -9 39 -95.5t39 -95.5v-18q-12 -30 -21 -39q-3 -1 -25.5 -1t-31.5 1q-10 2 -30.5 15.5t-26.5 23.5q-36 73 -84.5 195.5t-48.5 166.5zM217 727q-3 5 -3 27t3 30q1 4 16 19t21 18q3 1 18 1t21 -1q14 0 266 -112q76 -37 96 -78q1 -3 1 -26t-1 -32
q-2 -3 -9 -10t-11 -8q-7 -1 -37 -1t-39 1q-15 3 -174 79t-168 93zM1894 993q-2 6 -2 44t2 53q6 51 44.5 144.5t70.5 139.5q3 7 25 29.5t32 28.5q2 2 9 2t10 -2q7 -4 22 -19t15 -18q3 -6 3 -36t-3 -42q0 -3 -7.5 -24.5t-11.5 -30.5q-18 -46 -53.5 -132.5t-40.5 -97.5
q-23 -46 -39 -57q-36 -22 -39 -19q-6 2 -20.5 16.5t-16.5 20.5zM63 135q-1 12 -1 42t1 36q2 3 17 10.5t22 7.5h420q3 0 18 -14.5t19 -23.5q1 -3 1 -18t-1 -19q-3 -8 -25 -22.5t-32 -16.5q-13 -3 -79.5 -10t-92.5 -9q-12 -2 -57 -2t-56 2q-87 7 -135 19q-13 7 -19 18z
M2523 365q-3 6 -3 28t3 29q4 13 32 33.5t44 23.5q11 2 132.5 27t154.5 31h18q72 -18 76 -39q2 -6 2 -29t-2 -29q0 -15 -50.5 -31.5t-123 -29.5t-124.5 -21t-83 -12q-5 -2 -19.5 -2t-17.5 2q-8 2 -23 9t-16 10zM1341 1356q0 63 58 76q4 2 19 2t18 -2q10 -3 23.5 -25t15.5 -33
q23 -96 38 -248q1 -15 1 -52.5t-1 -41.5q-3 -8 -17.5 -23t-20.5 -16q-2 0 -17 8t-22 13q-37 25 -66 148.5t-29 193.5zM2562 98q-2 2 -2 10t2 9q2 4 8.5 11t9.5 7q6 1 50.5 1t64.5 -1q281 -14 285 -18l78 -39q-1 -25 -34 -46.5t-63 -29.5q-28 -2 -123.5 -2t-123.5 2
q-61 3 -98.5 23.5t-53.5 72.5z" />
    <glyph glyph-name="slash" unicode="/" horiz-adv-x="2136" 
d="M635 608q-3 20 -3 87t3 87q9 31 33.5 63t52.5 54q6 3 51 16t51 13q60 0 128 -55t104 -119q2 -6 13.5 -30.5t14.5 -27.5q1 -3 7 -8.5t8 -5.5q42 61 120.5 142t124.5 89q11 1 55.5 1t61.5 -1q29 -3 63.5 -50t37.5 -81q1 -13 1 -63.5t-1 -67.5q-5 -63 -36.5 -134.5
t-71.5 -130t-103 -129.5t-105 -112.5t-104 -99.5q-12 -8 -86 -45h-15q-35 12 -88 74q-91 109 -199.5 277t-117.5 257zM735 754q-1 -12 -1 -52t1 -51q7 -46 30.5 -100t43 -86t57.5 -88q3 -5 36 -50.5t36 -50.5q1 -2 7 -15t7 -15q2 -3 28 -37t49 -63t26 -29t14 5.5t14 8.5
q345 319 377 520q2 12 2 52.5t-2 50.5q-2 9 -13 31.5t-15 25.5q-3 1 -26.5 1t-33.5 -1q-20 -3 -78.5 -59.5t-79.5 -85.5q-4 -3 -17 -22.5t-26.5 -40.5t-15.5 -23q-28 -37 -57 -43q-4 -1 -16 -1t-13 1q-11 5 -30.5 30.5t-26.5 40.5q-56 112 -60 117q-7 10 -41 44t-45 42
q-7 1 -35.5 1t-35.5 -1q-17 -1 -37 -20.5t-23 -36.5zM272 14q-3 6 -3 29t3 31q24 42 114.5 103.5t145.5 84.5q42 -21 46 -31q2 -5 2 -22t-2 -21q-19 -19 -31 -28q-2 -1 -21.5 -14.5t-21.5 -14.5q-7 -6 -79 -58.5t-79 -58.5q-28 -14 -31 -14q-8 0 -25 5.5t-18 8.5zM1692 551
q-2 1 -2 7t2 7q7 11 27 27t30 16q12 0 107.5 -12.5t109.5 -15.5q80 -10 102 -43l15 -29q-4 -14 -31.5 -28.5t-42.5 -14.5t-57 14q-6 1 -58.5 7.5t-58.5 7.5q-66 7 -86 14q-13 3 -31 17t-26 26zM55 840q-1 4 -1 21t1 22q1 2 15 16h57q11 -5 99 -42.5t104 -45.5q45 -18 59 -43
q1 -3 1 -14.5t-1 -14.5q-3 -7 -19 -16.5t-24 -11.5q-2 -1 -7.5 -1t-8.5 1q-61 18 -165 61t-110 68zM1677 825q-3 3 -3 26t3 32q3 19 99 50.5t133 37.5q9 1 42 1t44 -1q3 0 8.5 -6t5.5 -9q1 -5 1 -22t-1 -21q-2 -9 -43 -30q-33 -12 -130.5 -42t-115.5 -30q-8 0 -25 5.5
t-18 8.5zM84 391v29q16 59 203 74h131v-45q-7 -31 -43 -43q-100 -25 -217 -44h-15q-53 15 -59 29zM1692 246q-2 8 -2 30.5t2 28.5q0 7 14 14q8 1 30 1t27 -1q3 0 56.5 -33t60.5 -40l34 -20q34 -19 38 -23q9 -7 25.5 -23t17.5 -20q3 -5 3 -21.5t-3 -21.5q0 -2 -11.5 -8
t-17.5 -7h-14q-92 23 -260 144zM1315 1174v14q4 22 14.5 58t27.5 81t41 76t48 31q5 0 22.5 -11.5t20.5 -17.5q1 -3 1 -14.5t-1 -14.5q-2 -5 -21.5 -51t-21.5 -51q-2 -4 -14.5 -43t-14.5 -43q-4 -7 -21.5 -23.5t-23.5 -19.5q-4 -3 -21 -3t-22 3q-1 0 -6.5 11.5t-7.5 17.5z
M881 1274v59q9 71 29 90q12 11 28 11q13 0 28 -15.5t15 -27.5v-232q0 -3 -5 -8.5t-9 -5.5q-5 -1 -22 -1t-21 1q-31 6 -43 129zM403 1231q-1 6 -1 23t1 20q1 6 13 17.5t16 11.5q1 1 18 -4.5t25 -10.5q1 0 7 -5.5t7 -8.5q3 -3 15 -21t14 -22l14 -14q7 -8 21.5 -25.5t26 -31.5
t12.5 -15q2 -3 2 -14.5t-2 -14.5q-3 -7 -21 -19t-24 -12q-26 0 -82 57.5t-62 88.5z" />
    <glyph glyph-name="zero" unicode="0" horiz-adv-x="9887" 
d="M16 39q0 26 21 47q57 0 172 3t172 3q92 0 266.5 17t237.5 20q66 3 316.5 15t387.5 20q81 4 240.5 16t287.5 18.5t242 6.5q40 0 480.5 14.5t449.5 18.5q10 -5 12 -5q167 0 501 12.5t501 12.5q134 0 402 6t401 6q192 0 572.5 6.5t569.5 6.5q658 0 721 12q27 5 87.5 5
t136.5 -2.5t98 -2.5q8 0 12 -4q33 3 199.5 3t291.5 -1t156 2q64 -12 144 -12q53 0 158.5 6t152.5 6q1 0 43.5 0.5t107 0.5t155.5 0.5t189.5 0.5h206.5t209.5 -0.5t196 -2t168 -3.5t123.5 -5t65 -7q17 -13 17 -25q0 -16 -23 -27.5t-57 -16.5t-59.5 -7t-43.5 -2l-8 4
q-297 4 -631.5 4t-744.5 -2t-633 -2q-468 0 -1404.5 -10.5t-1405.5 -10.5q-34 0 -283 -6t-468 -10t-224 0q-14 -5 -322 -11.5t-355 -6.5q-51 0 -154 -8.5t-154 -8.5q-220 0 -632 -19t-496 -22l-8 -4q-145 -9 -412.5 -20t-378.5 -17q-74 -4 -387 -26.5t-483 -22.5
q-8 0 -23 -1t-22 -0.5t-18 2.5t-19.5 8t-16.5 16z" />
    <glyph glyph-name="one" unicode="1" horiz-adv-x="3866" 
d="M133 0q-47 0 -77.5 23t-37.5 67q13 55 41 72q365 41 841 61.5t915 20.5q23 0 77 4.5t84 3.5l17 8q133 0 398 8t398 8q159 0 479.5 12.5t479.5 12.5q7 0 19 -3t26.5 -7.5t19.5 -5.5q37 -52 41 -66q-3 -28 -32 -57l-33 -17q-26 -1 -117 -7.5t-143 -6.5q-229 0 -687 -20.5
t-685 -20.5q-41 0 -194 -7.5t-246 -11.5t-138 3q-85 -24 -672.5 -49t-773.5 -25z" />
    <glyph glyph-name="two" unicode="2" horiz-adv-x="5482" 
d="M14 45v4l6 29q10 13 33 28q67 6 226.5 25.5t282 28t224.5 2.5l11 4q130 6 463.5 27t515.5 28q65 3 304 7t367 16q71 7 153.5 9t184 2t156.5 1q17 0 79 6.5t87 3.5l12 -6q196 10 494 6l10 8q253 0 754 10.5t751 10.5q6 0 60 3t94 3q196 0 196 -74q0 -22 -41 -35t-110 -16
t-130 -3t-130.5 2.5t-81.5 2.5q-115 0 -347 -6t-347 -6q-37 0 -215 0.5t-253.5 0t-208 -4.5t-235.5 -12q-229 -17 -739 -17q-111 0 -393 -17t-432 -10l-13 -6q-136 5 -390 -15.5t-331 -23.5q-27 -1 -131.5 -4t-153 -5t-128 -7t-142.5 -12q-27 -3 -103.5 -11t-115 -11.5
t-99 -7t-110.5 -3.5q-11 0 -51 10z" />
    <glyph glyph-name="three" unicode="3" horiz-adv-x="4894" 
d="M18 61v37q6 14 31 31q104 -5 323 25.5t326 23.5l13 6q67 -1 230 22t243 15q6 3 17.5 5t21 2t25 -0.5t18.5 -0.5q384 0 884 37l19 6q155 0 464 9.5t462 9.5q101 0 561 6.5t561 -0.5l12 -6q41 12 471 12q147 0 184 -43l7 -18l-7 -31q-35 -45 -192 -45q-46 0 -114.5 4
t-80.5 4q-4 -3 -29.5 -3t-57.5 1.5t-35 1.5q-290 0 -872.5 -12.5t-872.5 -12.5q-242 0 -501.5 -10t-615 -30t-501.5 -27q-129 -6 -438 -43t-476 -37q-21 0 -49 12q-17 12 -31 49z" />
    <glyph glyph-name="four" unicode="4" horiz-adv-x="1544" 
d="M70 682v20q0 28 39 54q2 1 11 4t16 5t11 1l21 8q13 0 96 18t88 21q60 0 78 16q56 -7 147 18l182 50t148 18q30 -20 35 -32v-25q82 -98 131 -186q2 -2 12.5 -23t20.5 -35.5t16 -13.5q238 29 365 29l10 -4l25 -31v-14q0 -22 -25 -43q-37 -17 -120 -27t-151.5 -14.5
t-74.5 -8.5q-5 -41 -45 -128.5t-77.5 -159t-37.5 -76.5q-2 -3 -10.5 -14.5t-13.5 -16.5h-21q-6 -5 -24 -6.5t-25 -7.5h-33l-10 -4q-9 1 -176 -17.5t-330 -37.5l-162 -19l-24 4l-25 25q-7 18 -4 34q3 7 19 35q2 17 64.5 170.5t76.5 169.5v15q0 10 -4 14q-13 16 -59.5 54
t-82.5 72.5t-38 55.5q-5 5 -19.5 15.5t-19.5 17.5zM606 156h4l318 45q4 32 40.5 111.5t37.5 101.5q33 49 28 69q-14 -3 -53.5 -5.5t-72.5 -5.5t-40 -9q-20 2 -67.5 -2.5t-63.5 -11.5q-5 -4 -19 -35.5t-29.5 -72t-18.5 -48.5q-1 -3 -14.5 -27t-22.5 -41.5t-18 -38.5t-9 -30z
M426 424q-12 -10 -76.5 -142t-64.5 -155h71q18 0 62.5 8t70.5 6l9 4q-3 41 10 84q13 15 31.5 55.5t38.5 89.5t28 64v6h-6q-11 -2 -77 -6t-83 -14h-14zM610 745q1 -20 46.5 -83.5t52.5 -86.5q5 -10 24 -10q25 3 77 11t94 12.5t77 1.5l4 4q-11 36 -33 55q-4 21 -46 75.5
t-66 74.5h-4q-9 -2 -67 -13.5t-102.5 -22t-56.5 -18.5zM313 688q-13 1 -84 -16q22 -25 79 -67t79 -68h14q22 0 99.5 7t85.5 11v6q-11 15 -45.5 75.5t-61.5 84.5h-6q-141 -21 -160 -33z" />
    <glyph glyph-name="five" unicode="5" horiz-adv-x="1443" 
d="M66 115q-53 5 -64 24v49l10 25l4 4q49 11 190 13.5t191 21.5q20 -4 35 -4q35 0 103.5 7t103.5 7q33 0 255 19t239 26l-5 4q-18 4 -40 11.5t-50.5 18.5t-38.5 15q-31 24 -34 39v39q3 2 20 25q17 13 39 10q24 -11 124.5 -43t169 -68t87.5 -82v-20q0 -7 -4.5 -23t-5.5 -20
q-47 -71 -137 -142t-160 -71q-10 0 -21 8t-14 17v20q0 6 6 18q18 21 52.5 52t49.5 32l46 46h-70q-14 0 -92.5 -9t-149.5 -15t-80 -1l-24 -10q-26 -6 -373.5 -26t-361.5 -17z" />
    <glyph glyph-name="six" unicode="6" horiz-adv-x="2603" 
d="M1440 1434q16 0 51 -4.5t53 -4.5l17 -32l24 12h49l-8 -12l-41 -9l-16 -24h33v8l24 -16l-8 16l24 -8l-8 16q0 4 8 0l31 -8l8 -16l25 8l-25 24h41q82 0 169.5 -52.5t160.5 -132.5t139.5 -179t112.5 -189t74 -167v-7l16 -41q-2 -32 16 -81q0 -23 34 -117t32 -103
q21 -31 25 -79l6 -9q0 -18 -78 -18l-43 2l-8 8q-21 58 -42 155t-5 120q-27 30 -48 89.5t-34 80.5v24q-45 96 -82 154l-15 8l-8 33l-41 57v6q0 40 -53 94.5t-117.5 97.5t-135 90.5t-91.5 67.5h-33l-8 17h-39l16 8q-110 16 -147 16q-11 1 -12 4q0 3 2 -0.5t2 -11.5h-55
q-182 0 -355 -38t-301 -124h-16v-4h-33l25 -12l-33 -16h-25l-16 16l-8 -8l32 -25h-24l-41 49l8 15l25 16h8q131 125 315 162l25 -8l33 16h24q33 22 168 44t197 22zM1528 1417l-4 4l-4 -4l4 -4zM1624 1417l-6 -8l-6 8l6 8zM1520 1401l-4 4l-5 -4l5 -4zM1530 1401l6 -8l6 8
l-6 8zM1657 1401v-8l-8 8h8zM1272 1393l6 -9l6 9l-6 8zM1513 1376l7 -8l6 8l-6 8zM1223 1368l6 -8l6 8l-6 8zM1061 1360l6 -8l6 8l-6 8zM1085 1360l7 -8l6 8l-6 8zM1126 1360l4 -8l7 8l-7 8zM1190 1360l6 -8l6 8l-6 8zM1417 1360l6 -8l7 8l-7 8zM1657 1360v-8h8zM1716 1360
l6 -8l7 8l-7 8zM1810 1360l-6 -8l-6 8l6 8zM1042 1343l5 5l-5 6l-4 -6zM1077 1352l6 -6l7 6l-7 8zM1106 1343l4 5l-4 6l-2 -6zM1741 1352l6 -6l6 6l-6 8zM1458 1346l6 -9l6 9l-6 6zM696 1206l6 -8l7 8l-7 8zM1300 1206q26 0 114.5 -26.5t113.5 -20.5l16 -8v8l25 -8l8 -25
q4 -9 12 2q8 12 -4 15l25 -25q7 -3 21 -17t27 -21.5t23 -2.5l25 -16h8l17 -17q78 -25 104 -63h8q2 0 9 -20q6 -19 16 -5q100 -97 136 -143q45 -59 58 -108q8 -1 6.5 -11t-6.5 -14q32 -21 57.5 -90.5t39.5 -87.5v-23l16 -16l-8 -8q1 -22 23 -54t26 -45l8 -8v-33l25 -47l-8 -8
l32 -57h-8l-16 24v-24q-25 -10 -64 -10l-26 2l-15 8q-1 2 -12.5 26.5t-17 37t-14 33.5t-11.5 37t-2 28q-32 47 -71 151t-66 148v16l-25 25l-8 24l-16 8l-9 25q-123 136 -340 282h-16l-33 17h-10q-39 0 -78 24v-8q-75 17 -162 17q-18 0 -55.5 -5t-58.5 -4q0 -9 -8.5 -14
t-14.5 6q-14 -2 -56 -20t-67 -13v-16l-16 16l-8 -8l24 -24l-32 16h-7l-41 -8l9 -47l-17 -8l-24 16h-9v-8l25 -17h-16q-32 -17 -96 -76t-66 -61l8 -8q-51 -43 -91.5 -100t-71 -131t-48.5 -128t-43 -145t-37 -129l-8 -8v-72l-16 -8h-25l16 -16v-33l-8 -8l-24 33v-17h-25l8 -8
l-32 -16q12 69 21 145t14.5 112t24 100.5t54.5 152.5v8l15 16v8q28 28 134 179t134 186h24v8l33 -16l-16 24l8 8l-8 17l31 16l16 23h33v16q110 85 186 107q24 34 116.5 52.5t157.5 18.5zM1288 1198l6 -8l4 8l-4 8zM655 1167l7 -8l6 8l-6 9zM1417 1167l6 -8l7 8l-7 9z
M1509 1167l-6 -8l-6 8l6 9zM598 1126l31 25q30 -30 57 -49l-16 -8l-8 16h-25zM711 1149l-4 4l-5 -4l5 -2zM1481 1143l6 -8l6 8l-6 8zM1552 1135v-9l9 9h-9zM590 1118l8 -8zM565 1102h47l9 8l41 -25h-64l31 -24l-23 -8v-25h-8q-20 -15 -43 -43.5t-49 -65.5t-39 -53l-8 -24
l-39 -56v-8l-41 -73h-8v-17q-1 0 -8 4t-9 4l8 -16l-8 -8l-8 -31h-8q-1 -2 0 -8.5t0 -7.5q0 -2 -7 -0.5t-9 0.5l8 -9v-16l-17 -25v-32l-24 -8l8 -17l-31 -39l15 -33l-23 9v-123h-8l8 -17l-49 -299l-8 -8q-54 -8 -82 -8h-17l-6 25q10 92 36.5 227.5t51.5 136.5l9 17v32l8 8
l-17 17l25 16v39l-8 17h16q20 16 25 32l-17 17l25 49v24l16 31v25l15 -8v24h16l-16 25l16 -9v17q24 52 78 133.5t84 93.5v15q29 13 65 65h8zM1602 1108l-5 6l-4 -6l4 -2zM1165 1094l6 -9l7 9l-7 8zM582 1085l8 -8zM1642 1085l-8 -8h8v8zM659 1077l-6 -8l-6 8l6 8zM1153 1077
l-6 -8l-6 8l6 8zM1456 1077l-4 4l-4 -4l4 -4zM1651 1077l6 -8l6 8l-6 8zM1053 1069l6 -8l6 8l-6 8zM549 1061l16 -8l-8 8h-8zM979 1061l6 -8l6 8l-6 8zM582 1053v-17l8 8v9h-8zM1090 1053l-7 -9l-6 9l6 8zM1628 1053l6 -9l6 9l-6 8zM932 1044l6 -8l6 8l-6 9zM1065 1044
l-6 -8l-6 8l6 9zM1673 1044h17h-17zM549 1036l-4 4l-4 -4l4 -2zM924 1036l6 -8l6 8l-6 8zM1034 1028h-24v8zM889 1020l8 -8zM526 1012l6 -8l7 8l-7 8zM551 1012l6 -8l6 8l-6 8zM604 1012l-6 -8l-6 8l6 8zM961 1012l-7 -15v15h7zM899 997l6 -8l6 8l-6 7zM1620 997l6 -8l6 8
l-6 7zM516 989v-8l8 8h-8zM834 989l6 -8l6 8l-6 8zM850 981l6 -8l6 8l-6 8zM891 981l6 -8l6 8l-6 8zM1815 981l4 -8l6 8l-6 8zM782 973l17 -33l8 16v9zM840 965l4 4l-4 4l-4 -4zM1683 965l7 -9l6 9l-6 8zM485 956l7 -8l6 8l-6 9zM1286 948h14l-14 -16l33 4q27 0 56 -7
t66.5 -20t53.5 -18l-55 -17l-25 25h-33l33 -25q13 -2 48.5 -12.5t56.5 -11.5q2 8 -9 24l58 -40h8v8l-33 49h17q39 -17 79.5 -61.5t49.5 -51.5h8q49 -43 122.5 -159.5t130 -243t56.5 -187.5l-2 -10q-20 2 -58.5 -3t-54.5 -5h-16q-21 80 -61.5 174t-95.5 186.5t-126.5 171
t-144.5 117.5v23q-11 4 -20.5 11t-19.5 16t-17 14h-9l-24 24q-4 -6 -15.5 -6t-17.5 6h-47l22 -8l9 -8v-41l-9 -16l-38 24l8 -16l-25 8l-57 -16v-7q-24 -12 -72 -24l8 -17q0 -1 -3 1q-2 1 -3 1l-10 7l-16 -25l-17 8q-34 -2 -119.5 -92t-157 -194.5t-71.5 -143.5l-16 -8
l-9 -72l-16 -16v-25q-14 -32 -19 -66.5t-5.5 -52.5t-10.5 -34.5t-37.5 -23.5t-81.5 -9v8l9 33l8 8q-3 20 1 50.5t18.5 58t37.5 28.5q4 18 -8 33l14 16v25h17v23l24 -9v9l-16 16v57q0 43 17.5 86t57 90t62 70t72.5 69q12 11 18 17q-1 12 7.5 15.5t18 0.5t15.5 -8l8 8
q-6 65 217 179h9l32 16q22 -2 60.5 3t54.5 5zM1692 948l6 -8l6 8l-6 8zM1708 948l6 -8l6 8l-6 8zM477 940l6 -8l6 8l-6 8zM1364 940l-6 -8l-6 8l6 8zM1374 940l8 -8zM831 924l5 4l-5 4l-4 -4zM1264 932l6 -8l6 8l-6 8zM1327 932l6 -8l6 8l-6 8zM729 924l6 -9l6 9l-6 8z
M1174 924l6 -9l6 9l-6 8zM1237 924l8 -17l17 17h-25zM721 915l6 -8l6 8l-6 9zM768 915l-4 5l-4 -5l4 -4zM1223 915l6 -8l6 8l-6 9zM1477 915l-7 -8l-4 8l4 9zM1741 915l6 -8l6 8l-6 9zM711 899l-17 -25h8l17 25h-8zM745 899l7 -8l6 8l-6 8zM1366 858h-25l-16 41l16 -16h17
l41 -25l8 -31l-25 7l9 8v16l-25 8v-8zM1536 866l-16 17l8 16l8 -16v-17zM1790 899l6 -8l6 8l-6 8zM1231 891l6 -8l6 8l-6 8zM1253 891l47 -8v8h-47zM1413 891l-6 -8l-6 8l6 8zM729 883l6 -9l6 9l-6 8zM1190 883l6 -9l6 9l-6 8zM1272 874l6 -8l6 8l-6 9zM1790 874l6 -8l6 8
l-6 9zM678 866v-8l8 8h-8zM1294 866l-8 -8l8 -8l6 8zM1503 866l8 -8zM1569 866l8 -8h8zM1223 858l6 -8l6 8l-6 8zM1806 858l6 -8l5 8l-5 8zM2154 858l5 -8l6 8l-6 8zM729 850l6 -8l6 8l-6 8zM1333 850v-8l-8 8h8zM2169 850l6 -8l6 8l-6 8zM1190 842l6 -8l6 8l-6 8zM1366 834
l-8 -7v15zM1458 842l6 -8l6 8l-6 8zM1612 842l6 -8l6 8l-6 8zM1235 834l-6 -7l-6 7l6 8zM1321 838l4 -4l-4 -3l-4 3zM664 827l6 -8l6 8l-6 7zM647 819l6 -8l6 8l-6 8zM414 811l6 -8l6 8l-6 8zM1028 811l6 -8l6 8l-6 8zM2193 811l7 -8l6 8l-6 8zM664 786l6 -8l6 8l-6 9z
M928 770l4 4l-4 4l-2 -4zM2210 778l6 -8l6 8l-6 8zM903 754l-6 -9l-6 9l6 8zM1927 745l6 -8l6 8l-6 9zM373 729l6 -8l6 8l-6 8zM1935 729l7 -8l6 8l-6 8zM2241 721l16 -16v8zM623 705l6 -9l6 9l-6 8zM2259 688l6 -8l6 8l-6 8zM274 672l7 -8l6 8l-6 8zM1952 664l6 -7l6 7
l-6 8zM332 657l6 -8l6 8l-6 7zM244 645l-4 -4l-2 4l2 4zM274 649l7 -8l6 8l-6 8zM274 631l-6 4l-4 -4l6 -2zM2284 633l6 -8l6 8l-6 8zM2331 633l6 -8l6 8l-6 8zM2275 625l6 -9l7 9l-7 8zM268 616l4 -8l7 8l-7 9zM2292 608l6 -8l6 8l-6 8zM2345 608l8 -16h8zM252 600l6 -8
l6 8l-6 8zM244 584l6 -9l6 9l-6 8zM2298 584l-4 4l-4 -4l4 -4zM328 567l-6 -8l-7 8l7 8zM2306 567v-8l8 -8v16h-8zM2370 551v-41l-9 -8h25l8 33l-33 32q-1 -2 1 -5t4.5 -6.5t3.5 -4.5zM223 551l-6 -8l-6 8l6 8zM299 551l6 -8l6 8l-6 8zM2306 543l8 -8zM2345 518l4 4l-4 4
l-2 -4zM2355 526l6 -8l6 8l-6 9zM311 518l-6 -8l-6 8l6 8zM2322 518l15 -16zM2388 510l6 -8l6 8l-6 8zM2404 510l6 -8l7 8l-7 8zM2347 487l6 -8l6 8l-6 7zM2370 487l8 -8h16l-8 8h-16zM2396 487l6 -8l6 8l-6 7zM287 479l-6 -8l-7 8l7 8zM252 471l6 -8l6 8l-6 8zM2331 463
l6 -8l6 8l-6 8zM2386 463l8 -8zM2421 455l6 -9l6 9l-6 8zM2394 438l-16 -8v-8l24 8zM2183 420l-4 6l-4 -6l6 -2zM279 414l-7 -8l-4 8l4 8zM2079 414l8 -8zM2386 406l16 -17zM2396 406l6 -9l6 9l-6 8zM2191 389l4 4l-4 4l-2 -4zM2372 397l6 -8l6 8l-6 9zM655 389l7 -8l6 8
l-6 8zM170 373l6 -8l6 8l-6 8zM2388 373l6 -8l6 8l-6 8zM653 356l4 4l-4 5l-4 -5zM645 348l8 -8zM672 340l6 -8l6 8l-6 8zM725 332l-6 -8l-6 8l6 8zM2202 332l6 -8l6 8l-6 8zM625 313l-4 -6l-3 6l3 4zM678 285l4 4l-4 4l-4 -6zM2413 293l6 -8l6 8l-6 8zM631 285l6 -9l6 9
l-6 8zM2226 276l6 -8l6 8l-6 9zM612 252l4 4l-4 4l-2 -4zM623 260l6 -8l6 8l-6 8zM604 244l-6 -8l-6 8l6 8zM639 244l6 -8l6 8l-6 8zM614 236l7 -9l6 9l-6 8zM2226 236l6 -9l6 9l-6 8zM598 211l-8 -8l8 -8h8zM608 211l4 -8l6 8l-6 8zM1894 195l7 -9l6 9l-6 8zM584 178l6 -8
l6 8l-6 8zM381 154l6 -9l6 9l-6 8zM567 131l6 -8l7 8l-7 8zM365 115l6 -9l6 9l-6 8zM346 98l8 -8zM389 98l6 -8l6 8l-6 8zM346 82l8 -16v8zM365 82l6 -8l6 8l-6 8zM434 82l-6 -8l-6 8l6 8zM381 66l6 -9l6 9l-6 8zM426 66l-6 -9l-6 9l6 8zM428 49l-8 -16v16h8z" />
    <glyph glyph-name="seven" unicode="7" horiz-adv-x="2621" 
d="M1321 1427l4 7l205 -23l12 -6h6q36 0 140.5 -34t138.5 -56l6 -12l4 6l18 -6l7 -17h4v10q37 -2 100 -56t132.5 -128t86.5 -88v-6l17 -17v-12l41 -39l-7 -6l11 -6v-16q12 3 20.5 -9t13.5 -26l-10 -17l10 -12v-10q7 -6 13.5 -14t15 -20t12.5 -17v-13l17 -16l-6 -6
q4 -5 17 -27t24 -30q2 -5 10 -19.5t11.5 -26t0.5 -22.5q10 -9 29 -68l-6 -6l6 -16l10 -12l-6 -11l12 -12h-6v-12l6 -23l17 -16h-11l11 -23h-11l17 -22v-13h6l6 -45q15 -12 13 -25q-1 -8 -8 1q0 1 -1 2l6 -17q10 8 10 -4q-1 -11 -4 -14h17v-6l-10 -16h16l-12 -17l34 -45
l-16 4v-4q-43 -14 -115 -14l-57 2l2 4q0 67 -50.5 204.5t-57.5 194.5l-7 6q-15 35 -97 187.5t-85 165.5l-29 22l7 12l-13 11v6l-22 18h-6q-13 21 -50.5 56t-62.5 51h-12l-23 22l-16 6l-12 13v-6q-18 0 -52.5 21.5t-38.5 23.5h-6q-44 19 -124 43t-115 37l-11 -7
q-27 10 -61.5 14.5t-53.5 5t-67 0t-57 -0.5v-6q-4 2 -16 3t-17 3h-12v-6q-27 -10 -68 -6q7 -9 -3 -9q-5 0 -9 2h-17v-10q-1 -1 -3.5 0.5t-5 3.5t-3.5 2v-6h-22v-6q-128 -28 -170 -51h-13v-6h-16q-31 -15 -158 -130.5t-149 -148.5q-6 -9 -20.5 -34.5t-28 -45t-25.5 -28.5h-6
v-17q-32 -55 -73 -157t-52 -127v-17l-35 -41q3 -1 7.5 2.5t7.5 3.5h4l-7 -10l-18 -6l12 -6l-6 -6l6 -6l-22 -23l10 -16l-10 6v-41l-6 -4l2 -19q0 -54 -22 -170t-25 -137l-17 6v-16l-24 -6l12 -6l-23 -7l-6 -4q-1 0 -3 5.5t-3 5.5l-4 -7l-6 19l-6 4v-33h-13q-4 0 -16 6
q-22 54 -22 121q0 50 9 104.5t19.5 91.5t29.5 99.5t28 95.5q10 6 10 23l6 4v18l6 6q-19 54 55.5 194t175 267t156.5 158h10v6h23l-10 17l22 -17h6l11 -10v10l22 12l23 33l12 6l12 17q35 9 23 24h22l17 11l-6 6h12v6q2 0 5.5 -3t4.5 -3t1 2.5t-1 3.5l-4 4l33 -4l18 22l10 -12
l7 6l16 -16l-16 28v17q3 -8 11.5 -21t10.5 -20h35l-19 -2l35 -8l-6 16l12 -10h7v4l-7 6h29l6 12q-25 6 -59 -2q-4 0 -4.5 -2t6.5 -2l-19 17h-4v-17l-22 29l10 6l16 -6q19 27 178.5 48t227.5 19zM1311 1421l4 -4l4 4l-4 6zM1288 1417l4 -6l4 6l-4 4zM1120 1411l-4 -6l-4 6
l4 6zM1141 1411l4 -6l4 6l-4 6zM1288 1405l4 -6l4 6l-4 6zM1298 1405l5 -6l4 6l-4 6zM1042 1395l5 -6l4 6l-4 4zM1229 1389l4 2l-4 4l-2 -4zM1237 1395l4 -6l4 6l-4 4zM1317 1395l4 -6l4 6l-4 4zM1376 1395h13h-13zM1401 1395l4 -6l4 6l-4 4zM1430 1395l4 -6l4 6l-4 4z
M1567 1395l4 -6l4 6l-4 4zM1141 1389l4 -7l4 7l-4 6zM1282 1389l4 -7l4 7l-4 6zM1311 1389l4 -7l4 7l-4 6zM1360 1389v-7h35l-29 7h-6zM1397 1389l4 -7l4 7l-4 6zM1417 1389l-6 -13h12zM1249 1380v4v-4zM1456 1376l6 -10h6zM1493 1376l4 -6l4 6l-4 6zM1145 1370l4 -4l4 4
l-4 6zM1448 1370l4 -4l4 4l-4 6zM1485 1370l-6 -4l12 -6v6zM1116 1366l4 -6l6 6l-6 4zM1081 1360l6 -6zM1090 1360l4 -6l4 6l-4 6zM1530 1360l6 -6zM1542 1360l17 -17h12v5h-12l-11 12h-6zM895 1354l4 -6l4 6l-4 6zM1065 1354l4 -6l6 6l-6 6zM1518 1352v4l-5 -2zM1577 1354
l4 -6l6 6l-6 6zM864 1348l-4 -5l-4 5l4 6zM940 1348l4 -5l4 5l-4 6zM1028 1346h4h-4zM1042 1348v-5l11 5h-11zM1061 1348l4 -5l4 5l-4 6zM1008 1343v-6l6 -6zM1018 1337l4 2l-4 4l-2 -4zM1624 1343l4 -6l4 6l-4 5zM1663 1343l4 -6l4 6l-4 5zM1587 1337l23 -6l-4 6h-19z
M840 1329l-4 -4l-2 4l2 2zM983 1331l-4 -6l-4 6l4 6zM1532 1325l4 -6l4 6l-4 6zM1552 1319l4 4l-4 2l-2 -2zM1573 1325l4 -6l4 6l-4 6zM1595 1325l4 -6l5 6l-5 6zM1618 1325l4 -6l4 6l-4 6zM850 1319l4 -4l4 4l-4 6zM969 1319l4 -4l4 4l-4 6zM1247 1319l4 -4l4 4l-4 6z
M1260 1319l4 -4l4 4l-4 6zM1368 1319l4 -4l4 4l-4 6zM1675 1319l4 -4l4 4l-4 6zM1788 1319l4 -4l4 4l-4 6zM1004 1315l4 -6l4 6l-4 4zM1481 1313l-4 4l-2 -4l2 -2zM1487 1315l4 -6l4 6l-4 4zM1581 1315l6 -6zM1624 1315l4 -6l4 6l-4 4zM1653 1315l4 -6l4 6l-4 4zM1737 1315
l4 -6l4 6l-4 4zM1810 1315l5 -6zM827 1309l4 -6l5 6l-5 6zM987 1309l4 -6l4 6l-4 6zM1145 1309l4 -6l4 6l-4 6zM1503 1309l4 -6l4 6l-4 6zM1634 1309l4 -6l4 6l-4 6zM1694 1307v4l-4 -2zM1726 1309l5 -6l4 6l-4 6zM784 1303l-4 -7l-4 7l4 6zM924 1303l4 -7l4 7l-4 6z
M963 1303l4 -7l6 7l-6 6zM1657 1303l4 -7l4 7l-4 6zM1708 1303l-12 -7h12v7zM772 1300l2 -4l-2 -2l-4 2zM866 1296l4 -4l4 4l-4 7zM879 1296l4 -4l4 4l-4 7zM1135 1300l4 -4l-4 -2l-2 2zM1741 1296v-4h6v4h-6zM750 1292l-5 -6l-4 6l4 4zM827 1292l4 -6l5 6l-5 4zM844 1292
l4 -6l4 6l-4 4zM1663 1292l4 -6l4 6l-4 4zM1714 1292l4 -6l4 6l-4 4zM1769 1290l-2 4l-4 -4l4 -2zM739 1286l-4 -6l-4 6l4 6zM1694 1284v4l-4 -2zM1735 1286v-6h6zM1755 1286l4 -6l4 6l-4 6zM1837 1268v6l-33 12h-6q6 -4 19.5 -9t19.5 -9zM1829 1286l4 -6l4 6l-4 6z
M733 1280l-4 -6l-4 6l4 6zM821 1280l4 -6l4 6l-4 6zM1720 1280l4 -6l5 6l-5 6zM1755 1274l4 -6l4 6l-4 6zM1782 1274l16 -17l-6 11zM1855 1268l3 4h-5zM1890 1274l-4 2v-4zM705 1268l-5 -4l-4 4l4 6zM1741 1268l6 -11l6 7v4h-12zM1901 1268l6 -4zM1829 1264l4 -7l4 7l-4 4z
M770 1257l4 -6l4 6l-4 7zM1782 1257l-13 -12h23zM1833 1241h10l-22 16h-11q9 -2 23 -16zM1849 1257v-6l6 6h-6zM692 1251l-4 -6l-4 6l4 6zM1872 1251l6 -6zM1890 1251l4 -6l4 6l-4 6zM678 1245l-6 -4l-6 4h12zM705 1245l-5 -4l-4 4l4 6zM684 1223v12l4 6h6zM1708 1241l4 -6
l4 6l-4 4zM1964 1241l4 -6zM659 1229l-4 -12v18h4l13 -6h-13zM1817 1235l4 -6l4 6l-4 6zM1880 1235l4 -6l4 6l-4 6zM647 1229l-4 -6l-4 6l4 6zM1862 1229l-4 2v-4zM1929 1223l2 4l-2 2l-2 -4zM1755 1223l4 -6l4 6l-4 6zM1800 1223l4 -6l4 6l-4 6zM1827 1223v-6l6 -5v5z
M1849 1223v-11l-6 -6l12 -6l7 6zM1907 1223v-6l16 -11zM1939 1217l5 4l-5 2l-2 -2zM1884 1217v-5h4zM1948 1217l4 -5l4 5l-4 6zM852 1212l-4 -6l-4 6l4 5zM1901 1212v-6l6 -6zM1878 1206l10 -16v4zM1792 1194l4 4l-4 2l-2 -2zM1964 1200l4 -6l4 6l-4 6zM1862 1194l4 -4l4 4
l-4 6zM1913 1194l4 -4l4 4l-4 6zM629 1190l4 -6l4 6l-4 4zM645 1190l4 -6l4 6l-4 4zM1155 1184h45v6l29 -12h22l6 12l23 -6l6 -6l6 6h23l6 -6l10 12l19 -8q88 0 106 -2v4q15 -3 41 -11.5t39 -11.5l6 -6q42 -9 137 -45l4 -12l7 6l6 -6v-17h39q0 -16 6 -18l41 -10
q13 -16 45 -40.5t45 -39.5v-17l16 -6q31 -23 72.5 -94t73 -134.5t37.5 -68.5l-5 -4l11 -28l6 -7v-16q10 -15 10 -51l12 -12l23 -52h-10l10 -10l-6 -6q11 -5 18.5 -15t3.5 -20q29 -41 29 -74q-3 -1 -8 3t-8 4v-13l22 -39v33l6 -4l6 -35q20 -14 32 -55t20 -53l-35 -6
q-26 26 -13 28l-10 12v11l-6 -23l6 -28h-41l-4 6l-22 -17q-13 21 -25 68l-22 6l18 -12q-2 -6 1 -11.5t3 -7.5q0 -5 -5 -1l-5 3q-1 0 -6 -3t-6 -3v12l-17 17v6l12 12q-10 -9 -10 1q0 6 4 10l-12 12q2 18 -14.5 44.5t-18.5 39.5l-6 6l-12 35l-10 10l4 12q0 1 -5.5 3t-5.5 3
l7 5l-13 18v6l13 -12q-13 39 -13 57h-10l-12 39l16 -6l-16 18l-6 17l-7 -6q-16 29 -39 85t-28 68v6q-17 37 -42 69t-59.5 69.5t-52.5 60.5h-10q-46 43 -158.5 85t-173.5 36l-4 4h-57l-17 12l-6 -12q-4 1 -21.5 -2t-28.5 -2t-7 10h-39l-12 -6l-39 6l4 -10l-4 -6h-19l-10 -6
h-22l-13 6l-6 -13q-25 -8 -33 -16l-12 6l-22 -12h-7l-10 -10h-6q-23 -8 -53.5 -24t-38.5 -28h-10q-12 -14 -25.5 -26t-38 -31t-28.5 -22v-7h-33v-6q-12 -6 -23 -33l-12 5q9 -18 6 -33l-12 4l12 -16l-18 -7q-36 -83 -97.5 -246t-95.5 -243v-4l-16 -47l-6 -4v-4
q0 -29 -27 -104t-31 -97l-10 -12l-121 -17l-6 10v52q0 39 36.5 151t61.5 152h4l3 8q2 8 10 8v16l-6 7l18 16l-12 6l12 12v5h10l-10 12l16 39l-6 18l13 -6h28l-12 6l-6 14h28l-6 3l-10 22l16 -10l-6 22h6q19 14 35 45v17l17 22l-17 6q39 26 39 52l19 34q6 4 11 16.5t15 12.5
q3 7 -4 33h4l25 -16l-6 12v16l10 -6l-16 18q9 -6 20 -6h8q0 3 -9 10.5t-7 12.5l22 -17l-12 11h12l-12 16h23l-7 19l19 16v6l-12 16l18 -10l-2 6q0 13 10 25t26 25t21 18l-4 6l4 10l19 13h4q2 2 19 18.5t22 20.5t18.5 14.5t24.5 16t24 9.5q10 17 106 50t118 28l16 13h45v6z
M1233 1190l-4 -6l-4 6l4 4zM1354 1190l-4 -6l-4 6l4 4zM1829 1190l4 -6l4 6l-4 4zM1903 1190l4 -6l4 6l-4 4zM1982 1190l5 -6l4 6l-4 4zM610 1184l4 -6l4 6l-4 6zM1858 1184l4 -6l4 6l-4 6zM1935 1184l4 -6zM604 1178l4 -7l6 7l-6 6zM1260 1178l4 -7l4 7l-4 6zM1845 1178
l4 -7l4 7l-4 6zM1907 1171l45 -45q-18 36 -45 52h-13q-1 0 0 -1l2 -1zM1991 1178l12 -7v7h-12zM770 1171l4 -6l4 6l-4 7zM1280 1165l4 4l-4 2l-2 -2zM1448 1171l4 -6l4 6l-4 7zM1481 1171l-4 3v-5zM1536 1171l-6 -6l-4 6l4 7zM1862 1171l4 -6l4 6l-4 7zM1884 1171l4 -10h-4
v-12l4 -6l13 6l12 -6l-25 28h-4zM1952 1171l12 -10zM1174 1165l4 -4l4 4l-4 6zM1327 1165l4 -4l4 4l-4 6zM1507 1165l-2 4l-2 -4h4zM1931 1165l4 -4l4 4l-4 6zM1270 1161l4 -6l6 6l-6 4zM1475 1161l4 -6l6 6l-6 4zM1866 1159l-2 4l-2 -4h4zM1909 1161l4 -6l4 6l-4 4z
M1987 1161l4 -6l6 6l-6 4zM2015 1161l4 -6l4 6l-4 4zM1522 1155l4 -6l4 6l-4 6zM1575 1155l-4 -6l-4 6l4 6zM1442 1149l4 -6l4 6l-4 6zM1853 1149l-4 -6l-4 6l4 6zM1917 1149l6 -6zM1942 1149l4 -6l4 6l-4 6zM1976 1149l4 -6l5 6l-5 6zM1487 1143l4 -4l4 4l-4 6zM1958 1139
l10 -6l-4 6h-6zM2015 1139l4 -6l4 6l-4 4zM1346 1133l4 -7l4 7l-4 6zM1391 1133l4 -7l4 7l-4 6zM1573 1133l4 -7l4 7l-4 6zM1589 1133l4 -7l4 7l-4 6zM1913 1133l4 -7zM1931 1133l4 -7l4 7l-4 6zM1898 1126l-4 -6l-4 6l4 7zM1452 1120l4 -6l4 6l-4 6zM1640 1114l5 -4l4 4
l-4 6zM1667 1110l6 -6zM1927 1104l-4 -6l-4 6l4 6zM1982 1104l5 -6l4 6l-4 6zM1712 1092l-4 -5l-4 5l4 6zM2144 1087l-4 -6l-4 6l4 5zM1298 1081l5 -6l4 6l-4 6zM2005 1081l4 -6l4 6l-4 6zM1094 1075l4 -6l4 6l-4 6zM1151 1075l4 -6l4 6l-4 6zM1237 1075l4 -6l4 6l-4 6z
M1270 1075l4 -6l6 6l-6 6zM1071 1069l4 -6l4 6l-4 6zM1128 1069l5 -6l4 6l-4 6zM1757 1069l-4 -6l-4 6l4 6zM1112 1063l4 -4l4 4l-4 6zM1032 1059l4 -6l4 6l-4 4zM1452 1059l4 -6l4 6l-4 4zM2167 1059l-4 -6l-4 6l4 4zM1100 1053l4 -6l4 6l-4 6zM1055 1047l4 -7l4 7l-4 6z
M1769 1040l-2 4l-4 -4l4 -2zM2077 1036v-6l6 -6zM1772 1030l4 -6l4 6l-4 6zM2066 1024l-4 2v-4zM1778 1018l4 -6l4 6l-4 6zM1804 1018l6 -10v4zM1823 995l4 -6l4 6l-4 6zM2089 995l-4 2v-4zM745 989v-4l7 4h-7zM1837 985l6 -6zM2034 985l4 -6l4 6l-4 4zM2095 985l4 -6l4 6
l-4 4zM2122 985l6 -6zM2089 979l4 -6l6 6l-6 6zM2105 967l2 4l-2 2l-2 -4zM2124 967l4 -6l4 6l-4 6zM711 961l-4 -5l-5 5l5 6zM885 961l4 -5l4 5l-4 6zM1671 961l-4 -5l-4 5l4 6zM1858 961l4 -5l4 5l-4 6zM2136 961l4 -5l4 5l-4 6zM705 956l-5 -6l-4 6l4 5zM2111 956l7 -6z
M2062 950l4 -6l5 6l-5 6zM735 944l4 -6zM741 944l4 -6l5 6l-5 6zM725 938l4 -4l4 4l-4 6zM1880 938l4 -4l4 4l-4 6zM690 934l4 -6l4 6l-4 4zM719 934l4 -6l4 6l-4 4zM2152 934l5 -6l4 6l-4 4zM1880 928l4 -6l4 6l-4 6zM2095 928l4 -6l4 6l-4 6zM2144 870h19l-41 58
q2 -5 9 -26t13 -32zM2204 928l4 -6l4 6l-4 6zM2232 928l4 -6l5 6l-5 6zM713 922l4 -7l4 7l-4 6zM2187 922l4 -7l4 7l-4 6zM694 915l6 -10l7 4zM707 915l4 -6l6 6l-6 7zM1913 909l4 -4l4 4l-4 6zM2191 909l4 -4l7 4l-7 6zM791 905l6 -6zM1890 905l4 -6l4 6l-4 4zM1909 905
l4 -6l4 6l-4 4zM659 899l7 -6l-11 6h4zM676 899l-4 -6l-4 6l4 6zM690 899l4 -6l4 6l-4 6zM1200 899q16 0 52.5 -7t56.5 -5v6q10 -2 42 -6.5t50 -9.5l4 -7h-23q38 0 70 -16l4 10l12 -16l39 -12l6 6l7 -11l22 -18l12 -29l23 -10l-18 17l12 6h22v-17l-12 11h-4l10 -17v-6
l29 -12h-10l26 -11l6 7l-32 28l4 11l6 -11l29 -24v18l22 -29v7q40 -1 101.5 -115t130.5 -284t69 -171l-4 -6q-98 -12 -143 -12l-23 2q-26 49 -58.5 145t-49.5 133v5q-76 140 -170 245h-7l-16 23h-18q-10 8 -89 23.5t-110 43.5h-2q-4 0 -1 -2l2 -2h1v-18l-10 12
q-49 -6 -99 -6l13 12h-17l-12 -12q-11 3 -51 -12q-53 -18 -91 -44t-64 -61t-43 -67t-41.5 -80t-45.5 -82q-9 3 -9 -5t3 -14l-16 -6v-26l-11 -19l5 -6q-19 -13 -23 -51l-23 -10v-6l-16 -7v-10l6 6h10l7 -12l-13 -6l-22 18v-18q9 0 10.5 -6t-4.5 -11q6 -10 3.5 -20t-15.5 -2
l-4 -6v-17l16 -18v-4l-12 -12v-7l-17 13l17 -23v-6l-11 10v-4l11 -28l-17 -41l6 -5l-6 -6q-56 -18 -114 -18h-23l-4 6q7 46 22 74q-8 12 1.5 14.5t15.5 -2.5l6 6l-12 17l12 -7v41l10 29h19l-13 10l7 17q2 -1 4 0t2.5 3t-0.5 3h16l-6 22q2 -1 18 7v8q0 76 19.5 143.5
t49 113.5t59 82t53 65.5t28.5 47.5l19 6v7q24 36 32 28l29 27v6h19l10 18q113 68 227 68zM1919 899l4 -6l4 6l-4 6zM2165 899l4 -6l4 6l-4 6zM2191 899l4 -6l7 6l-7 6zM2265 899v-6h6zM684 893l4 -6l4 6l-4 6zM702 893l5 -6l4 6l-4 6zM782 893l4 -6l5 6l-5 6zM1290 893
l-4 -6l-4 6l4 6zM1909 893l4 -6l4 6l-4 6zM2181 893l4 -6l4 6l-4 6zM666 887l-7 -4l-4 4l4 6zM696 887l4 -4l5 4l-5 6zM2238 887l5 -4l4 4l-4 6zM653 883l-4 -6l-4 6l4 4zM680 883l4 -6l4 6l-4 4zM770 883l4 -6l4 6l-4 4zM1298 883l5 -6l4 6l-4 4zM1321 883l4 -6l6 6l-6 4z
M1896 883l5 -6l4 6l-4 4zM1919 883l4 -6l4 6l-4 4zM2159 883l4 -6l4 6l-4 4zM2208 883v-6q0 -7 15 -32.5t20 -25.5h10q6 0 1 3q-8 5 -7 9q1 1 4 2t5.5 1.5t2.5 1.5v12q0 6 -12 0q-1 -1 0 -3q-1 -2 -4 -3l-13 6l6 6zM2216 883l4 -6l4 6l-4 4zM2261 883l4 -6l4 6l-4 4z
M678 877l-6 -7v-6l6 -6v6l6 6zM690 877l4 -7l4 7l-4 6zM1350 877l-4 2v-5zM2185 877l10 -7l-4 7h-6zM653 870l-4 -6l-4 6l4 7zM1270 870l4 -6l6 6l-6 7zM1438 870l-4 -6l-4 6l4 7zM1915 868v4v-4zM2173 870v-12l6 -4zM2236 870l7 -12h10l18 -16v6l-24 22h-11zM1321 864l4 -6
zM1925 864l4 -6l4 6l-4 6zM2292 864l-4 -6l-4 6l4 6zM1339 858l4 -4l5 4l-5 6zM2163 858l10 -10zM2202 858l6 -10v6zM2271 858l4 -4l4 4l-4 6zM772 854l-4 -6l-4 6l4 4zM1362 854l4 -6l4 6l-4 4zM1470 856l5 -4l-5 -2l-2 2zM1511 854l-4 -6l-4 6l4 4zM2296 850l-4 -2l-2 2
l2 4zM655 848l4 -6l7 6l-7 6zM1501 848l-4 -6l-4 6l4 6zM1935 848l4 -6l7 6l-7 6zM2163 842l2 4l-2 2l-2 -4zM2308 848l-4 -6l-4 6l4 6zM762 842l-4 -6l-4 6l4 6zM1368 836l4 -5l4 5l-4 6zM1430 836l4 -5l4 5l-4 6zM1536 825l-6 6v5zM1815 836l-5 -5l-4 5l4 6zM1956 834h4
h-4zM2169 836l4 -5l4 5l-4 6zM2214 836l-4 4l-2 -4l4 -2zM2277 836l4 -5l5 5l-5 6zM748 827h-5l2 4zM1333 831l4 -6l4 6l-4 5zM1401 831l4 -6zM1411 831l6 -6h10l-4 6h-12zM1446 831l-23 -24l4 -4h25l-12 4l12 12v6zM2181 831l4 -6l4 6l-4 5zM2308 831l-4 -6l-4 6l4 5z
M1384 825l5 -6l4 6l-4 6zM1462 825l-6 -18l12 -10h17l6 -6h35l22 -17l-12 23l-57 28h-17zM1575 825l-4 -6l-4 6l4 6zM2261 825l4 -6l4 6l-4 6zM2284 825l4 -6l4 6l-4 6zM1368 819l4 -6l4 6l-4 6zM1948 819l4 -6l4 6l-4 6zM2224 752h6v4l-28 41l6 10l-23 12q25 -57 39 -67z
M2275 819v-6h6zM2294 819l4 -6l6 6l-6 6zM1391 813l4 -6l4 6l-4 6zM1411 813v-6h6zM1485 807h-10l4 6h6q6 0 18 -6l-6 -4zM1839 813l4 -6l4 6l-4 6zM2210 813l4 -6l4 6l-4 6zM2265 813l-6 -6l12 -4h4zM1565 807h16h-16zM2230 807l-2 4l-4 -4l4 -2zM604 803l4 -6l6 6l-6 4z
M1356 803l4 -6l4 6l-4 4zM1372 803l4 -19l-16 -10q5 -2 13.5 -5.5t21.5 -8t21 -4t11 5.5l19 -10q2 0 4.5 3.5t1.5 6.5l10 -23h23l6 13l-29 32v-2q0 -8 -16 -8v10l-25 11q0 -15 -8 -15l-8 4v19l-16 -29h-7v17zM1606 803l4 -6zM2220 803v-6l4 -6zM2300 803l4 -6l4 6l-4 4z
M596 797l-4 -6l-4 6l4 6zM1311 797l4 -6l4 6l-4 6zM2243 797v-23l10 -12h6zM2253 797l6 -6zM2284 797l4 -6l4 6l-4 6zM614 791v-7h7v7h-7zM1227 788v5l-4 -2zM1851 791l4 -7l5 7l-5 6zM1874 791l4 -7l4 7l-4 6zM2267 791l4 -7l4 7l-4 6zM592 774l-6 6l6 4v-10zM1145 784
l4 -4l4 4l-4 7zM1186 784l4 -4l4 4l-4 7zM1294 784l4 -4l5 4l-5 7zM1309 784v-10l6 -6zM1470 784l5 -4l4 4l-4 7zM1481 784l4 -4l4 4l-4 7zM1503 784l4 -4l4 4l-4 7zM1520 784l6 -4zM1868 784l4 -4l4 4l-4 7zM2249 784l4 -4l4 4l-4 7zM1219 780l4 -6l6 6l-6 4zM1243 780
l4 -6l4 6l-4 4zM1325 774l4 2l-4 4l-2 -4zM1632 780l-4 -6l-4 6l4 4zM2230 780v-6l6 -6zM2281 780l7 -12v6zM1401 774h10h-10zM1427 774l-4 -6l-4 6l4 6zM1606 774l4 -6l4 6l-4 6zM1931 774l4 -6l4 6l-4 6zM578 770l4 -2l-4 -2v4zM1346 768l4 -6l4 6l-4 6zM1505 766v4v-4z
M1862 768l4 -6l4 6l-4 6zM1368 762l4 -6l4 6l-4 6zM1466 762l-4 -6l-4 6l4 6zM1497 729h10l23 10l-33 23h-6l10 -25q1 -1 -3 -5q-3 -3 -1 -3zM1544 762l4 -6l4 6l-4 6zM1573 762l4 -6l4 6l-4 6zM1665 762l-4 -6l-4 6l4 6zM569 745h-6l6 11v-11zM1475 756l4 -4zM1516 756
l4 -4l4 4l-4 6zM1530 752l4 2l-4 2v-4zM2271 711h23l-47 45h-4l4 -4v-13q11 -7 24 -28zM1683 752l-4 -7l-4 7l4 4zM1511 745l-4 -6l-4 6l4 7zM1647 745l4 -6l4 6l-4 7zM1896 745l5 -6l4 6l-4 7zM2261 745l4 -6l4 6l-4 7zM930 739l4 -6l4 6l-4 6zM1448 739l4 -6l4 6l-4 6z
M1657 739l4 -6l4 6l-4 6zM1880 739l4 -6l4 6l-4 6zM1890 739l4 -6l4 6l-4 6zM2230 739v-6h6l11 -4l-11 10h-6zM2271 739l4 -6l4 6l-4 6zM2341 739l4 -6l4 6l-4 6zM1647 733l4 -4l4 4l-4 6zM1907 733l-6 -4l16 -12zM2294 733l4 -4l6 4l-6 6zM563 729l-6 -6l-4 6l4 4z
M1516 729l4 -6l4 6l-4 4zM2288 727l-2 4l-5 -4l5 -2zM2341 729l4 -6l4 6l-4 4zM1894 723v-6l7 -6zM2234 721v4l-4 -2zM1903 717l4 -6l4 6l-4 6zM2243 717l4 -6l6 6l-6 6zM1501 711l-4 -6l-4 6l4 6zM2238 711l5 -6l4 6l-4 6zM1913 705l-6 -5v-6l10 -6v17h-4zM1976 705l4 -5
l5 5l-5 6zM2249 705l4 -5l4 5l-4 6zM2277 705l4 -5l5 5l-5 6zM543 696h-4l2 4zM563 700l-6 -6l-4 6l4 5zM2261 700l4 -6l4 6l-4 5zM2298 700v-6l6 -6zM354 694l4 -6l4 6l-4 6zM1925 694l4 -6l4 6l-4 6zM2284 694l4 -6l4 6l-4 6zM348 688l4 -6l6 6l-6 6zM2249 688l4 -6l4 6
l-4 6zM2267 688l4 -6l4 6l-4 6zM2370 688l4 -6l4 6l-4 6zM834 682l4 -4l4 4l-4 6zM1929 682l6 -10v-6l-6 -13v-4h6l17 10l-17 23h-6zM2277 682l4 -4l5 4l-5 6zM528 678l-4 -6l-4 6l4 4zM539 678l-4 -6l-5 6l5 4zM571 678l4 -6l5 6l-5 4zM1917 678v-6h12zM1993 672l4 -6l4 6
l-4 6zM2298 672l-4 -6h4v6zM549 666l4 -7l4 7l-4 6zM344 659l4 -6l4 6l-4 7zM2310 659v-10v10zM2284 653l4 -4l4 4l-4 6zM2011 649l4 -6l4 6l-4 4zM518 643h12h-12zM1952 643l-6 -6v-10l6 -6v22zM1960 643l4 -6l4 6l-4 6zM2028 643l4 -6l4 6l-4 6zM293 637l4 -6l4 6l-4 6z
M332 637l4 -6l4 6l-4 6zM352 637v-6l6 6h-6zM2318 637l4 -6l5 6l-5 6zM330 631l6 -4h6zM512 631l-6 -4l-4 4l4 6zM1925 631l4 -4l4 4l-4 6zM1960 631l4 -4l4 4l-4 6zM1976 631l4 -4l5 4l-5 6zM2062 631l4 -4l5 4l-5 6zM2294 631l4 -4l6 4l-6 6zM242 627l4 -6l4 6l-4 4z
M360 627l5 -6l4 6l-4 4zM526 627l4 -6l5 6l-5 4zM315 621l4 -7l5 7l-5 6zM512 621l-6 -7l-4 7l4 6zM522 621l-4 -7l-4 7l4 6zM1960 621l4 -7l4 7l-4 6zM342 614l6 -6zM358 608l4 4l-4 2l-2 -4zM1942 614l4 -6l4 6l-4 7zM1970 614l4 -6l4 6l-4 7zM1954 608l4 -6l4 6l-4 6z
M264 602l4 -4l4 4l-4 6zM1939 602v-4l7 4h-7zM1976 602l4 -4l5 4l-5 6zM307 598l12 -18l7 6zM1987 598l4 -6l6 6l-6 4zM2093 598l-4 -6l-4 6l4 4zM348 592l4 -6l6 6l-6 6zM494 592l-5 -6l-4 6l4 6zM1954 592l4 -6l4 6l-4 6zM1964 592l4 -6l4 6l-4 6zM270 586l4 -6l5 6l-5 6z
M303 586l4 -6l4 6l-4 6zM1993 586l4 -6l4 6l-4 6zM301 580v-5l12 -6zM483 580l-4 -5l-4 5l4 6zM1954 580l4 -5l4 5l-4 6zM274 575l5 -6l4 6l-4 5zM324 563l4 2l-4 4l-2 -4zM338 569l4 -6l4 6l-4 6zM2097 565l-4 -2l-2 4l2 2zM219 563l4 -6l4 6l-4 6zM291 563l10 -12v-23
l12 13v6l-6 10l-10 6h-6zM1964 563l4 -6l4 6l-4 6zM1976 563l4 -6l5 6l-5 6zM2056 563l4 -6l4 6l-4 6zM258 557l4 -6l4 6l-4 6zM334 549h4h-4zM1982 551l5 -4l4 4l-4 6zM2103 551l-4 -4l-4 4l4 6zM258 547l4 -6l4 6l-4 4zM287 547l4 -6l4 6l-4 4zM471 541l-4 -6l-4 6l4 6z
M1974 535l2 4l-2 2l-2 -4zM281 528l4 -4l4 4l-4 7zM2085 528l4 -4l4 4l-4 7zM326 524l4 -6l4 6l-4 4zM469 524l4 -6l4 6l-4 4zM1976 524l4 -6l5 6l-5 4zM2116 524l-5 -6l-4 6l4 4zM281 518l4 -6l4 6l-4 6zM297 518v-12l4 -10v10zM303 518l4 -6l4 6l-4 6zM322 518l4 -6l4 6
l-4 6zM1987 518l4 -6l6 6l-6 6zM2093 518v-12v12zM213 512l4 -6l4 6l-4 6zM274 512l5 -6l4 6l-4 6zM201 506l4 -6l4 6l-4 6zM242 506l4 -6l4 6l-4 6zM309 506l4 -6l4 6l-4 6zM1999 506l4 -6l4 6l-4 6zM287 500l4 -4l4 4l-4 6zM457 500l4 -4l4 4l-4 6zM1964 500l4 -4z
M1976 500l4 -4l5 4l-5 6zM2111 500l7 -4zM1987 496l4 -7l6 7l-6 4zM252 489l4 -6l4 6l-4 7zM264 489l4 -6l4 6l-4 7zM291 489l6 -6zM451 489v-22h4q1 0 1 2.5t-1 3.5zM463 489l4 -6l4 6l-4 7zM2099 489l6 -6zM2447 489l4 -6zM2056 483l4 -6l4 6l-4 6zM266 475h4h-4z
M2011 477l4 -4l4 4l-4 6zM2447 477l4 -4zM281 473l4 -6l4 6l-4 4zM229 467l4 -6l5 6l-5 6zM2011 467l4 -6l4 6l-4 6zM2093 467v-6l6 6h-6zM2107 467l4 -6l5 6l-5 6zM178 461l4 -6l4 6l-4 6zM281 461l4 -6l4 6l-4 6zM330 461l-4 -6l-4 6l4 6zM451 455l4 -6l6 6l-6 6z
M2122 455l6 -11h6zM270 449l4 -5l5 5l-5 6zM2114 449l4 -5l4 5l-4 6zM2462 453l2 -4l-2 -3l-4 3zM281 444l4 -6l4 6l-4 5zM1993 444l4 -6l4 6l-4 5zM2015 444l4 -6l4 6l-4 5zM2056 438l4 -6l4 6l-4 6zM2118 438l4 -6l4 6l-4 6zM311 432l-4 -6l-4 6l4 6zM440 432l4 -6l5 6
l-5 6zM2003 432v-6l6 -4v10h-6zM2122 426v-4l6 -6zM2134 426v-4l6 -6v6zM242 422l4 -6l4 6l-4 4zM430 414v4v-4zM2447 416l4 -6l7 6l-7 6zM2009 410l6 -13v13h-6zM2105 397l2 4h-4zM2140 403l-6 -6l10 -4l-4 -12l4 -16q6 12 6 16v12zM2464 393l6 -6zM272 381l4 4l-4 2l-2 -4
zM2015 387l4 -6l4 6l-4 6zM2454 387l4 -6l4 6l-4 6zM2130 381l4 -6l4 6l-4 6zM2159 381l4 -6l4 6l-4 6zM2490 381l-4 -6l-4 6l4 6zM2466 375l4 -4l4 4l-4 6zM424 371l4 -6l4 6l-4 4zM2028 371l4 -6l4 6l-4 4zM2462 367h4l-2 4zM301 365l-4 -7l-4 7l4 6zM2497 365l-5 -7l-4 7
l4 6zM422 358l-6 -6h6v6zM2032 358v-6h6zM2124 358l4 -6l4 6l-4 7zM2169 346v-4l-6 10zM2150 346v-10v10zM2466 346l4 -4l4 4l-4 6zM2042 336l4 2l-4 4l-2 -4zM410 336h12h-12zM2060 330l2 4l-2 2l-2 -4zM2474 324l4 4l-4 2l-2 -2zM403 324h13h-13zM653 324l-4 -5l-4 5l4 6z
M791 324l-5 -5l-4 5l4 6zM2044 324l4 -5l4 5l-4 6zM2066 324l5 -5l4 5l-4 6zM2150 319l4 3l-4 2v-5zM2036 319l-4 -6l-4 6l4 5zM406 313l4 -6l4 6l-4 6zM2050 313l4 -6l4 6l-4 6zM2165 313l4 -6l4 6l-4 6zM2202 313l-7 -6l-4 6l4 6zM2480 307l4 2l-4 4l-2 -4zM389 307l4 -6
l4 6l-4 6zM2071 307v-6h6zM2157 307v-6h12l-6 6h-6zM662 301l4 -6l4 6l-4 6zM754 301l4 -6l4 6l-4 6zM1909 301l4 -6l4 6l-4 6zM2048 301l-6 -6l-4 6l4 6zM2107 301l4 -6l5 6l-5 6zM2150 295l7 -4zM2187 295l4 -4l4 4l-4 6zM389 291l4 -6l4 6l-4 4zM2077 291v-6l6 -13h6z
M2107 291l4 -6l5 6l-5 4zM2173 291l6 -6zM2484 287h4l-2 4zM637 285l-4 -6l-4 6l4 6zM684 285l4 -6l4 6l-4 6zM760 276l-4 -4l-2 4l2 3zM2152 279l5 -7l4 7l-4 6zM2165 279l4 -7l4 7l-4 6zM2490 270h4h-4zM651 268l4 -6l4 6l-4 4zM2130 268l4 -6l4 6l-4 4zM2165 268l4 -6
l4 6l-4 4zM2181 268l4 -6l4 6l-4 4zM639 262l4 -6l4 6l-4 6zM2085 262l4 -6l4 6l-4 6zM2525 262l-4 -6l-4 6l4 6zM2128 256l12 -6l-6 6h-6zM2140 256l4 -6l6 6l-6 6zM2152 256l5 -6l4 6l-4 6zM2167 250l4 4l-4 2l-2 -4zM2181 256l4 -6l4 6l-4 6zM702 250l5 -6l4 6l-4 6z
M2060 250l11 -6l-5 6h-6zM2122 250v-17v17zM2494 250l5 -6l4 6l-4 6zM696 244l4 -4l5 4l-5 6zM2509 240l4 2l-4 2v-4zM2529 242l-4 -2v4zM2136 240l4 -7l4 7l-4 4zM2191 240l4 -7l7 7l-7 4zM629 233l4 -6l4 6l-4 7zM711 233l6 -12v6zM2159 233l4 -6l4 6l-4 7zM2503 233l6 -6
zM702 227l5 -6l4 6l-4 6zM2150 227v-6l7 -4zM651 221l4 -4l4 4l-4 6zM739 221l-4 -4l-4 4l4 6zM2128 221l6 -10h6l-6 10h-6zM2505 221l-4 4l-2 -4l2 -2zM633 217l4 -6l4 6l-4 4zM2087 217l-4 -6l-4 6l4 4zM2165 217l4 -6l4 6l-4 4zM614 211v-12h7l6 6zM2195 205l5 2l-5 4
l-2 -4zM750 205l-5 -6l-4 6l4 6zM2081 205l-4 -6l-4 6l4 6zM2093 205l-4 -6v6h4zM2169 205l4 -6l4 6l-4 6zM2124 199l4 -6l4 6l-4 6zM723 182h-6v11h6v-11zM604 188l4 -6l6 6l-6 5zM623 188l4 -6l4 6l-4 5zM674 188l4 -6l4 6l-4 5zM2091 190l4 -4l-4 -2l-2 2zM700 176l2 4
l-2 2l-2 -4zM590 166l-4 -6l-4 6l4 4zM616 166l5 -6l4 6l-4 4zM680 166l4 -6l4 6l-4 4zM707 164l-5 4l-2 -4l2 -2zM674 160l4 -6l4 6l-4 6zM684 147l4 -6l4 6l-4 7zM582 125l4 -6l4 6l-4 6zM600 125l4 -6l4 6l-4 6zM688 109l4 2l-4 4l-2 -4zM721 115l-4 -6l-4 6l4 4zM223 96
l4 -6l4 6l-4 6zM582 96l4 -6l4 6l-4 6zM688 86l4 2l-4 2v-4zM223 80l4 -6l4 6l-4 6zM680 63l4 -6l4 6l-4 5zM172 57l-6 -6l16 -6zM199 57l6 -6zM662 57l4 -6l4 6l-4 6zM139 45l4 -6l4 6l-4 6zM424 39l4 -4l4 4l-4 6zM178 35l4 -6l4 6l-4 4zM139 29l4 -6l4 6l-4 6zM348 29
l4 -6l6 6l-6 6zM418 29l4 -6l4 6l-4 6zM133 23l4 -7l4 7l-4 6zM176 6l-4 -6l-4 6l4 6z" />
    <glyph glyph-name="eight" unicode="8" horiz-adv-x="2813" 
d="M227 354q0 87 57 184.5t148.5 164.5t179.5 67q21 0 55 -20.5t50 -38.5q6 -17 4 -23q-4 -5 -8.5 -21.5t-3.5 -21.5l8 -16v-191q0 -15 11 -71t9 -68q9 -18 17.5 -30t14 -17t26.5 -23h4q10 0 32 77t19 102q6 8 14 38q29 119 39 148q4 12 21.5 36t21.5 42q29 33 44 47
t43.5 26t64.5 9q33 -11 51 -34.5t32 -60t25 -53.5q31 80 126 176t163 88q42 -5 64 -13.5t45 -33.5q3 -16 21 -46t22 -46q92 -289 92 -463q0 -6 -13.5 -21t-21.5 -18h-18q-2 0 -8 2t-9 2q-29 22 -31 58l-8 12q2 20 -4.5 56.5t-7.5 48.5l-10 12q-3 61 -33.5 180.5t-56.5 161.5
l-17 8q-63 -17 -109.5 -67.5t-91.5 -127.5l-4 -24q-1 -2 -11 -18.5t-15 -26.5v-21q-12 -24 -20.5 -91t-35.5 -95q-10 -8 -38 -8q-7 0 -19 4l-20 20q-4 19 -11.5 105.5t-20 150t-34.5 78.5q-34 -22 -58 -67t-34 -85.5t-22 -100.5t-19 -85q-3 -10 -12.5 -32.5t-15.5 -41.5
t-7 -34q-26 -51 -82 -78h-45q-66 29 -107.5 90t-47.5 135q0 6 0.5 17t0.5 17.5t-1 15.5t-5 16l-4 4q-1 0 -3.5 -8t-5 -18.5t-3.5 -12.5q-1 -1 -14 -25t-26 -45.5t-17 -23.5q-13 -56 -76 -91.5t-123 -35.5q-16 0 -30 4.5t-22 8t-19 17t-13.5 16.5t-15 23.5t-13.5 22.5
q1 20 -1.5 54.5t-2.5 47.5zM1855 625q0 87 66.5 172.5t151.5 68.5q2 -1 15.5 -4t23.5 -6t20.5 -7.5t13.5 -8.5l13 -4q18 -13 34 -40t21 -51q6 2 6 13l-6 8q3 23 -4.5 79.5t-7.5 72.5q0 6 -4 14q4 21 12 81.5t15.5 108t24.5 109.5t38.5 103.5t58.5 70.5t84 29q34 0 61 -62
q5 -68 5 -80q0 -80 -54.5 -286t-97.5 -240q-8 -20 -8 -29q0 -21 8 -49q15 -19 39.5 -53.5t38 -51.5t40.5 -41.5t60 -43.5q9 -5 33.5 -14t34.5 -17q8 0 24.5 -2t24.5 -2q5 0 24 15.5t27 23.5q18 7 35 4l22 -17v-30q0 -28 -14 -48.5t-37 -31t-46.5 -15t-49.5 -4.5
q-75 0 -194 99t-144 170h-4q-3 -3 -20 -24t-21 -26t-19.5 -23t-22.5 -24.5t-22 -21t-25 -21.5t-24.5 -17t-29 -17t-29.5 -13q-13 2 -43 -8q-70 6 -113 55q-2 5 -5.5 13.5t-5.5 14t-6 12.5t-9 12q-1 12 -5 39t-4 45zM336 346v-78q1 -3 12 -8h31l20 8q50 42 79.5 101.5
t55 130.5t52.5 114q-1 9 7 27t7 27h-35q-54 -24 -88 -58t-68.5 -89.5t-56.5 -82.5q-1 -11 -8.5 -43.5t-7.5 -48.5zM1976 698q-12 -24 -12 -57v-35l4 -8v-35l12 -22q12 -4 35 -4q26 0 84.5 54.5t63.5 76.5v8q-24 6 -43 38.5t-27 39.5l-25 8q-16 -1 -24 -4t-15.5 -8t-17.5 -9
q-3 -7 -16 -22.5t-19 -20.5zM2396 1294q-35 -24 -65 -163t-21 -187l4 -8q3 0 4.5 5t-0.5 7q22 37 38.5 125t35.5 119q-1 16 2.5 49.5t1.5 52.5z" />
    <glyph glyph-name="nine" unicode="9" horiz-adv-x="2746" 
d="M125 592q-19 10 -26.5 15.5t-12.5 18t-2 33.5q6 20 27 37q33 18 109.5 29.5t103.5 22.5q-3 41 1 90t12 110t11 90q12 12 25 52l8 10q3 1 11.5 3.5t16 4t11.5 0.5l22 -8q13 -10 25 -35v-14q0 -37 -13.5 -122t-11.5 -132q-4 -6 -4 -21l4 -8q313 84 545 84q9 0 25 -4l14 -10
l8 -19v-8q0 -10 -4 -14q-8 -10 -17.5 -18t-23.5 -15t-21.5 -10t-26 -10t-23.5 -9q-17 1 -50 -4.5t-47 -5.5q-5 -4 -48.5 -12.5t-92.5 -16.5t-57 -10l-5 -4q-34 -3 -95.5 -16t-88.5 -17q-3 -5 -5 -13.5t-2 -15.5t0.5 -18t0.5 -14q0 -61 8.5 -122.5t30 -127t53.5 -115.5
t84.5 -82t118.5 -32q38 0 112 44t91 78q60 37 121 136t96 207t28 174q25 31 25 313q0 8 2 26t2 27l29 27q14 6 43 6l33 -33q5 -10 7.5 -29.5t3.5 -48t1.5 -48t0 -50t-0.5 -33.5l2 -246q20 16 44.5 47t42 54.5t47.5 42.5t65 20l43 -8q39 -29 58 -109t29.5 -192t20.5 -154
q19 -19 21 -32q28 -32 56 -39.5t81 -7.5q6 0 23 4t24 4q15 11 65 28v15q0 15 -9 55.5t-9 63.5q0 36 16.5 132.5t12.5 131.5q4 12 8 14l29 72q25 17 75 80q38 18 82 18q36 0 61 -22.5t36 -59.5t15.5 -69t4.5 -66q0 -83 -57.5 -211.5t-120.5 -181.5v-8q3 -10 9 -20t15 -21.5
t13 -16.5l43 -24q14 -1 43.5 -8t46.5 -7q30 0 54.5 7.5t53 20.5t47.5 19q8 11 31.5 26t26.5 17q18 14 53.5 82.5t44.5 98.5q6 17 7 54.5t7 53.5q17 25 29 29h21q13 0 22 -6.5t18.5 -19t14.5 -17.5v-80q0 -58 -67.5 -165t-121.5 -152q-25 -20 -78.5 -40t-72.5 -32
q-85 -9 -96 -8q-4 1 -29 5t-29.5 3.5t-29.5 -0.5q-36 24 -64 24q-13 12 -41 31.5t-44 38t-23 49.5q-16 -7 -60.5 -21.5t-62.5 -25.5q-13 1 -34.5 -2.5t-31.5 -3.5q-75 0 -126.5 26.5t-77 66t-40.5 99t-18 111.5t-8.5 118t-14.5 105l-4 4q-49 -20 -88.5 -80t-62.5 -132.5
t-39.5 -142.5t-27.5 -120t-19 -55h-37q-26 6 -37 41.5t-10.5 71.5t4.5 83t4 52l-4 -6q-10 -21 -50 -82.5t-50 -91.5q-3 -3 -42 -40t-73.5 -70.5t-36.5 -37.5q-99 -43 -137 -76q-14 -1 -65.5 -7.5t-82.5 -6.5q-8 0 -26 5.5t-29 4.5q-20 6 -52 28t-44 28q-14 23 -58.5 85.5
t-64.5 104.5q-8 19 -20.5 68t-26.5 73q2 29 -7.5 88.5t-7.5 87.5l-4 11v37l-4 4h-14q-11 -6 -83 -20t-89 -13zM2034 440q0 -2 6 -32l14 10q35 52 66.5 130.5t31.5 129.5v47l-14 51q-2 6 -14 6l-29 -28q-2 -18 -31.5 -101.5t-29.5 -140.5v-72z" />
    <glyph glyph-name="colon" unicode=":" horiz-adv-x="1212" 
d="M53 1022v31q0 1 1 5.5t1 6.5q5 7 33 18h14q15 -8 120 -72t192 -114.5t94 -48.5q18 -12 27 -12v32q0 60 -13.5 182.5t-13.5 184.5q0 101 8 135q6 9 23 21h16q4 0 12 -2.5t11 -2.5q6 -4 15.5 -17.5t12.5 -16.5q1 -8 -3.5 -23.5t-4.5 -21.5q0 -260 27 -426l4 -4q2 0 4.5 4
t4.5 8.5t3 5.5q100 117 102 133q38 56 113 127v10q13 12 73 88t114.5 131t80.5 50q32 -16 35 -29v-27q-16 -24 -61.5 -65.5t-59.5 -63.5q-32 -49 -196 -242.5t-185 -240.5v-8q13 -11 83 -55t85 -48q3 -5 74.5 -53.5t83.5 -52.5q9 -10 40.5 -39.5t45.5 -50.5q6 -23 4 -31
q-10 -10 -16 -12h-15q-10 0 -198 114t-203 129v-12q0 -12 2.5 -45t1.5 -53l4 -6q-1 -16 3 -73t6 -95.5t-1 -57.5q13 -38 13 -174q0 -108 -19 -133q-7 -10 -18 -10q-3 0 -9 5.5t-10 11t-9.5 13.5t-6.5 9q-14 23 -28 282t-23 300q-314 -423 -330 -488q-2 -2 -16.5 -21
t-22.5 -26q-16 -4 -28 -4q-16 8 -19 12q-8 13 -8 51q5 15 25.5 51.5t29.5 43.5q2 30 66 102l4 12q24 19 138.5 193.5t129.5 183.5q-15 17 -50.5 34t-47.5 28q-4 0 -86 47q-2 2 -6.5 6t-6.5 6q-27 4 -137.5 75t-128.5 95zM551 629q-2 0 -2 -4t2 -4t2 4t-2 4z" />
    <glyph glyph-name="semicolon" unicode=";" horiz-adv-x="1302" 
d="M301 881q-13 13 -78.5 64t-112 95.5t-42.5 65.5l10 18l14 6h21q18 -7 77.5 -53.5t85.5 -70.5l11 -5q44 -33 130.5 -110t133.5 -111q10 73 17.5 258.5t27.5 280.5q16 52 10 80q8 16 24 26t34 9l16 -11q6 -8 10 -28l-6 -15q-4 -38 -20 -158.5t-22.5 -203t-2.5 -158.5l-4 -8
q3 -21 -4 -45l4 -14q3 2 15 19.5t25 37.5t15 22q12 17 52 76t58 84t51 70t62 80.5t60 70.5q17 4 26 2q17 -3 25 -16q7 -14 4 -25l-6 -18q-28 -28 -190.5 -257.5t-167.5 -246.5v-6q23 -28 98.5 -91t167.5 -135t108 -85l11 -2q9 -11 64.5 -55t57.5 -50q29 -16 65 -56t32 -67
l-4 -2h-31q-20 0 -90.5 53t-146.5 115t-93 72q-5 10 -60 50t-65 59q-16 4 -80 60t-73 56l-4 -6q6 -61 -12 -243t-44 -203h-14q-6 7 -10.5 18.5t-7 28.5t-4.5 30t-2.5 34.5t-0.5 31v31v22.5q0 22 7 75.5t6 80.5q-5 -4 -48 -66t-83.5 -122.5t-40.5 -61.5q-18 -20 -59.5 -85.5
t-81 -115.5t-70.5 -57q-25 8 -29 20v15q0 26 202 306.5t216 320.5v14q-11 16 -124 109.5t-120 95.5z" />
    <glyph glyph-name="less" unicode="&#x3c;" horiz-adv-x="1255" 
d="M29 424q-4 10 -4 35q9 24 98.5 54t105.5 42l23 4q10 6 45.5 19t48.5 24q13 1 35 11.5t33 11.5q3 4 16 9.5t29 10t20 6.5q12 5 67 31.5t85 34.5q-40 54 -117 131.5t-142 151t-100 145.5v31q3 10 13.5 16t21.5 6t27 -4q22 -19 43.5 -46t45.5 -61t38 -51q85 -103 219 -237h4
q7 12 30.5 75.5t45.5 122t24 60.5q5 44 76.5 193.5t75.5 168.5q4 5 18 15h23q8 0 16 -4l15 -11l4 -8v-27q-13 -23 -36.5 -86.5t-43.5 -91.5q0 -10 -40 -113.5t-46 -109.5q-1 -15 -35.5 -105t-40.5 -100v-4h2q17 6 116 47.5t173 64.5t113 19q8 -2 20 -14v-8q0 -2 -2 -6.5
t-2 -6.5q-33 -40 -194.5 -102.5t-180.5 -73.5h-10q-14 -7 -12 -12q28 -33 121.5 -121.5t173 -170.5t98.5 -124v-22q-3 -10 -14 -17.5t-21 -7.5q-2 0 -6 2t-6 2q-7 7 -34.5 29t-47.5 40.5t-25 31.5q-18 7 -152 140.5t-161 168.5l-4 4l-4 -4q-32 -99 -54 -131v-8
q-16 -26 -61 -148.5t-91.5 -228t-78.5 -117.5h-12q-7 0 -11 4q-6 5 -20 23v34q20 27 86.5 190t75.5 204l8 8q4 16 20.5 52t18.5 58q1 2 6 10t8 14.5t2 10.5q-43 -4 -120.5 -36.5t-148.5 -69t-148.5 -66.5t-122.5 -30q-21 0 -39 18z" />
    <glyph glyph-name="equal" unicode="=" horiz-adv-x="1626" 
d="M1516 1319q-9 3 -23.5 16.5t-15.5 22.5v20l8 21q7 9 25 22t26 13h43q25 -20 35 -25q16 -31 12 -39q-12 -41 -12 -43q-19 -19 -35 -27h-47l-8 7zM1157 0q-20 0 -37.5 14t-23.5 33v31q16 41 61 63h12q5 0 15 -2t14 -2q4 -3 16.5 -22.5t14.5 -24.5v-18q0 -43 -51 -72h-21z
M0 850q4 16 25 26.5t38 10.5q13 0 31 -37v-19q-6 -19 -26 -32l-21 -11h-12q-3 0 -6 1.5t-7 3t-6 2.5q-9 6 -16 20v35z" />
    <glyph glyph-name="greater" unicode="&#x3e;" horiz-adv-x="1232" 
d="M98 698v13q21 155 83 295t167 229q3 3 19.5 14l19.5 13q2 1 27 26q76 55 178.5 97.5t187.5 48.5h146q40 -3 59.5 -21.5t32.5 -58.5q2 -3 2 -13.5t-2 -13.5q-6 -10 -23 -22t-30 -17q-62 -16 -78 -26q-100 -40 -172.5 -128.5t-104.5 -199.5q-12 -42 -12 -53q-2 -22 -2 -98
t2 -99q10 -209 250 -393q60 -48 148.5 -70t179.5 -22q1 0 6.5 -5.5t5.5 -7.5q2 -6 2 -21.5t-2 -19.5q-17 -42 -153 -88.5t-214 -54.5q-15 -2 -66 -2t-65 2q-205 21 -407 197q-59 51 -110 159.5t-60 194.5q-1 4 -3.5 31t-6.5 64t-5 50zM203 698v-92q6 -65 52.5 -173.5
t92.5 -156.5q109 -106 277 -157q1 0 19 -6.5t20 -6.5q23 -2 89 -2t81 2q12 2 53 12.5t51 14.5q-115 32 -216.5 123.5t-162.5 212.5t-67 242v170q12 118 91.5 239t184.5 195q24 12 27 12q-5 1 -20 1t-19 -1q-189 -43 -310.5 -148.5t-201.5 -283.5q-33 -72 -41 -197z" />
    <glyph glyph-name="question" unicode="?" horiz-adv-x="2748" 
d="M61 383q-1 5 -1 23.5t1 23.5q3 12 34 22.5t46 10.5h748q2 0 8.5 5.5t7.5 8.5q1 5 1 17.5t-1 15.5q-10 16 -43 43t-53 37l-541 270l-16 31v16q15 47 63 47q57 -19 113 -47q334 -163 414 -207q17 -9 72.5 -46.5t68.5 -49.5q37 27 66 80q-3 6 -82 163t-95 187
q-63 123 -79 144q-1 2 -23.5 15t-24.5 15q-3 5 -9.5 24t-6.5 25q0 5 13 26t20 22q9 1 33 1t30 -1q8 -3 38.5 -41.5t41.5 -55.5l7 -16q8 -15 15 -29.5t9 -17.5q15 -15 16 -15q8 -19 55.5 -119.5t55.5 -119.5q43 -86 49 -94q18 -36 31 -49h16q5 3 32 16.5t32 15.5q15 7 63 17
q2 32 2 142t-2 142q0 47 -16 191v129q9 28 16 31q4 2 29.5 2t34.5 -2q3 0 8.5 -6.5t7.5 -10.5q21 -163 31 -364q1 -21 8 -129t8 -125q102 -40 176 -80q1 2 7.5 15.5t7.5 15.5q4 8 17.5 50t29 90t16.5 50q2 4 16.5 40t16.5 40q3 8 16.5 48.5t14.5 47.5q3 6 24.5 63.5
t24.5 63.5q0 12 19.5 57.5t27.5 53.5q3 7 31 16q4 2 16.5 2t15.5 -2q4 -2 10.5 -7.5t6.5 -8.5q1 -9 1 -40t-1 -40q-1 -2 -10 -29t-21 -62t-18 -51q-3 -12 -39 -112t-39 -111q-14 -39 -38 -109.5t-41.5 -123t-17.5 -53.5l17 -17q24 27 110 113q212 199 318 287q1 0 15 7t18 7
q5 2 17 2t15 -2q6 -1 18.5 -21t12.5 -26q0 -3 -6 -16t-10 -17q-8 -9 -40 -41t-72 -71.5t-46 -45.5q-134 -108 -256 -239q-3 -3 -15.5 -22t-15.5 -25q-1 -2 -1 -8t1 -9q20 -47 47 -94q18 9 33 14q150 67 238 97q6 2 56.5 16t55.5 16q2 1 26.5 10t55.5 20.5t45 16.5
q3 1 39 15.5t39 15.5q18 9 66 17h14q7 -1 19 -8t14 -9q3 -8 3 -31.5t-3 -31.5q-2 -2 -20.5 -14.5t-26.5 -16.5q-10 -5 -80 -33q-106 -37 -127 -47l-120 -40l-120 -40q-4 -1 -40 -15.5t-40 -15.5q-45 -18 -110 -32l16 -80q0 -1 38.5 -1.5t89 0t79.5 1.5q8 1 87 8t87 8
q336 28 381 33h64q4 -2 10 -7.5t6 -8.5q1 -9 1 -34.5t-1 -29.5t-35.5 -17.5t-44.5 -15.5q-2 0 -41.5 -3t-90 -6.5t-75.5 -4.5h-14q-224 -27 -320 -33h-30q-9 -1 -88 -8t-88 -8h-15q-13 -1 -134.5 -8.5t-135.5 -8.5h-17q-8 0 -87 -7t-87 -7q-141 -16 -192 -16
q-32 -1 -142.5 -1t-142.5 1q-30 15 -33 16h-16q-125 -12 -190 -16q-8 -1 -87 -8.5t-87 -8.5q-37 -3 -112 -8t-112 -8h-63q-5 2 -17.5 14.5t-13.5 18.5q-3 3 -3 15t3 15q16 36 94 50h47q29 0 193 16q7 0 79 7t79 7q56 8 190 17l16 16l-16 158q0 2 -35 6t-81.5 7t-73.5 3
q-57 2 -254 2t-254 -2q-91 11 -97 33zM983 350q-1 -40 -1 -113.5t1 -76.5l16 -17q3 -3 334 17q31 0 127 16h49q26 1 94.5 8t79.5 9q5 0 18 6t15 8v49q-15 101 -85.5 225t-153.5 172q-54 31 -64 31q-9 3 -46 3t-48 -3q-225 -38 -320 -287q-15 -46 -16 -47z" />
    <glyph glyph-name="at" unicode="@" horiz-adv-x="3876" 
d="M1788 350q-13 2 -30 18t-17 29q0 20 24 32.5t45 12.5q53 0 108.5 -31t99.5 -79t78 -101t52 -102q3 1 12.5 10.5t10.5 12.5q4 4 24 29t23 30q10 10 12 10q126 100 256 117q4 2 18 2t17 -2q9 -2 26 -14t21 -21q2 -3 2 -12t-2 -10q-3 -5 -12 -14.5t-12 -10.5
q-4 -1 -39.5 -5.5t-40.5 -4.5q-94 -17 -161 -78t-120 -156q-2 -1 -11 -6t-11 -6h-13q-30 11 -47 35q-51 102 -69 129q-3 9 -35 57q-24 44 -65 80t-87 49q-3 1 -28.5 0t-28.5 0zM1169 1317q0 16 16 36.5t32 20.5q12 2 42.5 2t38.5 -2q20 -3 59 -31t58 -51q2 -2 23 -28t24 -29
q0 -1 5.5 -6t5.5 -6q1 -1 11.5 -17t12.5 -18q0 -2 4.5 -2t5.5 2q1 1 6.5 12t6.5 12q36 60 122 134.5t146 87.5h22q5 -3 14 -12.5t9 -12.5q3 -3 3 -17t-3 -18q-79 -43 -162 -117t-104 -139q-1 -2 -6.5 -23.5t-6.5 -23.5q-2 -3 -10.5 -12t-11.5 -10q-6 -1 -24 -1t-23 1
q-2 0 -11 9t-12 13q-1 1 -6 12.5t-6 12.5q-9 12 -47 69q-54 77 -105 117q-2 2 -15 6t-19 4q-3 2 -12.5 2t-12.5 -2q-8 -10 -10 -10q-6 -2 -19.5 -2t-15.5 2q-4 1 -13.5 15t-11.5 20zM2322 979v22q2 5 11.5 18.5t13.5 16.5q10 2 45.5 2t46.5 -2q79 -7 187 -151
q35 42 105 89.5t116 51.5h104q5 -2 14 -11t11 -14q2 -1 2 -10t-2 -12t-11.5 -12.5t-13.5 -10.5q-38 -2 -95.5 -15.5t-78.5 -31.5q-8 -6 -35.5 -33t-34.5 -36q-2 -2 -17 -23.5t-17 -23.5l-23 -23q-4 -2 -18 -2t-19 2q-16 17 -22 23q-4 6 -23.5 30t-23.5 27q-6 8 -80 82
q-5 4 -28.5 13t-31.5 11h-57q-3 0 -12.5 9t-12.5 14zM29 291q-1 3 -1 17t1 18q4 21 21 33t38 14q4 1 27 1t30 -1q74 -11 93 -23q11 -11 59 -47q54 -45 70 -57q1 -1 3.5 -4.5t5 -6t3.5 -2.5t10.5 5.5t11.5 7.5q123 52 187 57q22 1 93 1t93 -1q3 -2 12.5 -10.5t10.5 -11.5
q3 -5 3 -18.5t-3 -16.5q-1 -3 -10.5 -8t-12.5 -5q-14 -1 -87 -6t-87 -6q-49 -2 -129 -35q-33 -17 -82 -34h-22q-22 11 -23 12q-6 4 -58.5 46t-58.5 46q-9 6 -36 20t-33 15q-4 1 -27.5 1t-32.5 -1q-2 0 -17.5 -5t-17.5 -5q-1 -1 -6 -1t-6 1zM3244 571q-2 1 -2 6t2 7
q13 58 70 69q8 1 34.5 1t34.5 -1q14 -3 47 -25t45 -34q4 -3 24 -27t24 -30q6 -9 22 -25h12q4 3 29.5 23.5t28.5 23.5q78 59 176 82h22q7 -2 20.5 -10.5t14.5 -12.5q2 -3 2 -12t-2 -12t-10.5 -12.5t-11.5 -10.5q-6 -4 -60 -22q-46 -24 -92 -47q-4 -3 -22.5 -21t-24.5 -26
q-46 -69 -47 -70q-2 -3 -11 -12t-12 -11q-4 -4 -12 0q-24 5 -35 23q-3 5 -28.5 52t-28.5 52q-6 8 -33.5 35.5t-36.5 34.5q-4 3 -18 7.5t-17 4.5t-24 -11t-23 -11q-6 -3 -24.5 -3t-22.5 3q-8 16 -10 22z" />
    <glyph glyph-name="A" unicode="A" horiz-adv-x="1798" 
d="M47 596q-9 3 -19.5 14t-13.5 21v45l29 26q125 34 426 70.5t405 26.5l5 4l-5 6q-7 5 -46 34.5t-72 52.5t-43 24q-23 27 -104.5 88.5t-108.5 68.5l-6 4q-5 40 -5 45q0 6 33 39q16 10 39 6q65 -29 149 -89t179.5 -136.5t140.5 -107.5h4q11 65 15 183.5t16.5 219t48.5 176.5
q10 14 23 17h39q22 -17 26 -23q6 -9 6 -45q0 -68 -28 -223t-23 -240q20 7 127.5 135t215 255.5t126.5 133.5h16q3 0 9.5 -2t9.5 -2q30 -30 27 -45l-7 -35q-7 -8 -72 -88t-123 -152t-61 -77q-14 -8 -95.5 -96t-88.5 -105v-6q49 -2 163 7.5t173 4.5l111 -12q25 -8 34 -20v-13
q0 -33 -63 -48t-139.5 -19.5t-87.5 -9.5q-10 6 -46 6q-8 0 -46 -4.5t-74 -8.5l-35 -4v-6q0 -3 42.5 -31.5t51.5 -29.5q35 -41 101.5 -86.5t124.5 -92.5t87 -106v-16q-2 -6 -7 -11.5t-11 -5.5q-61 14 -147 67t-193 133t-139 101q-6 -39 -9 -191.5t-14 -276.5t-39 -146h-22
q-13 4 -33 29q-6 12 -9.5 24t-5 28.5t-2 23.5t0 29.5t0.5 25.5q0 56 9.5 196.5t6.5 212.5l-6 6q-26 -14 -73.5 -66t-99.5 -114.5t-105 -123.5t-101.5 -101.5t-77.5 -40.5q-4 0 -17 9t-16 14v32q15 34 195.5 238t232.5 254v10h-77q-162 0 -460.5 -41.5t-371.5 -48.5z" />
    <glyph glyph-name="B" unicode="B" horiz-adv-x="1304" 
d="M59 301q0 24 114 127t242.5 214.5t149.5 145.5v5q-5 12 -94 90t-183.5 171t-113.5 142v8q0 5 6 23q4 9 23 18h16q4 0 39 -31t84.5 -78t97 -93t89.5 -86.5t49 -47.5h4q3 87 40.5 301.5t75.5 223.5h19q6 0 18 -4q7 -7 19 -23v-14q0 -67 -41.5 -245.5t-36.5 -260.5
q21 11 54.5 44t45.5 42l4 8q43 29 92 82t86 101t85.5 97.5t91.5 73.5h12q3 0 27 -8q5 -3 10 -16t4 -17q-12 -35 -78.5 -106.5t-131 -135.5t-69.5 -79q-11 -6 -88.5 -80.5t-107.5 -104.5v-4q57 -40 153 -138t185 -187.5t137 -118.5q1 -2 29 -41t28 -66q0 -6 -4 -14l-4 -4
q-8 -4 -23 -4q-13 0 -36 14.5t-35 26.5q-39 36 -127 125t-137 133q-23 21 -72 62t-86.5 75t-67.5 66l-4 -4q-10 -48 -39 -308.5t-28 -310.5q-8 -12 -13.5 -39t-7.5 -33q-15 -18 -33 -18q-2 0 -6.5 2t-5.5 2q-9 5 -18 45.5t-9 59.5q0 39 9.5 112t11.5 103l6 8q-7 48 17 157.5
t18 155.5q-37 -25 -222 -197.5t-216 -183.5h-37q-17 14 -17 37z" />
    <glyph glyph-name="C" unicode="C" horiz-adv-x="1515" 
d="M35 229v21q0 24 44 62t98 72t102.5 68.5t54.5 51.5q77 47 200 130t146 111v9q-44 25 -101 49.5t-130 51.5t-105 40l-10 10q-24 3 -51.5 18.5t-38.5 34.5v41l6 11l20 14h39q6 0 18 -4.5t22 -9.5t23.5 -12.5t16.5 -8.5q47 -25 156.5 -66t159.5 -69q4 85 -3.5 258.5
t-7.5 206.5q0 23 15 90q7 9 34 25h17q12 -4 20 -11t11.5 -13.5t9.5 -20.5q0 -47 -6 -167.5t-4.5 -214t18.5 -167.5h10q16 7 46.5 32.5t54.5 32.5q21 22 200.5 154t208.5 145h19q6 0 26 -10q2 -4 7.5 -12.5t7.5 -12.5v-24q-4 -17 -111 -97t-234 -170t-145 -104
q47 -15 136 -51.5t195 -87t180 -107.5t69 -98l-6 -6q-8 -4 -29 -4q-12 0 -82.5 34.5t-77.5 41.5q-3 -2 -118 51t-128 63q-9 0 -39.5 11.5t-61 24.5t-66.5 29.5t-42 18.5h-16v-4q9 -67 28.5 -293.5t16.5 -265.5l-4 -100q-8 -16 -14 -25q-9 -9 -17 -6q-43 18 -64 106
t-22 185.5t-5 191.5t-17 117q4 16 4 25q0 2 -2 7t-2 7h-6q-1 0 -53 -36t-106.5 -76t-60.5 -48q-18 -1 -107 -68t-185 -133.5t-131 -66.5q-9 0 -17 4z" />
    <glyph glyph-name="D" unicode="D" horiz-adv-x="1611" 
d="M125 227l-16 17v22q0 36 117 157t272 263.5t166 153.5v4q-81 66 -233.5 203.5t-168.5 171.5v22q2 4 6 12.5t5.5 11t4.5 8t6.5 8t9 5.5t13.5 6h29q10 0 70 -54.5t125 -117.5t75 -71q12 -9 19 -23q46 -32 61 -51q4 3 10.5 30.5t14 68.5t13.5 79t12 75t7 42q4 22 19.5 65
t19.5 64l29 28l39 7q11 -4 35 -23l6 -39q-25 -71 -55.5 -212.5t-30.5 -201.5h6q30 24 133 114.5t191.5 166t105.5 82.5h45q9 -5 23 -41v-10q0 -11 -4 -23q-20 -31 -129 -128.5t-156 -127.5q-19 -32 -81.5 -78t-82.5 -69v-4q35 -22 75.5 -50t69 -48t77.5 -57.5t67 -51.5
t75 -59t66 -52q24 7 109 -74t90 -114l-6 -17l-27 -12h-6q-24 7 -68.5 29t-68.5 28q-15 19 -270.5 203.5t-266.5 188.5q-15 -16 -38 -200.5t-32 -197.5q3 -27 -16 -168t-29 -165q-8 -11 -28 -23h-4q-6 0 -35 29q-17 46 -17 135q0 83 31 246t31 241h-6q-3 -3 -30.5 -25
t-31.5 -36q-29 -15 -92.5 -76.5t-123 -125.5t-120 -115.5t-88.5 -51.5q-6 0 -18 6z" />
    <glyph glyph-name="E" unicode="E" horiz-adv-x="1243" 
d="M31 846q-6 8 -6 33q10 20 18 26q27 10 78 10h68h78.5t74 -1t81 -3.5t70.5 -7t70 -10.5q-9 41 -44.5 98.5t-72 105t-65.5 107.5t-29 109q0 3 2 11t2 11q26 26 33 25l19 -6q35 -31 77 -117t82 -168t74 -106q32 146 51 397q4 6 16 34t27 40h29q11 -2 27 -23l6 -14
q-2 -28 -13 -100.5t-16 -77.5q3 -46 -14 -138.5t-15 -136.5q5 6 25 41l18 14q11 22 46 66t46 70l15 10q20 49 118.5 171t133.5 118q20 -8 28 -19v-37q-26 -60 -74 -128t-94.5 -121t-100 -120.5t-85.5 -121.5l4 -4l15 -4q21 -1 88 -9t104.5 -10.5t81.5 0.5q3 -1 10 -4.5
t11.5 -5.5t9.5 -6t8 -8v-5q0 -7 -16 -18.5t-17 -13.5q-61 -19 -143 -19q-33 0 -106.5 4.5t-110.5 3.5q19 -27 113 -147.5t159 -215t78 -140.5q-6 -29 -10 -33l-13 -4q-20 5 -107.5 100.5t-170 201.5t-92.5 136h-9q3 -30 -41.5 -347.5t-52.5 -328.5l-14 -10h-23
q-9 6 -15.5 14t-10 14.5t-5 19t-2 18.5t0 21t0.5 19q0 70 28 232t23 242h-4q-129 -179 -131 -193q-14 -14 -48.5 -72.5t-68.5 -76.5q-20 -5 -29 -5q-5 0 -12.5 8.5t-9.5 14.5v25q0 43 73.5 145t159 212.5t103.5 156.5q-16 3 -162 8.5t-281.5 16t-148.5 26.5z" />
    <glyph glyph-name="F" unicode="F" horiz-adv-x="1318" 
d="M82 201q-3 2 -16 28v17q16 36 49.5 82.5t58.5 60.5q42 72 214 234t206 202q-4 6 -13.5 21t-15 22t-15 17t-20.5 16q-22 50 -71.5 117t-91 118t-74.5 122.5t-33 140.5q0 7 13.5 20t21.5 15h35q53 -23 63 -80q2 -2 51.5 -96.5t104.5 -185.5t74 -91q3 0 9 22t11.5 48.5
t7.5 31.5q2 6 14 51.5t23.5 86t26.5 88t28.5 78t22.5 34.5l39 13q18 -8 41 -23q1 -4 4.5 -14.5t5.5 -19.5t0 -13q-15 -25 -60 -187.5t-42 -185.5q25 39 84 90.5t119 106.5t90 102q22 11 43.5 38.5t46.5 52.5t59 36h16q5 0 23 -6q19 -16 22 -47q-1 -21 -28 -54.5t-51 -54.5
l-7 -16q-34 -34 -126.5 -121t-161 -157.5t-117.5 -135.5v-10q22 -27 104.5 -109.5t162.5 -160.5t143 -154.5t59 -103.5q-7 -18 -23 -23h-16q-34 0 -111 63.5t-151.5 140.5t-148.5 152.5t-95 90.5q-6 -15 -6 -35q-4 -4 -16.5 -68.5t-12.5 -75.5l-10 -22v-23
q-9 -11 -40.5 -172.5t-29.5 -177.5q-9 -13 -19.5 -64.5t-31.5 -66.5q-12 -6 -28 -6l-13 6q-31 47 -28 96q1 10 10.5 65t7.5 79l6 12q-5 38 31.5 167t30.5 171q-35 -32 -127 -130.5t-171.5 -175t-125.5 -95.5h-17q-3 0 -6 1t-6.5 2.5t-5.5 2.5z" />
    <glyph glyph-name="G" unicode="G" horiz-adv-x="1226" 
d="M41 829q-8 25 -6 41l18 35q23 17 51 29q33 -3 126 -12t159 -13t123 0q-76 96 -137 209v39q24 40 69 35q23 -19 68 -87.5t53 -74.5q8 158 80 381q14 14 29 23h22q31 -16 41 -17l13 -24v-39q0 -75 -37.5 -231.5t-44.5 -207.5h6q50 60 164 182t135 130h28l29 -13l12 -10
q9 -28 7 -41q-18 -39 -103.5 -131t-138.5 -139q258 10 350 -12q19 -10 23 -17v-35q-3 -13 -23 -28q-43 -16 -95 -23.5t-84.5 -8t-100 1t-93.5 1.5q57 -50 189.5 -218.5t132.5 -219.5q0 -10 -19 -23h-32q-43 15 -87 56.5t-82 94t-75 105t-77.5 98.5t-76.5 66q-10 -2 -24 -16
q-23 -44 -42.5 -213.5t-42.5 -321.5t-59 -174q-12 -6 -45 -6q-21 18 -28 41v47l45 281v47q13 25 19 63.5t3 67.5q-32 -21 -67 -58t-60.5 -70t-62 -67t-74.5 -51h-39q-18 6 -24 23v28q16 42 149.5 185t212.5 219q9 13 6 28q-4 2 -188 16t-209 13l-23 -12h-12q-4 0 -8.5 1
t-11 2.5t-9.5 2.5z" />
    <glyph glyph-name="H" unicode="H" horiz-adv-x="1183" 
d="M61 705q-17 7 -26 15t-21 25v31q0 5 6 23q20 25 115 36t225.5 14t135.5 3v12q-11 31 -52.5 91.5t-54.5 95.5v6l6 30l13 11q18 6 53 6q4 0 16 -6q33 -28 50 -51t28 -60q30 -24 57 -76q1 6 4.5 43.5t8 79t10.5 96.5t13.5 103.5t15 92t16 70.5t16.5 31q17 10 41 7
q17 -7 27 -16.5t14 -24t5 -26t1 -34.5q0 -36 -17 -128.5t-13 -135.5q37 35 133 155.5t155 161.5h52q6 0 18 -6l6 -6q9 -27 6 -59q-17 -30 -148.5 -185.5t-150.5 -160.5q-14 -17 -42 -50t-42 -49q9 -4 20 -5.5t18.5 -1.5t21 0.5t18.5 0.5q40 0 122.5 8.5t123.5 8.5
q47 0 65 -23v-31q-35 -43 -103.5 -58.5t-157 -18.5t-121.5 -11v-4q9 -13 68 -85t101 -134t37 -86l-12 -18l-12 -6h-29q-45 20 -72.5 47t-54 62.5t-55.5 59.5h-6q-16 -37 -25 -172.5t-25 -255.5t-51 -141q-18 -9 -34 -6q-14 9 -22.5 19.5t-11 25t-3 24.5t0.5 30t1 30
q0 37 12.5 125.5t9.5 134.5l6 10q-5 50 12 154t13 152q-29 -23 -99.5 -108.5t-134 -152.5t-96.5 -67q-12 0 -24 9t-17 20v34q7 27 50.5 81.5t101 118.5t72.5 83l-13 6h-35q-4 0 -16 -6q-42 1 -146 -7.5t-155 -4.5q-9 -9 -23 -6z" />
    <glyph glyph-name="I" unicode="I" horiz-adv-x="999" 
d="M43 838q27 32 29 34h266l12 7q-35 58 -53.5 91.5t-38.5 90t-20 102.5q0 17 18 35t35 23h12q35 -24 48 -52t16 -77q17 -20 24 -48q15 -9 43.5 -69t38.5 -72h6q5 40 14.5 157.5t23.5 203t40 147.5q8 14 35 23h35l24 -23q3 -6 5 -16.5t2 -18t-0.5 -20.5t-0.5 -17
q0 -42 -17 -139t-13 -149q22 20 54.5 61t45.5 55l6 19q7 7 21 22.5t21.5 22t20 15t26 11t30.5 0.5q19 -11 29 -24q10 -19 6 -41q-23 -54 -109 -157.5t-139 -149.5q3 -1 9.5 -2.5t11 -2.5t8.5 -1q26 2 74.5 7t88 8t74.5 3q36 0 64 -35v-18l-11 -25q-41 -36 -106.5 -47
t-145.5 -11.5t-120 -10.5v-25q5 -12 34.5 -53t30.5 -51q29 -24 54.5 -80t21.5 -92q-9 -25 -35 -25q-14 0 -37.5 19.5t-51 49t-30.5 31.5h-6q-16 -71 -16 -197.5t-6 -197.5q-12 -90 -19 -104q-8 -13 -28 -25h-31l-29 29q-12 36 -12 43v170q0 61 18 211t13 225h-6
q-2 0 -12.5 -14t-12.5 -15q-13 -14 -106.5 -120.5t-147.5 -155.5l-29 -13h-6q-9 0 -22 7.5t-19 15.5q-6 21 -6 41q0 27 39.5 72t83 90.5t49.5 68.5q16 9 29.5 22.5t35 41.5t23.5 31q-34 1 -98 -3t-90 -4l-12 7q-39 -4 -101 28l-6 13v47z" />
    <glyph glyph-name="J" unicode="J" horiz-adv-x="1728" 
d="M172 1200q-9 12 -28.5 19.5t-37.5 18.5t-28 34v18l12 25q12 8 39 8q35 0 271.5 -156t273.5 -200q13 -3 25.5 -10.5t29.5 -23t21 -18.5l12 -4q12 12 31 60q6 6 15 23t15 22q5 15 42 80.5t46 72.5q3 17 29 53.5t27 53.5q33 29 39 63q14 12 34.5 45t36.5 46q10 4 35 4
q6 -4 21 -9q7 -5 14 -26v-8q0 -5 -24 -44t-51 -82.5t-32 -56.5q-13 -10 -87.5 -145t-92.5 -158v-4h23q11 0 177 39.5t171 42.5q15 -3 69.5 9t65.5 20q30 -3 89 9.5t83 12.5q5 0 30 0.5t38 0t32 -2.5t31 -6q2 0 14.5 -6t23.5 -13.5t9 -11.5q-21 -28 -130.5 -45.5
t-223.5 -31.5t-139 -33q-10 1 -141.5 -29.5t-174.5 -42.5l-4 -4q41 -29 43 -31q114 -76 115 -76q25 -28 89.5 -66.5t88.5 -62.5q30 -4 116 -79.5t81 -110.5l-4 -4q-5 -4 -31 -4q-30 0 -159 87t-273 192t-176 124h-5q-1 0 -5.5 -8l-9 -16t-5.5 -9q-7 -13 -58 -101t-55 -91
q-9 -19 -99 -175t-95 -157q-24 -56 -65 -124t-72 -93q-16 -4 -25 -4q-7 0 -25 12q-6 10 -6 35q0 9 9 26t10 25q8 6 94 155.5t88 158.5q17 16 40 67t42 66q11 32 48.5 96.5t62.5 97.5v2q-74 -18 -242 -65.5t-184 -59.5q-8 2 -58.5 -11.5t-71.5 -12.5q-12 2 -28 24v17
q0 22 16 35q97 38 271 92t253 65l13 9q11 1 33 6t30 6q-16 18 -63.5 46.5t-55.5 39.5l-12 4q-5 7 -28.5 22t-26.5 25q-16 2 -84 52.5t-143.5 104t-108.5 60.5z" />
    <glyph glyph-name="K" unicode="K" horiz-adv-x="1382" 
d="M37 651v11q0 12 8 24q18 16 91 34.5t100 16.5q3 2 87.5 15t98.5 20q-22 24 -78 63t-78 64v29q0 1 2 5t2 5q24 28 47 25q22 -9 43 -21.5t43.5 -31t36 -31t38.5 -36.5t34 -32q27 -27 35 -25l20 5l4 8q-2 44 1 124.5t3 104.5q0 296 35 383q5 3 11 14q12 9 34 9
q18 0 25.5 -24.5t7.5 -45.5q0 -6 -1.5 -16.5t-3.5 -22.5t-3 -16q2 -4 -3.5 -119.5t-11.5 -239.5t-6 -139h5q22 20 97 108.5t142.5 164.5t87.5 81q2 3 13 9h10q16 0 33 -17q5 -16 8 -20v-11q0 -4 -5 -15.5t-8 -14.5q-62 -39 -241 -271v-4h39q62 0 219 23.5t235 23.5h43
q27 -9 33 -26q-16 -25 -121 -51t-207.5 -38t-119.5 -5q-15 -6 -104 -17.5t-107 -9.5q-6 -1 -24 -20t-23 -27q17 -16 53 -57t68 -71t63 -46q3 -4 16 -21t18 -24.5t13 -22t10 -27.5t0 -26l-8 -4h-27q-32 12 -81.5 56t-88 81t-47.5 37v-51q0 -68 -4 -203t-4 -201q0 -49 -16 -78
l-15 -16h-36l-11 12q-12 32 -12 92q0 67 6 199t6 197q0 21 -8 57q-35 -26 -73.5 -69.5t-67.5 -81.5t-69 -80t-79 -68q-17 -7 -34 -4q-6 2 -14 9t-9 13v27q6 9 26 32t27 36q7 3 76 79t74 85q11 5 34 29t49.5 54t37.5 41v11q-4 5 -15.5 12t-13.5 8q-65 -7 -136 -19.5
t-159.5 -29.5t-136.5 -25l-19 7q-13 10 -20 28z" />
    <glyph glyph-name="L" unicode="L" horiz-adv-x="2050" 
d="M37 512v14q0 5 4 17q9 12 38.5 24.5t35.5 22.5q18 4 37.5 14t45.5 25.5t33 19.5q61 36 143.5 74t135.5 59t149 58q3 1 49 18t54 23v4q-19 25 -184 136.5t-201 121.5q-2 2 -19 14l-16 23v18l8 19q2 4 14 9.5t13 6.5h8q7 0 20.5 -6.5t29 -16.5t20.5 -12h4q7 -3 26.5 -14.5
t32.5 -14.5q6 -4 30 -19.5t40.5 -28.5t23.5 -23q33 -9 41 -31q8 -1 99 -67.5t106 -79.5h4q6 0 38 13t40 15l4 4q3 8 13.5 93t9.5 98l6 14q-3 25 13.5 126t27.5 132l8 8q6 0 22 11h15q6 -3 11 -6t8.5 -6t5.5 -8t3.5 -7.5t2 -10t0.5 -10v-12.5v-12q0 -54 -29.5 -182.5
t-24.5 -194.5q193 77 226 80q4 5 22 10q24 5 113.5 36.5t168.5 58.5t91 24q19 12 49 23q16 -3 124 29t150 32q19 0 39 -8q7 -7 11 -15q-8 -31 -58 -50t-109 -32t-75 -26h-16q-48 -30 -338 -113q-8 -10 -35 -10q-6 -6 -179 -65t-198 -74q-8 -54 -8 -78q14 -16 187.5 -140
t201.5 -137q7 -13 28.5 -30t35.5 -34.5t10 -39.5l-2 -4q-10 -4 -31 -4q-33 0 -87.5 38t-109.5 80.5t-84 49.5q-99 87 -137 102q-15 15 -31 23q-6 -30 -26 -209t-42.5 -332t-37.5 -166q-8 -4 -27 -4q-23 17 -27 31.5t-4 50.5q0 18 20.5 185.5t25.5 172.5q2 29 21.5 148
t14.5 178q-12 14 -30 30.5t-29 20.5h-10q-7 -3 -47.5 -19t-73 -28t-37.5 -12l-8 -6q-11 -2 -33 -10.5t-29 -10.5q-3 -3 -93.5 -42t-100.5 -42q-55 -24 -161.5 -84t-164.5 -84h-33l-8 2q-11 14 -18 31z" />
    <glyph glyph-name="M" unicode="M" horiz-adv-x="1370" 
d="M59 150v22q7 18 33.5 51t42.5 37q45 55 170 165t237.5 210.5t139.5 144.5q-22 20 -120.5 71.5t-199 102t-181 104.5t-77.5 81l9 20q4 6 19.5 11.5t23.5 3.5q54 -35 200.5 -108.5t214.5 -125.5h13l10 -10q102 -51 104 -51v118q-4 4 -4 17q0 367 35 411l14 9h9q6 0 14 -4
q10 -9 15.5 -58t6 -121.5t-0.5 -140t-3 -136t-2 -87.5q4 -7 9 -10q38 19 126.5 109.5t170 175t106.5 91.5h12q7 0 19 -6l12 -24v-31q-4 -14 -157.5 -171t-178.5 -165q-5 -9 -29 -30.5t-24 -26.5l2 -4l127 -64q18 -9 86.5 -42.5t101.5 -51.5t81 -51t79 -66q4 -8 4 -31
q-2 -4 -10.5 -7.5t-9.5 -4.5h-11q-36 0 -159.5 65t-235 128t-121.5 61q-3 -60 4 -104q4 -29 4 -124t-2 -213t-2 -140q0 -93 -16 -138q-12 -12 -18 -12q-4 0 -31 27q-45 260 -27 493q6 73 0 146h-4q-10 -13 -64.5 -62t-62.5 -65q-37 -16 -109 -85.5t-138 -141.5t-135 -128
t-105 -51z" />
    <glyph glyph-name="N" unicode="N" horiz-adv-x="1626" 
d="M43 844q-4 20 -4 37q1 4 29 32h32q2 0 21 -5.5t20 -6.5q13 0 40 -2t42 -2q50 0 146 -2t174.5 -2t146.5 4q7 11 8.5 48t-0.5 48q14 23 17 118.5t17 191.5t56 131h13q12 0 27 -11t18 -22v-17q0 -21 -26.5 -218.5t-31.5 -217.5l5 -18q22 20 111.5 139t172 226.5t94.5 109.5
h33q16 -4 25 -16q4 -20 4 -33q-15 -33 -153 -213.5t-189 -241.5v-8q12 -8 113 -12.5t218 -7.5t233.5 -20.5t156.5 -49.5q4 -8 4 -17q-10 -15 -37 -24h-59q-72 0 -248 17t-268 12l-9 4q-32 -1 -89.5 1.5t-80.5 2.5q-8 0 -24 -4q-5 -2 -12 -17.5t-13 -19.5q-11 -48 -22.5 -233
t-28.5 -341.5t-47 -179.5q-6 -4 -25 -4q-10 3 -16 13.5t-8 27.5t-2.5 29t0 31.5t0.5 21.5q0 53 17.5 187t12.5 204l5 8l8 84l-4 12h-4q-55 -47 -116 -130t-122.5 -163.5t-120.5 -127.5q-4 -18 -33 -40.5t-51 -33.5q-18 5 -25.5 14t-7.5 27q0 21 21 50t48 59t34 44
q5 4 187.5 225t205.5 253v4q-42 7 -90 8t-111.5 -1.5t-91.5 -2.5q-78 0 -119 1t-102.5 8.5t-116.5 23.5z" />
    <glyph glyph-name="O" unicode="O" horiz-adv-x="1945" 
d="M61 111v26q13 34 77 93t164 132t182.5 130t186 125.5t120.5 80.5v7q-44 38 -288 214t-272 189q-3 5 -20 45v21q29 34 33 38q12 7 45 7q14 0 206 -142t218 -145q22 -26 113.5 -87t107.5 -57q36 18 47 33q13 38 25.5 142.5t23 198.5t38 176.5t69.5 95.5h12q6 0 19 -3.5
t14 -3.5l32 -32v-6q-5 -29 -24.5 -110t-28.5 -141.5t-4 -107.5q-8 -16 -14 -20q-6 -69 -6 -72q0 -6 12 -6q3 0 58.5 34.5t114 70.5t62.5 38q5 16 13 21q16 8 115.5 71t192 122.5t97.5 60.5h13q5 0 16 -3.5t16 -3.5l13 -14q6 -14 6 -45q0 -5 -6 -21t-7 -18q-4 -5 -26 -21
t-25 -32q-14 -9 -114 -70t-174 -107.5t-169 -108t-158 -107.5t-83 -70q-8 -41 -6 -63q33 -40 96.5 -89t136.5 -96.5t147 -96.5t146.5 -104t118.5 -104l12 -33v-6q0 -14 -24 -26h-27q-59 0 -147 53t-164.5 119t-163 132.5t-137.5 86.5l-15 -13q-1 -12 -11.5 -141t-23 -222.5
t-28.5 -113.5l-21 -12h-18q-21 16 -33 48t-14.5 51t-5.5 57q-9 14 -7 20q38 269 33 418q-22 22 -33 24l-12 -12q-32 -4 -114 -58.5t-182 -129t-202 -147.5t-193.5 -122t-137.5 -45z" />
    <glyph glyph-name="P" unicode="P" horiz-adv-x="1069" 
d="M57 272l-24 35v25q0 22 14.5 43.5t41.5 39.5t56 33t68 29t66 22.5t62.5 19t45.5 13.5v13q-2 3 -15.5 28.5t-24.5 47.5t-13 30q-17 11 -29 71t-12 95q0 24 11.5 52t29.5 42q39 9 53 7q28 -12 54 -38.5t44 -53.5t37.5 -70.5t29.5 -70t26.5 -73.5t21.5 -61q105 62 143 100
l17 6q19 29 99 57t120 25q8 -3 14 -6.5t9.5 -5.5t7.5 -8t5 -8t5 -12t6 -13v-35q-13 -44 -47.5 -78.5t-69.5 -52t-72.5 -39.5t-52.5 -43v-6q0 -4 16.5 -12t37 -15t22.5 -8q24 -12 54 -45.5t42 -60.5v-60q-15 -34 -47 -59q-31 -10 -43 -6q-47 12 -137 53t-135 53l-4 -6
q-8 -74 -35.5 -163.5t-71.5 -102.5h-43q-27 0 -69 47q-13 41 -13 78q0 15 3.5 42.5t3.5 33.5q8 14 22.5 69t11.5 62h-18q-43 0 -145 -33t-156 -33q-5 0 -23 6z" />
    <glyph glyph-name="Q" unicode="Q" horiz-adv-x="1034" 
d="M55 150q-6 15 -6 34q0 7 4.5 26t5.5 26q29 56 109 119.5t104 97.5q-29 12 -59.5 20.5t-43.5 13t-33.5 23.5t-47.5 57v13q0 3 5.5 19.5t6.5 18.5l17 23q43 29 63 29h103q29 0 74 -18t59 -21l6 6v119l4 12q-1 38 2.5 68.5t24.5 58.5t59 23l29 -13q10 -9 28 -35
q12 -49 12.5 -104.5t-3.5 -121t-3 -105.5h7q11 3 74.5 17t122.5 26.5t61 13.5h73q7 0 14 -2t15.5 -7t14 -8t15 -10t11.5 -8l29 -57l-13 -29q-42 -42 -84 -63t-72 -24t-81 -9t-94 -19q11 -32 41.5 -81t51.5 -95t21 -92q0 -5 -6 -35l-22 -34q-34 -23 -70 -23q-35 0 -65.5 16.5
t-53 48t-39.5 63t-30 75.5t-20 71.5t-15 63.5q-20 -16 -75 -64.5t-94 -81t-91 -61.5t-90 -29q-3 0 -11.5 3t-11.5 4q-13 13 -33 41zM616 207q0 -6 5 -6q6 0 6 6t-6 6q-5 0 -5 -6z" />
    <glyph glyph-name="R" unicode="R" horiz-adv-x="950" 
d="M25 418v47q0 23 33.5 45t80 41.5t56.5 26.5q11 1 53 9t65 7l17 6h123v14q-1 10 -14.5 70t-12.5 84q0 2 1.5 25.5t2.5 31t5 27.5t9.5 29t15.5 20t23 17h37q23 -8 51 -48q11 -43 16 -120t9 -105q41 21 115 86q18 4 38.5 18.5t44 23.5t56.5 5q30 -12 42 -30.5t9 -51.5
q-12 -12 -16 -37q-78 -96 -195 -170q-78 -39 -78 -51l133 -47q58 -19 93.5 -69t31.5 -111q-23 -26 -38.5 -33.5t-49.5 -7.5q-7 0 -25.5 5t-25.5 5q-12 10 -58.5 50.5t-81 67t-61.5 42.5q-7 -11 -32 -79.5t-25 -74.5q-9 -16 -24.5 -44t-21 -37.5t-18.5 -27.5t-28 -33t-37 -34
q-37 -12 -61 -10l-11 6h-16l-10 4l-25 53v66q0 5 2.5 21t1.5 26l27 51v17l20 30q-2 12 8 35.5t25 51t19 36.5v6h-5q-23 0 -69.5 -13t-69.5 -13h-94q-2 1 -12.5 5t-15.5 6t-13 6.5t-13 10.5t-7 13z" />
    <glyph glyph-name="S" unicode="S" horiz-adv-x="899" 
d="M29 449v16q0 3 2.5 9.5t5.5 14t4 9.5l33 34q45 7 114 7q37 0 109 -12.5t102 -12.5v6q-15 18 -29.5 53.5t-21.5 47.5q5 25 -2.5 86.5t-7.5 74.5t15.5 55.5t23.5 51.5q13 11 49 29h18q6 0 19 -3.5t14 -3.5l29 -22q26 -35 26 -178q0 -58 -16 -152h12q26 0 90.5 25.5
t94.5 25.5h100q28 -9 49 -39q12 -17 6 -67l-16 -33q-79 -85 -246 -119v-10l6 -18q21 -43 53 -121.5t48 -112.5v-6l-17 -68q-24 -14 -28 -16h-17q-21 0 -45 12q-7 4 -65 77t-64 85q-18 34 -45 72q-1 1 -2.5 5t-3.5 6.5t-4 0.5q-4 -10 -26 -44t-25 -52q-17 -13 -37 -41
t-41 -45t-55 -21l-29 6q-17 10 -31.5 30.5t-13.5 37.5l6 61q18 25 38 56t44 71t35 58v6q-6 3 -80 7t-94 3q-13 9 -30.5 14t-29.5 13.5t-24 30.5z" />
    <glyph glyph-name="T" unicode="T" horiz-adv-x="917" 
d="M35 434q13 43 53.5 72.5t84 42t88 32t61.5 42.5q0 9 -3 50.5t-2.5 73.5t5.5 71t22 65.5t45 34.5h70q37 -28 53 -64t15 -65t0 -60.5t12 -48.5q32 8 82.5 44t74.5 46h99l20 -10q39 -42 39 -88q0 -9 -4.5 -27l-5.5 -22q-2 -3 -47.5 -32t-61.5 -48q-28 -6 -59 -29
q19 -19 60.5 -32.5t79.5 -30.5t56 -45q19 -35 11 -91l-39 -49q-10 -6 -24 -8.5t-24 -2.5t-27.5 0.5t-23.5 0.5t-127.5 37.5t-128.5 42.5q-7 -18 -39 -141.5t-69 -174.5l-41 -20h-49q-5 0 -15.5 4.5t-13.5 5.5q-36 25 -49 70v78q0 24 23 89t16 99q-14 2 -33 -4t-26 -6h-109
q-8 6 -16 15.5t-18 23.5t-15 20v39z" />
    <glyph glyph-name="U" unicode="U" horiz-adv-x="999" 
d="M25 455q0 42 47 80t118 63.5t129 40.5t105 23v145q16 26 25 55q15 12 30 39q14 11 72 17q42 -9 72 -39l32 -80v-146q73 48 136 105q51 11 88 8l47 -25l16 -30v-49q0 -22 -8.5 -41.5t-30 -39t-32.5 -28.5t-44 -29t-36 -22q39 -21 96.5 -65.5t62.5 -69.5v-80
q-12 -32 -30 -47l-41 -17h-72q-7 0 -98 43t-109 53h-8q-2 -24 -16.5 -88.5t-24.5 -78.5v-33q-7 -26 -34.5 -59t-53.5 -52q-20 -8 -64 -8q-4 0 -12.5 4t-9.5 4q-31 24 -48.5 63.5t-17.5 80.5q0 68 41 223h-8q-24 0 -63 -18.5t-81.5 -34.5t-78.5 -11q-33 13 -59.5 36t-36.5 52
v56z" />
    <glyph glyph-name="V" unicode="V" horiz-adv-x="1292" 
d="M43 387l-16 43v25l16 43q13 26 83.5 41t123.5 18l16 10q43 -4 128 12.5t128 12.5q12 25 17 71t8.5 87t13 80.5t36 63.5t71.5 24q4 0 8.5 -1.5t10 -4t7.5 -3.5q25 -18 43 -69q2 -41 -4 -124t-4 -124q104 66 145 113q15 2 66.5 31t63.5 44q16 4 67.5 30t85.5 21l43 -16
q6 -4 12.5 -15t13 -27t7.5 -17v-19q0 -27 -65.5 -74.5t-96.5 -52.5q-25 -33 -112.5 -81t-110.5 -83q34 -57 125.5 -161t124.5 -164v-35q0 -6 -11 -33q-48 -62 -110 -51q-20 5 -51 31.5t-35 44.5q-2 1 -56 58t-115.5 121.5t-76.5 78.5l-27 8q-13 -8 -32.5 -43.5t-41.5 -79
t-48.5 -86.5t-63.5 -71.5t-78 -28.5q-44 0 -78 43q-8 14 -8 59q0 17 39 100.5t64 131.5v18h-9q-25 -3 -84.5 -12t-105 -13.5t-84.5 -1.5q-2 1 -10 4.5t-13 6t-11 7t-9 9.5z" />
    <glyph glyph-name="W" unicode="W" horiz-adv-x="1079" 
d="M25 410q0 9 18 27.5t31 29.5q64 30 194.5 50.5t182.5 39.5q0 5 1.5 63.5t3 99.5t6.5 87.5t13 60.5l49 50h25q7 0 21 -4t20 -5q20 -14 41 -65q1 -14 -3.5 -36t-4.5 -30v-131h16l25 8l245 115h66q17 -4 49 -41q12 -22 8 -65q-10 -25 -77 -56.5t-142.5 -66.5t-99.5 -66
q38 -36 67 -68t70 -82t59 -71q2 -8 14.5 -40t10.5 -50q-3 -8 -6.5 -14.5t-6.5 -11t-8 -9t-7 -7t-9.5 -6.5t-10 -5.5t-12.5 -6t-14 -6.5h-49q-168 102 -270 189q-16 11 -25 8q-17 -28 -40 -90.5t-48.5 -113t-58.5 -75.5l-41 -16q-53 13 -71.5 40.5t-18.5 82.5
q0 17 46.5 110.5t43.5 102.5h-25l-16 -8h-25l-16 -9l-131 -8q-57 13 -74 41q-16 48 -16 58z" />
    <glyph glyph-name="X" unicode="X" horiz-adv-x="962" 
d="M43 436q-21 16 -23 29v41q15 36 65.5 54.5t105.5 21t114.5 11.5t85.5 28q4 20 4 40t-2 43.5t-2 38.5v123q0 11 8.5 22t13.5 15.5t19 14.5h35q22 -6 41 -29q2 -5 9.5 -140t6.5 -145l25 -12h6q20 0 39 24q36 7 92 41.5t107.5 62t85.5 23.5q15 -4 34 -28q16 -31 13 -47
q-32 -47 -41 -52q-1 -1 -24 -13t-39 -21t-43.5 -24t-46.5 -27t-37.5 -24.5t-28 -21.5t-7.5 -14q2 -2 46 -42.5t81.5 -77.5t40.5 -44q20 -10 35 -28l10 -29v-12q0 -19 -19.5 -43t-37.5 -21q-47 10 -100 45t-110 78.5t-97 62.5l-6 -6q-3 -9 -24.5 -54.5t-22.5 -68.5l-11 -16
v-18q-2 -7 -14.5 -21.5t-15.5 -48.5q-26 -39 -39 -92l-35 -35h-31q-4 0 -22 6q-36 29 -29 92q34 60 63.5 182t53.5 173v18h-41q-24 0 -60 -18q-16 2 -65 -5.5t-90 -15.5l-41 -8z" />
    <glyph glyph-name="Y" unicode="Y" horiz-adv-x="872" 
d="M27 432l-7 10v27q0 27 19.5 44t54 23t62.5 8t65.5 1.5t42.5 -0.5q15 1 65.5 10t73.5 6q8 2 23 17q8 21 34 108t25 96q1 2 8.5 25t11.5 34t12 30t16.5 30.5t17.5 16.5h47q12 -5 22.5 -18.5t10.5 -25.5q0 -4 -3.5 -12.5t-2.5 -13.5q-20 -42 -43.5 -134.5t-42.5 -135.5v-27
q66 20 217 20q26 0 52.5 -10.5t33.5 -32.5v-36q-4 -20 -45 -38.5t-84.5 -29t-98 -21.5t-63.5 -14v-6q0 -8 55 -146t64 -151v-43q-6 -12 -13.5 -18.5t-18.5 -13t-17 -11.5h-7l-20 6q-42 35 -68.5 95.5t-48.5 133t-45 111.5q-12 -40 -115 -150t-155 -153h-27q-6 0 -11.5 1
t-9.5 2.5t-7.5 5l-5.5 5.5t-4.5 8t-3.5 8t-3.5 9.5t-3.5 9.5v27q6 24 67 108t62 103q46 51 59 86q-20 3 -79 -3.5t-72 -6.5q-24 0 -64 4q-8 3 -32 22z" />
    <glyph glyph-name="Z" unicode="Z" horiz-adv-x="2369" 
d="M0 1165q27 37 68 37q13 0 45 -8q98 -28 192 -31q15 12 12 25q-4 14 -13.5 67t-22.5 80q-9 20 -33 99q-8 36 -4 53q7 38 43 47q37 10 59 -18q20 -26 29 -60q20 -68 65 -205q15 6 21 9q19 13 85 57t101 69q22 15 43 15t41 -17q15 -13 16.5 -36t-10.5 -45q-8 -14 -20 -25.5
t-28.5 -24.5t-24.5 -20q-109 -95 -146 -141q109 -71 264 -185q42 -25 25 -63q-19 -43 -66 -37q-34 5 -65 27q-11 9 -22 17t-25 16.5t-23 14t-26.5 14.5t-24 12.5t-27 13.5t-24.5 12q-9 4 -46 27.5t-61 31.5q-15 -21 -12 -47q3 -42 -3 -117t-7 -92q-3 -60 -51 -63
q-26 0 -44 16.5t-24 44.5q-6 12 -1 69t5 68q-2 53 -2 164q-43 22 -209 49q-16 2 -31.5 20.5t-17.5 20.5v39zM1575 -88q-7 34 14 54t58 14q76 -13 131 -43q1 16 -3 30t-12.5 31.5t-11.5 24.5q-41 91 -55 172q-7 33 10 53q18 24 43 24q24 0 39 -24q19 -24 29 -66
q11 -34 36.5 -96.5t34.5 -87.5q20 -4 51 14q7 3 26.5 11.5t29.5 13t26 12.5t29 16t25 17q28 21 57 18q42 -6 51 -45q8 -25 2.5 -40.5t-26.5 -28.5q-33 -20 -66 -37q-96 -56 -160 -96q-1 -1 -2 -3l-2.5 -5t-3.5 -5q4 -14 29 -35q34 -23 98 -96q47 -50 10 -98
q-11 -15 -29 -20.5t-36 3.5q-23 14 -61.5 43t-43.5 33l-7 7t-10 8t-11 4q-6 -21 -8.5 -58.5t-4.5 -50.5q-2 -9 -4 -27t-2 -20q-12 -48 -59 -45q-19 2 -32.5 15.5t-16.5 35.5q-8 55 2 123q3 18 5.5 71t10.5 81q-54 33 -127 49q-42 12 -53 49zM1421 1130q-36 12 -46 34.5
t3 62.5q28 14 64 14q16 0 33.5 -2.5t41 -7t35.5 -6.5q-47 106 -59 141q-10 23 -10 55q2 22 9 32.5t24 14.5q34 9 55 -18q9 -10 16 -22.5t15 -30.5t12 -25q7 -13 13 -27.5t13 -33t11 -27.5q5 -1 9.5 1t6.5 4t5.5 6t4.5 5q8 8 43 23q15 4 33.5 -1.5t26.5 -16.5q25 -42 -2 -72
q-29 -29 -45 -41q-6 -4 -12.5 -10t-14.5 -15.5t-14 -15.5q55 -31 104 -80q19 -19 22 -43t-12 -41q-17 -26 -45 -26q-20 0 -37 14q-8 6 -23 12.5t-20 9.5q-7 3 -17.5 12t-14.5 11q-4 -1 -6.5 -4t-3.5 -5t-2 -5.5t-1 -4.5q-7 -38 -18.5 -48.5t-44.5 -10.5q-24 2 -40 19.5
t-17 46.5q-5 78 -13 102q-70 16 -82 20z" />
    <glyph glyph-name="bracketleft" unicode="[" horiz-adv-x="942" 
d="M49 537q-1 5 -7 16t-7 20q2 32 67 61t131.5 43t106.5 17l8 6q11 47 53 124.5t74 93.5h8q4 0 19 -5q20 -16 32 -49t21.5 -75t15.5 -58h4q26 2 95 13t78 16q18 0 53 4t53 4q17 0 33 -11t22 -26v-18q-22 -49 -72.5 -90.5t-110.5 -81.5t-89 -74v-18q0 -54 37 -167.5
t37 -170.5q0 -15 -10.5 -30.5t-22.5 -21.5l-29 -4q-40 15 -84.5 60t-90.5 96t-83 72q-58 -32 -213 -162q-19 -15 -38.5 -58t-37.5 -59l-18 -4q-20 3 -32 16t-9 31l14 31v33q9 23 45 47q49 84 113 254q-20 26 -83.5 63.5t-82.5 61.5zM387 612q-5 -11 -31.5 -75.5t-44.5 -96.5
q24 -28 80 -61q13 11 70.5 50.5t81.5 66.5v8q0 11 -13 33v24q-5 7 -11 39t-11 43h-10q-9 -5 -26 -8.5t-42.5 -6t-30.5 -3.5zM457 330q24 -27 81.5 -77.5t75.5 -68.5v2q-2 17 -14.5 73.5t-17.5 64.5q0 17 -9 47.5t-10 36.5h-6q-7 -5 -31.5 -22t-41 -30t-27.5 -26zM594 627
q5 -8 8.5 -21.5t6.5 -32t5 -26.5q12 6 86 64.5t84 70.5h-4q-145 -18 -157 -25q-13 0 -29 -4v-26zM293 606q-5 0 -74.5 -16.5t-83.5 -20.5v-4q0 -1 8 -6l16 -10t9 -6q31 -17 80 -62q10 19 27.5 60t27.5 61v4h-10zM281 362q-5 -3 -23 -41.5t-25 -56.5v-8l93 72v2
q-6 6 -20.5 16t-20.5 16h-4zM436 713h25q8 0 26 6q0 3 2.5 9.5t2.5 8.5q-2 4 -8 24t-11 27l-12 -10z" />
    <glyph glyph-name="backslash" unicode="\" horiz-adv-x="944" 
d="M408 244q-9 17 -70 35.5t-127 33.5t-117.5 40.5t-46.5 56.5q4 11 10 14l21 8q25 35 96 49q3 4 6.5 6t9 4t7.5 3q94 40 143 63v6q-7 46 -18 62q-4 35 -29 119t-25 126q0 29 21 43q7 5 28 5q6 0 11 -5q22 -19 95.5 -142t100.5 -132h11q6 0 48 17t46 18l6 8q19 3 78 28
t65 33q11 1 43.5 12t42.5 9q19 -8 29 -24.5t6 -37.5q-4 -6 -10 -28t-8 -27q-22 -51 -68.5 -140t-62.5 -124v-12q8 -13 86 -92l4 -11q3 -4 18.5 -21.5t22.5 -29.5q17 -9 30 -33.5t13 -44.5q0 -8 -9 -21t-16 -14h-43q-40 25 -123.5 45t-97.5 25q-16 -22 -49 -79t-58 -85
l-22 -10h-10l-17 8q-31 26 -41.5 61.5t-13 69.5t-14.5 49q6 38 -2 56zM436 518l-4 -8v-10q0 -16 9.5 -48.5t11.5 -43.5q15 -87 21 -96q5 -8 29 -13q37 -8 75 -27h18q8 6 23 32t16 36q10 5 14 20v5q0 2 -24 30t-50 57.5t-28 32.5q-3 4 -20.5 27.5t-26.5 30.5h-8zM682 614
q-24 -3 -111 -39q100 -115 117 -137h4q5 0 18 26.5t15 35.5q33 37 35 63q4 3 14.5 24.5t23 48.5t13.5 28v8q-7 -4 -64.5 -26.5t-64.5 -31.5zM274 446q-3 -4 -40.5 -19t-51.5 -19l4 -5q6 -2 32 -11.5t49.5 -17.5t50.5 -17t46 -13.5t25 -3.5v6l-8 19q3 13 -6 56.5t-15 59.5h-4
q-56 -29 -82 -35zM481 221v-10q0 -38 23 -105h2q11 15 27 44.5t24 42.5v4q-7 6 -38.5 16t-37.5 8zM674 254v-4l8 -6q8 -1 37.5 -10t40.5 -9h10v4q-10 14 -32 38t-31 36q-19 -16 -33 -49zM395 678l-10 8q5 -26 18 -65q-3 -10 5 -29l2 -2h12l20 10v6q-8 11 -23.5 36t-23.5 36z
" />
    <glyph glyph-name="bracketright" unicode="]" horiz-adv-x="776" 
d="M20 524v27q9 13 19 16q13 3 31 -4q15 22 94 28t135 3q5 9 23.5 93.5t17.5 90.5l8 15v16q4 7 11 37t18 51t29 21q2 0 10 -3.5t10 -3.5q2 -2 9.5 -7.5t10.5 -10.5q2 -42 23 -156l4 -4q3 -24 20 -66.5t21 -62.5q12 -6 46 -4.5t79 5.5t49 3q34 -8 43 -17q7 -7 14 -24v-6
q0 -41 -143 -194v-11q0 -16 54.5 -139.5t54.5 -171.5q0 -6 -4 -14q-21 -26 -39 -21q-28 12 -68 48t-86 83t-65 64h-11q-19 -16 -65 -67t-88.5 -90t-73.5 -48h-10q-9 6 -21 6l-20 21q0 5 -1 14t-1 14q0 32 41.5 162.5t38.5 142.5q-11 18 -112.5 83.5t-105.5 80.5zM319 397v-6
q69 -39 109 -86h14l68 70v10q0 7 -25.5 73t-27.5 68h-70q-5 0 -16.5 -1t-16.5 -1q-9 -16 -17 -62t-18 -65zM266 205q-9 -12 -14.5 -41.5t-9.5 -34.5v-16q31 13 143 139q-2 1 -7 4t-7 4t-5 3.5t-4.5 4.5t-3.5 6q-5 5 -15 9t-13 6l-6 10l-21 14h-4q-4 -9 -19 -55t-14 -53z
M154 514q0 -11 104 -76l4 4q1 6 9 28.5t8 35.5v18h-23q-36 0 -98 -8zM541 526v-2q2 -8 15 -38.5t15 -47.5q12 10 43 46t35 46q-1 0 -4.5 2.5t-5.5 2.5h-84zM541 305q-6 -2 -24 -22.5t-17 -24.5q38 -41 88 -78v4l-6 13q1 3 -2 14t-9 25.5t-11.5 27.5t-11.5 26t-7 15zM379 598
h49v27q-7 12 -12 37.5t-6 27.5q0 1 -0.5 2t-1.5 4l-2 6t-2.5 5.5t-3.5 3.5t-3 0l-18 -82v-31z" />
    <glyph glyph-name="asciicircum" unicode="^" horiz-adv-x="1060" 
d="M47 623q-7 14 -4 30q17 45 27 52q59 21 127.5 29.5t149 12.5t128.5 11q46 51 53 82q11 11 21.5 28t17.5 27.5t22.5 17.5t39.5 5q10 -3 37 -37q3 -11 3.5 -51t8.5 -50q25 -2 101.5 5.5t99.5 -1.5q16 7 55.5 -2t66.5 -20q7 -4 19 -35v-47q-30 -40 -157.5 -140.5
t-133.5 -113.5v-18q0 -8 4.5 -28.5t3.5 -35.5q11 -14 20.5 -85.5t16.5 -82.5q4 -33 4 -98q0 -5 -8 -29q-7 -10 -26 -16t-33 -6q-6 0 -22.5 5t-18.5 5l-205 209h-4q-3 0 -123 -83.5t-135 -84.5q-13 -17 -53 -47.5t-56 -30.5q-17 0 -27.5 9t-14 26.5t-4.5 28.5t-1 30v6
q0 11 9 36t10 32q17 20 41.5 61.5t31.5 51.5q4 8 31.5 46t52.5 73.5t25 39.5t-18.5 21t-41.5 37.5t-26 23.5l-15 4q-17 19 -51 50t-49 47zM389 463q9 -16 22.5 -29.5t37 -32t30.5 -24.5q5 4 23 8q19 18 108 78l4 10v12q0 24 -4.5 56t-12 71t-9.5 56q-22 5 -27 4l-22 -4
q-34 -28 -91 -113t-59 -88v-4zM868 694q-137 0 -180 -14v-23q0 -24 9 -68.5t10 -51.5h4q11 9 83.5 61.5t102.5 87.5v4q-16 4 -29 4zM180 627q9 -11 24.5 -25.5t29 -25t33 -26t26.5 -20.5q12 -6 18 -4q11 10 45.5 59.5t40.5 63.5v4l-8 4q-28 -4 -99.5 -9t-109.5 -13v-8z
M188 176h5q13 9 64.5 42t92 61t47.5 38q-3 4 -19.5 17.5t-21.5 23.5l-26 19h-4l-7 -4q-24 -39 -71 -108t-60 -89zM547 305q5 -5 35 -39.5t56 -62t32 -27.5v6q-6 26 -15 87.5t-18 92.5h-4q-82 -53 -86 -57z" />
    <glyph glyph-name="underscore" unicode="_" horiz-adv-x="1787" 
d="M387 406v55q12 168 115 294.5t266 168.5q30 6 41 6q19 2 69.5 2t59.5 -2q25 -2 96 -29t74 -43q2 -3 2 -12.5t-2 -11.5q-10 -24 -55 -33q-5 0 -25.5 -3.5t-23.5 -4.5q-14 0 -50 -9q-67 -14 -105.5 -40.5t-96.5 -88.5q-19 -22 -37 -65t-19 -72q-2 -9 -2 -49.5t2 -54.5
q4 -92 83 -175t175 -118q48 -12 74 -25q18 -5 25 -22v-8q-22 -26 -41 -33q-84 -41 -211 -41q-58 3 -131.5 28.5t-112.5 61.5q-156 143 -170 324zM453 444v-55q15 -112 81 -194.5t171 -120.5q39 -17 71 -17q10 -1 48 -1t50 1q21 0 48 9q-236 107 -283 315q-8 40 -8 41v88
q0 17 8 57q0 1 4 8.5t4 8.5q0 2 3.5 15.5t4.5 14.5q19 43 46 77.5t53.5 57.5t66 44.5t70.5 34.5t80 30l-25 8h-153q-24 0 -84.5 -30t-85.5 -52q-86 -73 -125 -151.5t-45 -188.5zM1278 1028v33l8 8q3 1 33 15.5t33 15.5q22 13 43 36.5t28 45.5q2 4 17 49q11 22 16 24h17
l16 -16q0 -92 41 -154q4 -12 33 -41q14 -21 14 -24q1 -3 1 -12.5t-1 -12.5q0 -5 -23 -16q-1 0 -13.5 -3.5t-23 -7t-12.5 -5.5q-44 -26 -57 -72q0 -3 -3.5 -17.5t-4.5 -15.5q-5 -19 -25 -24h-8q-20 7 -23 16q-12 25 -16 57v8q-13 60 -41 80q-2 1 -20.5 12.5t-20.5 12.5z
M186 -299q-2 1 -2 8t2 8q3 5 17.5 16t21.5 15l17 8q40 25 55.5 49.5t26.5 73.5q0 4 3.5 21t4.5 18q2 4 7.5 10t8.5 6q2 2 11 2t14 -2q4 -1 9 -14t5 -18v-97q8 -62 82 -112q1 -3 1 -12.5t-1 -12.5q0 -6 -28.5 -22t-37.5 -19l-17 -11q-18 -12 -31 -22.5t-15 -15.5
q-1 -1 -4.5 -18t-3.5 -21q-8 -32 -8 -33q-3 -9 -25 -16h-8q-20 7 -25 25v24q-9 89 -41 121q-1 1 -8 6.5l-14 11t-8 7.5q-9 9 -9 16zM1278 219v8q7 21 33 31q1 1 11.5 4.5t12.5 3.5q35 16 53.5 31t26.5 43q1 3 4.5 20.5t3.5 20.5q1 1 8.5 8t8.5 8h16q38 -31 41 -49v-24
q5 -60 66 -121q6 -12 6 -17q0 -10 -6 -16q-64 -23 -99 -66q-6 -14 -8 -16q-1 -3 -7.5 -8.5t-8.5 -5.5q-3 -2 -12.5 -2t-12.5 2q-1 0 -7.5 6.5t-8.5 7.5q0 2 -3 13t-3 12q-20 47 -58 73q-2 1 -20.5 8.5t-20.5 8.5zM995 1270q-1 3 -1 12.5t1 11.5q0 2 7 9t10 8q1 1 12 8t12 8
q29 29 31 33q3 5 17.5 33t15.5 32q8 8 8 9h33q0 -1 8 -17v-8q0 -2 -4 -20.5t-4 -20.5v-25l16 -32q17 -17 25 -33v-23l-8 -16q-1 -1 -12 -4.5t-13 -3.5l-16 -8q-1 -1 -17 -25q-1 -1 -4.5 -9.5t-7 -15.5t-4.5 -8q-13 -6 -17 -8h-8l-14 8q-1 1 -25 49q-2 2 -11.5 15.5t-18 25.5
t-11.5 15zM55 121v24q8 16 8 17q7 7 41 24l17 17q23 46 24 49q6 6 9 6q2 2 11.5 2t12.5 -2q1 0 8.5 -3t8.5 -3q-1 -7 -1 -33t1 -33q0 -30 16 -41q14 -6 14 -8q3 -2 10 -8.5t7 -7.5q2 -1 2 -11t-2 -14q-7 -6 -9 -8q-27 0 -55 -55l-8 -8q-3 -1 -13.5 -1t-11.5 1q-13 5 -24 32
q0 9 -8 25q-7 6 -9 6l-32 16zM1083 510v41q1 10 16.5 24.5t24.5 16.5h41q9 -3 20.5 -14t12.5 -19v-41q-3 -6 -15.5 -19t-17.5 -14q-3 -1 -21.5 -1t-27.5 1q-5 2 -18.5 11.5t-14.5 13.5zM315 1133v8q3 9 14 22.5t19 18.5q29 6 39 8h8q2 -1 8.5 -2.5t11 -3t5.5 -2.5
q10 -4 16 -33v-16q-7 -19 -21.5 -33.5t-33.5 -14.5q-31 0 -43 10t-23 38zM797 -334q-1 4 -1 20.5t1 20.5q2 14 14.5 30.5t24.5 16.5q13 0 34.5 -13t22.5 -26v-41q-1 -9 -12.5 -19.5t-20.5 -12.5h-33q-27 4 -30 24zM1198 -274q-2 6 -2 27.5t2 27.5q0 6 9.5 19t15.5 14
q1 2 13 2t17 -2q11 0 26 -20.5t15 -29.5q2 -5 2 -17t-2 -15q-4 -11 -19.5 -20t-29.5 -11q-1 -1 -7 -1t-7 1q-20 3 -33 25zM705 1116q-1 3 -1 12.5t1 12.5q1 11 14 23t24 18h17q12 -4 24.5 -16.5t16.5 -24.5q1 -3 1 -12.5t-1 -12.5q-3 -5 -16 -17.5t-17 -13.5q-2 -1 -14.5 -1
t-18.5 1q-9 1 -18.5 11.5t-11.5 19.5zM63 737v39q1 4 11 13.5t14 11.5q3 1 16 1t17 -1q7 0 16 -17v-30q-1 -10 -12 -21t-21 -12q-2 -1 -8 -1t-8 1q-4 0 -14 6t-11 10zM55 436q0 1 8 25q7 10 25 16q3 1 8.5 1t7.5 -1q30 -15 33 -24v-17q-10 -18 -41 -22q-3 -2 -8.5 -2t-7.5 2
q-5 2 -25 22zM705 1352q-1 3 -1 12t1 12q3 19 22 25h16q3 -1 10 -8t7 -9q2 -5 2 -17t-2 -15q0 -2 -7 -9t-10 -8h-16q-22 11 -22 17zM1585 713v32q1 0 4 2t7.5 4t5.5 3h24q4 -1 16 -25v-8q0 -8 -8 -16q-4 -1 -20 -1t-21 1z" />
    <glyph glyph-name="grave" unicode="`" horiz-adv-x="1372" 
d="M31 739v37q0 1 6 25q3 5 24 16q69 -3 99 -2.5t115 6t100 6.5q144 5 174 4q7 3 16 11q29 80 76.5 270.5t87.5 284.5q17 14 27 30q27 9 41 7l20 -11q16 -23 24 -130.5t15.5 -212.5t22.5 -124q-3 -48 14 -84v-24q3 -6 10 -6q112 16 258 16q55 0 123 -10l31 -21
q14 -22 10 -57q-6 -9 -10 -25q-13 -15 -99 -85.5t-164.5 -135t-80.5 -71.5q11 -35 32.5 -132t18.5 -116l6 -10q1 -19 8.5 -70.5t5.5 -83.5q-7 -18 -20 -31q-16 -10 -51 -10q-22 0 -83 50t-130 113t-94 79q-4 -3 -39.5 -26.5t-49.5 -41.5l-16 -4q-100 -86 -158 -109h-30
q-4 0 -10 2t-12.5 5t-8.5 4q-25 20 -27 30v37q0 7 3 22.5t3 22.5q14 32 21 72q6 8 36.5 94t29.5 92q-2 2 -15.5 16.5t-22 22.5t-21.5 17t-23 10q-58 40 -232 207q-46 5 -61 24zM637 729q-10 -17 -52.5 -127t-39.5 -125l4 -10q9 -6 35 -27t49 -38t35 -21h6q3 5 62 47.5
t71 48.5l10 17l14 4l11 10v10q-2 23 -11.5 82.5t-13.5 63.5q4 21 -16 71h-103q-1 0 -61 -6zM463 725q-36 0 -105.5 -3t-105.5 -3l4 -10q125 -84 190 -160h7q10 21 37.5 94.5t27.5 81.5h-55zM913 735q0 -28 15 -85.5t33 -57.5q4 0 94.5 70.5t95.5 76.5v6h-90q-71 0 -148 -6
v-4zM674 848l4 -6q20 -4 31 -4q9 0 33 2.5t38 1.5v16q0 15 -15 104t-20 101l-6 -4q-4 -16 -21 -65t-30.5 -91t-13.5 -55zM868 391q-5 -2 -51.5 -37t-50.5 -41v-4l4 -6q23 -19 66.5 -54t66.5 -54h6v16q0 8 -19 90t-22 90zM436 211h6l123 92l4 6q0 2 -3 4t-6.5 3.5t-4.5 2.5
q-31 23 -51 46h-10q-17 -29 -36 -87.5t-22 -66.5zM745 1073q0 -4 5 -4q4 0 4 4q0 6 -4 6q-5 0 -5 -6z" />
    <glyph glyph-name="a" unicode="a" horiz-adv-x="1116" 
d="M6 717l12 43q20 20 41 35q98 26 203 71h12q69 27 123.5 65.5t85 75t51 69t33 56t19.5 27.5q10 27 22 93.5t28 115t44 66.5h18q14 0 35.5 -17.5t24.5 -30.5q1 -22 -2.5 -62t-3.5 -58q0 -111 43 -226q6 -5 34 -61q30 -49 68.5 -83.5t88 -69t77.5 -60.5q5 -8 11 -24.5
t7 -18.5v-18q-17 -24 -37 -41q-21 -10 -68.5 -13t-68.5 -12q-36 -15 -59 -32.5t-32.5 -30.5t-27 -32.5t-40.5 -35.5q-3 -19 -21.5 -58.5t-21.5 -60.5q-31 -219 -29 -334q-14 -37 -31 -49q-30 -8 -47 -6q-28 11 -43 31q-7 16 -9 35t-2 42t-1 35q-5 63 -18 127t-39.5 136.5
t-62.5 127.5t-92.5 91.5t-125.5 36.5q-19 0 -62 -5.5t-71 -5.5q-18 0 -47 19q-16 22 -19 47zM346 766q49 -18 87 -53.5t58 -70.5t48 -82t53 -75q13 9 32.5 39.5t41.5 65t70 81t112 83.5v6l-6 10q-37 38 -98.5 136t-86.5 122q-24 -19 -66.5 -81t-70.5 -81q-4 -3 -24.5 -13.5
t-33.5 -20t-20 -19.5q-17 -7 -48 -24t-48 -23z" />
    <glyph glyph-name="b" unicode="b" horiz-adv-x="784" 
d="M12 461v47q13 20 66.5 32.5t64.5 28.5q58 8 93.5 29.5t74 61t66.5 59.5q10 26 9.5 66t5 72t32.5 54q23 9 33 7q26 -11 40 -54.5t23 -103.5t17 -82q17 -11 53.5 -54.5t83.5 -64.5h16q55 -22 70 -41q7 -24 4 -45q-8 -39 -141 -63q-28 -20 -51.5 -35t-35.5 -22t-18 -13
q-10 -10 -61 -94q-2 -20 -2.5 -68t-4.5 -84.5t-16 -64.5l-22 -23l-12 -3t-15 -3t-12 0l-25 12q-23 29 -26 39q3 47 -7 99q-10 47 -19 84t-19 63.5t-17 45.5t-18 30.5t-17 18.5t-19.5 9.5t-19.5 3t-22.5 -0.5t-24.5 -1q-61 0 -114 35zM434 598q-4 -2 -74 -53.5t-73 -55.5
q13 -18 43 -49t43 -47l4 -16h6q31 34 74.5 71t68.5 41q4 4 4 13l-2 4l-44.5 44.5t-49.5 47.5z" />
    <glyph glyph-name="c" unicode="c" horiz-adv-x="1212" 
d="M55 676q-33 29 -41 55v45q24 33 33 41q43 16 129 44t134 46t111 58t109 94q32 38 54 100.5t32 114t33.5 98.5t61.5 62h34q32 -27 38 -59t-2.5 -83.5t-8.5 -72.5q0 -32 6 -62.5t24 -66.5l26 -52t37.5 -61.5t33.5 -52.5q44 -19 124.5 -94.5t135.5 -98.5q15 -31 27 -47v-8
q0 -6 -2 -12t-4 -10t-7 -9.5t-8 -8.5t-10.5 -8t-9.5 -6.5t-11 -6.5l-8 -5q-64 5 -131 -21.5t-121.5 -73t-98.5 -102t-70 -112.5q-18 -40 -24.5 -128.5t-8.5 -98.5q-14 -63 -47 -74h-47q-17 4 -48 41q0 6 -1 46t-1.5 50t-2 47t-3 51.5t-4.5 48t-6.5 51t-8.5 46t-11.5 48.5
t-15.5 43.5t-19 43.5q-12 3 -33.5 27.5t-34.5 31.5q-22 12 -51 24t-51 19.5t-62 18t-56 14t-62 14t-52 11.5zM330 764q4 -5 10.5 -9t16 -7t12.5 -5q60 -29 95.5 -51.5t58 -47t33.5 -43t32 -58.5t43 -74q23 21 67.5 73.5t59.5 67.5q14 14 81.5 54t71.5 47q-12 21 -34 43
t-51 46.5t-42 37.5q-46 46 -106 168q-5 9 -14 6q-178 -218 -334 -248z" />
    <glyph glyph-name="d" unicode="d" horiz-adv-x="770" 
d="M29 410q-13 24 -9 67q23 33 65 60t80 43t78.5 44t61.5 62q23 36 46 105t36 96q12 15 32.5 22.5t32.5 8t40 0.5q4 0 12.5 -4t9.5 -5l23 -28q3 -26 7 -82.5t7.5 -91.5t14.5 -81.5t30 -80.5q16 -30 75 -90t66 -82v-23q0 -4 -4 -12.5t-4 -9.5q-23 -27 -43 -37
q-39 -6 -64 -12.5t-41.5 -11.5t-30 -19.5t-20 -23.5t-23.5 -36.5t-30 -46.5q-3 -67 -31 -118l-36 -23h-37q-7 0 -35 15.5t-33 21.5q-4 19 -11 53t-10.5 49.5t-11 43.5t-13 41t-15.5 34t-20.5 32t-26.5 26t-34.5 24t-43 18t-53.5 15zM328 500q-6 -4 -12.5 -8t-16 -10.5
t-14 -11.5t-2.5 -7q75 -79 104 -141h6q18 0 34.5 12.5t34 32.5t30.5 28l6 8q0 4 -5.5 13t-13.5 19.5t-10 13.5q-8 11 -14.5 22.5t-12 26t-9 24t-9.5 27.5l-8 24h-6q-39 -39 -82 -73z" />
    <glyph glyph-name="e" unicode="e" horiz-adv-x="1513" 
d="M45 629l4 10q30 34 109 82.5t106 73.5q18 16 53 61.5t56 61.5q8 26 39 71v21q3 10 14 18q33 182 39 191l18 10h21q3 0 9.5 -2t8.5 -2l17 -15q12 -26 23 -66t16.5 -68.5t15 -79t12.5 -64.5q26 -23 67 -107t54 -104q3 -4 23.5 -27.5t36 -43t33.5 -44t27 -44t7 -30.5l-8 -24
q-5 -10 -56.5 -35.5t-112.5 -72.5t-91 -111q-6 -15 -26 -89.5t-41 -135t-36 -64.5h-32q-10 4 -26 22t-19 27q7 59 -28 168t-100 209t-131 121q-81 -8 -102 49v33zM1094 1038q-73 38 -93 74v39q10 19 94 58t97 48q35 25 48.5 61.5t19.5 67.5t24 44q10 4 33 4q3 0 8.5 -2
t7.5 -2l8 -11q13 -22 22 -96.5t17 -97.5q7 -20 43.5 -74t36.5 -84q0 -22 -29.5 -37t-71 -28.5t-56.5 -26.5q-12 -18 -27 -76t-41 -80h-39q-5 1 -12.5 7t-16.5 16.5t-10 11.5l-10 53l-10 15q-4 21 -9.5 38t-17.5 42.5t-16 35.5zM207 629q67 -29 121.5 -92.5t86.5 -134
t50 -148.5l4 4q16 70 56.5 126.5t79.5 84.5t75.5 52t42.5 34v6q-47 36 -118 158t-107 207h-4q-8 -11 -37.5 -51t-41.5 -55.5t-35.5 -44.5t-45.5 -54q-7 -3 -25 -8q-11 -12 -25 -24t-23 -18t-28 -18.5t-26 -17.5v-6zM1278 1210q-20 -26 -66 -52t-59 -36q46 -64 57 -102
q33 37 113 82v6q-6 10 -21.5 52t-23.5 50z" />
    <glyph glyph-name="f" unicode="f" horiz-adv-x="948" 
d="M47 659q-9 30 -6 50q19 34 74 67q62 42 111 89t71 75.5t78 107.5q9 12 14 19q3 25 23 120.5t20 166.5q0 14 10.5 36.5t20.5 36.5q7 7 18 7l37 -7q44 -23 53 -61q2 -23 -2 -67.5t-2 -65.5l4 -12q-9 -85 22.5 -190.5t93.5 -198t136 -136.5q6 -4 16 -10t13.5 -8t10 -7
t9.5 -8t8 -9.5t10 -13.5t11 -17v-19q0 -1 -6 -31l-6 -6q-28 -24 -82.5 -50.5t-69.5 -35.5q-55 -32 -92.5 -71t-59 -89t-33 -90.5t-26 -106.5t-26.5 -106q-3 -4 -8.5 -7.5t-13 -6.5t-9.5 -4h-12q-1 0 -31 6q-35 20 -66 143.5t-45 223.5q-18 21 -32 68.5t-37.5 95t-69.5 79.5
q-15 5 -50 7.5t-54 11.5zM256 719q62 -74 97 -133.5t85 -169.5q-6 -36 13 -74l6 -6q24 84 99.5 159.5t162.5 114.5q-15 18 -77 86t-93 115l-62 166h-6q-84 -117 -225 -252v-6z" />
    <glyph glyph-name="g" unicode="g" horiz-adv-x="1048" 
d="M18 725v25q1 3 6 10t11 12t13.5 12.5l8.5 8.5q35 15 108 23t99 15q61 19 104.5 47t69 65t40.5 75.5t21 88.5t9 92.5t7 100t11 99.5q9 11 26.5 24.5t27.5 10.5q46 -15 73 -74v-57q0 -221 84 -416q6 -14 36.5 -46t33.5 -42q12 -6 22.5 -17t22 -17t33.5 -7q10 -9 23.5 -16
t22.5 -10l27 -9t25 -8l10 -10q6 -21 6 -46q-3 -6 -10 -17t-10 -17q-17 -10 -71 -36.5t-77 -45.5q-70 -59 -117.5 -120.5t-67 -111.5t-32.5 -99.5t-17.5 -86.5t-18 -70.5t-37.5 -54.5h-11q-4 0 -12 2t-12 2q-13 13 -19 25q-5 34 -13 111.5t-16 133.5t-22.5 124.5t-40.5 122.5
t-61 89q-18 18 -76.5 34t-130.5 29t-88 17q-5 2 -21 35zM393 774q-16 -4 -45 -17.5t-43 -17.5q36 -22 68 -30q7 -8 30.5 -23t32.5 -27q42 -50 72.5 -137t36.5 -162q20 66 116.5 169t159.5 130q-36 5 -74.5 42.5t-70.5 93t-53 100t-37 86.5l-6 8l-5 -4q-8 -48 -35 -82.5
t-79.5 -74.5t-67.5 -54z" />
    <glyph glyph-name="h" unicode="h" horiz-adv-x="1251" 
d="M31 498q-13 7 -34.5 14.5t-40 13.5t-40.5 14.5t-36.5 17t-27 22t-13 28.5t6.5 37q132 48 205 116t86 189q1 12 1.5 39t3.5 48t10 38q13 20 34 27q2 10 23 26q12 7 37 7q22 -22 26 -37v-94q0 -11 10.5 -44.5t8.5 -50.5q3 -4 4.5 -15t3.5 -15q10 -31 43.5 -74.5t40.5 -54.5
q23 -38 97.5 -88.5t94.5 -73.5l11 -23v-18q-5 -21 -53 -48.5t-78 -35.5q-7 -11 -31 -23q-26 -18 -45 -37t-44.5 -50.5t-35.5 -43.5q-2 -14 -17.5 -46.5t-19.5 -43.5q-9 -31 -15 -88.5t-11 -81.5q-1 -4 -13 -35q-20 -18 -49 -14q-19 10 -22 14q-25 63 -36 151.5t-27.5 174
t-57.5 158.5zM725 1063q3 4 8 20q15 11 89 51.5t104 79.5q2 6 17 69t33.5 104.5t43.5 46.5h27l18 -15l4 -8q0 -85 7.5 -136.5t33.5 -119.5l12 -12q3 -21 19.5 -39t36.5 -36t26 -34v-12q0 -16 -28 -36t-68 -40.5t-47 -25.5q-45 -77 -49 -207l-29 -27h-35l-26 27
q-7 17 -12 50.5t-3 51.5q-5 6 -7.5 26t-8.5 29q5 22 -21 65.5t-47 59.5q-8 3 -24.5 6t-28.5 6.5t-24.5 10t-18 18t-2.5 27.5zM209 848q-32 -133 -197 -221q13 -15 56.5 -53.5t68.5 -71.5q18 -23 31.5 -86t28.5 -84q-2 -3 -1 -8t5 -5q32 115 245 246q-25 29 -83 78
t-96.5 95.5t-53.5 103.5zM885 1063q69 -57 82 -117l4 -4q4 23 36 53.5t62 48.5v5q-52 64 -63 120l-5 -4q-34 -43 -67 -67l-15 -8q-15 -9 -25.5 -16t-8.5 -11z" />
    <glyph glyph-name="i" unicode="i" horiz-adv-x="980" 
d="M27 797q-9 31 -7 45l7 10q30 27 80.5 47t98 33.5t112.5 50.5t122 94q29 29 45.5 86t21 108.5t18 98.5t36.5 60l31 4q8 -3 15 -11t11.5 -17t7.5 -23.5t4.5 -25.5t2 -28t0.5 -25v-22.5v-15.5q0 -75 11.5 -130.5t42 -104t62.5 -83.5t93 -90q4 -2 33.5 -6.5t49.5 -16
t15 -34.5l-6 -21q-22 -28 -25 -30q-85 -36 -108 -41q-21 -19 -69.5 -48t-61.5 -38q-57 -40 -94 -83t-55.5 -79t-27.5 -88t-9.5 -90t-1 -106t-3.5 -116q-8 -16 -8 -30q-2 -3 -5.5 -7.5t-6 -7t-5.5 -6t-6.5 -6t-7.5 -4.5h-51q-17 25 -20 35q2 61 -2.5 175.5t-4.5 156.5
q0 111 -37.5 225.5t-115.5 146.5q-29 13 -80.5 17.5t-71.5 9.5zM287 842l-6 -4q0 -6 5.5 -12.5t10.5 -8.5q95 -73 143 -215q0 -6 5 -23.5t10 -17.5q4 0 6.5 4t5 9.5t4.5 7.5l66 71q13 14 30.5 28.5t29 24t36 25.5t32 21t37.5 24t33 21l-24 24l-17 6q-32 25 -55 63t-46 91
t-36 76q-25 -22 -60.5 -60.5t-60.5 -65.5t-65 -53t-84 -36z" />
    <glyph glyph-name="j" unicode="j" horiz-adv-x="657" 
d="M143 379q-10 4 -36.5 10t-43.5 11.5t-30 21t-10 39.5q9 12 12 28q9 7 103.5 59t131.5 101q3 9 21 84.5t41 127t53 57.5h35l20 -17l6 -10q0 -102 9.5 -165.5t40.5 -147.5l16 -17q4 -32 47 -72t51 -61v-16q0 -18 -33 -42.5t-83 -51t-58 -31.5q-54 -98 -61 -254l-33 -33h-43
l-35 33q-7 21 -12.5 63t-3.5 64q-6 7 -10 31t-11 34q7 28 -25 80.5t-59 73.5zM281 506q-2 -2 -19 -11t-30.5 -19t-10.5 -15q35 -27 63 -65t35 -77l7 -6q5 29 44.5 67t75.5 60v4q-65 77 -77 150l-4 -6q-47 -54 -84 -82z" />
    <glyph glyph-name="k" unicode="k" horiz-adv-x="1871" 
d="M61 674q-4 24 -4 37l4 8q24 21 64 37t77.5 26.5t89 39.5t95.5 73q29 29 42 93t22 118.5t32 67.5l25 4q33 -12 33 -134q0 -60 9 -103.5t32.5 -81.5t49 -65.5t73.5 -70.5q3 -2 25.5 -5.5t38 -12.5t11.5 -27l-4 -14q-17 -23 -20 -25q-57 -27 -84 -33q-17 -16 -56 -38
t-49 -29q-53 -38 -84.5 -77.5t-43 -78t-15.5 -83.5t-2 -94t-2 -110q-8 -8 -8 -24q-15 -20 -25 -23h-41q-2 4 -7 13.5t-7 13.5q1 48 -1.5 138t-2.5 124q0 50 -10.5 106.5t-39.5 112.5t-71 74q-23 9 -63 12t-58 8zM889 932q0 18 26 37.5t64.5 40.5t50.5 30q19 15 34.5 68
t45.5 80l4 37l4 8q0 30 8 49q4 5 21 14h22q9 -2 25 -18q4 -26 4 -56t-2 -66t-2 -56q0 -54 29.5 -120.5t74.5 -80.5q7 -1 21 1.5t20 2.5q21 0 43 -26v-33q-22 -27 -52 -40t-54 -20t-49 -24.5t-46.5 -65.5t-37.5 -131q-14 -18 -33 -24h-12q-5 0 -13 4l-24 24q-4 31 -5 94.5
t-5 94.5q-3 14 -17 37.5t-16 37.5q-26 29 -40.5 36t-51.5 12q-26 13 -37 32v21zM262 707q0 -5 12 -17q33 -24 51 -46.5t37 -61.5q11 -17 25 -60q0 -5 4 -19t8 -14q3 0 5 3.5t4.5 8t3.5 5.5l51 57q15 16 37.5 33t36 26t45.5 28.5t39 23.5l-21 20l-12 4q-25 21 -43.5 52
t-36 70.5t-29.5 58.5q-22 -18 -60 -60.5t-73 -70t-80 -37.5zM1026 940q17 -5 33.5 -24.5t34 -49.5t24.5 -39q3 -24 12 -41l5 -4q7 6 22 23.5t25 25.5l12 5l12 12q-16 17 -52.5 89.5t-39.5 74.5q-48 -51 -88 -72zM1536 707v36q5 7 9.5 23t6.5 20l13 13q4 4 10 4h24q1 0 25 -8
q7 -5 16 -16.5t9 -18.5q-2 -10 -6.5 -29t-6.5 -29q-28 -28 -45 -28h-20q-1 1 -11.5 8t-16 13t-7.5 12zM850 37v16q0 4 1.5 21t0.5 26q1 1 6.5 14t9.5 15q3 0 9 2t8 2h28l33 -33l4 -12q-10 -44 -8 -59q-16 -23 -33 -29h-28q-4 0 -13 4t-12 8q0 3 -3 12.5t-3 12.5zM1788 1133
q-9 0 -24 21t-19 34l4 33q18 27 23 28h36q37 -26 37 -65q0 -15 -9 -26t-17 -14.5t-27 -10.5h-4zM756 1346q-9 0 -20 16.5t-11 26.5v12q3 11 12 20q2 1 6 4.5t7 5.5t6 3h28q10 -3 17.5 -14.5t7.5 -22.5v-11q-12 -29 -25 -36q-16 -4 -28 -4z" />
    <glyph glyph-name="l" unicode="l" horiz-adv-x="1040" 
d="M37 694v39l6 12q34 40 126 97t124 86q21 19 61 70.5t64 70.5q17 44 45 86v23q9 17 18 22q31 201 45 221l23 13h22q2 0 23 -7l18 -16q13 -29 26 -77.5t19 -77t19 -96.5t14 -73q30 -28 78.5 -124.5t65.5 -120.5q1 -1 48.5 -58t75 -99.5t23.5 -63.5l-10 -29q-5 -11 -44 -32
t-85 -45.5t-96.5 -72.5t-77.5 -106q-9 -18 -31.5 -103.5t-46 -156.5t-41.5 -76h-39q-13 4 -30.5 24.5t-20.5 32.5q7 70 -33.5 196.5t-116.5 243t-153 140.5q-93 -8 -119 57zM225 733q79 -34 143 -107.5t101 -156t57 -174.5l6 6q15 66 48.5 121.5t72 90.5t75 61t65 45
t34.5 30v4q-55 41 -137.5 184t-124.5 244h-4q-14 -19 -45.5 -61.5t-47 -63.5t-42.5 -53.5t-53 -60.5q-17 -9 -29 -11q-12 -14 -28.5 -28t-26.5 -21.5t-33.5 -22.5t-30.5 -20v-6z" />
    <glyph glyph-name="m" unicode="m" horiz-adv-x="763" 
d="M25 496q18 27 141 86t143 73q42 30 64.5 70t26.5 72.5t14.5 64.5t31.5 47q27 9 52 9q4 0 12.5 -4t9.5 -5l15 -14q16 -31 30.5 -142t28.5 -149q10 -30 62.5 -109t52.5 -124q0 -27 -29 -47.5t-65.5 -31.5t-78 -27t-59.5 -32q-20 -30 -42 -115.5t-60 -117.5h-60
q-18 5 -57 51l-14 80l-15 23q-4 25 -12 49t-14.5 39.5t-19 42.5t-19.5 43q-107 57 -139 108v60zM250 451q67 -80 88 -152q21 25 52.5 49t52.5 37t63 37v8q-11 16 -33 79t-33 73q-30 -36 -100 -76t-90 -55z" />
    <glyph glyph-name="n" unicode="n" horiz-adv-x="3690" 
d="M1200 -88q-3 39 45 51q71 18 141 33q7 2 22 5t22 5q49 10 66 28.5t26 69.5q9 61 39 195q10 49 36 49q21 0 37.5 -21.5t24.5 -45.5q8 -25 17.5 -73.5t11.5 -57.5q2 -6 4 -18t2 -13q15 -69 35.5 -88t89.5 -33q73 -15 147 -33q28 -7 38.5 -19.5t10.5 -35.5q-3 -40 -53 -51
q-84 -19 -158 -33q-6 -2 -20.5 -5t-20.5 -5q-54 -17 -63 -74q-5 -27 -15.5 -83.5t-15.5 -84.5q-6 -30 -18 -57q-16 -32 -41 -29q-24 2 -40 16.5t-16 38.5q-22 110 -34 181q-9 51 -28.5 70t-72.5 30q-32 7 -90.5 19t-77.5 16q-51 12 -51 53zM2888 1165q-37 12 -37 39
q0 34 37 41q10 3 100 23q7 2 23.5 5t23.5 5q49 12 55 63q4 24 14.5 71t14.5 71q2 19 23 53h12q41 -26 51 -90q3 -19 23 -111q9 -50 59 -59q19 -3 52 -10.5t48 -10.5q8 -2 23.5 -6t23.5 -6q26 -10 29 -35q0 -29 -31 -39q-20 -8 -30 -10q-15 -3 -48.5 -10t-52.5 -10
q-38 -7 -52.5 -22t-22.5 -52q-4 -18 -11.5 -55t-11.5 -56q-4 -24 -10 -36q-13 -33 -37 -31q-31 3 -37 35q-5 14 -8 34q-14 70 -21 113q-8 58 -71 70q-12 2 -37 6t-37 6q-45 10 -57 14zM35 774q-35 8 -35 35q0 23 33 31q11 3 45 13t53 13q24 4 35 17t14 37q3 17 10.5 51.5
t10.5 52.5q1 4 4.5 13t5.5 14q24 -6 59 12q14 -6 22.5 -17t11.5 -19.5t7 -25.5q1 -7 6.5 -33t6.5 -40q9 -49 57 -58q18 -3 78 -16q3 -1 11 -3t12.5 -3.5t10 -4.5t8 -8.5t3.5 -13.5q0 -40 -123 -57q-54 -9 -57 -59q-1 -15 -7.5 -42.5t-7.5 -35.5q-6 -26 -32.5 -44.5
t-51.5 -13.5q-24 5 -28 35q-16 78 -17 84q-6 64 -67 70q-18 3 -78 16z" />
    <glyph glyph-name="o" unicode="o" horiz-adv-x="3567" 
d="M1624 -133q-42 13 -39 53q3 38 39 47q24 6 71 16.5t70 16.5q9 2 28 6t28 6q77 12 86 90q4 31 11 65t16 76.5t14 65.5q9 39 32 43q27 4 52 -33q17 -26 32 -91.5t19 -108.5q11 -103 117 -115q23 -4 64.5 -13t49.5 -11q24 -3 47 -13q42 -9 45 -49q0 -41 -43 -51
q-65 -16 -168 -39q-59 -12 -79.5 -32.5t-30.5 -78.5q-5 -23 -13.5 -70t-13.5 -71q-6 -28 -22 -61q-9 -24 -39 -27q-47 6 -53 49q-6 30 -18.5 91.5t-18.5 92.5q-10 55 -30.5 76t-76.5 31q-68 12 -135 27q-19 3 -41 12zM2796 1210q-36 7 -33 39q3 27 33 35q15 3 48 10.5
t52 10.5q74 13 82 84q2 17 6 37t9.5 44t8.5 37q3 20 29 29q21 -7 29 -21t14 -40q12 -47 18 -93q12 -67 76 -75q46 -7 76 -17q3 -1 15 -3t17 -4t13 -6t11 -11t3 -17q1 -14 -6 -23.5t-13.5 -12.5t-22 -6.5t-19.5 -4.5q-38 -13 -70 -16q-72 -5 -82 -84q-4 -37 -20 -107
q-8 -32 -33 -32q-32 -3 -39 34q-3 20 -11 58t-11 55q-9 67 -74 76q-21 2 -59.5 12t-46.5 12zM0 850q5 7 11.5 12.5t11 8t15 5t13.5 3.5t16.5 2.5t14.5 1.5q39 6 59 25t23 57q0 3 1.5 13.5t2 15t2 14t4 15t6 13t8.5 14.5t11 13q11 -7 19 -16t12 -15t7.5 -20.5t4 -18
t2.5 -20.5q6 -84 90 -90q53 -8 72 -29q8 -39 -35 -43q-130 -6 -133 -131q0 -36 -29 -49q-22 -2 -33 28q-6 15 -6 29q-3 118 -117 121q-48 0 -53 41z" />
    <glyph glyph-name="p" unicode="p" horiz-adv-x="1658" 
d="M33 1130q-36 11 -33 46q3 28 33 38q62 16 119 27q7 2 23.5 5t23.5 5q62 12 71 76q6 46 33 172q8 32 29 37q24 5 41 -29q31 -40 43 -168q11 -81 98 -94q45 -8 131 -28q39 -10 41 -43q0 -39 -41 -46q-67 -18 -135 -30q-50 -9 -66.5 -25.5t-25.5 -66.5q-4 -20 -11.5 -62.5
t-11.5 -62.5q-6 -31 -20 -49.5t-31 -18.5q-37 0 -51 66q-3 17 -12 64t-13 73q-7 39 -24.5 55.5t-57.5 24.5q-19 4 -58.5 12t-59.5 12q-22 4 -35 10zM840 -276q0 14 7 22t15.5 10t22.5 4t20 4q30 10 60 13q44 9 53 55q3 20 10 55.5t10 51.5q7 21 25 30q30 -11 37 -53
q12 -46 14 -72q9 -62 74 -71q4 -1 78 -17q28 -7 26 -32q0 -22 -26 -29q-15 -3 -46.5 -11.5t-48.5 -11.5q-47 -9 -53 -55q-2 -13 -8 -40t-8 -42q-3 -15 -5 -22t-10.5 -16t-21.5 -9q-5 0 -8.5 1.5t-6 3t-5 5t-4 5.5t-2.5 7t-1.5 7t-2 8.5t-1.5 7.5q-12 46 -14 70q-9 68 -72 73
q-21 0 -47 11q-3 1 -18.5 3.5t-21.5 5t-13 9.5t-8 19z" />
    <glyph glyph-name="q" unicode="q" horiz-adv-x="1259" 
d="M231 537q0 41 45 53q24 6 71 16.5t71 16.5q30 4 43 8q50 10 66.5 28.5t25.5 71.5q5 27 18.5 93t20.5 102q10 47 39 47q9 0 22 -10q22 -16 37 -58q9 -24 18 -69.5t13 -61.5q0 -1 2 -13t4 -18q13 -68 33.5 -87t91.5 -33q44 -7 145 -33q29 -7 40.5 -19t9.5 -34t-14 -34
t-40 -18q-92 -22 -155 -34q-7 -2 -21.5 -5.5t-21.5 -5.5q-52 -18 -64 -73q-5 -28 -15.5 -84t-15.5 -84q-17 -86 -59 -86q-38 3 -49 34q-3 12 -6 21q-6 29 -17.5 89.5t-17.5 90.5q-9 51 -28 71t-70 30q-25 5 -81.5 16.5t-86.5 17.5q-51 12 -54 54z" />
    <glyph glyph-name="r" unicode="r" horiz-adv-x="2353" 
d="M31 381q-31 3 -31 31q0 22 29 26q5 1 13.5 2t12.5 2q105 7 192 59t143 130t95 177.5t55.5 198.5t16.5 195q4 27 25 27q12 1 18 -7t8 -22q2 -23 5 -70t5 -71q11 -92 30.5 -172t57 -161.5t88.5 -140.5t129 -98.5t175 -46.5q27 0 39 -4q20 -3 20 -26q0 -24 -22 -27
q-14 -2 -43 -2q-84 -6 -152.5 -31t-116.5 -62.5t-85 -92t-60 -111.5t-38 -129.5t-22 -136.5t-10 -142q0 -41 -2 -59q0 -27 -28 -27q-27 3 -27 35q-1 19 -3 54.5t-3 54.5q-4 112 -30.5 214.5t-78 194t-139 153.5t-201.5 79q-3 1 -65 6zM1649 786q0 19 20 19q63 6 111 40
t76 86t43.5 107t21.5 117q0 3 -0.5 12.5t2 16t10.5 10.5q8 -4 11 -9t3.5 -17t0.5 -13q4 -53 12 -96.5t25.5 -91t43.5 -80.5t68.5 -56t97.5 -26q18 0 23 -12q-4 -17 -31 -17q-51 -6 -90 -21.5t-64 -42.5t-41 -54t-25.5 -70t-13 -75.5t-7.5 -84.5q0 -32 -11 -43q-9 4 -13.5 11
t-5 11t0 15t0.5 12q-4 52 -12 95t-26 88.5t-43.5 77.5t-68 54t-96.5 27q-18 0 -22 10z" />
    <glyph glyph-name="s" unicode="s" horiz-adv-x="2015" 
d="M29 199q-9 1 -14.5 3t-10.5 8t-4 15q2 17 29 21q52 6 53 6q73 14 131.5 56.5t95 98t62 128t37 139.5t16.5 139q0 29 18 35q8 -2 12.5 -6t6.5 -10.5t2.5 -10.5t0 -13t-0.5 -11q36 -522 366 -551q4 0 15 -0.5t16.5 -1.5t12 -5.5t10.5 -13.5q0 -20 -25 -24q-12 -2 -37 -2
q-63 -4 -114.5 -24t-87.5 -49.5t-63.5 -73t-44 -88t-27 -100.5t-15 -105t-6.5 -107q0 -44 -14 -62h-13q-7 5 -11 10t-5.5 13.5t-2 12.5t0 15.5t0.5 14.5q-2 88 -18 168.5t-51 158t-98.5 132.5t-150.5 75q-21 5 -71 9zM1305 821q-1 10 4 13.5t16 5.5q64 6 112 39t76 85.5
t43 107.5t21 118q0 2 -0.5 7.5t0 9t1 8t3 8t6.5 6.5q6 -2 10 -6t4.5 -7.5t1.5 -9.5t1 -8q4 -55 11.5 -99t25 -93.5t43.5 -82.5t70 -56.5t101 -26.5q14 -4 19 -13q-1 -5 -2.5 -8.5t-5 -5t-6 -2.5t-8 -1.5t-7.5 -0.5q-44 -5 -79 -18t-59 -29.5t-42 -44t-28 -51.5t-17.5 -63
t-10.5 -66.5t-7 -73.5q0 -34 -13 -45q-8 4 -12 11t-4.5 11.5t0 14.5t0.5 12q-5 54 -12.5 96.5t-25.5 89t-44 77.5t-69 53.5t-99 25.5q-16 4 -18 12z" />
    <glyph glyph-name="t" unicode="t" horiz-adv-x="1128" 
d="M522 -147q-3 0 -10.5 0.5t-11 1.5t-7 4.5t-4.5 9.5q1 5 4 8t5.5 3.5l7.5 1.5t6 1q59 4 104 35.5t71.5 80.5t40.5 102t17 110q1 8 0 14.5t2 13t11 9.5q5 -2 7.5 -4.5t3.5 -6.5t1.5 -6.5t0 -7.5t-0.5 -6q4 -49 11 -89t23 -86t39 -77.5t61.5 -54.5t88.5 -27h11t14.5 -3.5
t7.5 -12.5q-5 -12 -31 -12q-56 -5 -97 -27t-64 -51t-37.5 -74t-19.5 -85t-7 -95q0 -2 0.5 -7.5t0 -8.5t-1.5 -7.5t-3.5 -7t-7.5 -4.5q-4 1 -7 3.5t-4.5 4.5t-2.5 6.5t-1 6v6.5v6q-3 88 -22 153q-61 171 -199 179zM29 1229q-3 1 -10 1.5t-11.5 1.5t-7.5 5q0 6 2.5 9t4.5 4
t7 2t6 1q45 4 80 28.5t54.5 62.5t30.5 78.5t14 84.5v8t0.5 8t2.5 7.5t7 5.5q5 -3 7 -7.5t2.5 -12t0.5 -9.5q5 -51 14 -88.5t28 -77.5t54.5 -63t85.5 -27q3 0 11 -4l6 -6q-5 -6 -9.5 -8.5t-12 -3t-9.5 -0.5q-41 -3 -71.5 -20.5t-47.5 -39t-28 -57.5t-15 -63t-8 -70
q0 -2 0.5 -8t0.5 -9t-2 -8.5t-5 -9.5q-14 4 -14 29q-3 74 -21 123q-16 53 -55.5 90t-91.5 43z" />
    <glyph glyph-name="u" unicode="u" horiz-adv-x="1523" 
d="M0 510q4 13 10.5 22t16 12.5t16.5 5t20.5 2t18.5 1.5q91 13 168.5 48.5t136 86.5t106.5 119t81 141t57.5 158t38.5 164.5t22 165.5q2 13 5 40.5t5 41.5q2 5 23 18q12 -3 19.5 -9t10.5 -15.5t4 -16t1 -19.5v-18q24 -229 46 -326q9 -37 19 -71q34 -114 81.5 -201
t116 -156.5t164.5 -108.5t216 -46q34 -4 45 -39q-8 -16 -21 -24t-22.5 -9.5t-28.5 -2t-26 -1.5q-390 -29 -519 -414q-24 -68 -39 -152.5t-20 -140t-12 -157.5q-2 -22 0 -41t-3.5 -41t-21.5 -39q-13 0 -22.5 4t-14.5 7.5t-8 15t-4 15t-1.5 19t-0.5 17.5q-12 239 -43 356
q-30 112 -73 200.5t-106.5 163t-153.5 122t-204 63.5q-9 2 -28 2t-31 1t-25 10t-20 26z" />
    <glyph glyph-name="v" unicode="v" horiz-adv-x="956" 
d="M72 614v131q0 38 22 84.5t51 71.5q36 11 82 17q43 -6 90 -25q59 -55 97 -120t75 -159q-3 -11 7 -45.5t18 -52.5q111 111 164 152q66 50 131 77h49l16 -8q39 -43 50 -73v-33q0 -52 -28.5 -109.5t-72 -109.5t-89.5 -101t-87.5 -101.5t-58.5 -94.5q-23 -21 -47 -39
t-59.5 -42t-49.5 -34h-82q-32 9 -68 67.5t-63.5 125t-57.5 137.5t-48 96q-1 32 -21 92.5t-20 95.5z" />
    <glyph glyph-name="w" unicode="w" horiz-adv-x="1175" 
d="M428 119q-55 64 -109.5 138t-112.5 166t-94 183.5t-36 159.5q0 30 24 84l41 43q6 2 39.5 13t55.5 12q33 -14 61 -28t49.5 -25t45 -28t37.5 -26t35.5 -31t31 -31t33 -37.5t32 -39t37.5 -47.5t41 -52q117 170 168 201l16 27l19 8q23 38 73 56t103 20q13 -5 67 -43
q17 -28 17 -41v-94q0 -63 -55 -182t-132.5 -235.5t-171.5 -203t-163 -86.5q-12 0 -45.5 16t-47.5 27q-9 20 -14.5 30.5t-18 25t-26.5 20.5z" />
    <glyph glyph-name="x" unicode="x" horiz-adv-x="1193" 
d="M78 729q0 12 2 24t4.5 21t9.5 20.5t10.5 18t13.5 17.5t14 15.5t17 15.5t16 14t17.5 14.5t16.5 13.5l41 15l108 -15q69 -44 125 -133t86.5 -180.5t44.5 -183.5q15 19 92.5 172t83.5 178q25 30 69.5 63.5t78.5 44.5h67q64 -22 95 -67l26 -68v-94q0 -66 -40.5 -156
t-101 -175.5t-122 -157t-113.5 -119.5q-5 -2 -24 -9.5t-34.5 -12.5t-23.5 -5h-106q-104 40 -216 171t-184.5 288t-72.5 270z" />
    <glyph glyph-name="y" unicode="y" horiz-adv-x="1056" 
d="M457 2q-53 24 -147.5 169t-166 302.5t-65.5 214.5l10 100q15 38 53 76.5t76 53.5h49q106 0 219 -140q7 -37 51.5 -116t49.5 -123l10 -11q10 25 79 93.5t99 87.5q5 17 18 28.5t34 23.5t28 17h80q44 -13 70 -80v-80q0 -67 -85.5 -198.5t-187.5 -245.5t-166 -162
q-47 -17 -108 -10z" />
    <glyph glyph-name="z" unicode="z" horiz-adv-x="784" 
d="M82 733q0 14 5 50t3 55q7 24 45.5 48.5t67.5 31.5h8q84 -30 153 -114t78 -173h9q13 15 53.5 81.5t81.5 94.5h80q18 -6 33 -25.5t22 -40.5v-110q0 -46 -33.5 -154.5t-38.5 -132.5q-18 -25 -44.5 -84t-48.5 -109t-59 -95t-79 -56h-72l-24 8q-58 51 -149 299.5t-91 331.5v94
z" />
    <glyph glyph-name="braceleft" unicode="{" horiz-adv-x="1251" 
d="M37 803q-4 20 -4 26q0 5 16 21l2 31q10 13 35 18q44 -3 130.5 11.5t119.5 15.5l8 4q32 -2 131 8q10 7 33 77.5t47.5 151.5t34.5 101v8q4 11 24 58.5t27 72.5q6 9 24 18t29 9l15 -9q27 -31 46.5 -113t37 -172t38.5 -128v-13l13 -26l4 -4h14q50 0 152 17.5t153 17.5
q17 0 29 -15t12 -33q0 -25 -55 -82t-139 -129.5t-90 -78.5v-9q0 -43 54 -208t54 -211l-8 -19q-13 -16 -31 -22h-14q-36 12 -111.5 68.5t-138 105.5t-74.5 49l-4 -8l-96 -88q-12 -22 -88 -101.5t-158.5 -152.5t-103.5 -70q-7 2 -23 18l-8 29q5 28 53 164.5t92.5 261
t42.5 131.5q-11 15 -76.5 46.5t-140.5 73t-108 79.5zM528 868q-5 -17 -79 -219v-10l6 -8l16 -4q22 -20 53 -40t70 -42t57 -33h4q27 30 90 84t91 84v20q0 7 -8 35.5t-7 32.5l-8 16q1 8 -9.5 55t-12.5 52l-5 4q-29 -10 -131 -10q-98 0 -127 -17zM344 328q-2 -5 -11.5 -29
t-19 -49t-19.5 -51.5t-15.5 -45.5t-4.5 -22q17 16 63.5 60t70.5 68t62 61.5t68 71t56 65.5v8l-57 35q-7 4 -47 30.5t-62 34.5h-4q-38 -102 -37 -108q-11 -22 -24 -68t-19 -61zM678 1315q-13 -26 -67 -195t-52 -174h23q97 0 184 19q-2 19 -6 40.5t-7.5 39.5t-9.5 43.5t-10 41
t-12 44t-11.5 40.5t-12.5 42.5t-11 37.5q0 17 -8 21zM106 829q8 -11 140.5 -84t140.5 -73l4 12q3 8 7.5 23.5t7.5 23.5q2 4 18.5 55.5t30.5 73.5v4h-27q-158 0 -322 -35zM717 473q0 -8 8 -12l86 -69q86 -70 129 -93v12q0 27 -22 90t-21 86q-3 5 -17 62t-14 61h-4
q-5 -6 -42 -39t-70 -63.5t-33 -34.5zM862 899q4 -21 17.5 -73.5t17.5 -80.5q4 -4 8 -4q5 0 71 61.5t87 82.5q2 2 15 12t21.5 19t6.5 14q-26 -3 -77 -8t-91.5 -10.5t-75.5 -12.5z" />
    <glyph glyph-name="bar" unicode="|" horiz-adv-x="1077" 
d="M193 504q-44 4 -98.5 33t-49.5 67l8 25q44 34 148 61.5t141 48.5q0 274 -10 303l6 43q20 51 68 62q38 -11 73 -50.5t58 -83.5t53.5 -92.5t58.5 -70.5h25q16 0 127 41.5t127 44.5q13 -1 21.5 -2t13.5 -1.5t11.5 -6t9 -7t12 -11.5t14.5 -15q4 -24 4 -35q0 -31 -38.5 -95.5
t-77 -124t-38.5 -77.5q168 -270 178 -282q4 -24 4 -39q0 -10 -16.5 -25t-26.5 -18h-28q-46 29 -149.5 73.5t-133.5 40.5q-13 -18 -63.5 -95.5t-95 -139t-66.5 -76.5h-35q-15 8 -20.5 11t-11.5 9t-7 8.5t-6.5 15.5t-11.5 24q-4 47 -5 94.5t0 125.5t1 95l-7 35q-5 6 -17.5 14
t-14.5 10l-29 4q-12 11 -38.5 23.5t-43.5 15.5zM449 600q0 -34 8 -100q21 -15 76.5 -30t76.5 -28q6 1 19.5 -3t19.5 -3q21 16 52.5 67t33.5 54v10q-15 26 -51.5 74.5t-52.5 73.5l-15 10h-6q-6 0 -83 -27t-78 -30v-68zM461 303q0 -67 6 -135h4l10 10q4 22 52 82.5t59 85.5
q-9 6 -67 25t-62 18zM721 764v-6q35 -56 72 -105q36 42 102 162v6q-115 -36 -174 -57zM434 907q0 -104 8 -135h7q46 11 100 39v4q-9 12 -57.5 86t-49.5 78q0 2 -3.5 3.5t-4.5 0.5v-76zM246 600l-4 -4q7 -12 54 -36.5t56 -22.5v73q0 1 -6 19h-4q-18 -3 -49 -14.5t-47 -14.5z
M750 403l6 -4q14 -7 60 -21t54 -13q-6 5 -35.5 51.5t-31.5 48.5q-4 9 -10 6l-5 -14q-25 -31 -38 -54z" />
    <glyph glyph-name="braceright" unicode="}" horiz-adv-x="1341" 
d="M45 883q-4 12 -4 20q0 11 8 19l17 10h12l14 -6h6l4 4q43 16 196.5 20t170.5 13q9 5 54.5 118.5t99 228t82.5 124.5h26q9 -4 25 -25l94 -313q0 -33 22 -101l5 -4h20q59 0 178 12.5t178 12.5q7 0 19 -4q15 -9 19.5 -12.5t9 -12t4.5 -22.5q0 -33 -74 -94t-164 -123.5
t-109 -85.5v-19q4 -5 36.5 -159t37.5 -160q-4 -35 15 -62q-2 -19 6 -57.5t8 -54.5q0 -35 -29 -48h-26q-11 0 -185.5 152.5t-187.5 148.5q-39 -48 -269.5 -225.5t-265.5 -177.5q-6 0 -14 4l-10 10l-8 19v10q0 45 42.5 126t89.5 163t54 123l6 6q7 29 39 89t39 89
q-8 4 -75.5 58t-74.5 61l-10 4q-19 23 -66 61.5t-65 59.5zM506 889q-6 -7 -49 -116t-41 -111q23 -16 99.5 -83.5t121.5 -89.5q48 30 138.5 106.5t103.5 86.5v4q0 3 -1.5 11.5t-0.5 13.5l-5 4q-3 14 -10 48t-11.5 54t-12.5 48.5t-17 49.5l-4 3h-35q-18 0 -141.5 -10.5
t-130.5 -14.5zM154 104q15 -1 135.5 106t146.5 114l8 10q20 13 105 84q5 2 19.5 13.5t13.5 14.5l-19 19l-10 4q-12 7 -84.5 65.5t-79.5 61.5h-4q-13 -45 -56.5 -126.5t-56.5 -121.5q-5 -3 -35.5 -71.5t-43.5 -79.5q0 -10 -14.5 -37.5t-16.5 -32.5zM694 455q-4 -4 -4 -13
q38 -33 141 -112t154 -129v20q0 17 -38.5 184.5t-49.5 204.5h-6q-28 -25 -58.5 -49t-77.5 -59.5t-61 -46.5zM543 969v-4h39q31 0 106.5 10.5t114.5 7.5l4 4q-4 21 -18.5 76.5t-18.5 60.5q2 10 -4.5 32t-5.5 24q-10 17 -18.5 45.5t-17 67.5t-11.5 50q-8 -5 -39 -73t-35 -80
l-6 -6q-10 -38 -41 -114t-49 -101zM891 922q1 -6 8 -31t6 -35q5 -7 33 -123l4 -4q11 9 115 85.5t149 125.5v4q-8 4 -10 4q-31 0 -102.5 -9t-108.5 -7l-8 -2q-4 0 -20.5 0.5t-24.5 0t-20 -2.5t-21 -6zM154 874q24 -26 101 -81t101 -88h4q19 25 46 97.5t34 86.5v4h-47
q-173 0 -239 -19z" />
    <glyph glyph-name="asciitilde" unicode="~" horiz-adv-x="1193" 
d="M35 555v18q12 30 84 63t182.5 68t116.5 37q4 6 5 16.5t0 28t-1 19.5t-1 57.5t0.5 83t5 74.5t13 75.5t25.5 41.5l33 10q31 -3 66 -40t61 -81.5t58 -91.5t54 -64h11q16 6 62.5 28t70.5 30h4l20 8q14 -2 48 17.5t42 17.5q22 14 62 14q34 0 57 -20q5 -5 14 -23v-35
q-4 -9 -26.5 -43t-24.5 -57q-7 -5 -84 -102t-80 -107v-14q86 -139 82 -222q-19 -37 -39 -43h-32q-13 0 -54.5 9.5t-77.5 19.5l-36 10q-33 -28 -72.5 -85t-70 -108t-74 -99.5t-88.5 -65.5h-29q-2 0 -7 2t-7 2q-23 20 -29 39v55q0 54 13.5 175.5t10.5 185.5q-23 10 -148 46
t-138 36q-11 0 -25 -21h-14q-1 0 -25 6q-9 7 -18 29zM498 530l6 -4q12 -5 105 -27.5t110 -35.5q10 8 48.5 67.5t37.5 67.5q-12 25 -49.5 86.5t-50.5 71.5h-7q-34 -8 -96 -35.5t-94 -36.5l-4 -6q-6 -48 -6 -51v-97zM465 119q33 28 66.5 71.5t74 104t56.5 82.5v10l-7 4
q-25 11 -73 27t-64 16h-29q-24 -202 -24 -272v-43zM512 1028q2 -31 -5.5 -105t-2.5 -110l4 -39h4q58 37 135 53l4 4q-3 7 -26.5 42t-50 73t-27.5 39q-2 2 -9 14t-14.5 21.5t-11.5 7.5zM791 793v-5q25 -35 65 -110l10 -4q21 40 79.5 110.5t78.5 100.5v4h-4
q-44 -14 -129 -48.5t-100 -47.5zM260 592l33 -14q7 -2 34.5 -10.5t51 -14t33.5 -4.5q0 3 3 40.5t3 55.5h-10q-11 0 -19 -4q-1 0 -36 -11.5t-64 -22.5t-29 -15zM809 444v-4q39 -24 82 -24h8v10q0 20 -47 86q-14 -14 -14 -35q-21 -17 -29 -33z" />
  </font>
</defs>
</svg>
