<?xml version="1.0" standalone="no"?>
<!DOCTYPE svg PUBLIC "-//W3C//DTD SVG 1.1//EN" "http://www.w3.org/Graphics/SVG/1.1/DTD/svg11.dtd" >
<svg xmlns="http://www.w3.org/2000/svg" xmlns:xlink="http://www.w3.org/1999/xlink" version="1.1">
<metadata>
Created by FontForge 20170731 at Sun Nov 12 19:37:33 2023
 By Aleksey,,,
Copyright Nicky Laatz - All rights reserved.
</metadata>
<defs>
<font id="JustSayingLight-Regular" horiz-adv-x="888" >
  <font-face 
    font-family="Just Saying Light"
    font-weight="400"
    font-stretch="normal"
    units-per-em="2048"
    panose-1="0 0 0 0 0 0 0 0 0 0"
    ascent="1638"
    descent="-410"
    x-height="352"
    cap-height="719"
    bbox="-500 -856 1544 1559"
    underline-thickness="0"
    underline-position="0"
    unicode-range="U+000A-20AC"
  />
<missing-glyph horiz-adv-x="864" 
 />
    <glyph glyph-name=".notdef" horiz-adv-x="864" 
 />
    <glyph glyph-name="uni0000" horiz-adv-x="0" 
 />
    <glyph glyph-name="uni0000" horiz-adv-x="0" 
 />
    <glyph glyph-name="uni000D" unicode="&#xd;" horiz-adv-x="0" 
 />
    <glyph glyph-name="uni000A" unicode="&#xa;" horiz-adv-x="0" 
 />
    <glyph glyph-name="space" unicode=" " horiz-adv-x="581" 
 />
    <glyph glyph-name="exclam" unicode="!" horiz-adv-x="477" 
d="M254 393q-2 4 -5.5 14.5t-6.5 18.5q2 0 2 4l4 8l2 2l-2 13q0 15 8 51q1 8 5 25.5t5 25.5q0 1 1 3t1 3q1 1 2 3t2 3q1 2 2.5 6t2.5 7.5t2 7.5v10q0 4 2 8l2 4q0 2 4 6q4 6 4 29q0 3 10 33q1 3 3 10t3 10q6 12 6 21q5 27 19.5 77.5t19.5 75.5v5q1 1 2 3t2 3t2 3t2 3
q0 3 5 8q0 3 1 9.5t1 8.5v15q2 14 22 71q3 8 8 21t8.5 24t6.5 21q0 4 2 6v4q15 25 51 25q9 0 19 -8.5t10 -14.5q0 -3 -13 -61q-16 -54 -20 -68q-3 -4 -5 -7t-3 -3q0 -1 -1 -3t-1 -3q-5 -10 -5 -23q-2 -6 -2 -18q-2 -14 -10 -33q-10 -30 -12 -35q0 -1 -5 -12.5t-7 -19.5
q-1 -3 -3.5 -9.5t-3.5 -9.5q-2 -6 -2 -16v-6q0 -5 2 -7v-4q0 -8 -22 -76.5t-29 -86.5q-6 -12 -6 -35v-17q0 -12 -6 -18q-12 -12 -12 -37v-25q0 -17 -16 -49t-25 -32h-15q-11 11 -18 28zM160 -98q-4 4 -4 10q0 31 22.5 51.5t52.5 20.5q19 -19 19 -23q0 -10 -18 -41t-21 -31
h-37q0 1 -1 2.5t-1 2.5l-8 8h-4z" />
    <glyph glyph-name="quotedbl" unicode="&#x22;" horiz-adv-x="501" 
d="M383 494q0 25 11.5 91t19.5 77l2 4v2q0 31 10 71q8 7 12 21q1 3 3 8t3 8q3 10 27 10q10 0 25.5 -9.5t15.5 -14.5q0 -18 -6 -39q-3 -18 -10 -39q0 -2 -2 -4l-2 -6q-5 -10 -5 -15v-12v-4v-6q0 -1 -1 -5t-1 -7q-2 -5 -5.5 -17t-4.5 -16q-11 -46 -14 -55q-10 -26 -19 -41
q-12 -21 -24 -21q-25 0 -31 6q-1 1 -1.5 3t-1 5t-1.5 5zM195 489q0 84 28 170l2 3v4q0 19 13 71q3 3 5 6t4 7l3 6q4 12 6 16q4 12 27 12q10 0 25.5 -10t15.5 -16q0 -16 -7 -37q-8 -29 -10 -41q0 -1 -2 -4t-2 -4q-1 -2 -6 -17q0 -8 2 -12v-8q-1 -2 -2 -6t-2 -6q-5 -27 -8 -35
q-7 -29 -15 -53q-9 -28 -18 -41q-13 -23 -25 -23q-26 0 -30 8q-1 0 -4 10z" />
    <glyph glyph-name="numbersign" unicode="#" horiz-adv-x="1380" 
d="M215 168q0 22 28 40.5t54 18.5q9 0 28 -1t29 -1q41 0 95 8q20 5 22 5q6 2 18 2h5l14 16q0 2 1 7t1 7v6l-2 7v4v8q1 2 2 5.5t2 4.5q3 7 8 33q1 5 2 15.5t2 15.5q3 34 11 57l2 6l-15 21h-6q-6 -1 -18.5 -3t-23 -3t-19.5 -1q-5 5 -6 5q-8 4 -13 4q-21 0 -60.5 -7.5
t-58.5 -7.5q-10 0 -18 4h-8h-10q-4 -2 -11 -2q-6 -2 -14 -2q-2 2 -3.5 6t-2.5 5v4l-4 2q-4 2 -4 12q6 9 6 18q1 1 2 4.5t2 4.5q0 1 1 3t1 3q10 13 29 16q6 2 18 2h21q12 0 35 1t34 1h8l7 2q2 2 6 2h4q4 0 11.5 -1t10.5 -1h6q2 2 5 2q1 1 4 2t4 2q4 1 9 3t7 2q6 0 18 -2.5
t17 -2.5q8 0 12 2q2 0 5 1.5t5 1.5q12 4 15 4q1 1 5.5 2.5t8.5 3.5q6 6 6 16q2 6 2 23q4 6 6 8l2 2v4q0 19 7 47q2 8 6 23.5t6 23.5q1 3 4 8.5t4 8.5q2 4 6.5 10.5t5.5 9.5q1 1 2 4t2 4q0 1 1.5 3t1.5 3q3 5 4 5q10 4 37 4q22 0 22 -27q0 -13 -8 -33q-4 -12 -6 -16
q-4 -12 -4 -21q-2 -4 -2 -12q0 -6 -2 -8q0 -1 -3 -4q-6 -6 -6 -13q-8 -16 -8 -45q0 -34 31 -34q2 0 5 1t5 1t5.5 1t4.5 1q11 4 15 2h4l4 2q9 6 39 6q8 0 25 -1t22 -1q94 0 156 16q4 0 11.5 1t10.5 1q1 0 6.5 2t7.5 4q6 8 11 23q0 14 2 20q0 1 4 9l4 8q0 1 1 4.5t1 5.5
q1 4 2 19t2 22q0 15 2 23q0 10 2 12t2 4q2 0 6 4q0 2 4 6q18 35 43 35q8 0 18.5 -15.5t10.5 -27.5q0 -2 -3 -23t-3 -22q-8 -13 -8 -29q0 -4 -4 -20q0 -2 -1 -5.5t-1 -4.5q0 -3 -1 -8t-1 -7q0 -15 9 -25t23 -10q70 0 111 13q4 0 12 4q2 0 10 4h9q14 0 38 -2t37 -2
q23 0 23 -23q0 -12 -2 -16q-4 -8 -39 -20.5t-49 -12.5q-2 2 -6 2h-6q-9 0 -13 -2q-1 0 -4 -1t-4 -1q-24 -4 -35 -4h-39q-52 0 -75 -8q-1 0 -9 -4q-2 -2 -4 -2q-3 -3 -6 -9q-3 -10 -8 -38q0 -25 -2 -37q0 -3 -4 -11q0 -4 -4 -12t-4 -14q-5 -10 -5 -15q0 -3 3 -6v-4l2 -4
q0 -7 -13 -37q-5 -10 -8 -22q-6 -9 -6 -21q0 -20 16 -24q8 -4 23 -4q9 0 27 2t26 2q33 0 76 -11q27 -3 41 -12l12 -10q0 -15 -29 -25q-22 -7 -79 -14q-63 -4 -82 -6q-5 -1 -15.5 -2t-13.5 -2q-4 0 -12 -4q-11 0 -25 -72q-3 -29 -6 -61l-4 -19q-20 -42 -23 -84
q-1 -6 -3 -19.5t-3 -19.5q-13 -69 -59 -69l-8 8q-15 10 -17 12q-2 4 -2 16q0 23 10 68q3 13 10 37t9 33q3 13 8 51q6 46 6 47q0 5 1 10l1 4q2 0 2 4q3 3 6 9l3 2v10v8q4 8 4 10l2 7l-11 18h-4h-28q-2 0 -6.5 -1t-6.5 -1q-16 -4 -20 -4q-2 0 -2 2l-2 2l-19 2l-2 -2l-4 -4
q-4 0 -6 4l-6 4l-6 -4h-10q-3 0 -9 1t-8 1q-18 0 -55 -4t-55 -4h-5q-2 2 -4 2l-4 2h-18l-8 -2q-2 -2 -7 -2l-4 -2q-1 1 -3 2t-3 2q-2 0 -7 1t-9 1q-16 0 -35 -29q-10 -27 -10 -49q0 -4 2 -6q-2 -8 -2 -12q-4 -4 -4 -7l-4 -8q-7 -25 -31 -133l-2 -2l2 -4l2 -4q0 -28 -22 -60
t-44 -32t-22 57q9 14 12 37v6l4 8q7 17 11 47q5 34 8 45q2 13 10 38t10 32v14q0 2 -1 5.5t-1 5.5q1 1 2 3t2 3q1 2 2 6.5t2 5.5v6l-12 21l-10 2q-23 0 -66.5 -5t-64.5 -5h-11q-1 0 -3 1t-3 1h-8h-14q-2 -1 -6 -2.5t-6 -2.5q-8 -2 -21 -2l-14 7q-3 1 -8.5 3t-8.5 3
q-8 4 -10 6t-2 4zM627 455q-12 -17 -26.5 -89.5t-14.5 -95.5q0 -12 8 -24l8 -6h21q15 0 46 3t46 3q10 0 16 -2q2 0 5 -1t5 -1h11q35 0 43 4l8 2q2 0 4 2q19 0 53 -5t51 -5h15l16 12v4q14 58 16 70q11 41 13 73q0 13 2 21q0 8 2 12v4l4 4q2 2 2 4q6 6 6 17q0 8 -2 12v4
l-16 17h-8q-4 0 -12 -1t-11 -1q-12 -3 -18 -3h-35q-17 0 -37 -8q-12 -4 -17 -4q-4 -2 -12 -2h-6q-1 0 -3 1t-3 1t-4 1t-4 1h-23q-2 -1 -5 -2t-5 -2q-12 -4 -16 -4q-5 0 -7 2l-2 2h-2q-19 0 -59 -4q-1 0 -3 -1t-3 -1q-1 -1 -3 -2t-3 -2q-2 0 -4 -2q-2 2 -7 2h-4q-1 0 -3 1
t-3 1q-13 0 -20 -12z" />
    <glyph glyph-name="dollar" unicode="$" horiz-adv-x="741" 
d="M211 100q-15 0 -33 19t-18 33q0 12 13 22t26 10q22 0 49 -6q16 -4 24 -4q20 -4 27 -4q65 0 188 37q21 6 36.5 26.5t15.5 45.5q0 23 -15 38q0 1 -1 3t-1 6v2l-2 4q-25 38 -72.5 65t-93.5 35q-9 0 -66.5 27.5t-62.5 38.5l-6 6l-6 6l-10 10q-10 6 -17.5 25.5t-7.5 38.5
q0 29 32.5 73.5t59.5 59.5q2 2 10.5 5.5t12.5 6.5q16 8 33 25q0 1 1 2t1 2q4 2 12 2q22 0 52.5 22.5t31.5 48.5v43v9q5 71 16 118q16 74 56 74q15 0 25.5 -9t10.5 -22q0 -26 -8 -45l-6 -24q-3 -12 -6 -27v-4q0 -1 1 -2t1 -2q0 -14 -3 -39t-3 -39q0 -18 6 -33l2 -6h43
q10 0 31 2t33 2q6 0 10 -2q3 -1 8 -3t8 -3q6 -2 21 -2h18q24 0 60 -31.5t36 -54.5v-2q-15 -37 -51 -37q-11 0 -22 8q-5 2 -16.5 9t-16.5 10q-60 31 -107 31q-37 0 -106 -17.5t-90 -38.5q-2 -1 -9 -2.5t-14 -3.5q-16 -4 -50 -36t-34 -52q0 -11 11 -22q8 -12 20 -21
q42 -28 63 -39q76 -37 115 -47q11 -2 27 -14q3 -2 7.5 -6t6.5 -5q5 -3 19 -8q12 0 16 -4q19 -13 36.5 -37t20.5 -43v-6l4 -2q4 -4 7 -10q1 -3 2 -9t2 -8v-26v-25q0 -14 -4 -22q-1 -4 -4.5 -12.5t-4.5 -12.5l-8 -16q0 -4 -4 -8v-4q-7 -11 -49 -31q-46 -26 -59 -31
q-1 -1 -4.5 -2t-4.5 -2q-2 0 -5 -1t-5 -1q-18 -6 -22 -8q-7 -4 -11 -11l-6 -12q-10 -25 -14 -37q-15 -47 -21 -59q-6 -24 -16 -49q-2 -5 -8 -29q-1 -2 -2 -4.5t-1.5 -4t-0.5 -3.5v-14v-5l2 -2l-4 -4l-4 -4q0 -1 -5 -6l-12 -18q-2 -7 -10 -15q-11 -14 -27 -14q-8 0 -17 15
t-9 28q0 45 10 72q0 4 4 8q0 4 4 8q8 12 10 23q1 4 3 13t3 13q5 15 9 19l4 6q0 6 4 18q4 16 4 25v4l-14 16h-13q-17 0 -51 3t-51 3z" />
    <glyph glyph-name="percent" unicode="%" horiz-adv-x="1263" 
d="M289 582q-33 20 -33 82q0 19 8 51t17 45q7 10 18 29t14 24q22 40 58 76q5 4 14 12t14 12q13 9 43 35q25 22 45 29q14 6 62 20q1 1 3 2t3.5 1.5t3.5 1.5l4 2q2 2 10 2h19q16 -9 47 -17q12 -4 16 -6q11 -11 11 -43q0 -7 -9 -20q-2 -3 -4 -5q0 -2 -4 -6q-4 -12 -4 -18
q0 -11 4 -19q2 -2 2 -6q0 -75 -69 -170q-26 -49 -53.5 -82t-67.5 -53q-23 -14 -80 -14q-21 0 -51 7.5t-37 20.5v5zM748 8q0 70 24 113q2 4 10 12l6 6q2 1 9 8q23 31 64 67.5t69 49.5q32 8 71 21h3q22 0 48 -12.5t29 -28.5v-4v-4v-7q0 -8 2 -10q0 -2 2 -4q-6 -21 -12 -31
q-4 -8 -4 -14q0 -12 10 -27l4 -4q0 -3 -1 -9t-1 -9q0 -13 15 -33l-2 -4q0 -2 -1 -7.5t-1 -8.5q0 -8 2 -26t2 -26q0 -38 -51 -78t-93 -42h-4l-2 -2q-14 -11 -43 -11q-12 0 -50 8.5t-44 12.5q-25 19 -43 47.5t-18 56.5zM315 -143q0 42 58 125q9 14 26.5 38t22.5 31q7 10 37 58
q23 21 45 57q6 7 20 31q10 18 21 28q66 83 137 191q51 65 68 80q4 4 11 13t11 13q1 2 7.5 12t11.5 15q4 6 14 16q2 3 16 17q16 16 31 34q6 9 6 17l2 4q12 17 37.5 47.5t36.5 46.5q25 41 45 66l14 14q2 3 6.5 9t6.5 9q46 70 84 86q2 0 6 1.5t6 1.5q8 0 18 -7l10 -10
q0 -25 -71.5 -121.5t-114.5 -144.5q-4 -5 -24 -35q-17 -26 -23 -33q-13 -19 -33 -35q-35 -35 -51 -71q-7 -8 -20 -35q-3 -3 -7.5 -9.5t-8 -11t-7.5 -8.5l-18 -18q-15 -15 -21 -23q-7 -9 -20 -29.5t-15 -23.5q-10 -13 -37 -43.5t-41 -48.5q-22 -31 -43 -66q-37 -53 -45 -61
l-10 -10l-6 -6q-13 -13 -18 -33q-4 -8 -4 -12q-1 -2 -2 -3.5l-2 -3t-1 -2.5q-12 -20 -47 -55q-36 -45 -43 -63q-27 -64 -65 -64q-6 0 -11.5 7.5t-5.5 17.5zM346 702q0 -7 -2 -19.5t-2 -18.5q0 -14 10 -21q6 -7 17 -10q13 -8 32 -8h23q20 5 25 12q5 3 8 8q1 1 2 3t2 3
q8 12 10 13q4 4 8 6q4 4 6 4q4 4 7 4q6 6 36 58t35 63q4 12 4 20q2 6 2 21q0 12 2 18q0 2 1 5.5t1 4.5q2 4 5 9t4 6q5 8 8 22l2 10l-10 5q-3 0 -11 4q-4 0 -6 2q-34 0 -86.5 -36.5t-68.5 -68.5q-3 -11 -17 -18l-2 -2v-4q-9 -18 -18 -33l-13 -16q-2 -3 -6 -9.5t-6 -9.5
q-6 -9 -2 -16v-11zM840 68q-13 -22 -13 -37q0 -13 28 -40.5t40 -27.5q4 0 12.5 -1t12.5 -1q6 0 14 4q6 0 14 4q12 6 19 6h4l4 2q4 5 12 7q8 4 14 4l7 2v8q2 4 2 10q2 4 2 12q0 42 -19 86q-2 5 -6 15.5t-6 15.5q-6 15 -6 33l-2 6l-25 14l-4 -4q-7 -5 -19 -14l-16 -12
q-4 -4 -12 -12.5t-12 -12.5q-27 -27 -45 -67z" />
    <glyph glyph-name="ampersand" unicode="&#x26;" horiz-adv-x="1155" 
d="M147 115q0 9 3 18q1 4 3 11.5t3 11.5q2 16 10 46t10 40q1 1 2.5 3.5t3.5 4.5q0 4 4 8t4 8q2 3 4 9.5t3 7.5q0 8 2 10q0 10 10 22q7 11 16.5 23t21 25.5t17.5 21.5q9 11 25 33.5t24 32.5q21 30 54 63q34 34 65 61q35 31 66 66q8 10 8 31v8q0 4 -2 6v4v4q0 3 4 15
q4 16 10 34l6.5 26t6.5 25t4 13q0 2 4 6q0 2 4 6q0 1 1 3.5t1 4.5q2 4 2 13q0 6 2 8q0 4 2 8q6 6 8 10q6 8 16 23q9 9 9 20q2 2 2 9l4 4q0 6 4 6l6 6q1 2 4 6t6 8.5t6 9.5q5 12 59 56.5t64 44.5q5 0 9 -2q1 0 3 -1t3 -1h8q16 0 24 2q7 -13 15 -19l14 -14q14 -14 14 -41
q0 -53 -35 -111t-83 -106q-3 -4 -8.5 -12.5t-8.5 -12.5q-2 -2 -6 -10q-1 -1 -3 -4t-3 -4q-4 -4 -8 -6q-1 -1 -3 -2t-3 -2t-4.5 -3t-4.5 -3q-3 -3 -6 -9q-1 -1 -2 -3t-2 -3l-4 -8l-4 -4l-8 -8q-8 -4 -10 -6q-16 -12 -25 -21l-2 -4v-12q0 -43 41 -107q5 -8 15.5 -22.5
t13.5 -18.5q14 -25 16 -32q1 -3 1.5 -5.5t0.5 -4.5t0.5 -4t1.5 -3l6 -12q2 -1 5 -4t5 -4q1 -1 2.5 -3t3 -3.5t3.5 -2.5q4 -4 4 -6q6 -12 6 -14q1 -2 2 -5.5t2 -4.5q1 -2 2 -6.5t2 -6.5q2 -4 8 -10q1 -1 3 -2t3 -2l5 -2l4 -4q6 -15 6 -18q1 -4 10 -17l12 -12q9 -6 15 -12
q12 -7 20 -19q0 -4 4 -8q0 -7 6 -10q7 -11 23 -11q24 0 68.5 84t44.5 115q-1 2 -3 4q3 3 3 4q1 1 2 4.5t2 4.5q6 18 6 24q0 108 -39 127q-4 4 -6 4q-2 4 -2 6v6q0 20 15 35t36 17q9 -10 14 -11q26 -8 37 -34q5 -19 8 -27q3 -14 13 -31q-9 -92 -9 -139q-4 -12 -4 -14
q-3 -6 -12 -33q-8 -25 -18 -55l-5 -5q-1 -2 -3.5 -4.5t-2.5 -3.5q-14 -18 -28 -47q-16 -37 -33 -47l-10 -10q-15 -15 -15 -29q0 -12 8 -20q4 -6 17 -19q6 -4 16 -14q10 -7 10 -10q12 -15 21 -33q13 -21 31 -35q12 -15 12 -33v-14v-8q-3 -2 -5 -4t-4 -4.5t-3 -3.5
q-9 -9 -15 -13q-7 -7 -24 -10q-1 1 -2 3t-2 3l-9 10q-2 1 -8 9t-10 10q-1 1 -3 2t-3 2q-4 0 -4 2h-4q-4 2 -10 10t-10.5 15.5t-10 17.5t-6.5 12q-6 11 -23 33q-16 16 -32 16q-4 0 -8.5 -2.5t-10 -6.5t-6.5 -5q-4 -8 -6 -10l-6 -6q-78 -57 -183 -107.5t-174 -50.5
q-8 0 -12 -2q-3 0 -8.5 -1t-7.5 -1q-6 -2 -15 -2q-64 0 -104.5 6.5t-75 26t-50 58t-15.5 99.5q0 6 -2 8q-1 3 -3 5v4zM231 96q0 -23 7 -37q0 -6 4 -14q0 -4 4 -16q11 -20 39.5 -29.5t56.5 -9.5q6 -3 18 -6q42 -7 46 -7q8 0 28 5q10 6 31 6h4q2 -2 6 -2q42 0 145 53t140 90
q15 7 18 23l2 4l-10 20q-20 12 -37 29q-19 23 -22 33v4l-2 2q-109 148 -152 252q-3 7 -7.5 17t-6.5 13q-10 17 -25 29l-4 4l-6 -4q-11 -5 -19 -16q-1 -1 -3 -3.5t-3 -3.5t-3 -4t-3 -4l-59 -59q-7 -9 -27 -31t-29 -35q-17 -25 -51 -67q-36 -54 -49 -80q-6 -15 -6 -27
q-3 -12 -6 -18q0 -2 -1 -4.5t-1 -3.5q-4 -8 -4 -13q-2 -8 -2 -22q2 -6 2 -19q0 -4 -2 -8q0 -2 -4 -10q-7 -21 -7 -31zM616 813l2 -18l23 -9l6 5q5 3 12 14q1 2 4 5.5t5 6.5q5 10 20 25q55 55 57 102v4l-14 27l-8 -6q-24 -19 -51 -54q-7 -9 -20.5 -27.5t-20.5 -27.5
q-8 -8 -8 -18q0 -1 1 -3t1 -3l-2 -7q-2 -2 -5 -8q0 -1 -1 -4t-1 -4z" />
    <glyph glyph-name="quotesingle" unicode="'" horiz-adv-x="319" 
d="M195 489q0 84 28 170l2 3v4q0 19 13 71q3 3 5 6t4 7l3 6q4 12 6 16q4 12 27 12q10 0 25.5 -10t15.5 -16q0 -16 -7 -37q-8 -29 -10 -41q0 -1 -2 -4t-2 -4q-1 -2 -6 -17q0 -8 2 -12v-8q-1 -2 -2 -6t-2 -6q-5 -27 -8 -35q-7 -29 -15 -53q-9 -28 -18 -41q-13 -23 -25 -23
q-26 0 -30 8q-1 0 -4 10z" />
    <glyph glyph-name="parenleft" unicode="(" horiz-adv-x="602" 
d="M154 4q-2 5 -8.5 76t-6.5 84q0 15 6 33q5 15 5 20q4 12 4 21q0 52 18 129q5 24 17.5 67.5t17.5 63.5q0 2 4 14q4 8 8 12q10 25 10 39v4q1 2 2 6.5t2 6.5q1 3 4.5 12.5t4.5 15.5l7.5 22.5l7.5 22.5t5 13q1 5 14 26q2 3 6.5 8.5t6.5 8.5q4 6 8 18q1 4 3 12.5t3 12.5
q8 28 19 39q2 4 8 10q1 2 4 6t4 6q9 16 25.5 48.5t25.5 47.5q17 30 57 70q5 6 15.5 17.5t15.5 17.5q21 21 29 33q23 35 77.5 79.5t82.5 44.5h18q8 0 10 -2q6 0 6 -18q0 -12 -2 -18q0 -4 -8 -9q-104 -76 -164 -151q-5 -6 -19 -23t-22 -26q-108 -141 -145 -295q-2 -11 -14 -35
l-13 -21q-1 -2 -4 -8.5t-4 -11.5q-17 -44 -24 -104q-2 -14 -10.5 -39.5t-10.5 -38.5q-11 -37 -14 -54q-13 -43 -13 -55q0 -5 3 -8v-6q2 -4 2 -10q0 -1 -5 -31q-1 -2 -2 -8t-2 -9v-18v-6q0 -2 2 -4q-2 -4 -2 -17q0 -96 27 -211l6 -18l8 -16q9 -36 17 -72q16 -54 26 -68
q9 -12 17 -20q35 -35 35 -59q0 -15 -23 -27q-19 -8 -43 -8q-1 0 -4 2t-4 4q-9 6 -19 16q-20 24 -26 35q-2 2 -2 4q-2 2 -2 8q-7 14 -9 17q0 4 -4 4l-6 6v2q-4 4 -26.5 83.5t-22.5 86.5q0 8 -2 10q0 2 -4 6v27q0 15 -6 27q-1 5 -4 11.5t-4 8.5z" />
    <glyph glyph-name="parenright" unicode=")" horiz-adv-x="540" 
d="M49 -369q-2 2 -3 3.5t-1.5 2.5t-1.5 1q3 37 55 110q135 186 205 369q2 3 5 9t5 9t6.5 9.5t6.5 9.5q18 27 22 45q5 27 6 28q3 14 13 21l2 4v4q2 14 14 41q1 4 4 11t4 11q3 7 8 25l4 8l5 10q6 6 6 11q4 8 6 14q2 12 10 74q2 10 8 43q0 6 4 14v4l2 10v7v4q0 2 -2 4q1 1 2 4
t2 4q5 10 5 18q0 4 -1 12.5t-1 12.5q0 14 3 39t3 39q0 169 -19 215v4q-2 2 -2 6q-2 8 -4 22.5t-2 16.5q-1 3 -4.5 17.5t-7.5 21.5q0 1 -1 2t-1 2v8q-2 2 -2 8q0 23 -11 39q-5 10 -8 13q-1 3 -4 8t-4 6q-14 20 -18.5 31.5t-4.5 33.5q3 3 3 7q2 0 4 2q12 4 18 8q21 6 31 6
q24 0 56.5 -63t29.5 -95v-4l14 -20q-2 -6 -2 -21q0 -8 4 -12q0 -4 2 -4q0 -2 2 -4q1 -1 8 -78t7 -90q0 -2 1 -6t1 -6t1 -6.5t1 -6.5q2 -6 2 -16q0 -13 -2 -40t-2 -40v-20q0 -13 -2 -17v-4q-2 -2 -2 -4l-7 -14q-8 -36 -8 -93q0 -2 2 -4v-6l-6 -2v-6q0 -23 -12 -47
q-12 -32 -12 -55q0 -27 -52 -144.5t-82 -165.5q-16 -23 -20 -39q-4 -19 -29 -57q-23 -37 -32 -69q0 -1 -1.5 -3.5t-1.5 -3.5q-5 -7 -15 -20.5t-15 -20.5q-8 -10 -29 -43q-25 -52 -39 -77q0 -1 -4 -5l-4 -4q-3 0 -8.5 -4.5t-7.5 -7.5q-21 -28 -32 -40t-30.5 -23t-42.5 -11z
" />
    <glyph glyph-name="asterisk" unicode="*" horiz-adv-x="651" 
d="M328 1073l-4 8q0 18 22 43q3 4 10.5 12.5t10.5 12.5q11 14 16 25q4 8 31 53q20 40 22 55l2 6l-16 17h-12q-15 0 -35 8q-19 13 -19 22q0 23 30.5 33t59.5 10q4 0 12 -1t9 -1q58 0 74 39q4 12 4 19q1 3 2 9t2 9q3 19 12 41v6q0 4 -2 6q0 13 18.5 33.5t30.5 20.5q5 0 10 -1
l5 -2l4 -8q0 -8 -16.5 -71t-20.5 -70l-8 -16q-9 -13 -9 -21v-12l13 -12h4q38 0 100 30q77 29 98 29q19 0 19 -16t-21 -25q-17 -8 -61 -25q-12 -4 -14 -4q-4 -2 -11 -2q-18 0 -63 -26h-8q-1 0 -5 -1t-6 -1q-9 -3 -18 -15l-8 -6l6 -10l6 -6l6 -6q4 -2 11 -9l2 -4h2
q25 -9 54.5 -34t29.5 -44q0 -12 -2 -16q-9 -6 -15 -8q-11 -8 -18 -8t-15 4q-16 14 -41 28q-22 15 -40 25q-9 6 -21 12q-13 2 -31 21l-8 8l-4 1q-4 1 -8 1t-8 -2l-6 -6q-2 -2 -7 -6.5t-8 -7.5q-4 -5 -16.5 -22t-20.5 -26q-38 -57 -63 -82q-17 -17 -43 -20z" />
    <glyph glyph-name="plus" unicode="+" horiz-adv-x="894" 
d="M221 414q0 44 31 49h4l2 2l4 4q1 0 2 1t2 1l4 2q5 0 25 -4q8 -4 14 -4q4 -2 15 -2q14 0 39.5 4t37.5 4q19 0 58 -2t59 -2q28 0 37 20q0 7 2 9v8q0 3 1 8t1 8q0 1 1 2t1 2q1 1 2 3t2 3q4 12 4 21q0 5 -1 15.5t-1 15.5q0 11 7.5 34.5t13.5 34.5l2 2v4q-2 6 -2 19
q0 7 26 56.5t29 51.5q4 2 27 2q5 0 13.5 -13t8.5 -23t-6 -37q-2 -5 -8 -37q-25 -15 -25 -78q-4 -36 -4 -51l-4 -31q-2 -2 -2 -6q-4 -4 -4 -10q0 -16 16 -21q16 -8 68 -8q8 0 23.5 2t23.5 2l8 -4q12 -4 21 -4q6 -2 22 -6q21 -5 21 -17q-2 -4 -8 -8q-10 -10 -36.5 -19
t-41.5 -9l-6 2h-15q-50 -4 -73 -4q-20 0 -39 -19l-5 -2v-4q-2 -4 -2 -10v-9l-4 -4q0 -1 -1 -4t-1 -4q-4 -4 -4 -8q-2 -6 -2 -20v-21v-8v-6v-4q-2 0 -2 -4q-1 -2 -6 -17q-8 -15 -12 -33q-8 -32 -13 -57q-17 -51 -18 -53q-6 -15 -18 -21q-5 -4 -15 -8q-2 -1 -6 -4t-6 -4l-2 -2
q-20 0 -23 14q-3 15 0 41l-2 6q0 7 4 19q1 3 5.5 12t5.5 14q5 16 12 70q0 2 1 4.5t1 3.5l6 12q5 14 14 66q1 5 2 13t1.5 13t1.5 9l2 4l-2 4q-8 16 -27 16q-16 0 -45 -1t-45 -1t-45 -4t-45 -4q-82 0 -107 12v11z" />
    <glyph glyph-name="comma" unicode="," horiz-adv-x="602" 
d="M70 -281q-2 2 -2 5q2 2 6 10q6 8 22 28l45 45l2 3v4q5 5 7 12q4 4 12 16q7 4 12 15q2 4 6 8v18q1 2 3 6.5t3 6.5q11 18 11 41q4 4 6 8q2 2 4.5 6.5t3.5 5.5l2 2v4v10l-2 2q3 7 6 7q0 2 4 10v12v10q0 1 1 2t1 2q4 4 4 7q4 8 4 12q0 1 -1 4t-1 4v8q-2 4 -2 10t3.5 19.5
t5.5 15.5q6 7 24 15t27 8q8 0 10 -2l6 -6q0 -1 1 -2t1 -2q4 -6 4 -15q-4 -12 -4 -16q0 -8 2 -10q0 -3 4 -7q0 -2 2 -4q-18 -40 -22 -73q0 -5 -4 -21q-8 -12 -13 -22q-1 -2 -2 -6.5t-2 -6.5q0 -2 -1 -5t-1 -5q-2 -8 -6 -16l-4 -4v-7q0 -6 -14 -34q-14 -24 -25 -41
q-19 -26 -68 -63.5t-71 -37.5q-2 0 -10 4z" />
    <glyph glyph-name="hyphen" unicode="-" horiz-adv-x="638" 
d="M205 377q0 8 2 12q0 11 2 17q5 31 18 34q8 4 17 4h28q47 0 70 2h6l2 5q1 0 3 -1t3 -1h4q3 -3 7 -3q10 0 29 2.5t28 2.5q1 0 2 -1t2 -1q2 -1 4 -3h6h4l2 3h5q11 0 32 -4.5t33 -4.5q13 0 25 6q11 -7 20 -4h21q30 0 30 -20q0 -19 -4 -23q-2 -2 -3.5 -3t-2 -1.5t-0.5 -1.5
q-6 -3 -12 -12q-24 -8 -56 -8q-8 0 -20 -4l-8 -4q-6 6 -15 6q-13 0 -36 -2t-35 -2q-3 6 -15 6l-24 -6q-2 0 -6 1t-6 1q-12 4 -21 4q-10 0 -16 -2h-13l-4 2l-2 -4q-1 0 -4 -1t-6 -1h-12q-11 0 -15 2l-4 2l-8 -4q-2 2 -4 2t-10 -4q-8 4 -15 4q-4 0 -10.5 -1t-9.5 -1q-1 1 -4 3
t-4 3v4z" />
    <glyph glyph-name="period" unicode="." horiz-adv-x="382" 
d="M143 78q-1 2 -2 5t-2 5q0 14 30.5 39t47.5 25q22 0 37.5 -14.5t15.5 -35.5q0 -12 -2 -18q0 -2 -22.5 -25t-26.5 -24h-4q-4 -4 -31 -4h-14q0 1 -1 3t-1 3q-4 4 -12 20q-2 3 -6.5 10.5t-6.5 10.5z" />
    <glyph glyph-name="slash" unicode="/" horiz-adv-x="878" 
d="M125 -168q-7 0 -13 10.5t-6 22.5q0 35 39 115q9 16 25.5 42.5t30 48.5t24.5 42q2 2 6 10q1 2 2.5 6t2.5 6q3 9 6 12v5q2 2 3.5 3t2 1.5t0.5 1.5q4 0 4 4q2 0 6 4q15 20 35 59q3 5 8 15.5t8 15.5t8.5 14.5t8.5 14.5q26 36 75 112q28 48 60 101q35 62 63 92q10 12 21 31
l18 30q7 7 15 19q3 3 8 9t8 9q22 26 31 39q2 5 3.5 11t2.5 7v7q10 17 36 52t38 56q14 30 40 72q2 3 7.5 8t7.5 8q6 9 12 21q42 78 82 96q4 4 10 4q8 0 19.5 -8t11.5 -14q0 -29 -68 -138t-112 -168q-18 -26 -23 -39q-4 -6 -11 -18t-11 -18q-11 -15 -33 -41q-16 -16 -39 -60
q-31 -59 -33 -63q-11 -18 -26 -37q-25 -30 -29 -37q-6 -10 -17.5 -30.5t-17.5 -30.5q-81 -115 -117 -179q-14 -30 -43 -71q-1 -2 -10 -11l-6 -6l-4 -8q-10 -13 -14 -31q0 -2 -1 -6t-1 -6l-5 -10q-7 -15 -22 -33q-5 -9 -23 -31q-36 -51 -43 -71q-25 -72 -61 -72z" />
    <glyph glyph-name="zero" unicode="0" horiz-adv-x="802" 
d="M127 82q-2 0 -2 4q0 14 14 61q22 55 25 64q4 10 11.5 30.5t10.5 28.5q11 32 25 52q13 16 29 38q36 54 118 125q2 1 101 78q2 0 3.5 1t2.5 1q2 0 4.5 1t3.5 1q45 15 53 17q32 8 54 8q11 0 31.5 -5.5t27.5 -11.5l2 -2l16 2q7 0 26 -37.5t19 -52.5q0 -4 -2 -6q0 -4 -4 -12
l-6 -12q0 -2 -1 -7t-1 -8q0 -12 4 -20q5 -15 6 -17q29 -125 29 -165q0 -5 -2 -9q0 -2 -1 -7t-1 -7v-6q6 -12 6 -27q0 -10 -3 -31.5t-3 -33.5q-5 -17 -16 -27q-1 -2 -2 -3.5t-2 -2.5t-1 -2q-3 -5 -8 -16.5t-8 -16.5q-4 -10 -16 -26q-18 -21 -41 -37q-4 -3 -11.5 -8.5
t-11.5 -8.5q-2 -1 -22 -16q-16 -24 -73 -51t-83 -27q-7 0 -21.5 1t-21.5 1h-8q-4 -2 -8 -2q-2 -2 -7 -2q-2 -2 -6 -2q-2 2 -4 2h-4q-2 2 -6 2t-13.5 -1t-13.5 -1h-6q-5 1 -49.5 19t-48.5 20q-82 69 -82 162q-2 2 -2 8zM561 514q-53 0 -117.5 -47.5t-115 -113t-85 -137
t-34.5 -118.5q0 -48 27 -82q16 -16 26 -24q6 -5 19.5 -13.5t15.5 -9.5q12 -12 25 -12q3 0 9 1t9 1q2 -2 4 -2q10 -10 62 -10q20 0 40 10q3 3 13 8l8 4q42 8 76 35t73 72l2 2v4q2 4 7 10q0 2 4 6t4 11q3 8 9.5 33t6.5 32q0 37 -26 169t-37 155q-8 16 -25 16z" />
    <glyph glyph-name="one" unicode="1" horiz-adv-x="604" 
d="M188 393q-12 4 -12 23q0 6 7.5 19.5t13.5 17.5q6 6 10 8q6 2 14 6q19 8 31 22q1 1 2 3.5t2 3.5l4 4q2 0 4 2q2 0 4 2q9 0 17 8q3 2 8 7t8 7q6 9 12 15q20 23 47 43q9 6 28 18.5t28 18.5q6 4 27 9t30 5q62 0 62 -123q0 -18 -5.5 -54t-5.5 -55v-10q2 -2 2 -10q2 -4 2 -14
q0 -9 -4 -29q0 -10 -2 -16v-17q0 -8 2 -12l2 -4v-4q-1 -1 -2 -3t-2 -3q-6 -12 -6 -29q0 -6 1 -17t1 -16q3 -14 0 -26l-2 -5l2 -2q2 -4 2 -12q0 -11 -8 -39q-4 -12 -4 -20q-4 -16 -4 -23q0 -10 4 -14v-10q-1 -2 -2 -6.5t-2 -6.5q0 -4 -4 -12v-14v-9q2 -2 2 -6l2 -4
q0 -6 -2 -8q0 -6 -4 -18q-11 -27 -11 -35v-12q0 -26 -19.5 -63.5t-43.5 -37.5q-21 16 -21 25q-2 4 -2 14q0 4 1 13t1 14v26q0 9 3 15v6l4 8q3 3 6 12q6 25 6 76v37q0 15 4 35q8 39 8 110l-2 4v7q4 8 4 14q10 55 10 102q0 8 -2 24t-2 23q1 2 2 6t2 5q0 1 3.5 10.5t3.5 15.5
q0 7 -2 11v8q-2 6 -2 14t1 23t1 22q0 13 -8 19t-17 6q-4 0 -10 -5l-6 -4q-15 -10 -23 -18q-9 -8 -31.5 -27.5t-29.5 -25.5q-89 -74 -105 -74q-21 0 -33 6z" />
    <glyph glyph-name="two" unicode="2" horiz-adv-x="688" 
d="M88 -121q0 13 2 19q0 10 16 26q8 12 25 29l31 31q5 5 15.5 16t15.5 16q54 75 83 105q7 3 7 10q1 1 3 4t3 4q0 2 1 4.5t1 3.5q1 1 2 3.5t2 3.5q6 6 10 8q2 4 10 12q5 6 9 16q0 1 1 3.5t1 3.5t1 2t1 2q8 8 14 12l8 8l8 8q9 11 23 39q15 30 18 35q6 10 19.5 28.5t19.5 28.5
q1 2 2 6.5t2 6.5q0 4 2 8q4 15 13 27q3 5 8 14t8 14q19 29 25 39q12 28 12 47q0 2 5.5 15t6.5 14q13 32 13 61q0 1 -1.5 3t-1.5 3q0 3 -2 5q0 1 1 2t1 2v4q0 1 1.5 3t1.5 3q0 18 -5.5 24.5t-23.5 12.5q-16 8 -35 8q-1 0 -3.5 -1t-4.5 -1q-1 0 -3 -1t-3 -1q-4 -2 -8 -2
q-33 0 -72 -39q-37 -33 -58 -33q-12 0 -20 8t-8 19q0 10 8 22q0 1 16 27q17 23 37 33q8 5 24.5 11t22.5 9t11 8q8 4 10 4q33 17 92 17q44 0 76.5 -31.5t32.5 -77.5q0 -60 -27 -147l-4 -4l-4 -4q0 -1 -1 -3t-1 -3q-7 -10 -15 -29q-3 -15 -10 -29q-2 -4 -47 -80
q-10 -17 -29.5 -50.5t-29.5 -49.5q-5 -6 -14.5 -18.5t-14.5 -18.5q-22 -26 -29 -37l-8 -16q-26 -26 -41 -51q-4 -14 -22 -41q-12 -15 -29 -29l-14 -14q-6 -4 -17 -15q-1 -1 -3 -4t-3 -4q-1 -2 -3 -5t-3 -5q-2 -2 -6 -7t-6 -7l-7 -7q-4 -4 -6 -8q-7 -7 -10 -18l-4 -8l23 -17
h12q19 0 54 2t52 2h13q2 1 6 2t6 2q15 5 16 5q11 -7 17 -7h18q18 0 52 4.5t50 4.5q48 0 48 -23q0 -18 -21 -33.5t-43 -17.5q-12 -2 -35 -2q-27 0 -39 -4q-46 -9 -90 -9h-94q-17 0 -25 -2q-46 -12 -71 -12q-32 0 -51 8q-23 7 -23 35z" />
    <glyph glyph-name="three" unicode="3" horiz-adv-x="729" 
d="M150 -131q0 38 22 45q8 2 29 2q6 0 17.5 -1t17.5 -1q29 0 68.5 18.5t66.5 40.5q30 17 45 21q2 2 6 2q12 0 54.5 30.5t55.5 43.5q23 22 30 41.5t7 52.5q-1 1 -2 4t-2 4q-9 24 -23 39.5t-33.5 22t-36 8.5t-40.5 2q-10 0 -26.5 -3t-20.5 -3q-2 2 -4 2h-10h-4q-2 -1 -6.5 -2
t-6.5 -2t-6 -2.5t-6.5 -3t-3.5 -1.5q-52 -14 -107 -14q-43 0 -43 27v12v8q0 1 1 2t1 2q1 1 4 6t5 7q47 68 69 90q2 2 6 5.5t5 4.5l14 14l10 15q2 2 5 6t5 6q3 3 10.5 10t10.5 10q25 18 33 39q1 2 3 6.5t3 6.5q4 4 8 6q1 1 3 2t3 2q13 7 21 22q1 1 3 4t3 4q0 3 4 7
q9 11 32.5 36t36.5 41q0 1 3 4t4 5q6 6 8 12q0 1 1 4t1 4v10l2 13h-29q-8 0 -12 -2q-1 0 -4 -1t-4 -1q-11 -4 -15 -2h-4l-2 -3q-3 -3 -16 -6q-4 -1 -13.5 -3t-13.5 -3q-23 -4 -53 -10q-6 -3 -6 -4q-1 0 -3 -1t-3 -1q-8 -4 -15 -4q-4 2 -14 2q-13 0 -36 -4t-34 -4q-6 6 -6 12
q-4 8 -4 24q0 6 22 27t29 21q24 0 60 8q10 2 29.5 6t29.5 6q7 2 23 3t24 3q1 0 4 1t4 1q1 1 3.5 3t3.5 3l4 2q4 0 10.5 -1t9.5 -1q5 0 21 4q45 15 67 15q6 0 10 -4l2 -2h5q41 0 41 -37q0 -10 -7 -27q-1 -4 -6 -15.5t-6 -17.5q-5 -19 -89 -117t-116 -128q-2 -1 -5 -4.5
t-5 -4.5q-11 -11 -12 -14q-4 -4 -4 -10l-2 -4q-3 -4 -9 -10t-8 -9q-12 -12 -18 -24l-8 -17h34h17q2 1 7.5 2t8.5 2q25 5 27 5q24 0 69.5 -7.5t67.5 -7.5q19 0 51 -33t33 -55v-2l2 -4q2 -2 4 -8q0 -3 1 -9.5t1 -9.5q2 -14 2 -36q0 -13 -9 -42t-17 -45q-7 -16 -54 -56t-71 -54
q-1 -1 -12 -4.5t-13 -3.5q-19 -8 -29 -15q-2 -1 -22 -16q-9 -6 -21 -12q0 -1 -6 -4h-8q-22 -7 -24 -9q-34 -25 -82 -41t-90 -16q-14 0 -28.5 12.5t-14.5 24.5z" />
    <glyph glyph-name="four" unicode="4" horiz-adv-x="788" 
d="M115 23q1 2 2 6t2 6v4l-2 2q0 2 -1 4.5t-1 3.5q0 15 10 35q2 4 5 11t5 11q1 4 3 12.5t3 12.5q4 4 4 8q0 1 5.5 9.5t9.5 13.5q4 6 12 22q2 2 10 19q3 7 9.5 22.5t9.5 22.5q14 32 20 43q63 108 82 174q3 10 21 51q21 43 26 55q1 3 3 9.5t3 9.5q2 6 6 14q1 1 2.5 3t2.5 3
q1 2 3 6.5t3 6.5t6 28q9 25 28 41.5t42 16.5q6 -6 8 -7q4 0 8 -4q4 -20 4 -32v-4q0 -8 -49.5 -121t-65.5 -146q-23 -54 -45 -94q-22 -45 -24 -49l-4 -8q0 -2 -1 -4.5t-1 -3.5q-3 -9 -5 -13l-4 -4q-11 -11 -14 -24q-3 -9 -10 -23q-1 -3 -7 -12t-8 -15q-16 -31 -18 -55l-2 -4
l4 -4q11 -19 57 -19q18 0 52 5.5t51 5.5q4 0 11 -2t11 -2q55 0 70 57q4 15 8 46t8 46q1 2 2 5t2 5t4.5 6.5t4.5 6.5q10 25 10 34l-2 7q2 11 21 36t28 25t29 -4q6 -9 6 -23q0 -18 -11 -63t-18 -55l-2 -2v-4q-5 -39 -8 -50q-4 -8 -6 -14q-4 -8 -4 -18v-7q8 -16 26 -16
q17 0 53.5 6t55.5 6q12 0 22.5 -11t10.5 -23t-15 -21q-17 -14 -56 -23.5t-65 -9.5q-6 0 -10 2h-6q-2 2 -8 2q-17 0 -33 -16l-4 -6q0 -3 -1 -9t-1 -8l-6 -18q-8 -20 -8 -39q0 -10 -15 -61q-4 -15 -12 -38.5t-10 -29.5q-4 -15 -20.5 -29t-28.5 -14q-1 1 -3 2t-2 2q-3 2 -8 19
q-6 24 -6 39q0 7 17 78.5t22 88.5l2 9l-6 4q-15 12 -35 12h-35q-10 0 -30 -4q-5 -1 -15.5 -3t-15.5 -3q-33 -10 -60 -10q-12 0 -37.5 1t-39.5 1q-2 3 -3.5 6t-2.5 4l-5 4h-2q-2 0 -6 2l-8 8q-4 2 -8.5 8t-5.5 7z" />
    <glyph glyph-name="five" unicode="5" horiz-adv-x="788" 
d="M219 233q-36 0 -47.5 8.5t-11.5 43.5q0 27 2 37l8 8l8 8q12 8 17 20q7 14 8 17q1 2 3 7t3 7q4 8 10 17q10 10 14 16q27 34 27 49v4v2q0 1 5 5.5t7 4.5l4 7q0 6 9 20q2 3 7 9t7 9q23 23 23 54q0 10 -5 20l-4 4q2 4 6 8q4 6 17 19q21 18 35 25q2 2 6 2q2 2 6 2q2 0 20 6
q2 1 6.5 3t6.5 3q8 4 12 4q2 -2 6 -2q8 -4 19 -4q18 0 26 2q23 0 51 8q13 0 29 4q75 21 141 21q17 0 23 6q2 1 5 2t5 2q28 0 49 -8q16 -8 21 -13l6 -6q0 -10 -19.5 -27.5t-31.5 -19.5h-19q-14 0 -20 -2q-3 -1 -9.5 -3t-9.5 -3q-13 -6 -58 -12t-64 -6q-7 0 -21 -7l-8 -4
q-2 -2 -4 -2q-8 -2 -25 -2h-24q-32 0 -56 -8q-19 -7 -83 -106t-78 -132q-3 -3 -3 -6v-4q-2 -4 -2 -8l-2 -14h31q25 0 74 9t74 9q16 0 45 -5.5t41 -6.5q5 -3 32 -25q17 -8 27 -22q22 -25 22 -74q0 -45 -6 -66l-6 -6l-6 -6l-6 -6q-10 -22 -34.5 -49t-43.5 -37q-1 -1 -4 -2
t-4 -2q-6 0 -12 -6q-70 -55 -103 -66l-76 -26q-4 -1 -16.5 -5t-17.5 -4q-20 0 -37 10t-17 23q0 4 5 13.5t8 11.5q17 11 47 18q58 10 110 41q17 11 41 25q40 20 69.5 53.5t29.5 71.5q0 49 -56 61q-24 4 -41 4h-34q-3 0 -5 2q-100 0 -151 -26q-17 -7 -33 -7z" />
    <glyph glyph-name="six" unicode="6" horiz-adv-x="643" 
d="M242 -51q-119 57 -119 213q0 10 2 14v8q0 34 12 66q3 7 13 27.5t16 37.5q30 101 67 160q49 78 56 94q2 0 4 2l4 2q1 1 3 2.5t3 2.5q10 10 28 31t27 30q2 3 6 7.5t5 6.5q4 8 4 9l4 4q27 32 108.5 79.5t120.5 47.5q4 0 19.5 -13.5t15.5 -15.5q0 -31 -14 -45h-19l-2 -2
q-6 -4 -12 -4q-2 0 -8 1t-11 1h-4q-11 -1 -60.5 -34t-59.5 -44q-7 -7 -13 -16q-1 -1 -1.5 -2.5l-1 -3t-1.5 -3.5l-6 -6l-6 -6q-8 -4 -10 -6q-23 -22 -67.5 -85.5t-63.5 -98.5q-11 -15 -15 -41q-1 -3 -2 -9.5t-2 -9.5q0 -6 -4 -14q-7 -11 -10 -19q-8 -12 -12 -20v-6l14 -19h8
q72 0 158 -28q6 0 14 -4q10 -3 10 -4q5 -5 9 -7q4 -8 14 -8q18 0 33 -22q1 -1 5.5 -7t8.5 -8t10 -8l4 -4q2 -2 2 -16l-2 -6l4 -3q13 -18 13 -61v-14v-13l-4 -4q-4 -4 -5 -4q0 -1 -1 -3t-1 -3q-2 -4 -6 -12.5t-6 -12.5q-15 -32 -70.5 -67t-89.5 -35q-60 0 -88 14q-3 2 -8.5 6
t-10.5 6.5zM203 147q0 -14 2 -18q1 -3 3 -8t3 -8q1 -1 6 -11q0 -2 1 -5t1 -5v-6q3 -5 8 -13t6 -10q24 -39 82 -61q16 -8 39 -8q32 0 69.5 20t37.5 56q0 25 -3.5 35t-21.5 26q-43 40 -86 49q-21 6 -43 6q-8 1 -25 2t-26 2h-4q-1 0 -3 1.5t-3 1.5q-2 0 -7 1t-8 1
q-13 0 -24 -21q-4 -10 -4 -27z" />
    <glyph glyph-name="seven" unicode="7" horiz-adv-x="768" 
d="M254 682q-10 0 -17.5 8.5t-7.5 20.5t9 18q10 10 22 16q4 0 4 5q1 0 3 1t3 1q0 3 6 6q5 0 5 -2h14q8 0 16 4q7 0 15 4q20 4 61 4q40 0 131.5 5t104.5 11q2 0 6 1t6 1q70 9 94 9q7 0 25 -7q8 0 16 -8q27 -14 27 -49q0 -12 -9 -39q-6 -15 -6 -28q-1 -4 -2 -12t-2 -11
q-6 -21 -16 -41q-14 -33 -17 -43q-19 -51 -28 -84q-17 -47 -35 -76q-9 -12 -12 -24q-4 -9 -8 -23q-7 -20 -15 -31l-4 -2v-4q-8 -40 -41 -96q-6 -11 -20 -43q-7 -24 -15 -43q-12 -21 -22 -41q-16 -27 -23 -47q-4 -10 -9.5 -25.5t-8.5 -21.5q-9 -21 -29.5 -48.5t-36.5 -27.5
q-11 0 -18.5 11.5t-7.5 21.5v6q-2 2 -2 6q0 6 4 10l4 7q8 8 8 24v6q4 8 4 11l6 6q0 1 1 3t1 3q10 24 32.5 67.5t27.5 53.5q34 77 45 127q14 28 28 57q6 12 14.5 27.5t14 26t8.5 14.5l2 4l-2 6l6 12q1 3 3.5 9.5t3.5 9.5q3 4 5.5 9t5 10.5t3.5 8.5l4 4l-2 6q0 3 -2 5
q0 10 4 14q2 6 16 20q12 23 26.5 70.5t14.5 71.5q2 2 2 4q7 14 7 18v8l-13 15h-18q-6 0 -18.5 -3t-18.5 -3t-18.5 1t-18.5 1q-16 0 -45 -5.5t-45 -5.5q-10 0 -22 -1t-26.5 -2.5t-23.5 -2.5q-1 0 -4.5 -1t-5.5 -1t-4.5 -1t-3.5 -1q-8 0 -23.5 2t-23.5 2q-21 0 -60.5 -5
t-58.5 -5z" />
    <glyph glyph-name="eight" unicode="8" horiz-adv-x="595" 
d="M190 -66q-10 0 -36.5 36t-26.5 50q0 56 22 100t66 99q2 3 6 10.5t6 10.5q4 6 11 20l14 14q9 9 18 21q29 29 29 47q0 15 -12 27q-24 24 -45 61t-27 68q-4 12 -4 22v25v33q0 8 4 28q0 8 10 21q2 5 9 13l6 9q35 60 98 95.5t131 35.5q90 0 104 -82q0 -2 3 -10t4 -12
q1 -2 2 -6t2 -6q0 -93 -101 -228q-6 -8 -14 -20l-4 -8q0 -1 -1 -4t-1 -5q0 -4 6 -16q1 0 3 -1t3 -1q1 -1 3 -2t3 -2q25 -18 41.5 -54.5t16.5 -68.5q0 -20 -16.5 -90.5t-24.5 -91.5q-15 -23 -25 -35q-21 -21 -31 -33q-6 -6 -10 -14q-3 -3 -8 -13q-12 -15 -49.5 -33t-57.5 -18
l-8 4q-2 0 -5.5 -1t-4.5 -1q-6 -2 -10 -2h-13q-12 0 -16 -2q-1 0 -4 -1t-4 -1q-22 12 -62 12zM397 322q-13 0 -59.5 -53.5t-88.5 -119t-42 -92.5q0 -53 96 -53h16q35 0 63 27t43 67.5t22.5 80t7.5 71.5q-2 2 -2 6q-2 2 -2 6q-2 2 -2 4q0 23 -15 39.5t-37 16.5zM291 588l2 -4
q2 -10 4 -30.5t4 -29.5q2 -23 14 -39q1 -2 9 -10q3 -3 6 -12q2 -3 5 -12t5 -13q13 -18 27 -18q15 0 69 72.5t60 91.5q0 4 4 20q2 6 2 23q0 24 -13.5 52t-37.5 28h-33q-29 0 -72 -38.5t-51 -70.5v-6z" />
    <glyph glyph-name="nine" unicode="9" horiz-adv-x="733" 
d="M195 475q0 52 57.5 135t105.5 105q11 5 32.5 15t27.5 13q2 2 4 2t8 3h8q1 1 4 2t4 2q15 8 25 10q9 6 21 6q8 0 10 -2l4 -2h12h8q2 2 6 2q2 2 5 2q14 -8 32 -12l17 -6q15 -15 51 -60q7 -10 20 -10q7 0 9 2q2 0 4.5 1t3.5 1q2 2 6 2q32 0 39.5 -5.5t7.5 -35.5q0 -10 2 -14
q0 -1 1 -4.5t1 -5.5q4 -12 4 -17q0 -4 -1 -12t-1 -12q-3 -12 -6 -27q-8 -64 -18 -96q-19 -55 -19 -88q0 -5 2 -7v-4l2 -2q0 -26 -12.5 -86t-22.5 -92q-24 -68 -24 -143l-6 -12q-1 -3 -3 -9.5t-3.5 -13.5t-1.5 -14v-6q-5 -10 -5 -13q-2 -4 -5.5 -12.5t-4.5 -11.5
q-10 -31 -14 -37q-10 -17 -25 -17q-3 0 -10 1t-10 1q-19 13 -19 27t13 64q1 5 3 16t3 16q4 12 4 35q0 4 2 4v13q2 8 6 28q10 38 10 53q3 16 7.5 47t7.5 46q1 1 2 4t2 4q0 2 4 10q14 39 14 88q0 8 3 22t3 17l6 18q0 14 7 35l4 8q1 1 2 5t2 6q1 15 10 65l2 2l-14 39l-10 -6
q-7 -4 -37 -29q-30 -24 -33 -26q-16 -13 -47 -41.5t-49 -40.5q-50 -37 -111 -37q-6 0 -10 -2q-6 0 -8 -2q-3 0 -8 -1t-7 -1q-10 0 -31.5 4t-31.5 4q-5 3 -8 8q-13 13 -21 23q-18 26 -24 37v4v18zM276 496q0 -18 14 -29.5t29 -11.5h31q1 0 3 1t3 1l4 2q8 4 9 4q2 1 7.5 2
t8.5 2q8 0 10 2q5 0 13 4q11 3 66.5 48.5t70.5 62.5q12 9 18 18q1 1 3 4t3 4q0 1 1 5t1 6q0 16 -16 36q-4 4 -13 12t-12 11l-4 2h-14q-6 0 -8 2l-2 4h-17q-10 0 -14 -4q-28 0 -66.5 -22t-56.5 -46q-4 -6 -19 -24t-22 -29q-31 -39 -31 -67z" />
    <glyph glyph-name="colon" unicode=":" horiz-adv-x="382" 
d="M139 86q0 15 30.5 40.5t47.5 25.5q22 0 37.5 -14.5t15.5 -35.5q0 -12 -2 -18q0 -2 -22.5 -25t-26.5 -24h-4q-4 -4 -31 -4h-14q0 1 -1 3t-1 3q-4 4 -12 20q-2 3 -6.5 10.5t-6.5 10.5zM195 358q-5 5 -5 11q0 13 30.5 38t45.5 25q24 0 40 -14t16 -35q0 -12 -3 -18
q0 -2 -22.5 -25.5t-26.5 -24.5q-1 0 -2 -1t-2 -1h-12q-8 -2 -18 -2h-15q0 2 -4 6q-2 4 -12 19q-8 16 -10 22z" />
    <glyph glyph-name="semicolon" unicode=";" horiz-adv-x="602" 
d="M80 -285q-1 0 -2.5 0.5l-4.5 1.5t-5 2v5q2 2 6 10q6 8 22 28l45 45l2 3v4q5 5 7 12q4 4 12 16q7 4 12 15q2 4 6 8v18q1 2 3 6.5t3 6.5q11 18 11 41q4 4 6 8q2 2 4.5 6.5t3.5 5.5l2 2v4v10l-2 2q3 7 6 7q0 2 4 10v12v10q0 1 1 2t1 2q4 4 4 7q4 8 4 12q0 1 -1 4t-1 4v8
q-2 4 -2 10t3.5 19.5t5.5 15.5q6 7 24 15t27 8q8 0 10 -2l6 -6q0 -1 1 -2t1 -2q4 -6 4 -15q-4 -12 -4 -16q0 -8 2 -10q0 -3 4 -7q0 -2 2 -4q-18 -40 -22 -73q0 -5 -4 -21q-8 -12 -13 -22q-1 -2 -2 -6.5t-2 -6.5q0 -2 -1 -5t-1 -5q-2 -8 -6 -16l-4 -4v-7q0 -6 -14 -34
q-14 -24 -25 -41q-19 -26 -68 -63.5t-71 -37.5zM256 303q-4 8 -4 10q0 13 30.5 38.5t45.5 25.5q24 0 39.5 -13t15.5 -36q0 -13 -2 -19q0 -1 -22.5 -23.5t-26.5 -25.5h-4q-4 -2 -13 -2h-18h-14q-2 0 -5.5 5.5t-7 12t-4.5 7.5q-7 10 -10 20z" />
    <glyph glyph-name="less" unicode="&#x3c;" horiz-adv-x="659" 
d="M131 115v16v10v6q7 21 45.5 57t59.5 42h4l2 2q20 20 55 41q28 14 63 35q7 5 57.5 51.5t53.5 50.5q13 19 23 24t32 5q5 0 9 -4q5 0 10 -5q4 -16 4 -28q0 -7 -17 -27q-12 -19 -50 -54t-64 -54q-13 -9 -39.5 -25t-38.5 -25q-6 -4 -17.5 -14t-17.5 -14q-7 -7 -16 -10
q-3 -2 -9.5 -5.5t-9.5 -5.5q-21 -11 -32 -24l-5 -4v-4q0 -22 11 -29q8 -11 18 -14q9 -6 35 -19q21 -15 39 -27q20 -11 43 -20q9 -3 25 -10.5t20 -9.5q40 -11 43 -13q19 -5 27 -8l28 -14q31 -19 31 -37q0 -13 -21 -25q-20 -10 -36 -10q-41 0 -105 27q-41 18 -51 22
q-28 14 -49 21q-5 7 -31 24q-68 35 -104 60q-22 19 -25 30v15z" />
    <glyph glyph-name="equal" unicode="=" horiz-adv-x="786" 
d="M174 340l-4 4q1 24 23 36.5t51 12.5q2 0 14 -4q6 0 8 -2h10h13q2 1 5 2t5 2q4 0 9.5 1t8.5 1q7 0 22.5 -2t22.5 -2q2 0 6.5 1t6.5 1q1 0 4 1t4 1q16 2 51 2q73 0 146 6h2q7 0 20.5 -2t20.5 -2q2 0 4.5 1t3.5 1q2 0 4.5 1t3.5 1l4 2h4q10 0 38.5 -3.5t35.5 -6.5
q18 -6 18 -20v-4q-10 -10 -12 -13l-6 -6q-2 -2 -4 -2q-25 -12 -74 -16q-29 -2 -80 -2q-10 0 -29 -3t-28 -3q-5 0 -21 4q-2 0 -6 1t-6 1q-4 2 -12 2q-3 0 -10.5 -1t-10.5 -1q-3 -1 -9 -2t-9 -2q-1 0 -14 -3.5t-19 -3.5q-2 0 -7.5 1.5t-8.5 1.5h-8q-1 0 -3.5 -1.5t-3.5 -1.5
t-3 -1t-3 -1h-4q-8 0 -25 3.5t-26 3.5q-11 0 -35 -3.5t-37 -3.5q-21 0 -31.5 4.5t-19.5 18.5zM129 92q0 3 -1 9t-1 8v4q9 23 43 30q23 4 66 4h20q14 0 23 3q1 0 4 1t4 1h4q2 0 4.5 -1t3.5 -1q14 -7 18 -7q13 0 17 4q3 0 6 3h4q5 0 16.5 -2.5t16.5 -2.5q55 0 94 5q1 0 2 -1.5
t2 -1.5l2 -2h12q6 0 18.5 -2t18.5 -2q7 0 20.5 3t20.5 3q1 0 2 -1t2 -1q8 -4 17 -4h8l4 2q4 0 4 2q17 0 48.5 -7t39.5 -15q0 -26 -53 -39q-35 -12 -88 -12q-1 0 -3 1t-3 1q-4 2 -10 2q-2 2 -11 2q-4 0 -6 -2q-2 0 -6 -2h-82q-12 0 -37 2t-39 2q-12 0 -34 -2t-33 -2h-92
q-19 0 -31 2q-4 0 -12.5 2.5t-8.5 5.5l-8 4q-4 0 -6 4z" />
    <glyph glyph-name="greater" unicode="&#x3e;" horiz-adv-x="694" 
d="M205 -84q-7 0 -13 9t-6 20q0 2 14 27.5t15 25.5q6 4 41 33q27 34 61 61q6 4 17.5 12.5t17.5 12.5q3 3 10.5 9t10.5 9q32 31 92.5 82t77.5 66l2 2l4 22l-12 15h-5q-8 0 -12 2l-12 6q-20 10 -33 10q-6 0 -10 2q-22 11 -68 16l-4 4q-11 11 -20 11q-4 2 -8 2q-43 7 -68 14
q-3 1 -13.5 5t-15.5 5l-28 7q-2 1 -12 5t-15 7q-25 14 -25 41q0 10 15.5 22.5t27.5 12.5q35 0 111 -27q26 -8 68 -22t53 -17q3 0 8.5 -1t7.5 -1h13q12 -4 20 -6q3 -2 11.5 -5t11.5 -5l22 -11q12 -4 21 -4q3 0 8.5 1t7.5 1l8 -10l4 -4h4q12 -1 26.5 -20t14.5 -31t-23.5 -50.5
t-37.5 -54.5l-15 -10q-2 -2 -7 -6t-7 -6q-15 -9 -31 -25q-9 -13 -30 -28q-3 -2 -8.5 -5.5t-8.5 -5.5q-2 -2 -7.5 -6.5t-8.5 -7.5q-11 -10 -33.5 -29.5t-34.5 -29.5q-3 -2 -18 -17q-10 -10 -19 -16l-18 -15q-6 -4 -18 -16q-5 -5 -14.5 -15.5t-14.5 -15.5q-24 -24 -29 -28
q-36 -29 -63 -29z" />
    <glyph glyph-name="question" unicode="?" horiz-adv-x="739" 
d="M260 283q-6 14 -6 45q0 4 2 6v2q2 4 8 10q3 4 9.5 12.5t9.5 12.5q9 9 21.5 23t14.5 16l3 2v4q2 11 16 22q6 3 14 11q11 8 17 16q0 4 2 6q0 1 1 4t1 4t1 2t1 2q4 4 10 4q10 5 18 13q1 3 4.5 8t4.5 6q2 2 6 10q8 16 12 19q80 73 115 125q1 1 3 4t3 4q0 4 4 8l4 12q1 1 3 2
t3 2t3 2.5t3 2.5q12 4 23 18q5 7 13.5 21.5t13.5 21.5q2 4 8 10q37 35 71.5 87t34.5 93q0 3 -1 8t-1 7q-1 1 -2 4t-2 4q-7 30 -25 44.5t-47 23.5q-45 10 -86 10q-6 0 -51 -10t-49 -13q-4 -2 -10.5 -6.5t-9.5 -5.5q-9 -6 -19 -6q-9 3 -10 4h-12q-5 0 -7 -2q0 4 -4 4
q-1 1 -2 3t-2 3l4 29q1 7 29 32.5t39 30.5q6 3 71 14t74 11q32 0 109 -17q8 -4 10 -6q54 -27 77 -53t23 -78l5 -10q0 -2 1 -5t1 -5q0 -15 -11 -46.5t-20 -45.5q-1 -2 -3 -6.5t-3 -6.5q-3 -1 -8 -12l-7 -14q0 -14 -57 -82q-10 -11 -30.5 -34t-30.5 -34q-2 -2 -5.5 -7t-5.5 -7
q-1 -2 -4 -7t-4 -7q-20 -33 -49 -56q-57 -57 -149 -164q-3 -5 -12 -12.5t-11 -9.5q-17 -17 -25 -27l-4 -8q0 -4 -2 -8l-2 -6q-55 -66 -84 -95q-24 -8 -32 -8q-11 0 -19 15zM240 -154q0 20 18.5 44t32.5 24h18q13 0 22 -9t9 -22q0 -14 -16 -30l-2 -5v-10v-4q-9 -3 -15 -6
q-2 -1 -7 -3t-7 -3q-4 0 -6 -2q-23 0 -35 6q-2 2 -3.5 5.5t-2.5 4.5q-1 2 -3 5t-3 5z" />
    <glyph glyph-name="at" unicode="@" horiz-adv-x="1681" 
d="M225 29q0 6 4 22q1 3 2 8t2 7v16q0 10 -4 14q0 2 -2 4q1 1 1.5 3t1 5t1.5 5q2 8 9 22q1 5 4.5 13.5t3.5 9.5t1 4t1 4q2 4 2 8q0 6 -2 8q0 4 -2 6q0 13 10 23q12 22 12 47q0 2 -2 4v4l8 8l5 5l2 4v2v10v6l4 2l4 4q4 4 4 6q29 44 45 86q0 15 8 23l8 8q15 15 17 27q2 2 2 8
q2 4 4 6l8 4q2 0 4 2q6 4 27.5 36.5t23.5 37.5q2 2 2 6q3 8 7 10q1 0 4 1t4 1q2 2 10 6q2 3 7 8.5t7 8.5q1 2 4 5t4.5 5.5t2.5 5.5q14 21 24 29q7 7 25 14q4 4 12 8q9 6 14 11q6 3 13 10q8 15 65.5 52.5t83.5 49.5q19 8 37 23q10 9 74 33t78 24q19 0 28 6q21 8 58 19
q25 10 67 10q2 -2 8 -2h17q1 0 3 1t3 1t3 1t3 1q8 0 12 -4l2 -2h2q6 -2 19 -2q8 0 23 2t22 2h10q4 -2 10 -2q7 -2 19 -4t14 -2q42 -9 70 -29q9 -5 63 -43q4 -4 8 -4q8 -4 11 -4q1 -1 4 -2t4 -2q15 -12 67 -64q36 -40 55 -113.5t19 -142.5q0 -90 -14 -125q0 -1 -1 -3t-1 -3
q-4 -4 -4 -8q-4 -6 -8 -18v-7q-3 -3 -3 -6q-1 -1 -3 -4t-3 -4q-1 -2 -3 -5t-3 -5q-2 -3 -12 -23v-4l-2 -4v-4q0 -1 -1 -2t-1 -2l-2 -2q-1 0 -2 -1t-2 -1q-9 -14 -11 -19q-5 -8 -8 -16q-11 -22 -16 -27q-7 -9 -45.5 -33.5t-50.5 -29.5q-12 -4 -36 -9t-36 -9q-2 0 -5 -1.5
t-5 -1.5q-2 -2 -6 -2q-57 0 -97.5 34.5t-75.5 94.5q-2 5 -6 14.5t-6 14.5v8h-8q-2 2 -8 2q-11 0 -25 -14q-3 -4 -9 -13.5t-9 -13.5q-8 -13 -19 -28q-2 -3 -5 -7t-4.5 -6.5t-2.5 -3.5q-10 -8 -26 -23.5t-21 -19.5q-36 -31 -45 -37q-21 -16 -44.5 -23t-39 -8t-51.5 -1
q-19 4 -21 8l-2 2h-4q-19 3 -20 4l-6 6q-1 2 -11 12q-6 9 -14 13q-1 0 -3 1t-3 1v8q-1 3 -6 23q0 12 -4 24q0 25 8 49q9 24 16 45q22 68 54.5 113t91.5 96q2 1 32.5 19.5t32.5 19.5q12 4 52.5 10.5t54.5 6.5q11 0 32 -7q5 -1 16.5 -4t16.5 -4q13 -8 23 -18q24 -12 47 -58
q-1 -3 -3 -8t-3 -8v-4l2 -2q6 -19 10 -60q0 -5 1 -15t1 -15q4 -22 8 -33q1 -8 15 -38.5t20 -39.5q8 -8 12 -10q2 -2 10 -6q12 -8 13 -10l6 -7q3 -1 9 -4t9 -4q18 -6 25 -6q28 0 74.5 25.5t60.5 52.5q20 40 39.5 98t19.5 92q0 44 -10 78q0 7 -4 15q0 2 -1 4.5t-1 3.5
q0 6 2 10q0 49 -24.5 87.5t-69.5 78.5l-8 8q-1 2 -4 5t-4 5q-10 13 -23 21q-4 4 -12 8q-4 4 -8 6q-19 20 -72 35.5t-84 15.5q-15 0 -46 -3t-46 -3q-5 0 -14.5 2t-14.5 2q-19 0 -59.5 -10.5t-55.5 -19.5q-5 -2 -15 -6.5t-15 -6.5q-6 -2 -17.5 -6t-17.5 -6q-47 -16 -66 -31
l-4 -6l-4 -4q-2 0 -10 -4q-6 0 -14 -4q-13 -5 -27 -19q-4 0 -6 -2q-12 0 -66 -41.5t-67 -56.5q-7 -6 -20.5 -18.5t-20.5 -18.5q-8 -8 -47.5 -56.5t-42.5 -55.5q0 -1 -1 -5t-1 -6l-3 -4l-4 -4l-6 -6q-8 -4 -14 -16q-1 -1 -6 -11l-4 -8q-5 -10 -17 -22q-9 -13 -16 -29
q-5 -17 -17.5 -47.5t-17.5 -44.5q-16 -39 -33 -133q-2 -12 -2 -37v-10q0 -1 1 -5t1 -6v-90q0 -19 11 -41q2 -6 7 -17.5t7 -17.5q7 -31 18 -53q15 -28 45.5 -60.5t57.5 -49.5q5 -4 26 -25l6 -4q15 -3 42 -12.5t36 -12.5q40 -16 84 -16q80 0 158 16q20 6 59 19q12 6 39 6
q6 2 21 8t24 8q19 7 58 18.5t59 18.5q20 10 23 12q6 3 10 7q8 4 10 6q27 9 37 14q21 7 39 16q8 8 10 9l8 8q7 7 17 12q4 2 13 5t13 5q14 7 23 13q5 2 10.5 7.5t7.5 6.5q24 12 39 12q5 0 9 -1l3 -1q0 -30 -18 -52t-51 -46q-17 -11 -115 -62q-7 -3 -26.5 -13.5t-30.5 -14.5
q-9 -6 -23 -6q-2 -1 -6 -2t-6 -2q-2 0 -12 -5q-14 -7 -23 -10q-11 -5 -33.5 -9.5t-29.5 -6.5q-15 -5 -50.5 -18t-54.5 -19q-74 -21 -110 -21q-1 0 -3.5 -1t-3.5 -1q-2 -2 -6 -2h-4q-4 0 -12 1t-12 1q-9 0 -13 -2q-1 0 -3.5 -1t-4.5 -1q-2 -2 -6 -2q-2 -2 -6 -2q-57 0 -88 2
q-41 3 -86 17q-12 6 -15 8q-4 4 -8 6q-4 4 -8 4q-8 4 -10 4q-8 0 -10 2q-19 0 -63.5 38.5t-63.5 62.5q-4 4 -4 6q-1 1 -2.5 4t-2.5 4q-4 8 -4 10q-7 15 -14 15q-39 39 -56.5 114t-17.5 148zM743 199q0 -35 17.5 -47.5t48.5 -12.5q6 0 8 2q4 0 6 2q8 4 11 4q49 20 108 86
q24 30 78 115q6 6 18 22t13 21q6 6 6 17v4q-2 11 -15 28l-2 4h-2q-47 15 -67 15q-33 0 -56 -13q-12 -8 -18 -14q-15 -10 -23 -16q-1 0 -2 -1t-2 -1t-2 -1t-2 -1l-6 -2q-1 -1 -3 -2t-3 -2t-3 -3.5t-3 -3.5l-6 -6q-2 -2 -6 -5.5t-5 -4.5q-23 -13 -55.5 -83.5t-32.5 -100.5z
" />
    <glyph glyph-name="A" unicode="A" 
d="M29 -125q-2 6 -6 14q24 70 57 103q3 4 12 22q1 3 6 23q13 31 23 39l4 8q1 17 20 57t33 60l2 2v4q0 4 2 8v4q1 1 3 2t3 2q7 7 9 13q2 5 5 14t5 14l10 25q17 25 31 61l24 60q5 10 16.5 30.5t16.5 30.5q2 4 6 12.5t6 12.5q5 10 13 22q23 31 30 51q2 5 9 20.5t10 22.5
q6 19 22 37l5 6q0 12 16 41q19 34 24 49q2 3 5.5 8.5t5.5 8.5q2 2 6 7t6 7q16 20 23 41q3 9 47 64t53 61q22 11 70 27l4 -4q8 -4 20 -4q2 2 6 2q2 0 4 2q6 0 24 -11t23 -16q8 -13 18.5 -43t10.5 -43v-6q6 -7 10 -31t2 -35l-2 -6l4 -4q13 -13 13 -39q0 -5 -2 -16t-2 -17
q0 -10 4 -31.5t4 -31.5v-29q0 -1 1 -3t1 -3l2 -4q0 -15 -1 -43t-1 -41v-31q0 -10 4 -30q0 -14 6 -23l6 -6q1 -1 3 -2t3 -2v-4q-2 -2 -2 -6q-2 -2 -2 -9v-6q2 -2 2 -6q-2 -1 -5 -3t-5 -3q-16 -12 -16 -35v-4l4 -4q2 -2 2 -6q0 -10 -6 -25q0 -6 -4 -14q0 -3 -1 -8.5t-1 -8.5
v-67v-8q0 -4 2 -6v-5v-4q0 -2 -1 -4.5t-1 -3.5q-2 -4 -2 -8q-3 -6 -3 -10q1 -17 5 -17v-4l-5 -30q-1 -3 -2 -9t-2 -8q0 -3 -1 -9.5t-1 -10.5q0 -5 4 -21v-4q-2 -2 -2 -8v-8l2 -4q0 -4 2 -4q0 -5 -2 -7v-6l-2 -6q0 -2 -1 -5.5t-1 -4.5q0 -10 4 -14q0 -5 2 -7q0 -27 -18 -49
t-41 -22q-1 0 -2 1t-2 1q-2 2 -10 6l-8 8q-2 6 -2 14v17q0 5 -1.5 13.5t-1.5 12.5q-2 4 -2 13q-2 2 -2 8l2 4q2 2 5 8v19q0 12 3 37.5t3 39.5v9q-2 2 -2 4v4q0 11 -1 36.5t-1 39.5q0 45 6 69q0 5 4 17q2 6 2 18q0 49 -37 49h-53q-32 0 -56 -6q-11 -2 -34 -7t-35 -7
q-46 -8 -68 -8q-16 0 -43 -9q-8 -2 -23.5 -7.5t-17.5 -6.5h-8h-16q-11 0 -17 -2q-6 0 -14 -8q-20 -28 -25 -62q-2 -6 -10 -18q-2 -4 -4.5 -7.5t-5.5 -7.5t-4 -6q-22 -39 -33 -77q-1 -2 -2 -6.5t-2 -6.5q0 -4 -1 -7l-1 -3q-4 -4 -4 -6q-6 -6 -8 -10q0 -1 -1 -4.5t-1 -4.5v-6
l-2 -4q0 -1 -2 -2q-1 -1 -1.5 -1t-1.5 -1q-15 -8 -20 -37q0 -6 -2 -8q0 -4 -4 -8q-3 -8 -17 -28t-18 -23l-2 -4v-2q-7 -19 -10 -23q-2 -3 -7.5 -9t-9.5 -11q-1 -1 -2 -4.5t-2 -4.5t-2 -3t-2 -3q-1 -2 -2 -5.5t-2 -4.5l-4 -2v-2q0 -8 -2 -10q-1 0 -3.5 -1t-4.5 -1h-2l-4 -2
q-5 -5 -9 -5q-12 0 -22 13q-4 8 -6 14zM358 401l-2 -12l11 -2q4 0 8 -2h8q19 0 27 2q4 1 11 3t11 3q21 8 45 8q2 0 10.5 1.5t20.5 3t22 2.5q17 0 33 4q3 0 7 1t5 1h5l4 2q6 4 14 8q1 0 6.5 -1t11.5 -1q52 0 82 12q15 5 21 19v14v12q0 7 2 21.5t2 21.5q0 21 -8 29q0 2 2 4v6
q2 2 2 8q2 2 2 11q0 57 -2 84q-1 2 -2 7t-2 7q0 4 -4 8q-4 20 -4 31v31q0 3 -1 6.5t-1 5.5q-1 2 -11 49q-4 36 -8 43v2l-2 2q-1 2 -3 4.5t-3 4t-2 3.5q-1 1 -2.5 4.5t-3.5 6.5q-4 10 -19 10q-19 0 -55 -41q-12 -15 -37 -53q-3 -5 -8.5 -15t-7.5 -14q-8 -15 -15 -25
q0 -2 -2 -4q-1 -1 -3 -2t-3 -2q-8 -8 -12 -14q-4 -8 -11.5 -24.5t-11.5 -24.5q-10 -21 -30.5 -57.5t-28.5 -53.5q-7 -16 -14 -41q-1 -2 -2 -5t-2 -5q-1 -1 -6 -9.5t-9 -13.5l-12 -24q-4 -4 -4 -6q-8 -22 -10 -29q-1 -2 -2.5 -6t-2.5 -6t-2 -6.5t-2 -6.5z" />
    <glyph glyph-name="B" unicode="B" horiz-adv-x="755" 
d="M164 -100q0 18 5 52t5 52v6l-2 4q0 17 2 23q4 16 6 22q1 7 1.5 28t2.5 32v2l-2 4q0 4 -2 8l-2 2q0 19 6 37q4 23 9 41q8 54 8 115q0 2 -1 6t-1 6q-2 2 -2 4q1 5 4 15.5t4 15.5q6 24 6 49l-4 8v4q0 8 2 10q0 5 2 7q0 1 1 4t1 4q8 43 16 124t11 103v8q0 4 -1 12.5t-1 12.5
q4 8 4 12q8 12 8 29v12q0 6 -4 10q1 2 2 5t2 4t2 4t2 4l2 6q6 22 8 27q2 8 6 20q9 18 31 18h12q2 0 6 -1t5 -1l4 -2l4 2q1 0 6.5 2t15.5 5.5t17 5.5l24 6l8 4q2 0 5 -1t4 -1h4q2 -2 6 -2l12 4q88 0 140.5 -32.5t84.5 -112.5q1 -3 7 -15v-6v-2q0 -2 -2 -4v-51q0 -15 -9 -51.5
t-16 -49.5q-5 -12 -21 -28q-3 -3 -8.5 -11.5t-7.5 -11.5q-8 -16 -14 -22q-14 -24 -29 -37q-14 -11 -22 -21q-11 -16 -31 -30q-9 -6 -23 -13q-3 -2 -10 -7t-10 -7q-12 -12 -14 -21l-3 -6l13 -16l4 -2h20h9l4 -2q21 -6 72.5 -38.5t58.5 -45.5q2 -2 2 -6q1 -1 2 -3t2 -3
q0 -9 8 -17q0 -4 4 -4q4 -4 6 -4l4 -4q0 -7 4 -19q0 -3 3 -11t4 -11q8 -32 8 -51q2 -2 2 -6l2 -5v-4q-10 -41 -10 -43q-54 -136 -150 -184q-9 -4 -27.5 -11.5t-25.5 -10.5q-14 -7 -23 -13t-20 -6q-15 0 -43 -4q-29 -8 -41 -10q-57 -17 -78 -17q-34 0 -57 7q-33 6 -33 26
q0 10 -3 31t-3 33zM244 -61l2 -5q2 -2 2 -8q-2 -4 -2 -16q0 -15 8 -24t22 -9q17 0 33 4q3 1 8.5 2t8.5 2q2 0 6 1t6 1h4l2 2q5 5 10 5h8q15 0 52 14l20 10q1 0 4 1t4 1h13q0 -2 4 -2q6 0 26 10q40 31 76.5 78.5t36.5 85.5q0 9 -4 21q-2 2 -2 6q-2 2 -2 6q-18 66 -53 88
q-25 13 -27 14q-17 9 -27 21l-6 4h-12q-1 0 -3 -1t-3 -1q-8 4 -10 6q-4 2 -15 2q-1 1 -4 2t-4 2q-2 0 -4.5 1t-3.5 1l-2 2h-2q-8 2 -24.5 6.5t-24.5 6.5q-24 6 -54 6q-2 0 -4 2l-12 2q-13 0 -19 -17q-6 -12 -6 -26q-4 -18 -4 -45q0 -2 1 -12.5t1 -12.5q-1 -7 -3 -20.5
t-3 -20.5q-4 -28 -4 -45q0 -6 2 -17.5t2 -17.5q0 -2 -2 -6q0 -1 -1 -4t-1 -4q-6 -18 -6 -25q0 -9 2 -26t2 -25q0 -1 -1 -3t-1 -3q-4 -6 -8 -14zM283 352h24l8 4q2 2 4 2q1 1 5 4t6 5q16 8 20 12q7 5 54.5 40.5t72.5 57.5q75 71 92 133q0 4 2 6q1 3 4.5 9.5t4.5 9.5
q4 12 6 20v7q-7 18 -11 43q-2 6 -2 18q-1 3 -2 8.5t-2 7.5q-5 20 -20 34.5t-47 27.5q-10 3 -17 8q-12 4 -20 4h-82q-6 0 -8 -2q-1 0 -3 -1t-3 -1q-4 -4 -7 -4q-1 -1 -4.5 -2t-5.5 -2q-1 -1 -5 -2.5t-5 -3.5q-16 -6 -16 -31q0 -6 2 -8q0 -1 -1 -3t-1 -3q-1 -1 -2 -3.5
t-2 -3.5q0 -1 -1.5 -3t-1.5 -3q-5 -20 -9.5 -55t-6.5 -47v-4l2 -4q0 -2 6 -11q0 -5 -1 -14t-1 -14q0 -2 -2 -4q0 -7 -2 -9q-10 -38 -10 -94q0 -4 -4 -12l-4 -2l2 -6q0 -63 -4 -96z" />
    <glyph glyph-name="C" unicode="C" horiz-adv-x="811" 
d="M164 336q0 4 2 10q6 12 6 14q16 60 16 117q0 62 53 174.5t99 155.5q43 43 103.5 86t97.5 43q12 0 18 6q1 0 3 1t3 1h4l4 -2h7h8l8 2q1 0 2 1t2 1h4q19 0 23 -6l4 -2h8q15 0 44.5 -29t29.5 -51q2 -2 2 -8q2 -2 2 -8l2 -2q-1 -2 -3 -7.5t-3 -7.5q0 -6 -4 -14q-9 -6 -17 -10
q-18 -6 -24 -6q-14 0 -25 14q-4 8 -8 14q-5 10 -10 15q-3 2 -10.5 6t-10.5 6q-8 4 -20 12l-4 2h-2q-46 -7 -74 -17.5t-55 -37.5q0 -2 -6 -8t-7 -6q-1 -3 -10 -7q-4 -2 -12 -10l-5 -5t-10 -9.5t-10 -9.5q-3 -3 -7.5 -9t-6.5 -8l-6 -6l-4 -8q0 -5 -3 -8v-4q0 -1 -1.5 -2.5
t-2.5 -3.5h-4q-12 -11 -16 -19q-2 -6 -10 -27.5t-13 -31.5q-2 -4 -6 -11.5t-6 -11.5q-6 -12 -6 -29q0 -2 -4 -14q0 -6 -4 -14q-10 -30 -10 -55q0 -16 -7 -37q-2 -3 -14 -41q-4 -20 -4 -33q0 -4 2 -6v-6q0 -5 -2 -7q-4 -8 -4 -18q0 -34 2 -70t10.5 -89t22 -92.5t39.5 -68
t61 -28.5q8 0 16 4q4 4 7 4q4 4 12 4h10q23 6 27 8t12.5 9t13.5 10q137 83 152 94q8 6 24.5 20.5t24.5 20.5q25 18 45 18q5 0 8 -8q4 -8 4 -20q0 -8 -6 -24.5t-10 -20.5q-33 -29 -68 -52q-57 -40 -69 -49q-23 -19 -105 -59.5t-100 -40.5q-45 0 -91 24t-65 62q-8 12 -8 20
q-3 14 -10 21l-4 4q-2 2 -2 4q-1 2 -2 6t-2 6q-1 3 -2 9t-2 8q-3 17 -13 33q-6 28 -10 79q0 55 -2 84q0 5 -1 16.5t-1 16.5q-4 20 -4 29z" />
    <glyph glyph-name="D" unicode="D" horiz-adv-x="806" 
d="M102 -166q-14 6 -14 19q0 6 8 22q2 2 5.5 8t4.5 8q5 10 5 19q0 6 -2 10q0 7 4 23q6 24 6 26l2 4l-4 4q0 7 8 35q5 9 8 23q4 12 4 20q2 9 3 28t3 28q3 24 16 67.5t17 63.5q0 25 2 37q0 18 4 26q6 9 6 17q0 10 2 14v16q0 2 1.5 6.5t1.5 6.5q2 5 7 15t7 15q4 20 4 27
q2 8 2 24q2 18 14 54q10 26 13 55l-2 8q0 22 12 80q3 13 10 40.5t10 41.5q0 2 1 6t1 6q1 2 3.5 7.5t3.5 7.5q8 20 8 32q0 2 -1 6.5t-1 6.5t-1 5t-1 5q-4 12 -4 16q0 3 1 9.5t1 9.5q1 4 31.5 26.5t35.5 22.5q6 0 17 -1t16 -1q7 0 20 2t19 2t60 -10.5t57 -12.5q1 0 3.5 -1
t4.5 -1q44 -4 113.5 -54t91.5 -93q0 -7 4 -19v-12q4 -12 6 -14q0 -4 4 -8q0 -2 4 -6q1 -1 2 -2.5t2 -2.5q-1 -3 -2 -10t-2 -10v-2l2 -4q14 -43 14 -117q0 -7 -1 -21.5t-1 -21.5l-2 -2l2 -4q2 -4 2 -12q0 -9 -2 -13q-4 -4 -10 -16q-4 -10 -4 -29v-12v-8q-1 -1 -2 -3t-2 -3
q0 -2 -1 -5t-1 -4q-3 -3 -8 -18q-31 -133 -60 -162l-8 -8q-9 -9 -10 -12q-7 -7 -14 -21q-7 -9 -17 -26q-2 -3 -7.5 -11.5t-8.5 -11.5q-3 -6 -11 -14q-4 0 -10 -6q-15 -11 -20 -21l-8 -8q-2 -5 -9 -8q-8 -8 -20 -13q-8 -4 -12 -8q-10 -5 -13 -8q-30 -26 -47 -39
q-22 -19 -49 -31q-9 -4 -26.5 -13.5t-20.5 -10.5q-31 -17 -43 -21q-22 -6 -61.5 -20t-47.5 -16q-4 -1 -21 -7t-28 -8q-30 -10 -45 -10q-25 0 -35 6zM190 -66l-2 -8l9 -4q4 0 6 -2h4q0 -2 4 -2q8 0 20 6q12 2 31 10l30 12t25 9q60 18 109 53q1 1 4 3t4 3q7 14 17 19l18 12
q12 8 18 10q29 19 37 29q70 75 104 130t50 140q3 12 10 33q4 12 4 16l2 7q2 2 2 8q0 8 -1 24.5t-1 24.5v16q1 2 2 6t2 5l2 4l-2 8q0 1 2 7t2 7q0 67 -14 103q-3 8 -10 12l-4 4l2 6v6l-2 4q-1 1 -2 3.5t-2 3.5q-2 4 -2 10q-4 8 -4 12q-1 1 -3.5 5t-3.5 5q-11 16 -70 57
t-77 44h-12q-2 0 -5.5 -1t-5.5 -1q-4 0 -12 4q-47 14 -80 14q-19 0 -24 -20q-6 -9 -6 -21q-5 -20 -5 -22q0 -1 -4 -18t-8 -25q-8 -19 -8 -50q0 -14 -8 -30q-5 -15 -6 -17q0 -1 -3 -8t-4 -12q-2 -12 -6 -35.5t-6 -34.5q-6 -38 -6 -74q0 -6 -4 -14q-1 -3 -4 -9t-4 -9
q-2 -3 -3.5 -9.5t-2.5 -7.5v-4v-4l-4 -6q-7 -7 -9 -14q0 -3 -1 -9.5t-1 -9.5v-18q-1 -5 -2 -16t-2 -15q0 -2 -1 -4.5t-1 -3.5q-1 -2 -2 -5t-2 -5q-1 -3 -6 -23q-1 -7 -2 -20.5t-2 -20.5l-2 -4l2 -2q2 -6 2 -8q-4 -4 -4 -6q-4 -4 -4 -9q-9 -36 -9 -49l-2 -2l-4 -8l-4 -8
q-2 -6 -2 -19q0 -2 1 -7t1 -7q0 -16 -10 -43q-4 -12 -4 -20q-4 -12 -4 -21q-4 -22 -8 -33q-7 -21 -7 -37z" />
    <glyph glyph-name="E" unicode="E" horiz-adv-x="772" 
d="M115 -82q0 13 2 19q0 2 1 6t1 6v12q4 8 4 16q4 18 6 23q6 24 10 72l2 4l-2 4l-2 4q0 2 1 3.5t1 2.5q2 4 2 10q2 2 2 9q4 16 11 51q8 40 8 51q0 6 -2 8v6q-2 0 -2 4q0 1 1 3.5t1 3.5q4 8 4 10l2 4v2q-2 12 -2 41q0 6 5.5 30.5t8.5 28.5l2 2v4q0 6 17 86q12 58 12 93
q0 2 8 22q4 8 4 14q4 8 4 17l-2 8q0 2 1 5t1 5q1 2 3 6.5t3 6.5v6q0 2 -2 4q0 9 9 41q2 5 7 20.5t7 24.5q4 17 8 43q4 24 6 28q10 27 49 39q51 19 76 19q6 0 10 -2q51 0 107 16q8 2 23.5 6t23.5 6q3 0 19 3.5t24 3.5t10 2q1 0 3 1t3 1q8 4 11 4q5 0 14 -2t14 -2q8 0 17 6
q15 0 27 -12t12 -27q0 -33 -35 -39q-12 -2 -37 -2h-35q-3 0 -7.5 -1t-6.5 -1q-2 -1 -6.5 -3t-6.5 -3q-11 -5 -14 -2l-4 2l-2 -2q-30 -6 -88.5 -18.5t-87.5 -18.5q-20 -4 -23 -4l-6 -2l-8 -4q-4 -4 -17.5 -51t-13.5 -56l2 -4q0 -19 -8 -51q-1 -4 -4 -13.5t-4 -13.5
q-4 -16 -4 -26v-7q4 -8 4 -10t-4 -18q-1 -8 -10 -33q-15 -50 -15 -66v-6l17 -14h26q20 0 56 8q10 2 28 7.5t25 7.5q15 4 41.5 7.5t30.5 4.5q2 1 5.5 2t4.5 2q4 4 6 4l8 4q7 0 21.5 -2t21.5 -2h14q9 0 11 -2q8 -4 8 -14q0 -39 -35 -50q-11 -4 -41 -8q-31 -9 -43 -14
q-28 -8 -41 -8q-16 0 -22 -2q-20 -5 -23 -6q-32 -9 -39 -9q-14 0 -26 -6q-3 -1 -10.5 -4t-10.5 -4q-8 0 -12 -2h-8q-7 0 -9 -2q-12 -3 -17.5 -9.5t-6 -11.5t-0.5 -16q0 -5 -1 -15.5t-1 -15.5q-1 -5 -4 -15t-4 -15v-4l2 -5q0 -14 -7 -38q-1 -6 -4 -18.5t-4 -18.5
q-2 -13 -4 -39t-4 -39q0 -5 -1 -11t-2.5 -13t-2.5 -11q-6 -18 -6 -39q0 -14 11.5 -31.5t25.5 -17.5q28 0 81.5 7t79.5 7q9 0 25 4q4 0 11.5 1t11.5 1h67q14 0 43 5.5t43 5.5q24 0 39 -9q16 -6 16 -26q0 -51 -127 -51q-2 0 -4 2q-2 0 -6.5 1t-7.5 1q-10 0 -14 -2h-13h-2
l-4 -2q-2 -2 -6 -2l-8 4h-8q-15 0 -23 -2q-12 -4 -20 -4q-25 -7 -39 -7q-1 0 -3 1t-3 1h-9q-14 0 -44 -5t-44 -5h-2l-2 -2q-51 -10 -55 -10h-4q-2 2 -4 2h-4q-2 2 -6 2q-5 0 -16.5 -2t-16.5 -2q-8 4 -10 4q-2 1 -5.5 2.5t-6 2.5t-3.5 1q-19 10 -24 19v18q0 3 1 14t1 17
q0 4 -2 6v4v4z" />
    <glyph glyph-name="F" unicode="F" horiz-adv-x="608" 
d="M125 -211q-12 0 -22.5 14t-10.5 29q0 2 1 4.5t1 3.5q0 7 4 19q3 16 8 32q2 12 3 40.5t4 43.5q1 9 4 24t4 21q6 21 6 48l4 8q14 35 14 88l-2 8q0 10 13 45l4 12t4 15q4 16 4 28q0 11 -4 27q2 9 10 37t10 43q1 8 2 25.5t2 25.5q1 9 6.5 25.5t6.5 21.5q8 36 8 60q0 8 4 28
q1 3 2 8.5t2 8.5q0 3 1 9t1 9v10q-2 4 -2 6q0 3 4 11q0 1 1 4t1 4q2 2 2 8q1 4 2 12.5t2 12.5v20q0 27 2 41q1 1 2.5 4t2.5 4q0 7 4 11q6 24 6 26q3 51 13 70t50 30q12 3 21 9q8 4 10 6q9 6 31 6q16 0 28 6q12 2 27 10q39 13 49 13q8 0 10 2q7 0 11 2q24 0 28 4q1 1 4 3t4 3
q12 4 25 4t25 6q16 3 28 8q43 13 58 13q14 0 30 -8q9 -3 17 -11l2 -4q0 -53 -70 -53q-5 0 -41 -10.5t-45 -14.5q-2 -1 -10 -2.5t-18.5 -4t-20.5 -5.5q-129 -21 -172 -51q-14 -11 -14 -23v-6l2 -4l-4 -8q-7 -14 -11 -39q-1 -6 -2 -18t-2 -17v-4l2 -4q-2 -17 -9.5 -47.5
t-8.5 -36.5q-4 -32 -4 -49v-47q0 -1 -1 -3t-1 -3t-1 -3.5t-1 -3.5t-1 -4t-1 -4q0 -15 14 -20q6 -4 16 -4q44 0 64 4q10 0 22 8q10 5 11 6q3 0 10 -1t10 -1q11 0 23 4q94 23 141 23q8 0 16 -5.5t8 -9.5q0 -22 -18.5 -44.5t-40.5 -22.5q-21 0 -33 -4q-1 0 -4 -1t-4 -1
q-1 -1 -4.5 -2t-5.5 -2q-1 0 -3 1t-3 1t-3 1t-3 1q-19 0 -35 -9q-4 0 -8 -4q-2 -1 -5 -2t-4 -2q-4 0 -8 2q-13 0 -41 -4q-20 -4 -28 -6q-36 -12 -54 -12q-39 0 -51 -16.5t-12 -57.5q0 -2 2 -6q0 -11 -4 -23q-1 -4 -3 -11t-3 -11q-3 -12 -6.5 -33t-6.5 -33q-2 -10 -6 -29.5
t-6 -29.5q-8 -31 -8 -70q0 -4 2 -6q0 -4 -4 -8q0 -4 -4 -8q0 -1 -1 -4t-1 -4q-3 -16 -8 -68t-9 -78q-16 -90 -59 -90z" />
    <glyph glyph-name="G" unicode="G" horiz-adv-x="858" 
d="M166 293q-2 6 -2 14t6 23q0 2 3.5 14.5t4.5 13.5v19q0 25 6 41q4 16 4 20l2 6q8 12 15 37q37 153 141 275q2 4 10 12q2 2 7.5 6t7.5 6q11 8 26 27q0 1 1 3t1 3q2 2 2 4q1 1 2.5 3t2.5 3l12 4q4 0 8 4q8 5 21 14.5t18 12.5q6 4 15 10.5t12 8.5q25 11 73 24q3 1 9.5 3
t9.5 3q3 0 8.5 1t7.5 1q40 0 86.5 -24.5t46.5 -57.5q0 -17 -12 -30t-29 -13q-14 0 -24 7q-3 0 -11 4q-2 4 -10 8q-31 22 -65 22q-47 0 -74 -18q-58 -33 -119 -110.5t-76 -139.5v-10l-4 -8q0 -2 -2 -4v-3l-4 -4q-12 -22 -26.5 -80t-14.5 -86q0 -10 -2 -16q-1 -2 -2 -6t-2 -6
q0 -2 -1 -6t-1 -6l4 -15q0 -6 -2 -10q0 -2 -1 -5t-1 -5q-4 -8 -4 -13q-2 -6 -2 -16q0 -16 4 -49t4 -49q0 -6 -2 -10v-9q-2 -2 -2 -8q0 -11 11.5 -66t15.5 -65q7 -7 10 -20q5 -24 12 -35q7 -12 36.5 -42t41.5 -34q4 -2 12 -2h12h7q38 0 64.5 10t60.5 35q20 14 46.5 38.5
t34.5 41.5q0 4 2 6v6q3 3 3 4q17 24 28 37q16 19 27 41q4 4 8 6q0 4 4 4q4 4 6 8q6 6 11 21q0 2 1 5t1 5q1 1 2 3t2 3q1 4 14 21q12 16 18 26q27 36 27 58q0 11 -9 17.5t-20 6.5q-15 0 -42 -3t-42 -3t-45 1t-45 1q-3 0 -8 11q-4 16 -4 24q0 18 8.5 25.5t28.5 9.5
q13 2 37.5 2.5t32.5 1.5q23 3 65.5 6t56.5 4q2 0 6 1t5 1q1 1 3 2t3 2q6 2 10 2h27q8 0 28 -4q27 -9 27 -28q0 -18 -23 -66q-6 -9 -20.5 -32t-20.5 -33q-51 -80 -81 -142l-15 -20l-10 -10q-7 -7 -10 -13q-2 -3 -3.5 -6t-2.5 -6t-2 -4q-3 -7 -9 -14q0 -3 -2 -5q0 -3 -6 -6
l-16 -16q-27 -27 -33 -35q-58 -66 -120 -98.5t-142 -32.5q-42 0 -82 26t-64 66q-18 35 -26 47q-2 3 -7 20.5t-5 20.5q0 5 -5 15q0 1 -1 3t-1 3q-6 9 -6 22q0 15 -4 35q-4 30 -8 47q-4 28 -4 45q0 13 1 41t1 41q0 8 1 24.5t1 24.5v13q0 1 -1 4.5t-1 5.5z" />
    <glyph glyph-name="H" unicode="H" horiz-adv-x="856" 
d="M147 -260q-32 0 -32 33q0 69 18 164q8 36 8 55q0 7 9 39q4 16 4 22q2 6 2 23v6v6q-2 2 -2 4q0 10 2 14q0 9 2 13q4 16 4 31q-2 4 -2 14q0 22 6 43q2 12 10 45q3 18 4.5 60.5t5.5 64.5q0 4 2 8l2 8q1 2 2.5 6t2.5 7.5t2 7.5v6q-1 1 -2 4t-2 4q0 15 4 25q0 4 4 12
q0 43 8 70q2 4 8 22v57q0 16 12 52q2 4 5.5 13t5.5 13q4 20 4 33q0 4 -1 12.5t-1 12.5q0 22 16.5 61t34.5 39h18q6 0 6 -2q7 0 7 -17l4 -12q0 -13 -4 -41l-5 -20q-2 -8 -2 -23v-8q2 -2 2 -4q0 -19 -2 -27q-4 -10 -8 -30q-1 -7 -1 -20.5t-1 -20.5q-34 -210 -47 -332l-2 -2
l14 -27l9 4q27 13 59 17q20 2 63 2q17 0 33 8q2 1 5 3t5 3q4 2 11 2h6q4 -2 12 -2h8q1 1 3 2t3 2q3 0 7 2q2 0 6 -2q13 0 45 4q5 1 16.5 4t16.5 4q50 13 63 13h59l17 12v2q14 43 14 107v6q2 2 2 4t2 4l4 2l2 18v4q-2 2 -2 7q0 4 2 6q0 4 5 14q3 5 8 19q1 2 1.5 5.5t1 5.5
t1.5 3q4 30 8 94q3 53 14 86q17 40 17 66q0 5 14 12q15 6 27 6t21 -11.5t9 -23.5q0 -9 -4 -33q-18 -92 -18 -157q0 -17 -4 -45l-6 -6l-7 -7l-4 -22l2 -2q2 -4 2 -10q0 -7 -4 -23q-6 -24 -6 -27q-2 -9 -2.5 -27.5t-1.5 -23.5q-1 -2 -2 -6t-2 -6l-6 -12q-6 -30 -6 -33
q0 -4 1 -11t1 -10q0 -13 -4 -41q-4 -12 -8 -40q-4 -24 -10.5 -71.5t-10.5 -70.5q-3 -22 -10 -51q-6 -54 -6 -55q0 -4 2 -6q0 -15 -2 -21q-6 -9 -9 -18l-2 -4v-2q2 -2 2 -7q0 -2 -1 -4.5t-1 -3.5q-2 -2 -2 -8q-2 -2 -2 -10v-8q2 0 2 -5q2 -2 2 -4q-1 -17 -19.5 -30t-37.5 -13
q-8 0 -17.5 19.5t-9.5 34.5q0 10 5 18q1 4 3 12.5t3 12.5q4 24 4 39v34q0 1 6 25q1 3 2 8t2 8q2 4 2 17v4v6v4q-2 0 -2 2q0 20 12 70q15 47 15 75q0 3 -1 8l-1 5q-1 2 -3.5 5t-3.5 5l-2 6h-16q-4 0 -8 -4q-4 0 -6 -2q-5 -1 -46 -8t-44 -8h-5l-2 -2q-7 -5 -10 -5q-1 0 -7 1.5
t-11 1.5q-11 0 -29 -9q-1 -1 -4.5 -2t-5.5 -2q-2 -2 -8 -2l-6 2q-5 0 -7 2h-8h-4q-117 -24 -197 -24q-18 0 -25 -12t-11 -33v-31v-23q0 -16 -4 -24q-1 -5 -7 -29q0 -48 -8 -84q-4 -23 -12 -63l-2 -4l2 -4q0 -9 -2 -15l-6 -18q-13 -63 -17 -78q-13 -43 -37 -43z" />
    <glyph glyph-name="I" unicode="I" horiz-adv-x="331" 
d="M143 -39q0 30 5 101t10 83l4 5l-4 6q0 16 2 24q1 1 2 4.5t2 5.5v13v8q0 2 -2 4q0 12 2 18q1 2 2 5.5t2 5.5q0 1 1 4.5t1 5.5v14v17q4 8 4 10q8 28 15.5 84.5t7.5 85.5q0 9 4 33q8 29 10 39q4 12 4 41q0 16 4 36q1 2 3 6.5t3 6.5q4 8 4 18v8l-2 6q0 5 -2 7q0 17 16.5 35
t30.5 18q13 0 23 -7.5t10 -15.5l-2 -4l4 -4q2 -4 2 -8q0 -12 -2 -18q0 -3 -1 -9.5t-1 -9.5q-8 -32 -8 -55q-4 -12 -4 -15q-1 -6 -2 -19t-2 -19q0 -18 -6 -33q-15 -39 -15 -119q0 -21 -6 -45q-2 -7 -12 -47v-23v-22q0 -9 -2 -15q-4 -4 -4 -8q-2 -4 -2 -14v-4q0 -2 2 -6
q0 -8 -3 -26.5t-3 -27.5q0 -6 2 -8v-4q0 -8 -2 -12q0 -5 -5 -15q-8 -20 -8 -34q0 -11 4 -23q-4 -16 -4 -20q0 -117 -49 -117q-13 0 -23 15t-10 34z" />
    <glyph glyph-name="J" unicode="J" horiz-adv-x="999" 
d="M115 0q-4 4 -4 6q5 30 15.5 44.5t33.5 15.5q2 -3 4 -5l4 -4h2h10q0 -1 -1 -2t-1 -2q2 -2 2 -6q8 -17 41 -30t55 -13q9 0 15 -2l10 -2h10q42 0 60 6q36 10 74.5 46t64.5 75q3 6 12 33q2 4 5 15t5 15q6 18 23 52q21 47 23 59q4 4 4 6q1 1 2 3t2 3t2 3t2 3q2 4 2 13
q0 8 4 20q0 5 4 21q2 4 2 12q0 35 27 100q0 1 3 14.5t3 20.5q0 4 -2 4v6v11q1 2 2 6t2 6q4 16 6 22q3 18 6 39q4 24 4 39q0 9 -10 19q-8 4 -14 4q-8 4 -25 4q-6 0 -17.5 -1t-17.5 -1q-20 -3 -34 -8q-46 -8 -66 -8q-4 0 -6 2q-4 0 -6 2h-6h-11l-8 -2q-6 -2 -14 -2
q-21 0 -33 6q-14 8 -14 22q0 15 2 21q0 5 10 10q9 9 33 18t37 9h2q3 -3 6 -3q2 -2 6 -2q13 0 90.5 7t81.5 10q1 0 3 1t3 1t2 1t2 1h6q1 0 3.5 -1t3.5 -1h6q2 -2 6 -2q6 0 33 2.5t28 3.5h4q2 2 4 2h54q4 1 11 3t11 3q21 8 45 8q5 0 15.5 -1t15.5 -1q12 0 125 11h6q1 0 3 1
t3 1q2 0 4 2q15 0 23 -2q14 0 22 -2q21 -11 21 -25q0 -20 -37 -35.5t-90 -22t-93 -9.5t-63 -3q-9 0 -28.5 -2t-28.5 -2q-10 0 -18.5 -8.5t-8.5 -19.5q0 -7 2 -7v-4q0 -2 2 -4q0 -13 -8 -41q-6 -12 -6 -22q-4 -24 -4 -33q2 -2 2 -6q0 -2 2 -4q0 -13 -10 -33l-6 -18
q-4 -12 -4 -21q0 -6 2 -8q0 -11 -5 -19q-8 -16 -8 -22q-5 -35 -12 -64q-6 -41 -16 -51l-2 -4v-2q-1 -16 -17 -55t-26 -56q-1 -2 -3.5 -6t-3.5 -6q-45 -141 -168 -215q-12 -8 -16 -12q-2 -1 -7 -4.5t-7 -5.5q0 -1 -6 -4q-7 0 -13 -3h-14q-10 0 -14 -2q-5 -1 -15.5 -4
t-15.5 -4q-15 -6 -29 -6q-10 0 -29.5 4t-29.5 4q-4 0 -6 -2h-4q-2 0 -4 -2q-1 0 -13 4q-1 1 -4 2.5l-6 3t-6 2.5q-30 15 -43 15q-23 0 -29 12q-4 4 -8 16q-2 3 -12 23z" />
    <glyph glyph-name="K" unicode="K" horiz-adv-x="1073" 
d="M88 -152q0 47 27 95q5 6 33 126.5t28 133.5l-2 4q0 14 6 26q2 6 7 16.5t6 14.5q8 19 8 55q0 2 1 7.5t1 7.5q2 4 4 6q0 2 4 6q4 12 4 27v12q-2 6 -2 14q-4 12 -4 21q0 16 29 59l4 4l-2 6l-2 7q0 8 8 36q1 3 3 9.5t3 9.5q1 4 2 11t2 11v5l-2 4q-2 2 -2 4q0 12 10 45l17 51
q3 7 8 33q0 39 21 81t54 42q21 0 21 -31q0 -26 -10 -68q-2 -6 -6 -18.5t-5 -15.5q-4 -24 -4 -39q0 -5 -2 -9q0 -4 -4 -16q-2 -4 -6 -16q-1 -3 -3 -9.5t-3 -9.5v-4l2 -4l2 -2q0 -1 -1 -2.5t-1 -3.5q0 -1 -1 -4t-1 -4q-4 -8 -4 -11q-2 -4 -2 -14t7.5 -18.5t16.5 -8.5
q12 0 107.5 37.5t116.5 48.5q13 7 39.5 23t40.5 23q49 21 104 66t90 91q3 3 7.5 10t6.5 9q14 17 45 24q1 -1 4.5 -2t4.5 -2q6 0 6 -4q4 0 4 -12q0 -119 -336 -291q-4 -2 -18 -6q-7 0 -11 -2q-4 0 -12 -4q-3 -2 -12 -11l-10 -10q-2 -1 -9.5 -3t-9.5 -3q-8 -1 -47 -16t-47 -19
q-15 -10 -23 -14q-6 -6 -10 -8l-6 -2q-6 -2 -12 -2q-15 -5 -19 -7l-4 -2v-6q0 -1 -1 -3t-1 -3q0 -18 4.5 -23.5t22.5 -11.5q12 0 16 -2q14 -4 21 -8q4 -2 11 -6t11 -6q25 -18 49 -23q19 -3 37 -10q30 -15 37 -18q3 -1 10 -4.5t10 -4.5q4 -1 11 -2t10 -2q6 -2 19 -5t20 -5
q4 -2 30.5 -15.5t41.5 -19.5q13 -4 38 -11t37 -11q46 -14 70 -33l2 -2h6q20 0 37 -10q4 -2 17.5 -10t21.5 -11q11 -8 18 -8q3 -1 8 -2t7 -2q17 -6 26 -12q2 -2 6 -4t5 -3q6 0 8 -2q6 0 6 -2l2 -4h4q1 -1 4 -3t4 -3q2 -1 6.5 -4t6.5 -4q4 -3 13 -8.5t13 -8.5q49 -17 49 -63
q0 -21 -14 -32t-37 -11l-12 6q-12 12 -27 21q-10 10 -26 22q-21 13 -25 14q-39 10 -76 31q-6 2 -24 15q-22 11 -27 12q-3 1 -9 2t-9 2q-7 0 -11 4l-4 4h-12q-4 0 -8 2l-4 4q-4 4 -6 4q-9 9 -15 13q-18 6 -20 6q-3 0 -9 -1t-8 -1t-4 2q-4 0 -4 4l-4 2h-2q-25 4 -45 12
q-4 2 -47 23q-65 31 -96 33q-6 4 -48 20q-18 6 -22 8q-10 2 -21 10l-2 2h-8q-24 0 -69 25q-20 10 -35 16q-18 11 -31 11q-11 0 -18 -15q0 -1 -1 -3t-1 -3v-6q-1 -3 -2.5 -10t-2.5 -13.5t-2 -11.5q-3 -18 -12 -52.5t-12 -53.5q-12 -62 -27 -123q0 -2 -1 -5t-1 -5
q-1 -1 -2 -4.5t-2 -4.5q-19 -47 -24 -69q-14 -45 -19 -74q-3 -12 -28 -31.5t-37 -19.5q-6 0 -13.5 8.5t-7.5 15.5z" />
    <glyph glyph-name="L" unicode="L" horiz-adv-x="606" 
d="M115 2q0 19 8 51q12 52 12 56v20v14q0 7 2 9q0 2 1 6t1 6q1 3 2 9t2.5 12.5t3.5 11.5q3 19 9 28q0 1 1 3t1 3q4 8 4 11q4 20 4 28q1 4 2 12.5t2 12.5q4 28 16 72l2 4q1 1 2.5 4t2.5 4q4 8 4 24q0 3 -2 7q0 2 2 4l6 6l2 2v4q2 9 5 30.5t5 30.5q3 33 12 56q31 92 33 119
q3 32 12 67q5 20 19 66q24 81 71 84q3 -2 9.5 -6.5t9.5 -6.5v-14q0 -24 -35 -170l-10 -29q-3 -12 -6 -18q0 -4 -2 -6v-6v-13q-1 -5 -11 -41q-9 -23 -12 -49l-2 -4l2 -4v-2q0 -13 -15 -71t-24 -85v-6l2 -4q0 -2 -8 -22q-1 -2 -3 -6.5t-3 -6.5q-5 -8 -8 -16q-8 -36 -8 -57
q-3 -31 -9 -56q-2 -9 -9 -35.5t-9 -40.5q-10 -45 -10 -81q0 -9 2 -15l4 -4q2 -1 6 -4t6 -4q8 -4 17 -4h71q8 0 10 2q2 0 6 1t5 1l8 4h8q5 0 17 -2t18 -2q20 0 61.5 8t63.5 8q10 0 16 2q7 0 19 4q15 5 16 5q17 0 27 -7q10 -3 10 -16q0 -20 -20 -33.5t-42.5 -18.5t-42.5 -5
q-3 -1 -9 -2t-9 -2q-25 0 -35 -7q-1 0 -3 -1t-3 -1h-6q0 2 -4 2h-6q-4 0 -13.5 -1t-13.5 -1q-4 -1 -12.5 -4t-12.5 -4q-32 -8 -47 -8q-6 0 -16.5 2t-15.5 2q-7 0 -11 -2q-4 0 -8 -2q-4 0 -6 -2h-4h-31q-18 3 -24 6l-4 4l-5 -2h-16q-4 4 -8 4q-4 4 -21 8q-28 35 -28 70z" />
    <glyph glyph-name="M" unicode="M" horiz-adv-x="1318" 
d="M174 -152q-31 0 -31 43q0 12 4.5 37t4.5 39v6q-1 1 -2.5 3.5t-2.5 3.5q0 11 7 32q1 3 3 9.5t3 9.5t2 9t2 9v23v18v4l4 8q0 2 1 6t1 5q2 4 2 14l-2 4q0 4 2 10q4 4 4 6q4 8 4 13v33q0 22 2 34q13 80 13 113q0 16 5 61.5t9 59.5q0 6 4 22q0 4 1 12.5t1 12.5q0 6 -2 8v6
q-2 2 -2 6q0 6 1 17t1 14q6 30 6 31q6 36 10 96q7 53 23 92q3 8 14 27q5 11 8 12l5 4q16 4 20 4q6 2 20 2q3 -3 7 -5q2 -2 2 -3l6 -4h16q1 0 2 -1t2 -1l2 -4h2q1 -1 30.5 -27t31.5 -28q1 -2 18 -35q2 -3 8 -21q100 -149 119 -159q2 -2 4 -2q9 -15 15 -33q11 -22 16 -37
q12 -20 25 -37q12 -18 24 -33l4 -8l2 -4q0 -1 1 -3t1 -3q9 -12 29 -12h6l2 2q82 64 160 139q24 24 74 73.5t76 75.5q1 0 2 1t2.5 2t3.5 2l6 4l6 6q54 48 55 49q41 37 54 53q22 31 53 66q18 18 28 26q20 17 31 17q9 -6 17 -6q3 0 6 -3h4q2 -2 2 -4q4 -4 4 -10q4 -8 8 -33
q7 -47 4 -59l2 -10q2 -2 2 -6q0 -7 2 -9q0 -6 -4 -18q0 -2 -1 -6t-1 -6q-2 -4 -2 -15q0 -12 4 -16q0 -13 -8 -37q-4 -12 -4 -20q-2 -6 -2 -23q0 -6 2 -20t2 -21q-2 -6 -6 -14q-8 -19 -8 -41q0 -6 2 -8v-15q0 -9 -2 -27t-2 -26q0 -2 1 -5t1 -5q0 -23 -4 -35q-1 -6 -3.5 -18.5
t-3.5 -18.5v-4l3 -2q4 -16 4 -35q0 -7 -7 -14q0 -1 -1 -4t-1 -4q-2 -10 -2 -29q0 -4 1 -12t1 -11q0 -10 -6 -22q0 -2 -1 -6t-1 -6q-2 -4 -2 -15v-6v-4l2 -4q0 -17 -2 -23q0 -6 -4 -22q-1 -10 -2 -31t-2 -31q0 -30 -16 -49q-5 -6 -17 -14t-16 -8q-18 0 -25 18q-6 10 -6 41
q0 15 4 47q1 8 3 24.5t3 24.5q4 18 4 60v55q7 17 7 29v26q0 9 3 28.5t3 29.5q0 6 -1 18.5t-1 18.5q0 14 2 22q0 9 4 25q2 6 2 22q0 43 8 80l-2 8h2v2q0 7 1 21.5t1 21.5v7q0 4 -2 4q1 1 2 3t2 3q6 12 6 22q0 6 -2 20t-2 21q0 1 1 3t1 3t1 4.5t1 4.5t1 3t1 3v8l-18 10h-2
q-17 -2 -45 -35q-12 -12 -21 -24q-17 -27 -82 -82q-36 -36 -71 -64q-88 -74 -137 -135q-24 -27 -82.5 -70.5t-79.5 -43.5q-17 0 -42.5 5.5t-33.5 12.5q0 12 -4 16v4l-4 2q-23 15 -33 39q0 7 -2 7q0 10 -12 22q-5 0 -9 4l-6 6q-4 8 -4 9v8q-6 17 -8 20q-12 12 -14 12v7v4
l-2 4q-2 3 -6.5 8t-6.5 8q-6 6 -6 15v6q-10 16 -33.5 54.5t-29.5 47.5q-46 69 -74 94l-2 4h-16l-2 -4q-5 -3 -9 -14q-2 -4 -6 -16q-4 -20 -4 -31q0 -10 4 -10v-5v-4q-2 0 -2 -4v-12v-4v-4v-4q0 -1 -1 -3t-1 -3q-1 -1 -2 -4.5t-2 -4.5q0 -2 -1 -6t-1 -6v-6q2 -2 2 -6v-4v-8
q0 -2 -1 -5.5t-1 -5.5q0 -1 -1 -4.5t-1 -5.5t-1 -6t-1 -6q0 -4 2 -6q0 -20 -4 -52q-6 -42 -6 -47t1 -16t1 -16q0 -7 -4 -19q-1 -4 -7 -22v-17v-10q0 -25 -4 -39q-1 -5 -4 -18t-4 -21q-2 -12 -3.5 -43t-4.5 -47q0 -4 -4 -12q0 -5 -4 -13q-6 -14 -6 -38v-5q0 -1 1 -2t1 -2
q0 -10 -4 -26q-1 -4 -4.5 -13.5t-4.5 -13.5q-2 -10 -2 -31q0 -57 -4 -86q-3 -13 -20 -26t-31 -13z" />
    <glyph glyph-name="N" unicode="N" horiz-adv-x="995" 
d="M154 -264q-25 19 -25 74q0 8 3 23t3 17q4 12 4 21q2 8 2 23v8q0 4 -2 4l2 4q2 4 2 14v10q0 1 -1 4t-1 5q0 3 -1 7.5t-1 6.5q0 4 4 20q7 18 7 29l2 4l-5 4l-2 6v7q4 4 7.5 19t3.5 22q0 17 6 32q0 3 1 9.5t1 9.5q2 6 2 20q0 3 -1 10.5t-1 10.5v8q4 12 4 18q1 3 2 9.5t2 9.5
q0 4 2 6v12q0 37 8 64q0 4 2 8l4 8q7 21 7 23q0 6 -2 8v6q-3 3 -3 6q0 4 1.5 10t1.5 9q6 21 6 38q0 43 14 84q5 20 6 23v25v20l-2 8q0 18 21 105t30 98q4 7 20.5 13.5t26.5 6.5q1 0 2 -1t2 -1q0 -1 2 -2q1 -1 1.5 -1t1.5 -1l2 -2h4h4h4l4 -8v-8q1 -2 2 -5.5t2 -4.5
q2 -3 7 -9.5t7 -9.5q1 -1 7 -5.5t8 -8.5q15 -12 24 -27q23 -39 99 -141q54 -74 88 -143q10 -21 87 -135.5t87 -120.5q4 -2 8 -2h4h4l12 14q3 18 15.5 50t15.5 40q0 2 4 6q1 1 3 2t3 2q5 5 5 8q4 5 26 78q4 19 12 49t9 37l2 4l-2 4l-2 5q5 8 6 8q4 4 4 10q4 6 4 20q0 11 2 17
q2 13 8 37t8 37q3 8 11 16q1 2 2 5t2 5q10 43 26 129q3 16 19.5 41t25.5 25q20 0 32.5 -9.5t12.5 -27.5q0 -6 -2 -10q0 -7 -4 -15q-10 -17 -10 -39q0 -14 -12 -30l-2 -2l-4 -19l2 -4l2 -2q0 -5 -8.5 -29t-12.5 -32q-3 -12 -8 -36.5t-8 -37.5q-6 -38 -19 -70q-7 -26 -6 -30
v-5v-4v-2v-2q-58 -176 -102 -266q-2 -6 -2 -18q0 -7 -2 -9q-1 -1 -3 -2t-3 -2t-4.5 -3t-4.5 -3q-2 -2 -8 -14q-1 -1 -2 -3t-2 -3q0 -5 -2 -7q-14 -24 -61 -24q-32 16 -37 20q-17 10 -33 29q-4 4 -4 14q-2 5 -23 37q-5 6 -15 19.5t-15 19.5q-37 50 -37 68v4l-2 2q-8 8 -10 12
q-7 7 -13 10q-8 11 -8 17l2 4l-4 2q-6 11 -20.5 29t-18.5 24q0 17 -8 25q-4 12 -31.5 50t-36.5 46q-6 3 -6 4q-2 2 -2 4q-5 18 -47 70q-22 26 -29 37q-14 14 -22 30l-6 13l-11 -8q-22 -22 -22 -70q0 -6 1 -17.5t1 -17.5t-4 -18q-1 -2 -2 -6t-2 -5q-1 -2 -2 -7t-2 -7
q-6 -32 -9.5 -90t-5.5 -74q0 -2 -1 -4.5t-1 -3.5t-1 -3t-1 -3t-1 -3t-1 -3q-1 -7 -1 -21.5t-1 -21.5q-2 -13 -7.5 -36t-6.5 -30q-10 -38 -10 -71v-37q-1 -3 -2 -7t-2 -6.5t-1 -3.5q-12 -70 -12 -106v-2q0 -3 1 -10t1 -11v-4q-2 -4 -2 -14l2 -6l-4 -8q-1 -1 -1.5 -2.5l-1 -3
t-1.5 -3.5q0 -1 -1 -4.5t-1 -5.5l-2 -4l8 -14q-1 -2 -2 -6.5t-2 -6.5q-4 -12 -4 -37q0 -26 -13.5 -49.5t-31.5 -23.5q-2 0 -6 1t-6 1z" />
    <glyph glyph-name="O" unicode="O" horiz-adv-x="849" 
d="M158 326q0 12 2 18q0 9 4 21q8 28 6 45v6q2 8 6 12q6 10 10 31q1 4 2 13t2 13q11 11 21 31q3 5 9 16.5t9 16.5q17 39 37 59l4 6q0 5 2 7l4 4q5 0 9 4l4 4q4 0 4 4q2 2 5 6t5 6l21 21q11 11 30 14q11 4 37 8l8 4q4 4 7 4l4 5q4 0 10 -3h10q13 0 31 3q5 1 15.5 3t15.5 3
q46 8 63 8q24 0 45 -6q9 -1 43 -11q3 -2 9.5 -6t9.5 -6q10 -3 20 -10q4 -1 18 -8q9 -9 9 -10l4 -5q3 -2 6.5 -4.5t5 -3.5t2.5 -2q2 -2 6 -10q0 -2 8 -14q29 -39 43 -66q13 -34 21 -76q4 -12 4 -18q2 -6 2 -19q0 -10 -2 -16q0 -6 -2 -10v-10v-9q2 -2 2 -6v-49v-6v-4l2 -4
q0 -3 -4 -15l-4 -8q-2 -2 -2 -10q-12 -57 -25.5 -90.5t-44.5 -73.5q-3 -5 -14 -27l-12 -24q-32 -47 -103.5 -105.5t-114.5 -58.5q-8 -4 -14 -4q-4 -2 -10 -2q-98 0 -155 34t-101 120l-4.5 9t-6.5 10.5t-6 8.5q-32 66 -32 137q0 23 2 33v8q-2 2 -2 13v41zM240 240
q0 -17 14 -54q2 -4 6 -11t6 -11q4 -5 8 -23q4 -15 9 -28q6 -25 28 -54t45 -41q12 -8 13 -10l4 -6l12 2q22 0 39 -10l2 -2h4q6 0 17.5 -1t17.5 -1q18 0 27 6q10 10 16 10q12 4 16 4q36 9 81.5 65t80.5 113q13 16 19 37q0 3 1 9.5t1 9.5q0 2 1 7t1 7q22 75 22 127
q0 88 -37 147q-6 12 -12 21q-8 12 -10 18v4l-4 3q-12 8 -21 16q-21 21 -32 27t-40 10q-1 0 -2 1t-2 1q-12 6 -16 6h-6q-2 -2 -6 -2h-4q-2 -2 -4 -2q-3 0 -15 4q-6 0 -10 2q-61 0 -103 -13.5t-79 -52.5q-2 -3 -6.5 -9t-6.5 -9t-5 -9t-5 -9q-11 -22 -20 -31l-2 -2v-4
q-5 -15 -9 -21q-8 -16 -10 -24q-5 -13 -14 -54q-2 -8 -5 -25.5t-5 -25.5v-4l2 -2q2 -8 2 -27q0 -13 -2 -39t-2 -40z" />
    <glyph glyph-name="P" unicode="P" horiz-adv-x="655" 
d="M156 -109q-9 21 -9 41q0 5 1.5 17t1.5 18q1 6 3 18.5t3 18.5q2 8 2 27v24q0 23 6 47q0 9 4 25q0 5 1 14t1 13q0 6 -2 8v8q0 1 -1 2t-1 2v4q0 8 4 12q2 10 2 29q0 7 4 19q4 8 8 24q4 12 4 23q0 3 -1 9t-1 9v4l4 12q5 10 5 13q1 2 2 5.5t2 4.5q2 16 4 47t4 47q0 13 4 33
q2 10 2 33q0 6 2.5 16l3.5 14q4 8 4 17q2 6 2 18q0 9 -2 11q18 81 19 106l-2 6q0 7 8 31l6 18q2 8 2 23v12q-1 2 -2 6t-2 6q0 1 -1 4.5t-1 4.5q-2 2 -2 8q0 11 20 28q24 17 39 23q6 2 66.5 8t70.5 6q11 0 23 -4q5 -1 14.5 -4t14.5 -4q16 -2 49 -2q8 -2 40.5 -14t35.5 -15
q30 -24 71 -65q0 -2 10.5 -47t10.5 -49q0 -12 -12 -64t-17 -68q-16 -31 -55.5 -74t-73.5 -71q-17 -12 -43 -27q-40 -20 -47 -24l-16 -8q-1 -1 -6 -5t-10 -7.5t-5 -4.5l-4 -4q-4 -2 -8 -2q-4 -2 -10 -2q-7 -1 -23 -12q-4 -4 -16 -10q-2 -2 -7 -2q-4 0 -10 -3q-3 -1 -10 -3
t-10 -3q-3 -2 -9.5 -5t-9.5 -5q-35 -12 -37 -12h-4l-12 -12v-5q-12 -66 -12 -100q0 -13 -4 -37q-1 -5 -4.5 -18t-4.5 -21v-47q0 -18 -2 -24l2 -11q0 2 -2 2v-2v-41q-5 -33 -6 -34q-11 -29 -49 -29q-9 0 -20 22zM307 545q-8 -21 -20.5 -87t-12.5 -87q0 -3 1 -9.5t1 -9.5
q5 -10 5 -12l4 -8h8q45 7 88 37q6 4 17.5 11t17.5 11q18 9 39 15q16 4 60.5 43.5t57.5 56.5q2 3 6.5 9t6.5 9t6 9.5t6 9.5q4 9 23 32l2 3l2 20v2q-2 2 -2 6q0 5 4 21q0 2 1 6t1 6t1 7t1 7q0 43 -41.5 76.5t-88.5 47.5t-81 14q-70 0 -86 -23q-6 -10 -10 -39v-55q0 -2 -2 -6
q-1 -1 -3.5 -4.5t-3.5 -4.5l-2 -4v-10q0 -6 -3 -52.5t-3 -47.5z" />
    <glyph glyph-name="Q" unicode="Q" horiz-adv-x="1060" 
d="M158 223q0 49 10 107q3 16 13.5 49t13.5 51q1 7 6 21t6 18q10 20 16 41q9 26 31 55q26 33 41 56q18 29 70 84t77 69q11 7 19 10q7 5 20 9q29 13 49 28q2 2 31 8.5t35 6.5q37 0 72 -13q25 -7 34 -14q11 -8 11 -18q0 -5 -4 -17q0 -2 -1 -6t-1 -6q-2 -4 -2 -12
q0 -13 22.5 -40.5t32.5 -33.5q4 -4 41.5 -55.5t38.5 -55.5q0 -4 4 -12q1 -2 3 -5t3 -5q9 -12 12 -31q3 -8 7.5 -26.5t7.5 -26.5q-3 -3 -3 -8q-2 -6 -2 -15q0 -5 1 -14t1 -14q0 -9 -3 -28t-3 -28q0 -8 4 -12v-4q0 -2 -2 -4l-4 -4q0 -1 -4 -9q-5 -13 -14 -47q-4 -34 -8 -47
q0 -2 -24.5 -41.5t-27.5 -42.5l-10 -12l4 -8q14 -21 35 -35q1 -1 14.5 -7.5t20.5 -12.5q70 -52 98 -82q11 -15 11 -29q0 -41 -43 -41q-16 0 -64 34t-68 56q-2 2 -20 14q-13 6 -23 9q-24 10 -32 20l-2 4h-21l-2 -2q-93 -66 -188 -92q-5 0 -13 -4q-1 0 -3 -1t-3 -1h-6l-4 4
l-4 -2q-58 -12 -80 -12q-6 0 -51 10q-28 11 -51 22h-4q-4 4 -13 4q-1 1 -2 3.5t-2 3.5t-3.5 4.5t-4.5 5.5q-4 4 -8 6q-1 1 -3 2t-3 2q-3 0 -7 4q-4 2 -4 6q-2 2 -2 6q-1 1 -2 3.5t-2 3.5q-2 3 -4 5t-3.5 3t-2.5 2t-3.5 2.5t-4.5 3.5q-15 14 -29.5 49t-11.5 55l2 5l-2 2
q-2 2 -6 10v6q4 4 4 14q0 6 -2 19t-2 20zM242 270q0 -6 1 -18.5t1 -18.5q0 -10 2 -16q0 -99 33 -119q2 -1 5 -3t5 -3q4 -4 4 -6q4 -4 4 -10q7 -14 10 -17q2 -1 6 -4t6 -4t6.5 -3t6.5 -3q15 -3 22 -10l4 -2h2q11 0 23 -6q3 -1 7.5 -2t6.5 -2q9 -3 17 -3q36 0 100.5 18
t81.5 40l6 6l-4 6q-4 11 -20 19q-21 7 -23 8q-23 8 -25 26v4l-4 3q0 1 -6 10q0 15 6 30q5 5 13 9t10 6q4 0 4 2q13 0 43.5 -7.5t42.5 -13.5q4 -3 12.5 -9t12.5 -9q16 -8 32 -8q15 0 31 16q10 16 16 35q2 6 6.5 18.5t6.5 18.5q3 17 6 22q11 20 18 43q8 19 8 47
q0 47 -10.5 99.5t-34.5 75.5q-6 6 -14 22q-1 2 -3 7t-3 7t-3 5.5t-3.5 5.5t-3.5 4q-6 14 -39 47q-30 35 -35 43q-4 4 -4 8q-2 2 -6 10q-2 7 -13 21q-33 33 -55 33q-9 0 -18 -3h-4l-2 -2q-4 -4 -8.5 -6.5t-11 -6t-9.5 -5.5q-4 -2 -16 -6q-29 -14 -68 -57q-4 -5 -21 -25
t-26 -29l-10 -10q-11 -11 -13 -14q-4 -4 -4 -9q-2 -2 -2 -6t-2 -6q0 -2 -4 -6l-6 -6q-14 -9 -17 -16q-22 -34 -49.5 -129.5t-27.5 -135.5z" />
    <glyph glyph-name="R" unicode="R" horiz-adv-x="995" 
d="M96 -199q0 42 4 58q1 5 3 16t3 16q3 23 9 46q4 28 4 47q0 38 10 86q3 15 10.5 43t10.5 43q2 8 2 20q2 4 2 17q2 18 10 49q2 6 2 20q-2 4 -2 14q0 5 4 9q4 12 4 14q7 24 17 72.5t10 66.5q2 8 2 27q0 23 4 47q3 6 4 6q0 1 1 3t1 3q6 9 6 27q0 11 23 112t30 117
q9 26 24 36.5t42 10.5q8 0 12 2q4 0 19 7.5t16 7.5q27 6 74 14q4 2 16 6q8 4 12 4q6 0 17 -2t16 -2q13 0 36 2t34 2q17 0 30 -10l3 -2h2q13 -2 31 -3.5t22 -2.5q17 -3 45 -25l2 -2h2h8l2 -6l10 -10q12 -4 15 -4h4l10 -10q1 -1 4 -4.5t4 -4.5t2 -3t2 -3q13 -29 19 -35
q4 -4 4 -6q2 -4 2 -12v-51q0 -4 1 -12.5t1 -12.5q0 -32 -18.5 -79.5t-42.5 -63.5q-5 -5 -12.5 -16.5t-8.5 -12.5q-1 -4 -4 -8.5t-4 -5.5q-1 -2 -4 -6t-4 -6q-16 -19 -45 -35q-8 -5 -52 -27q-8 -4 -24 -16q-4 -2 -11.5 -7.5t-11.5 -7.5q-19 -10 -54 -27t-48 -24l-6 -6v-4
q0 -1 -1 -4t-1 -4q0 -17 12 -25q3 -2 19 -10q16 -4 24 -8q3 0 11 -7t10 -10q16 -16 32 -18q15 -3 29 -10q2 -1 14 -8t19 -9q5 -2 15.5 -5t15.5 -5q10 -2 26 -10q13 -9 85.5 -47.5t80.5 -38.5q4 -2 14 -2h9q10 -5 38 -21q27 -18 39 -24q5 -3 17.5 -7.5t17.5 -7.5
q12 -6 17 -16q7 -21 8 -23q-11 -32 -51 -32q-11 0 -31 4q-10 0 -19 6q-12 8 -18 10q-6 4 -14.5 7.5t-10.5 4.5q-12 3 -24 9q-2 0 -31 12q-2 2 -14 8t-17 10q-16 7 -48 19.5t-48 19.5q-2 2 -4 2q-4 4 -8 6l-3 4q-3 4 -5 5q-1 1 -4.5 3t-4.5 3q-7 3 -21.5 9t-21.5 9
q-26 11 -38 21h-3l-2 2q-23 0 -53 20q-4 3 -13 9.5t-13 9.5q-8 5 -31 14q-8 3 -31.5 11t-30.5 10q-43 14 -51 24l-4 4h-4q-31 0 -43 21l-4 6h-4q-3 0 -9 1t-8 1q-16 0 -26 -10.5t-10 -28.5q0 -3 -5 -33q-8 -25 -10 -35q-10 -38 -20 -112t-17 -107q-2 -6 -3.5 -24t-4.5 -27
v-8q2 -2 2 -6q0 -27 -15 -55.5t-34 -28.5q-17 0 -25 2q-4 8 -4 10q-4 8 -6 10v4zM262 362q0 -32 21 -32q6 0 8 2q4 0 6 2q4 0 6 2q41 0 128 35t134 63q6 3 18.5 9.5t18.5 9.5q34 27 64 57q4 5 12 16.5t12 16.5q2 2 7.5 7t7.5 7l12 18q14 23 14 76v21q0 14 -2 22
q-7 20 -18 23q-2 2 -6 2q-2 2 -5 2q-1 1 -2 3t-2 3q0 1 -1 3t-1 3q-11 17 -18 21q-2 0 -4 2h-4q-2 0 -5.5 1t-5.5 1q-3 1 -9.5 2t-8.5 2q-10 2 -30.5 9t-26.5 9q-55 11 -62 11q-6 0 -12 -3q-6 0 -10 -2q-6 -2 -15 -2q-15 0 -55 -4q-46 -9 -55 -18q-13 -9 -17 -10
q-2 -1 -10 -9q-7 -3 -10 -10q-6 -7 -30.5 -125t-22.5 -127q0 -4 2 -6q0 -6 -8 -42.5t-11 -45.5l-2 -4l2 -4v-4q0 -1 -1 -3t-1 -3t-1 -3.5t-1 -3.5z" />
    <glyph glyph-name="S" unicode="S" horiz-adv-x="755" 
d="M174 422q-4 20 -4 22q0 65 46 129t113.5 108.5t143.5 72.5t137 28q15 0 66.5 -15.5t58.5 -23.5q7 -6 20 -26t13 -25q0 -43 -57 -43l-4 2q-1 1 -5 2.5t-6 3.5q-11 6 -28 19q-51 26 -101 26q-2 -2 -8 -2q-1 -1 -3 -2t-3 -2h-6h-25q-4 -1 -13 -2t-13 -2q-5 -2 -15.5 -6
t-15.5 -6q-22 -7 -33 -14q-2 -1 -6.5 -5t-7.5 -6q-4 -4 -12 -8h-5q-8 0 -14 -4q-4 -1 -43 -35.5t-47 -42.5q-41 -47 -41 -84q0 -46 14 -65t56 -41q27 -9 41 -15l12 -6q2 -1 7 -3t7 -3h13q6 0 8 -2q2 0 14 -8q12 -6 18 -12q3 -2 10.5 -6.5t10.5 -6.5q3 -1 10 -4t10 -4
q26 -11 31 -16q2 -2 6 -7.5t6 -7.5q3 -2 8.5 -7t8.5 -7q4 -2 8 -2q0 -2 4 -2l4 -2q25 -20 44.5 -61.5t19.5 -73.5q0 -91 -103 -168q-4 -2 -16 -10q-10 -3 -23 -11l-18 -6q-17 0 -25 -4q-8 -1 -34 -10q-20 -8 -31 -8q-29 1 -53.5 7.5t-45 25t-20.5 45.5q0 15 7.5 27.5
t17.5 12.5q11 0 20 -6q1 -1 4 -3t4 -3l13 -6q31 -22 61 -22q5 0 15.5 1t15.5 1h4l4 2q13 9 29 14q7 3 20.5 8.5t18.5 7.5q26 14 37.5 30t11.5 44q0 4 -2 6v4v27q0 9 -15.5 37t-21.5 33q-2 2 -7.5 5t-7.5 5q-6 2 -12 8l-2 4h-4q-1 0 -2 1t-2 1l-12 6q-3 2 -10 6t-13.5 7.5
t-11.5 7.5q-44 27 -66 33q-6 2 -22 10t-25 10q-2 0 -4.5 1t-3.5 1h-6h-6q-3 1 -13 6q-6 6 -10 8q-16 14 -31 21q-4 2 -7 4t-6 4.5t-5 3.5q-13 13 -29 51q-3 9 -10 23z" />
    <glyph glyph-name="T" unicode="T" horiz-adv-x="714" 
d="M172 662q-35 0 -35 38q1 1 2 3t2 2q4 4 6 4q1 1 3.5 3t3.5 3q0 2 4 6q3 6 6 6q2 2 41 11.5t45 9.5h4l2 2q1 1 3 2t3 2h8q2 -2 4 -2q25 0 35 6q16 6 23 4h2l4 2q8 4 14 4q15 0 21 2q1 0 3.5 1t4.5 1q4 4 6 4q1 1 3 2t3 2q2 0 4.5 -1t3.5 -1h7q2 -2 6 -2q12 0 20 2
q7 0 19 4q20 4 32 4q5 0 35 5q5 1 15.5 3t15.5 3q118 30 201 30q1 0 3.5 1t4.5 1q4 2 12 2q27 0 39 -4q18 -6 18 -20q0 -29 -36 -43q-29 -12 -97 -19q-15 -2 -49.5 -5t-50.5 -5q-1 0 -10.5 -2t-13.5 -3l-12 -3t-12.5 -4.5t-9 -6.5t-6.5 -9q-2 -6 -2 -15q-2 -2 -2 -6v-4
q-1 -1 -2 -3t-2 -3l-4 -6q0 -1 -1 -3t-1 -3q-4 -6 -4 -21q0 -6 2 -8v-6q2 -2 2 -6v-5q-2 -2 -2 -4q-8 -10 -8 -39q0 -10 -2 -14q0 -8 -2 -10q0 -4 -2 -6q0 -2 -4 -6q-6 -18 -6 -23q0 -4 2 -8q0 -37 -11 -94q-3 -16 -10 -46t-10 -46q-2 -6 -12 -66q-3 -37 -11 -63
q-2 -5 -12 -35q-6 -36 -6 -37v-15q0 -2 1 -5t1 -5q0 -6 -4 -26q-6 -30 -6 -31q-1 -9 -2 -28t-2 -29q-4 -38 -9 -64q-17 -68 -59 -68q-11 0 -20 21q-5 15 -5 41q0 12 5 20q1 4 3 12.5t3 12.5q2 10 2 33q1 5 1 14.5t1 13.5q0 34 10 52l2 4v6q-2 4 -2 16q0 36 6 51q0 3 2 5
q0 2 2 4q4 8 4 18q0 4 -1 13t-1 14l4 4l4 9q5 9 5 15q0 5 -2 7q0 2 -3 8v2l5 4l2 2l2 12v37q0 20 8 41q9 36 12 45q1 10 7.5 28t7.5 23q2 18 10 49q4 40 4 60q-2 2 -2 4v4q0 4 2 6t2 4q1 1 11.5 55t10.5 58q0 14 -12 22q-15 5 -18 5q-9 0 -27 -9q-2 0 -10 -4q-1 0 -4 -1
t-4 -1q-7 -1 -21 -2t-20 -2q-17 0 -41 -12q-4 0 -6 2q-7 0 -9 2h-6q-2 0 -6 -1t-6 -1q-5 -5 -36.5 -9.5t-45.5 -4.5z" />
    <glyph glyph-name="U" unicode="U" horiz-adv-x="774" 
d="M178 184v66q0 20 3 59t3 58q0 3 1 9t1 9q1 4 2 11.5t2 11.5v2l-2 4l-2 6q0 43 15 112q4 21 14 59.5t14 55.5q0 4 2 4v6q0 2 -1 6.5t-1 6.5q-2 2 -2 4q1 2 9.5 41t15.5 61q19 66 47 66q21 0 29 -6.5t8 -24.5q0 -26 -17 -92q-2 -8 -6 -24.5t-6 -24.5q-6 -24 -6 -49
q0 -5 2 -7v-4v-4q0 -4 -2 -6l-6 -12q-2 -6 -2 -19q0 -37 -14 -98q-1 -8 -4.5 -24.5t-4.5 -24.5q-4 -36 -4 -53q0 -6 1 -18.5t1 -18.5q0 -17 -2 -27q-2 -4 -2 -14q-2 -4 -2 -15q0 -8 2 -23.5t2 -23.5q0 -4 -2 -6q0 -6 -2 -10v-6l4 -4q2 -4 2 -10q1 -4 2 -13t2 -14
q0 -172 105 -172q54 0 117 59q4 5 28 29q11 11 27 31q3 3 32.5 61t30.5 64q15 40 33 116.5t27 106.5q2 4 2 16q2 4 2 15q0 10 4 22q1 4 4 13.5t4 13.5q1 3 2.5 9t2.5 11t1 10q4 14 8 70q7 48 15 64q8 17 12 57q0 2 2 21.5t4 29.5q1 12 20 26.5t31 14.5q21 0 21 -51
q0 -25 -5.5 -70.5t-6.5 -64.5v-2l-2 -2l-5 -7q-8 -24 -12 -65q0 -19 -2 -29q0 -8 -4 -28v-5l-4 -4l-2 -6q-2 -2 -2 -8q-4 -10 -4 -29q-2 -10 -2 -26q-2 -15 -9.5 -42t-9.5 -36q-6 -32 -25 -90t-24 -78q-1 -1 -2 -3t-2 -3l-8 -8q-17 -19 -29 -52q-3 -8 -9 -25.5t-9 -25.5
q-2 0 -4 -2q-1 -1 -4 -3.5t-5 -4.5q-2 -1 -5 -4t-5 -4q-1 -1 -3 -4t-3 -4q-1 0 -8 -15v-6q-22 -33 -90 -79t-103 -50q-46 -4 -67 -4q-12 4 -13 4q-12 6 -22 6q-40 7 -67.5 51t-32.5 95q-1 3 -2 7.5t-2 6.5q-3 6 -7 10q0 4 -4 8v7q0 4 1 12t1 12v8l-2 6v9v4l-2 4q-2 6 -2 20z
" />
    <glyph glyph-name="V" unicode="V" horiz-adv-x="831" 
d="M252 645q-10 72 -10 129q0 15 15.5 30t29.5 15q32 0 37 -10v-8q2 -4 2 -13q1 -2 2.5 -12.5t3.5 -17.5l-4 -25l4 -4q4 -8 4 -12q0 -6 -2 -18.5t-2 -18.5q0 -15 2 -21q0 -3 1 -9.5t1 -10.5q4 -20 4 -59v-19q1 -2 2 -7t2 -7q2 -10 2 -29q0 -5 -1 -16.5t-1 -16.5q0 -15 4 -65
q4 -27 4 -55l-2 -5l2 -2q2 -4 2 -14q0 -139 21 -203q7 -16 24 -16l11 6q1 2 8 17.5t12 23.5q6 12 19 25q2 6 10 14q1 1 2.5 4l3 6t2.5 6q15 27 29 62q13 30 30 57q4 4 4 6q1 1 3.5 3t3.5 3q9 9 14 19q8 16 14 24q6 12 17 23q20 23 41 78q4 7 7.5 15.5t7 17.5t5.5 14
q12 21 19 35q6 6 10 12l6 6q4 4 6 8q4 6 14 25q2 9 11 22q7 15 47 82q8 13 22.5 39t22.5 39q21 35 55 35q4 -2 12 -8q6 -3 9 -6q0 -17 -15 -47l-24 -48q-4 -4 -4 -10l-5 -10q-2 -6 -6 -14l-4 -4q-1 -1 -3 -2.5t-3 -2.5q-11 -11 -12 -16q-14 -28 -60.5 -111t-54.5 -90l-4 -10
q0 -10 -2 -10q-1 -2 -2.5 -3.5t-1.5 -2.5q-5 -3 -8 -11l-52 -100q-23 -25 -61 -94q-4 -8 -11.5 -24.5t-11.5 -24.5q-8 -14 -30.5 -49.5t-32.5 -57.5q-25 -50 -31 -59q-34 -57 -94 -57q-23 0 -41 49q-7 12 -11.5 58.5t-4.5 74.5q0 16 -2 24q0 9 -4 25q-5 34 -5 63q0 11 -8 19
q0 7 1 20t1 19q0 12 -2 18q0 3 -1 8.5t-1 8.5q0 2 -6 79q0 2 -1 8t-1 9q-2 4 -2 14q0 6 2 10q0 2 1 6.5t1 6.5v6q-10 20 -10 72q2 2 2 4q2 4 2 8q2 2 2 10q0 17 -2 25q0 3 -1 10t-1 10z" />
    <glyph glyph-name="W" unicode="W" horiz-adv-x="1191" 
d="M182 -86q0 10 3 30.5t3 30.5q0 9 -1 28t-1 28t2 26.5t2 26.5q0 6 -2 8q0 4 -2 6q0 15 4 23q5 17 5 39l-5 10q0 4 -1 9t-1 7q0 4 5 29q1 3 2 8t2 8v19v8q-2 2 -2 6l-2 4q2 9 6 13l2 2v2v84q0 1 1 3t1 3q4 8 4 18q0 6 -1 18.5t-1 18.5q0 44 4 64l2 2l-2 4v6q0 14 3.5 38
t4.5 31q1 13 1 43t1 44q2 32 16.5 60t43.5 28q11 0 24 -5q2 -1 5.5 -2t4.5 -2q0 -6 -4 -22q-1 -2 -2 -7t-2 -7q0 -3 -1 -8.5t-1 -8.5q0 -4 2 -6q0 -4 2 -6l-4 -4l-6 -23l2 -2q4 -8 4 -26q0 -13 -4 -38t-4 -38v-8q2 -2 2 -7l2 -4q0 -2 -1 -4.5t-1 -3.5l-2 -4q0 -2 -1 -5
t-1 -5v-8q2 -2 2 -7q0 -2 2 -4v-4q0 -4 -2 -8q0 -1 -1 -4t-1 -4q-1 -2 -2 -5.5t-2 -4.5v-25q1 -1 2 -3t2 -3q0 -2 1 -5.5t1 -4.5q0 -11 -4 -27l-4 -12t-4 -15l-2 -4l2 -4v-8q1 -2 1 -6t1 -6l2 -8h2q-1 -9 -4 -27t-4 -27q-7 -35 -7 -61q2 -2 2 -6v-21q-1 -2 -2 -5t-2 -5v-12
q0 -11 4 -23q3 -3 3 -6l2 -4q0 -4 -11 -37q-2 -16 -2 -51v-14v-17q3 -19 21 -28l8 -7l6 9q15 27 33 51q1 2 3.5 8t2.5 8q2 2 2 6q1 1 2 3t2 3q36 68 90 132l2 2v4q2 11 13 26q3 6 10 13q2 3 6 8t6 8q4 6 8 18q1 3 3 8.5t3 8.5q4 14 25 33l4 2v4q6 23 25.5 55t36.5 47l4 2
l4 23q4 5 14.5 19.5t15.5 21.5q1 1 16 24.5t23 34.5q45 71 66 76q10 2 31 2q8 0 20 -8q2 -1 5 -4.5t5 -4.5q8 -4 11 -4q13 -66 62.5 -244.5t64.5 -193.5l2 -2l24 -4l4 6q12 21 21 45q11 25 20 39l2 2v4q3 21 18 65t25 62q2 4 6.5 11.5t6.5 11.5q8 11 12 26q23 67 27 86
q0 3 2.5 14.5t3.5 16.5q0 2 4 6q4 8 8 12q4 8 4 11q1 2 2 5.5t2 4.5q4 12 6 14l2 2v4q3 16 6 19q2 1 6.5 11t4.5 11q4 8 4 13v10q1 3 2 9.5t2 8.5q3 6 9 17.5t9 17.5q7 14 7 23l4 16q8 20 25.5 36.5t33.5 16.5q8 0 14 -10.5t6 -23.5q0 -22 -16 -62q-4 -12 -14.5 -34
t-14.5 -33q-7 -18 -16 -53t-12 -44q-4 -4 -4 -8l-4 -4q-3 -6 -5 -8q-6 -17 -14.5 -51t-9.5 -37q0 -7 -6 -19q0 -2 -2 -4t-2 -4l-4 -4q-1 -1 -2.5 -3t-2.5 -3q-11 -22 -22 -64q-1 -3 -5 -17t-7 -22q-6 -18 -17 -32l-2 -2l-6 -37q0 -4 -2 -6q0 -1 -4 -9q-3 -1 -8.5 -10
t-5.5 -12q-5 -12 -12.5 -36t-12.5 -36q0 -4 -2 -6q-4 -4 -4 -6l-4 -4q-2 -6 -2 -15v-8q-2 -4 -2 -6q-4 -8 -4 -16q-37 -80 -97 -80q-18 0 -30 24q-2 3 -13 25q-1 4 -4 12.5t-4 12.5q-2 4 -2 8v6q0 6 -2 10l-6 12l-17 23q-5 20 -6 23q-4 16 -4 24q-3 11 -14 39l-10 25
q0 4 2 4v10q0 4 -4 12q0 14 -11 25v4v4q4 4 4 12q0 9 -4 17l-4 4l-4 4q-2 2 -2 8v6q0 1 -1 4.5t-1 5.5l-4 5q-8 20 -10 30q-6 40 -6 41l-4 6l-7 7q0 38 -12 57l-4 10l-10 -8q-30 -21 -51 -64q-13 -24 -39 -73q-18 -37 -68 -103q-8 -11 -8 -22q-2 -2 -2 -8q-2 -2 -2 -7
q-2 -2 -5 -6t-5 -6l-11 -14q-15 -18 -22 -33q-6 -13 -27 -47q-102 -158 -117 -203q-1 -2 -4 -7t-4 -7q-1 -1 -3 -2t-3 -2q-2 0 -6 -4q-2 0 -6 -4q-10 -14 -17 -27q-10 -20 -35 -37t-47 -20l-2 2l-4 2q-2 1 -7.5 2t-8.5 2q-2 1 -5.5 2t-4.5 2q0 8 -2 10q0 7 -9 16q0 1 -1 3.5
t-1 3.5q-4 8 -4 28q-2 10 -2 29z" />
    <glyph glyph-name="X" unicode="X" horiz-adv-x="935" 
d="M63 -119q-7 0 -13.5 8t-6.5 17q0 27 16 53q3 4 9.5 11.5t9.5 11.5q6 8 18 28l4 13v6q4 2 6 4q1 0 3.5 1t3.5 1q1 1 3 2t3 2q29 26 51 65q8 11 23 33.5t22 32.5q3 3 8 10t8 10q2 4 10 12.5t11 8.5q8 4 12 8q6 9 10 21q0 1 1 3.5t1 4.5q1 1 2.5 2t2.5 2q9 13 84 98
q5 5 41 45q14 17 22 31q2 2 4.5 5.5t3.5 4.5t2 3t2 3q2 5 2 7t-1 4.5t-1 3.5q-1 1 -2 3t-2 3q0 1 -1 2.5t-2.5 3.5t-2.5 4q-15 20 -24 29q-3 4 -11.5 14t-11.5 14q-9 12 -14 21q-17 28 -52 59q-8 8 -26.5 24.5t-26.5 24.5q-54 57 -80 111l-6 12q-2 3 -7 9.5t-7 9.5
q-6 6 -14 18q-17 20 -17 33q0 9 13 27t18 18q22 0 45 -10q45 -66 63 -88q40 -54 72 -86l8 -8l10 -5l5 -3q5 -3 6 -5q1 0 4 -6q2 -2 2 -6q1 -1 2 -3t2 -3q5 -9 16 -15q1 -1 3.5 -2t3.5 -2q0 -1 1 -2t1 -2q2 -4 2 -8t2 -6q0 -2 6 -8q5 -10 8 -13q55 -55 61 -71l2 -4l15 -4h4
q6 2 18 10q1 1 3 4t3 4t3.5 3t3.5 3q24 25 71 82.5t74 85.5q6 6 17.5 18.5t17.5 18.5q36 40 55 59q2 2 6 6.5t6 6.5t6.5 6t6.5 6q9 10 19 22.5t21.5 27.5t18.5 24q31 36 66 49q6 4 14 12l4 4h4q2 0 5 1t5 1h21q6 0 18.5 -10.5t12.5 -15.5q0 -4 -15.5 -16.5t-23.5 -18.5
q-3 -2 -13 -9t-16 -12q-19 -12 -29 -26q-89 -127 -133 -164q-2 0 -6 -4q-2 0 -10 -4q-9 -7 -46.5 -48t-43.5 -51q0 -1 -1 -3.5t-1 -4.5l-2 -4q0 -4 -2 -8l-4 -2q0 -1 -1.5 -2l-3 -2t-2.5 -2q-3 -2 -7.5 -7t-6.5 -6q-2 -2 -20 -26q-2 -5 -10.5 -16t-12.5 -11q-2 -1 -5 -3
t-5 -3q-4 -3 -19 -18q-1 -1 -3 -4.5t-3 -4.5t-2 -3t-2 -3l-4 -2v-6q-2 0 -2 -4v-8q0 -8 2 -10q0 -5 4 -9q2 -6 10 -18q15 -21 23 -33q89 -120 145 -237q8 -12 13 -17q2 -2 7 -6t7 -6q12 -12 12 -23q0 -10 6 -16l4 -4q11 -7 11 -33q0 -25 -9.5 -35t-31.5 -10q-3 0 -25.5 16.5
t-25.5 20.5v4q-3 6 -3 10q-7 21 -10 25q-71 99 -92 131q-1 2 -4.5 10t-7.5 16.5t-8 14.5q-5 10 -13 22q-1 1 -3.5 6t-4 7t-4.5 5.5t-6.5 5t-7.5 1.5q-6 6 -9 12q-3 5 -8 19q-13 30 -26 43l-4 2h-5q-26 -8 -36 -27q-4 -4 -9 -14l-10 -15l-10 -10q-2 -1 -6 -4t-6 -4
q-13 -10 -23 -23q-2 -2 -17 -18.5t-22 -26.5q-6 -6 -10 -14q-1 -3 -4.5 -8t-3.5 -6q-90 -121 -111 -137h-2l-2 -5q-6 -15 -37 -53q-4 -5 -21.5 -25.5t-23.5 -29.5q-8 -12 -12 -16q-1 -2 -4.5 -8.5t-5.5 -8.5q-6 -9 -25 -24q-8 -8 -14 -11q-6 -4 -11 -4z" />
    <glyph glyph-name="Y" unicode="Y" horiz-adv-x="806" 
d="M164 870q-4 4 -10 7q4 59 41 59q21 0 33 -7.5t28 -27.5v-6v-8q2 -2 2 -4v-4l2 -2q1 0 3.5 -3t4.5 -4l2 -4v-8q0 -8 6 -20q1 -2 3.5 -5.5t3.5 -5.5q2 -2 2 -6q0 -24 10 -47q3 -6 9 -19.5t9 -19.5q0 -1 1 -3t1 -3l2 -4q0 -44 43 -152q9 -29 30.5 -82.5t29.5 -78.5l4 -11
l8 2q32 12 64 48q47 59 49 61l12 12q2 2 7 7.5t7 7.5q10 10 15 20q2 3 5 9.5t5 9.5q58 80 86 100l4 4q14 35 55 68l2 2v4q2 10 15 16l10 10q2 1 6.5 6.5t5.5 6.5q1 2 2 5t2 5q0 4 2 6q2 3 13 14q20 25 32 37q10 11 23.5 26.5t21 24t9.5 11.5q17 14 26 14q14 0 25 -8
q14 -6 14 -12q-4 -13 -43 -62q-54 -63 -59 -70q-15 -20 -37 -53q-18 -29 -37 -45q-12 -6 -24 -24l-2 -7q-1 -1 -2.5 -3t-2.5 -3q-2 -2 -6.5 -7.5t-7.5 -8.5q-41 -34 -47 -51q-6 -14 -12 -17l-4 -2q-4 -4 -7 -4q-16 -16 -22 -37q-6 -12 -12 -18q-4 -5 -19 -17q-6 -6 -10 -8
q-2 -2 -5 -6t-5 -6q-3 -3 -21 -27q-11 -19 -18 -24l-12 -12l-15 -13q-13 -10 -19 -16.5t-12 -17.5t-6 -25v-25q-2 -2 -2 -6q-6 -12 -6 -18q0 -7 4 -15q-2 -2 -2 -6q-1 -1 -3 -4t-3 -4l-4 -11q-4 -11 -4 -18q0 -1 2 -6t2 -6q0 -6 -2 -8q0 -6 -4 -10q-4 -12 -4 -15
q-2 -4 -2 -16v-4v-4l2 -2q0 -44 -27 -123q-8 -31 -18 -64q-9 -52 -9 -65q0 -4 2.5 -11.5t2.5 -11.5q0 -16 -17.5 -29.5t-36.5 -15.5l-6 6q0 2 -4 6q-2 1 -5 3.5t-5 3.5l-4 4q-4 0 -4 12l36 252q23 59 23 115q0 4 8 28q1 3 3 9.5t3 9.5q2 6 2 20q0 15 -10 25l-8 8q-2 1 -5 4
t-5 4q-10 7 -15 14q-6 7 -17.5 33t-14.5 37q-4 14 -25 62q-7 14 -10 26q0 2 -1 6t-1 6q-1 2 -2 6.5t-2 6.5q-4 9 -13 41q-9 31 -14 43q-3 8 -9 25.5t-9 25.5q-4 20 -21 49v8q0 21 -10 41q-7 16 -16 29v8q0 37 -15 49q-4 4 -8 6q-1 0 -3 1t-3 1z" />
    <glyph glyph-name="Z" unicode="Z" horiz-adv-x="901" 
d="M90 -147q0 59 21 94q48 48 69 84q2 4 6.5 11t6.5 11q2 3 7 9.5t7 9.5q33 38 47 57q4 5 19 26t24 31q6 9 14 17q14 14 17 20q81 111 135 174q26 26 39 47q2 2 5 8.5t5 8.5q1 4 4.5 8.5t3.5 5.5q7 10 17 17l16 18q23 23 31 37q6 10 18 26q6 9 19 19q6 4 10 12q2 2 2 6
q2 2 2 4q7 10 14 15l10 10q2 1 11 10l4 8q0 5 2 7q0 2 1 4.5t1 3.5q2 3 8.5 10.5t9.5 11.5l25 25q29 37 33 61l2 4l-15 17h-4h-32q-15 -5 -17 -6l-8 -4q-3 -3 -6 -3q-15 -5 -43.5 -11t-42.5 -11h-4l-4 -2h-9q-4 0 -6 -2q-6 0 -12 -6l-4 -4q-2 -2 -6 -2q-2 -2 -8 -2
q-1 0 -11 -3t-16 -4q-10 -2 -27 -4.5t-20 -3.5q-1 -1 -18.5 -7t-28.5 -11q-2 -1 -23 -8q-6 -3 -8 -5q-11 7 -14 7q-6 2 -17 2l-6 2l-1 3q-1 4 -1 9q0 15 4 31q4 2 8 6q3 2 8.5 6t8.5 6q2 2 14 10q39 11 51 23q2 0 6 4h23q2 0 6 1t6 1q4 2 14.5 5t14.5 5q133 39 186 51
q82 21 133 21q6 0 41 -21q0 -6 2 -8q0 -2 4 -6q3 -9 3 -10q0 -16 -23 -64q-8 -16 -23 -39.5t-16 -25.5l-6 -6l-4 -4l-4 -4q-44 -50 -80 -101q0 -2 -4 -6q0 -4 -2 -8q-2 -2 -2 -4l-6 -6l-7 -7q-6 -3 -12 -12q-22 -43 -61 -74q-4 -4 -19 -24q-2 -2 -6 -10q-3 -6 -6 -9
q-28 -30 -78 -96q-7 -10 -24.5 -29.5t-24.5 -29.5q-10 -13 -82 -110t-113 -146l-12 -12q-16 -17 -22 -33q-5 -5 -9 -17q-7 -14 -18 -22l-6 -2l-4 -33l10 -2q3 0 9 -1t9 -1q12 0 37 5t39 5q4 0 13 -2t14 -2t35 6q10 4 30 8q55 5 66 7q1 0 3 1t3 1l4 2q2 0 3.5 1t2.5 1
q4 0 8 -2q41 0 84 12q36 12 66 12q10 0 66 5t63 8q12 4 20 6q24 8 35 8q22 0 41 -8q19 -10 19 -27q0 -2 -4 -10q-11 -27 -29 -31q-5 -1 -21 -1.5t-30 -2.5q-22 -4 -31 -8q-7 0 -27 -4q-10 2 -30 2q-12 -4 -21 -4q-21 -6 -39 -6q-6 0 -16.5 -3.5t-13.5 -3.5q-24 -6 -27 -6
q-16 -3 -47.5 -9t-46.5 -9q-62 -8 -92 -8q-14 0 -35 -7q-54 -10 -123 -10q-3 0 -7.5 -1t-6.5 -1q-1 -1 -3.5 -2t-3.5 -2q-4 0 -11 -1t-11 -1h-23q-62 0 -94 23z" />
    <glyph glyph-name="bracketleft" unicode="[" horiz-adv-x="634" 
d="M82 -195q0 22 7 65t15 60q15 40 15 56q0 4 -2 6v4l-2 2l2 4q2 4 6 8q10 15 10 27q0 6 -2 8v4l-2 4q0 9 4 17q4 12 8 20q15 35 15 68q1 2 2 4.5t1.5 3.5t0.5 2q10 18 10 45q0 2 2 6l6 12q12 19 12 50v4l-2 4q0 2 1 3.5t1 2.5q1 1 2.5 2t2.5 2q0 1 1 3t1 3q4 8 4 12v11
q2 8 2 20q1 2 2 5t2 5t4 6.5t4 6.5q10 20 10 43l-4 8q0 1 1 2t1 2q6 6 6 8q9 12 14 43t5 51q0 13 6 25q14 42 14 49v14q0 9 6 21q1 4 3.5 11t3.5 11q3 17 10 52.5t10 52.5q1 4 4 14.5t5.5 19t4.5 15.5q11 37 11 68q0 3 1 6t2.5 6.5t2.5 5.5q4 8 4 10q4 8 4 15q5 17 12.5 51
t12.5 51q2 0 4 2l8 8q14 12 33 31q11 11 20 14q9 6 25 6h45q145 0 182 -10q19 -4 25 -10q9 -6 6 -14v-4l2 -2q1 -1 2 -4.5t2 -4.5v-4q0 -20 -17 -33.5t-38 -13.5q-19 0 -39 10q-28 9 -64 9q-2 0 -5 -1t-5 -1q-12 -3 -21 -3q-12 0 -34 4.5t-33 4.5q-16 0 -21 -15
q-6 -9 -6 -18q-1 -6 -2 -11.5t-1.5 -8.5t-0.5 -5q-14 -19 -14 -43q-2 -6 -2 -18q0 -17 -4 -29q0 -1 -1 -3t-1 -3q-4 -4 -4 -8q-5 -10 -5 -14q-2 -6 -2 -17q-1 -5 -2 -16t-2 -15q-2 -17 -12 -45.5t-12 -40.5q-1 -8 -3.5 -30t-2.5 -25q-3 -32 -13 -45l-4 -4q-5 -35 -20 -100
t-17 -72q-2 -12 -15.5 -70.5t-16.5 -64.5q-7 -7 -7 -8l-6 -19l2 -6q0 -11 -8 -31q-12 -20 -12 -39v-12v-6q0 -6 -2 -12q0 -5 -4 -13q-9 -31 -9 -49q0 -4 -8 -20q-5 -15 -6 -17q-1 -3 -3 -8t-3 -8q-7 -51 -18 -88q-1 -4 -4.5 -11.5t-4.5 -11.5q-4 -16 -6 -26q0 -2 1 -5.5
t1 -4.5q0 -9 -4 -29q-4 -12 -4 -17q-2 -6 -2 -16v-4l2 -2q14 -30 57 -37q20 -2 62 -2q2 -2 4 -2q4 0 6 -2h80q11 0 19 -6t8 -15q0 -34 -48 -47.5t-96 -13.5q-31 0 -67 8q-1 0 -3 1t-3 1q-8 4 -11 4q-5 2 -12 6t-8 5q-29 8 -44.5 19.5t-25.5 35.5q-1 2 -3 7t-3 7q-2 4 -2 6
t-2 4z" />
    <glyph glyph-name="backslash" unicode="\" horiz-adv-x="878" 
d="M354 1028q0 16 13 25q8 4 14 6q12 4 20 8h5h6q14 -7 28 -39q7 -21 15 -53q3 -12 6 -21q4 -6 8 -18q1 -3 18 -74q11 -46 23 -76q8 -19 8 -22q2 -2 2 -6v-25q1 -2 2 -5.5t2 -4.5q2 -6 11 -25q4 -9 11 -24.5t9 -18.5q1 -4 3 -13t3 -13q3 -21 12 -35q12 -25 17 -41
q10 -40 12 -47q17 -61 27 -103q27 -87 37 -114q6 -18 14 -58q2 -10 6 -29.5t6 -29.5v-4l10 -10q0 -56 23 -123q20 -74 20 -109q0 -30 -10 -62t-33 -32q-16 0 -26 21q-6 18 -6 45q0 18 -21 75q-4 12 -14 37q0 7 -4 15v4q0 4 1 12t1 12q0 20 -6 35v2l-2 2q-21 21 -35 123
q-3 13 -23 76q-4 12 -13 35t-13 36q-3 10 -6.5 30.5t-6.5 29.5q-14 34 -22 45q-5 12 -8 35q0 3 -2.5 17t-3.5 20q-7 51 -23 84q-16 24 -20 36q-1 4 -3.5 17.5t-3.5 21.5q-1 3 -4.5 17.5t-7.5 21.5q-26 68 -51 156t-25 135z" />
    <glyph glyph-name="bracketright" unicode="]" horiz-adv-x="575" 
d="M74 -231q-3 9 -6 24q18 28 32 35q7 0 9 2h10q22 4 33 8q7 1 19 6t15 6q17 10 29 15q6 2 21.5 7.5t23.5 8.5q42 19 65 42.5t31 64.5q3 18 13.5 50t13.5 48q2 14 8 51t9.5 56t10 48.5t13.5 53.5q0 1 1 3t1 3q1 1 2 3t2 3q4 12 4 25v10q1 2 2 6t2 6q8 20 8 37q0 10 5 25l4 4
v10q0 9 8 33q4 8 8 20q4 24 4 33q0 1 -1 3t-1 3v4v4q0 3 8 27q15 30 15 35q6 19 10 63q0 24 4 60q2 8 7 25.5t7 25.5q13 39 13 57q0 9 -2 11q0 33 6 63q10 50 12 59q3 12 6 21q6 9 6 24q0 17 -16 29l-4 4l-6 -2q-1 0 -3.5 -1t-3.5 -1q-10 0 -41.5 3.5t-39.5 6.5q-12 4 -19 4
q-9 3 -20 3h-21q-59 0 -59 30q17 47 98 47q2 0 10 -4l4 -2h2q117 0 127 -10q7 0 9 -2q32 0 48.5 -10.5t16.5 -40.5q0 -9 -2 -26t-2 -25v-7q0 -4 2 -6v-6q-1 -1 -3 -4t-3 -4q-8 -24 -8 -27q0 -4 2 -4v-4v-14q-1 -2 -3 -6.5t-3 -6.5q-6 -21 -6 -41l2 -4l2 -2q0 -4 -4 -20
q-1 -4 -3.5 -12.5t-3.5 -12.5q-10 -50 -10 -63q0 -16 -6 -31q-1 -6 -4 -18.5t-4 -18.5q-2 -10 -2 -33q-1 -5 -2 -14t-2 -14q-2 -2 -2 -4q-5 -2 -9 -15q0 -2 -12 -86q-12 -64 -35 -123q-3 -8 -8 -45q-1 -7 -2 -22t-2 -21t-22 -82q-17 -62 -17 -81q0 -11 2 -15q-1 -6 -16 -51
q-15 -50 -15 -55q0 -1 1.5 -4t1.5 -4q0 -6 -5 -31q-2 -5 -6 -16.5t-6 -16.5q-1 -6 -2 -17.5t-2 -17.5q-1 -4 -31 -39t-32 -35l-8 -2t-6.5 -1.5t-4.5 -0.5q-9 -5 -10 -6l-4 -2q0 -1 -1 -2t-1 -2q-2 -2 -11 -8q-26 -20 -99.5 -47t-102.5 -27h-29q-9 3 -10 4t-4 13z" />
    <glyph glyph-name="asciicircum" unicode="^" horiz-adv-x="659" 
d="M274 983q0 22 33 72q5 7 29 37q16 24 20 32v6q9 3 9 5h4l2 4q3 9 12 18q6 9 16 19q4 5 13 15.5t14 16.5q8 10 25 27q29 25 67 25q14 0 39.5 -21.5t26.5 -34.5l4 -6q16 -14 26 -33q2 -3 5.5 -9t5.5 -9q7 -14 14 -21q2 -3 20 -19t36.5 -32.5t19.5 -17.5q4 0 8 -4q4 0 4 -2
q2 -3 2 -7q0 -10 -14 -20q-15 -6 -33 -6q-6 2 -14 8q-51 31 -74 64q-2 4 -8 10q-4 8 -8 12q-4 7 -17 25q-5 6 -15.5 17t-15.5 17q-1 1 -2 3.5t-2 3.5q0 4 -4 8q-4 11 -14 16l-2 2h-8q-18 0 -39 -28q-11 -19 -31 -39q-15 -20 -16 -21q-1 -2 -8 -9.5t-9 -12.5q-5 -11 -16 -25
q-12 -12 -17 -25q-6 -12 -18 -32q-6 -15 -20 -29q-17 -20 -39 -20q-3 0 -7 6t-4 14z" />
    <glyph glyph-name="underscore" unicode="_" horiz-adv-x="1105" 
d="M129 14v4q2 3 2 5v4q0 6 -2 10q0 9 10 14q2 2 33 12q34 5 72 5q135 0 162 8q8 4 22 4h25q7 0 21.5 1t21.5 1q18 3 39 0h2l4 2q2 2 16 2q8 2 23 2q4 0 12 -2t12 -2q6 0 17.5 2t17.5 2q11 0 34 -1t34 -1h57q10 0 14 2q2 0 6.5 1t6.5 1q20 4 24 4q8 0 14 -2l9 -2h10
q10 0 29.5 2t29.5 2q17 0 29 -2q13 0 33 -4q35 -9 35 -29q0 -17 -68 -28q-48 -11 -111 -11l-18 -6q-24 -4 -35 -4q-2 0 -4 2l-5 2q-5 2 -9 2q-26 0 -80 -6t-80 -6q0 2 -4 2q-4 4 -15 4q-8 0 -12 -2q-2 0 -5.5 -1t-4.5 -1q-2 -1 -5.5 -2t-4.5 -2h-8q-9 0 -29.5 2t-30.5 2
q-29 0 -86 -5t-88 -5q-6 0 -6 -2h-4l-6 -2q-4 2 -11 2q-4 0 -6 -2q-4 0 -6 -2q-4 0 -4 -2q-3 0 -7 1t-7 1q-2 2 -8 2h-9q-10 0 -29.5 -2t-29.5 -2l-16 6q-14 3 -18.5 6.5t-4.5 13.5z" />
    <glyph glyph-name="grave" unicode="`" horiz-adv-x="651" 
d="M346 815q-14 14 -14 25q0 9 13 14.5t24 5.5q2 0 6 -4q12 -6 14 -8q5 -3 11.5 -7t10.5 -6.5t5 -3.5l2 -4q2 -2 5 -6t5 -6q3 -4 23 -24q47 -38 53 -43q4 -4 12.5 -13t11.5 -12q9 -15 9 -18q0 -8 -7.5 -13.5t-17.5 -5.5q-19 0 -49 27q-4 3 -12.5 11t-12.5 11q-5 4 -13.5 12
t-12.5 11q-8 8 -23 12q-2 2 -5.5 4.5t-4.5 3.5q-1 0 -2 1t-2 1v4q-1 2 -13 21q-1 1 -4 3t-4 3z" />
    <glyph glyph-name="a" unicode="a" horiz-adv-x="759" 
d="M133 29q-22 25 -22 57q0 14 2 20q25 107 51 142q38 48 63 76.5t66 63.5t78 48q8 0 18 10q3 3 19 11q16 4 22 6q8 4 39 4h45q7 0 46.5 -17.5t45.5 -23.5q9 -11 21 -33.5t12 -32.5q0 -4 -2 -8q-1 -4 -4 -8.5t-4 -5.5q-13 -21 -13 -47q0 -2 2 -6q0 -9 -2 -13q0 -2 -1 -6
t-1 -6v-4l2 -4v-31q3 -15 0 -31l-2 -4l2 -4q14 -24 17 -32q8 -20 8 -33v-4l4 -2q2 -3 5.5 -10.5t4.5 -10.5q1 -2 3.5 -6t3.5 -6q2 -4 10 -12q3 -4 10 -12.5t10 -12.5l6 -4q12 -3 15 -6l4 -4l12 -11h2q11 -2 18 -11t7 -21q0 -13 -19 -25t-37 -12q-12 0 -47.5 19.5t-40.5 27.5
l-6 18v4l-2 2l-10 5q-4 0 -6 2q-1 2 -4.5 8t-5.5 8q-2 6 -7 16q0 1 -1 3t-1 3q-21 40 -39 97l-2 8h-16q-2 0 -4.5 -1t-3.5 -1q-3 -3 -9.5 -8t-9.5 -8q-16 -16 -34 -37q-46 -46 -58 -62q-89 -71 -196 -71q-5 0 -9 0.5t-5.5 1t-2.5 0.5l-4 4q-8 8 -24 16q-1 1 -4.5 2t-4.5 2
q-6 3 -6 14v5zM195 109q0 -18 17 -37t34 -19q57 0 108 51q8 8 23 26.5t16 19.5q27 31 41 43l4 4q0 8 17 28q11 17 32 41q4 6 15.5 20.5t15.5 20.5q17 25 17 39q0 10 -11 21l-18 12q-24 8 -35 8q-51 0 -113.5 -43t-93.5 -92q-13 -13 -33 -41q-18 -22 -20 -33q-1 -3 -2 -8
t-2 -8q0 -11 -2 -15q0 -6 -4 -10q0 -2 -1 -6.5t-1 -7.5q-4 -8 -4 -14z" />
    <glyph glyph-name="b" unicode="b" horiz-adv-x="696" 
d="M225 -51q-34 0 -49.5 11.5t-15.5 43.5q0 26 8 72q2 8 6 20q4 16 4 27q0 6 -1 20t-1 21q0 14 2 22q1 5 4 15.5t4 15.5q13 44 13 80q-1 1 -2 3t-2 3q0 11 8 43q0 1 3.5 9.5t4.5 13.5q2 8 2 24v6q0 3 -2 7v2q2 4 2 10l6 18q2 16 8 39q2 8 2 27q0 18 2 24q1 2 2.5 6.5
t2.5 6.5q2 2 2 6q0 6 2 10q0 4 1 13t1 14q4 41 6 47q6 32 8 49q4 24 4 51q0 10 14 59q5 15 5 21q0 2 -3 8v4q0 12 3 21q0 8 4 20q1 6 6 41q0 15 4 35q11 33 45 33q19 0 24 -8.5t5 -28.5q2 -2 2 -6q2 -6 2 -13q0 -11 -9 -47l-6 -24q0 -5 -1 -14.5t-1 -14.5q0 -8 4 -16l2 -6
q0 -3 -2 -7l-6 -12q-4 -8 -4 -14l-6 -12q0 -15 -2 -23v-20q0 -19 -2 -29q-4 -9 -8 -31q-1 -8 -2 -25t-2 -26q0 -31 -4 -47q0 -1 -5 -6q-4 -8 -4 -13q-4 -8 -4 -24q0 -13 -2 -17l-18 -116v-2q0 -10 6.5 -17.5t15.5 -7.5q7 0 11 4q2 0 5.5 2.5t4.5 3.5q4 2 11.5 9.5t10.5 9.5
l37 37q7 9 34 27.5t38 23.5q2 0 5.5 1t6.5 1h10q7 0 11 2q20 10 26 10h29q21 0 31 -2q22 -6 55 -49.5t33 -67.5t-5.5 -74t-11.5 -61q-6 -10 -18 -26q-15 -25 -17 -31l-2 -2l2 -8q-2 -7 -20 -25q-9 -7 -35 -27q-6 -2 -14 -10q-2 -2 -5 -6t-5 -6q-15 -15 -23 -19
q-3 -2 -15 -7.5t-18 -10.5q-53 -32 -126 -64.5t-113 -33.5zM246 59q0 -34 28 -34q20 0 52 14q11 5 28 13t21 9q10 10 16 13q6 6 12 6q1 0 9.5 3.5t13.5 4.5q2 1 10 6t13 8l2 4q1 1 2 2.5t2 2.5t3 2t3 2q6 2 16 2q10 3 21 14q1 1 3 4t3 4q4 2 10 8q29 20 47 72q2 4 5 11.5
t5 11.5q2 7 11 20l2 4v4q-2 8 -2 27v31q0 28 -21 49.5t-47 21.5q-24 0 -80 -44t-84 -74q-2 -2 -5 -7.5t-5 -7.5q0 -1 -1 -3t-1 -3q-4 -4 -4 -6q-11 -11 -23 -27l-16 -32q-3 -10 -8 -17q-6 -6 -8 -10q-4 -4 -7 -10q-1 -3 -3 -9.5t-3 -9.5q0 -6 -4 -18q-4 -22 -8 -33
q-4 -8 -4 -12q-4 -8 -4 -17z" />
    <glyph glyph-name="c" unicode="c" horiz-adv-x="770" 
d="M143 111q0 75 15.5 132.5t56.5 114.5q9 12 74 75.5t71 66.5q3 1 9.5 2t9.5 2q9 0 18 6q35 13 39 14q15 6 41 6h8q1 0 3.5 1t3.5 1t2 1.5t2 1.5q23 0 56.5 -25t33.5 -47q0 -23 -13.5 -38t-35.5 -15q-5 0 -9 4q-2 0 -6 4q-1 0 -3 1t-3 1q-4 4 -4 6q-2 2 -2 6q-1 1 -2 3
t-2 3q-11 15 -31 15q-8 0 -10 -2q-6 0 -8 -2q-61 0 -137 -80.5t-87 -143.5l-12 -75v-3q4 -12 9 -30.5t8 -26.5q14 -31 51 -41q12 -6 26 -6q7 0 9 2q2 0 4 2q6 2 41 6q38 4 51 6q3 1 33 13q5 2 15 7t15 7h4h11h4l2 2q7 4 33 12q8 2 20 6l21 7q14 8 53 37q32 16 51 16
q7 0 12.5 -8t5.5 -19q0 -36 -92 -82t-141 -55q-4 -1 -11 -2t-10 -2l-18 -6q-12 -6 -27 -12q-14 -7 -20 -7t-8 2l-4 2l-4 -2q-6 -3 -31.5 -7.5t-32.5 -4.5q-19 0 -37 6q-3 1 -17 6.5t-22 8.5q-38 11 -60 48t-22 79z" />
    <glyph glyph-name="d" unicode="d" horiz-adv-x="870" 
d="M121 74q0 22 10 49q6 15 19.5 41.5t15.5 30.5q8 18 66 65.5t87 65.5q4 3 57 16.5t58 13.5q6 0 39.5 -6.5t34.5 -7.5q4 -2 11 -6t11 -6q12 -6 29 -6q16 0 35 24q13 19 16 39v10q0 18 8 29q2 4 8.5 12.5t8.5 12.5q4 6 14 32q6 24 8 29q1 6 6.5 17.5t6.5 13.5q11 12 22 69
q0 1 1 3t1 3t1 2.5t1 2.5q15 25 29 65q11 42 20 68q1 2 3 4q17 17 20 37q19 24 31.5 31.5t38.5 7.5q11 0 14 -13q4 -8 4 -30q0 -23 -2 -35q-2 -10 -2 -33v-29q0 -5 -1 -14.5t-1 -13.5q0 -9 2 -13q0 -6 2 -8q0 -6 2 -10l-2 -2l-4 -4l-2 -4v-2q-2 -6 -2 -15q0 -80 -8 -143
q-6 -36 -10 -105t-9 -100v-33q0 -6 -2 -8v-12v-49q0 -31 -2 -47q0 -2 -1 -4t-1 -3l-2 -6q-2 -2 -2 -6q-2 -4 -2 -10v-10q2 -6 2 -17t-3 -33.5t-3 -33.5q0 -7 1 -21.5t1 -21.5q0 -19 -6 -58t-6 -59q0 -2 1 -5.5t1 -4.5q-12 -20 -13 -23l-6 -18q-12 -12 -41 -12q-8 8 -10 16
q-8 16 -8 31l-4 8v8q0 17 2 27q8 31 8 67q0 6 -1 18.5t-1 18.5q0 13 2 39t2 39q0 6 -1 18.5t-1 18.5q0 4 1 10t2.5 13.5t2.5 11.5q4 12 4 20q2 6 2 21q0 10 -2 14q0 6 -2 10q-2 6 -2 17q0 2 1 4.5t1 3.5q1 1 2 3t2 3q0 2 1 6t1 6v103q0 6 4 22q0 4 4 12q0 3 1.5 8t1.5 7v20
v19q0 14 2 22q2 4 2 12q2 6 2 15q0 13 -4 41l-5 39l-16 -37q-10 -24 -20 -41q-4 -9 -13 -34.5t-16 -39.5l-2 -4l2 -4v-6q0 -4 -2 -8q-1 -2 -4 -6.5t-4 -6.5q-1 -3 -4 -7.5t-4.5 -8t-2.5 -6.5q-5 -9 -8 -23q-20 -40 -35 -65q-5 -12 -16 -27q-3 -5 -9 -14.5t-9 -14.5
q-29 -43 -33 -57l-4 -4l-8 -8q-2 -2 -10 -12t-13 -17q-10 -13 -25 -35q-33 -42 -45 -47l-4 -2v-2q-4 -6 -39.5 -31.5t-38.5 -25.5h-14q-6 0 -18 -4q-2 0 -6 -4q-2 0 -7 -5q-8 -4 -16 -4h-12q-2 0 -6.5 -1t-6.5 -1l-12 -6q-2 -2 -6 -2t-6 2l-4 2h-12q-7 0 -20.5 -2t-20.5 -2
q-7 4 -7 6q-6 6 -10 8h-4q-26 9 -39.5 35.5t-13.5 61.5q0 4 1 12t1 12l2 4l-2 2q-2 4 -2 15zM207 43q0 -43 59 -43q91 0 168 92q6 6 8 10q1 2 3.5 6.5t3.5 6.5q2 2 6.5 8t7.5 8q26 26 49 64q8 16 8 24v8l-2 2q-15 20 -35 27q-5 2 -16.5 4t-17.5 4q-8 4 -11 4q-8 4 -14 4
q-3 0 -8.5 -1t-7.5 -1q-1 -1 -2.5 -1.5l-3 -1t-3.5 -1.5l-10 6l-4 -2q-18 -9 -33 -18q-5 -3 -14 -9.5t-14 -9.5l-5 -2q-4 -2 -8 -2l-8 -4q-2 0 -8 -4.5t-6 -5.5l-6 -6q0 -2 -4 -6q0 -1 -1.5 -2t-1.5 -2q-38 -32 -53.5 -67t-15.5 -89z" />
    <glyph glyph-name="e" unicode="e" horiz-adv-x="753" 
d="M96 188q0 48 43 62h2l2 4q16 16 21 41q5 18 43 70q51 59 59 69q13 14 59.5 39t63.5 25h4l2 2q3 4 17 8h20h8q2 2 6 2q6 2 13 2q31 0 64 -17.5t36 -41.5v-4l2 -3q10 -10 10 -47q0 -18 -2 -28q-6 -31 -44 -74.5t-66 -52.5q-27 -11 -41 -21q-15 -10 -35 -20q-26 -11 -70 -21
q-11 -2 -35.5 -5t-37.5 -5h-13q-2 -1 -6 -2t-6 -2q-12 -9 -12 -29q0 -22 6 -30q1 0 2 -1.5t2 -1.5q8 -16 12 -20q0 -2 1 -4.5t1 -3.5q1 -1 2 -3t2 -3q11 -19 31 -19q17 0 35 -6q12 -4 20 -6q3 0 10 -1t11 -1q43 0 63 2q17 4 27 14q71 10 180 66q64 32 76 37q53 24 72 24
l6 -6l6 -6q0 -16 -6 -31q0 -3 -6 -8.5t-8 -5.5q-16 -14 -60 -45q-26 -18 -120.5 -53.5t-127.5 -40.5h-4q-62 -25 -94 -25q-35 0 -55 2q-31 0 -49 12q-4 2 -11.5 5.5t-11.5 5.5q-41 12 -53 24q-17 15 -27 64q-3 16 -7.5 44t-6.5 36q-2 18 -21 32q-2 2 -4 2zM229 262l9 -6
q1 -1 3 -2t3 -2q1 0 2 -1t2 -1q8 -4 14 -4q19 0 31 6q16 4 22 4q24 0 72.5 23.5t71.5 42.5q8 6 16 22q2 3 5 10.5t5 10.5q1 5 7 10q4 8 4 18v4l-2 2q-21 37 -62 37q-1 -1 -3 -2t-3 -2q-1 0 -3 -1t-3 -1h-4q-4 2 -8 2q-13 0 -21 -4t-10 -4q-60 -30 -85 -58.5t-59 -95.5z" />
    <glyph glyph-name="f" unicode="f" horiz-adv-x="624" 
d="M125 344q-14 0 -24.5 9.5t-10.5 23.5q8 25 43 39q9 3 20.5 5.5t24.5 5t19 3.5q35 12 67 12h4l15 11q2 6 4 15.5t2 10.5q1 4 2 11.5t2 11.5q2 14 5 29t7 33.5t6 29.5q1 3 3 8t3 8q13 32 13 39v17q0 6 2 10q8 16 8 33q0 22 22 75q6 9 21 39q13 32 16 39q3 6 7.5 19t7.5 20
q7 21 43 54.5t65 52.5q20 14 43 14q2 0 4 -2q7 0 11 -4q35 -11 45 -31q4 -6 10 -24.5t12 -30.5q-7 -46 -21 -70t-46 -24q-10 5 -11 6q-2 0 -4.5 1t-3.5 1q0 6 -2 8v10q0 14 6 23q0 1 1 4.5t1 5.5v6q-6 12 -6 23l-2 8l-24 4l-5 -2q-53 -40 -69 -109q-1 -6 -12 -45
q-3 -7 -9.5 -22.5t-9.5 -22.5q-2 -4 -2 -6l-4 -4q-4 -4 -4 -6q-5 -15 -6 -17q0 -6 -4 -14v-8q1 -1 2 -3t2 -3v-4q0 -1 -1 -3t-1 -3q-1 -2 -6 -17q-2 -6 -5 -13t-5 -11.5t-3 -6.5q-18 -46 -18 -122l2 -21h8q1 -1 3 -2t3 -2h10q21 0 29 2q12 3 27 6q27 10 55 10q17 0 31 7
q68 26 151 26l4 -4h11q10 0 10 -10q0 -28 -42 -49t-73 -21q-4 -2 -10 -2q-2 -2 -8 -2q-6 -2 -19.5 -6t-19.5 -6q-3 0 -17.5 -3t-21.5 -3q-20 0 -55 -13l-12 -4t-15 -4q-15 -6 -29 -6q-2 0 -4 2q-28 0 -40.5 -12.5t-14.5 -40.5q-2 -10 -2 -37q1 -4 1 -9.5t-0.5 -10t-0.5 -5.5
l-4 -8q-1 -2 -2 -5t-2 -5q-6 -9 -6 -27v-8q0 -4 2 -6q0 -21 -7 -53q-11 -38 -12 -47v-15v-10q0 -4 -4 -8l-2 -2v-4q-4 -20 -4 -64q0 -10 -4 -26q0 -5 -2 -15t-2 -14q0 -2 -3.5 -24.5t-4.5 -36.5q-7 -40 -7 -62q0 -5 1 -14.5t1 -14.5q0 -12 -14 -26l-2 -2v-2q-1 -2 -2 -6.5
t-2 -6.5l-2 -4q-2 -2 -4 -2l-8 -2q-14 -5 -19 -8q-17 0 -22 16q-4 10 -4 37q0 19 2 27v4l-4 8q0 5 6 23q2 6 11 67.5t9 67.5t-2 10q0 1 -1 4t-1 4t-1 3t-1 3q0 9 4 29q1 5 4 14.5t4 14.5q7 44 18.5 132t18.5 132l2 8l-8 4q-12 6 -29 6q-40 0 -80 -10q-18 -6 -22 -6z" />
    <glyph glyph-name="g" unicode="g" horiz-adv-x="714" 
d="M-180 -502q0 28 9.5 38.5t35.5 10.5q7 0 18 -14q11 -11 13 -14q7 -16 28.5 -26.5t42.5 -14.5q1 0 19 -6q6 -4 20 -11q19 -6 67.5 -14t67.5 -8q71 0 142 41q6 4 27 19t32 22q6 0 6 2q9 0 14 8q1 1 4.5 4t4.5 4q2 4 6 8q47 37 96 133.5t64 165.5q2 6 2 15v10v6q0 1 1 3t1 3
q4 11 8 29q0 4 1 12.5t1 12.5l2 6l-4 4q0 12 6 30t6 39v7l-2 4v4l4 28v4q-5 11 -14.5 58t-9.5 59q0 8 -8.5 17t-18.5 6q-2 0 -4.5 -1t-3.5 -1q-7 -5 -12 -15q-2 -2 -5.5 -7t-5.5 -7q-7 -13 -40 -53.5t-42 -48.5q-6 -3 -22 -19q-78 -88 -125 -88q-15 0 -23 -8q-4 -4 -6 -4
t-2 2h-33q-6 6 -12 6h-6h-6h-6q0 1 -1 2t-1 2l-2 4h-4q-13 3 -31.5 26.5t-18.5 35.5q0 37 9 75q10 20 10 39q0 4 -1 9l-1 4l-2 2l4 8q2 3 4.5 7t4 6.5t1.5 4.5q46 86 102 140.5t134 72.5q8 1 32 11q20 8 31 8q4 0 12 -4q9 -3 15 -9l4 -2l10 2q19 0 37 -18q6 -5 15 -15
t11 -12q12 -15 33 -24q2 -1 17 -6q2 -1 5 -5l3 -4q1 -1 2 -4.5t2 -5.5q0 -2 1 -5.5t1 -4.5q3 -11 10 -29l6 -4q2 0 4 -2q0 -32 7 -51q18 -70 18 -141q0 -13 -3 -36t-3 -34q0 -6 1 -18.5t1 -18.5q0 -23 -12 -69q-1 -4 -4 -11t-4.5 -12.5t-2.5 -9.5q-6 -15 -6 -29q0 -4 2 -6
v-4v-4v-4q0 -1 -4 -9q-8 -12 -10 -14q-3 -4 -4.5 -10t-2 -12.5t-1.5 -8.5q0 -1 -1 -4.5t-1 -5.5l-2 -6q-2 -5 -8 -11.5t-7 -8.5q-8 -15 -10 -29l-2 -4v-4v-4q-6 -9 -8 -11l-2 -2v-4q-6 -15 -15 -30q-4 -5 -11 -14.5t-11 -14.5q-10 -9 -14 -23q-4 -4 -4 -8q-1 -2 -7 -8
q-25 -42 -96.5 -104t-105.5 -62q-13 0 -27 -14q0 -1 -1 -2t-1 -2q-4 0 -8 -2h-13q-15 -3 -30 -9q-12 -4 -37 -4q-16 -2 -43 -2h-10q-1 0 -4.5 -1t-4.5 -1q-2 -2 -6 -2q-46 0 -78 12q-3 3 -16 7q-2 0 -7 1t-7 1q-21 4 -25 6l-16 8q-9 3 -21 6q-10 0 -16 2q-8 0 -12 2
q-1 0 -2.5 1.5t-3.5 2.5q0 3 -5 7t-8 4q-8 6 -24 14q-4 3 -7.5 5.5t-7.5 5t-6 3.5q-16 16 -16 45zM182 72q0 -11 4 -27v-6l7 -2l18 -6q4 -2 18 -2q44 0 105 61q4 5 12.5 14t11.5 13q2 2 5.5 6t5.5 6l6 12q1 2 3 5.5t3 5.5l6 6q19 18 23 26l8 12l10 15q5 5 29 33q2 5 7.5 12
t6.5 8q4 8 6 10q0 1 1 5t1 6q0 15 -14 24q-3 2 -25 13q-30 10 -49 10q-37 0 -84 -34.5t-78 -72.5q-37 -48 -41 -133l-2 -4q-4 -8 -4 -16z" />
    <glyph glyph-name="h" unicode="h" horiz-adv-x="798" 
d="M129 -98q-13 0 -23 9t-10 21q0 9 9.5 66t11.5 59l10 19q2 8 2 24q0 5 4 25t4 29l2 2q0 1 1 3t1 3q6 6 6 12q8 16 25 86q10 59 18 92q3 12 3 27q2 8 2 24l14 86q0 1 1 4t1 5q4 4 4 10q4 8 4 10q2 4 2 14q0 9 -2 13l-2 2q2 2 2 4q8 8 8 24q1 3 2 11t2 12q0 21 5 41
q3 24 14 65.5t14 59.5q6 31 22.5 51t47.5 39q15 0 20.5 -6t5.5 -23q0 -14 -2 -16q0 -4 -2 -4q-8 -11 -10 -19q-6 -24 -6 -51q0 -24 -6 -45q-3 -15 -17 -57q-8 -40 -8 -64t-10 -51q-2 -10 -7 -29.5t-7 -29.5q-3 -15 -6.5 -42t-4.5 -34q-2 -18 -10 -41q-8 -28 -8 -49
q0 -11 -8 -35q-5 -10 -8 -22q0 -3 -1 -11t-1 -12q0 -29 26 -29h4l2 2q10 9 32.5 31t35.5 33q54 43 72 53q3 2 13 11t11 12q16 16 80 16q4 -2 16 -6q2 -1 23 -8q1 -2 3 -6.5t3 -6.5q4 -8 8 -14q7 -10 15 -25q6 -25 14 -75q5 -30 8 -39q10 -59 39.5 -90t89.5 -31q42 0 88 37
q9 6 15 12q12 8 14 10q12 9 29 9q4 -4 4 -7l6 -10q0 -52 -56.5 -88.5t-113.5 -36.5q-3 0 -6 1t-4 1h-9q-11 1 -31 6.5t-24 6.5q-9 3 -26.5 9t-26.5 9q-14 14 -23 20q-2 2 -6 5.5t-6 5.5q-6 6 -8 10q-3 2 -14 35q-2 10 -7.5 25.5t-5.5 17.5q-1 3 -1.5 7.5t-1 11.5t-1.5 12
q-4 59 -16 88q-12 24 -29 24q-33 0 -98 -65q-18 -17 -47.5 -47.5t-38.5 -38.5q-2 -2 -3.5 -4t-2.5 -3q-12 -7 -23 -26q-1 -4 -4.5 -9t-3.5 -6q-6 -9 -18.5 -25.5t-14.5 -19.5q-17 -20 -31 -51l-12 -30q-14 -35 -47 -35z" />
    <glyph glyph-name="i" unicode="i" horiz-adv-x="356" 
d="M150 -12q0 4 -2.5 9t-2.5 7q0 4 2 4q0 1 1.5 3t1.5 3q4 8 4 15v10q0 2 4 10l4 8q1 2 2 5.5t2 5.5q4 7 0 14q0 11 4 39q7 18 10 29q2 6 15 65q0 11 4 31q0 13 6 28q11 37 12 48q1 2 2 5.5t2 4.5q0 4 4 12q4 7 8 29q2 7 7 47q14 80 49 96q4 4 28 4q9 0 13 -5t4 -19
q0 -9 -4 -29q-1 -6 -3 -17.5t-3 -17.5q0 -2 1 -5.5t1 -4.5v-2q0 -14 -13 -51q-8 -32 -18 -56l-2 -4l2 -4l2 -2q0 -11 -8 -35q-13 -17 -13 -43l-2 -4l2 -2q0 -14 -4 -20q-1 -4 -3 -12.5t-3 -12.5q-2 -4 -4.5 -15t-6.5 -27l-7 -28q-12 -58 -12 -69q0 -29 -18 -58.5t-40 -29.5
q-18 0 -23 9t-5 32zM238 758q25 60 75 63q2 -1 4 -3l3 -3t2 -1.5t2 -0.5l2 -4h4h6v-12q0 -1 -1 -4.5t-1 -4.5q-1 -2 -4 -6t-4 -6q-27 -48 -66 -51l-6 6l-2 4h-2q-4 0 -8 7.5t-4 15.5z" />
    <glyph glyph-name="j" unicode="j" horiz-adv-x="374" 
d="M-408 -696q-23 3 -57.5 28.5t-34.5 42.5q0 2 2 4q0 5 2 9q5 24 14 34.5t29 10.5q3 0 12.5 -8t12.5 -15l4 -4q76 -37 131 -37q37 0 88 15q7 2 16 4t11 2q42 10 72 37q14 7 38 34q3 5 14.5 19t16.5 22q5 7 15.5 20.5t15.5 20.5q56 85 65 127q1 3 3.5 9.5t3.5 9.5
q8 12 10 18q11 20 18 55q0 3 4 9q1 1 5 7t6 11q18 31 22 57q6 33 33 103q2 4 4 6l4 4q0 1 1 3t1 3q6 12 6 23q1 3 2 10t2 10q0 1 11.5 36.5t17.5 57.5q18 78 16 95v6v4q9 14 13 29q0 12 2 18q2 4 4 6t2 4q1 2 3.5 5.5t4 5.5t2.5 4l10 10q6 6 23 6q21 0 24 -6q2 0 2 -10
q1 -3 2.5 -11.5t2.5 -11.5q0 -1 1 -4.5t1 -5.5v-6q0 -1 -1 -3.5t-1 -3.5q-7 -12 -7 -28v-12q-2 -2 -2 -9q-2 -6 -8 -30v-11q-1 -2 -2 -6t-2 -6q-2 -7 -14 -37q-10 -23 -10 -47q-1 -2 -7 -8v-8v-6q-1 -1 -2 -5t-2 -6q-4 -20 -8 -32q-3 -13 -9 -34t-7 -26q-1 -1 -4.5 -9.5
t-3.5 -10.5q-9 -17 -11 -29q-1 -3 -2 -10t-2 -10q-2 -16 -14 -43q-5 -9 -21 -46q-2 -6 -6.5 -24t-9.5 -27q-6 -16 -14 -26q-1 -2 -17 -29q-4 -8 -11.5 -24.5t-10.5 -22.5q-14 -32 -21 -43l-4 -4q0 -4 -4 -4q-1 -1 -5 -6.5t-5 -8.5q-1 -2 -2 -5t-2 -5v-8q0 -1 -1 -3t-1 -3v-4
l-9 -6q-19 -14 -40 -48q-2 -3 -23 -34q-3 -4 -10.5 -15t-12.5 -16q-4 -4 -8 -4q-1 -1 -3 -2t-3 -2q-2 0 -6 -4q-4 -2 -8.5 -8t-5.5 -7q0 -1 -1 -3t-1 -3q-1 0 -2 -1t-2 -1q-35 -26 -83 -43.5t-87 -17.5q-15 0 -39 -4.5t-31 -4.5q-9 0 -105 11zM244 516q0 18 17 32.5t36 14.5
h12q7 0 14 -6.5t7 -11.5l-2 -4q0 -2 -1 -5.5t-1 -5.5l-9 -18q0 -2 -22.5 -12.5t-28.5 -10.5q-22 0 -22 27z" />
    <glyph glyph-name="k" unicode="k" horiz-adv-x="749" 
d="M113 -106q1 2 2 6t2 6q4 12 6 16q8 24 8 39v8v4q0 1 1 3.5t1 3.5v6v8q-2 0 -2 4l-2 4q0 14 14 35q0 2 1 7.5t1 8.5q0 6 -2 8q0 3 -2 5q0 4 4 20q1 2 3.5 6t3.5 6q0 3 1 8t1 7q2 8 2 24q0 47 10 76q8 40 8 59v7l-2 4v4q0 10 4 30q8 23 10 37q5 23 9 76q9 65 10 68l2 4
l-2 4q0 2 -1 5t-1 5q0 13 6 25q1 5 4 14t4 14q6 29 6 86q0 3 2 7q4 4 4 6q1 2 2 5t2 5q0 38 7 65q8 27 10 43q2 9 2.5 28.5t1.5 25.5q4 33 27 75q9 14 16 18.5t22 4.5q12 0 16.5 -5t4.5 -18q0 -9 -2 -27t-2 -26q0 -1 1 -3t1 -3v-6q0 -2 2 -6q0 -1 -1 -4.5t-1 -5.5
q-3 -9 -6 -15q-4 -12 -4 -16q-4 -8 -4 -19q0 -3 -5 -28q0 -3 -1 -8.5t-1 -8.5q-2 -6 -2 -18v-8l2 -4q0 -4 2 -4q-1 -2 -2 -5t-2 -4v-6q0 -2 1 -6t1 -6l-4 -12q0 -7 -4 -15q-10 -30 -10 -45q0 -18 -6 -33q-4 -18 -4 -55q0 -35 -6 -49v-4l-2 -4q-2 -2 -2 -6q-1 -1 -2.5 -3
t-2.5 -3q-2 -6 -2 -21v-14v-6l11 -15h20q72 12 209.5 66t196.5 94q46 38 47 39q25 22 43 22q7 0 16.5 -7.5t9.5 -12.5q0 -11 -2 -19q0 -6 -2 -8v-4q-12 -12 -20 -18q-29 -18 -66 -51q-25 -25 -82.5 -54t-93.5 -37q-22 -5 -27 -8q-7 -2 -24.5 -9l-22.5 -9q-36 -12 -45 -12h-2
l-4 -3q-6 -6 -28 -10q-3 0 -9.5 -1t-9.5 -1q-12 -4 -18 -8q-1 -1 -3.5 -2t-3.5 -2l-6 -6q-1 0 -2 -1t-2 -1l-4 2l-2 2h-6q-11 0 -17 -8.5t-6 -18.5q0 -14 23 -37q20 -16 29 -22q12 -21 32 -41q3 -2 22.5 -16t24.5 -17.5t23 -15.5t26 -17t23.5 -14.5t26 -15t24.5 -12
t27 -11.5q23 -9 57 -16q3 -1 18 -4t23 -5q17 0 21 -8q0 -18 -4 -24q-4 -7 -29 -22t-33 -15q-12 0 -28 4q-5 2 -15.5 5t-15.5 5q-4 2 -14 2q-4 2 -13 2q-6 0 -14 8q-9 6 -16 13q-34 17 -41 20q-8 4 -43 19q-52 24 -68 47l-6 6q-11 0 -53 39q-12 11 -31.5 30t-24.5 23l-8 10
l-6 -12q-6 -6 -6 -14q-4 -8 -4 -13q-4 -10 -8 -22l-5 -4l2 -6q3 -3 3 -11v-12q0 -49 -15 -84l-4 -6v-4v-6v-10q0 -1 1 -3.5t1 -3.5q2 -2 2 -4q0 -3 -1 -7.5t-1 -6.5q-1 -3 -4 -9t-4 -9q-9 -25 -6 -48q-4 -10 -8 -22q0 -34 -17.5 -77.5t-46.5 -43.5q-20 0 -20 39q0 7 2 22
t2 23t-2 12q0 7 -2 9z" />
    <glyph glyph-name="l" unicode="l" horiz-adv-x="323" 
d="M121 -63l-2 4q0 14 6 32q8 23 10 39q4 26 8 78q3 6 7 41q4 16 4 25q0 1 1 4t1 4v6v-2q0 26 8 76q8 57 10 78l2 4l-4 4q0 13 10 51q1 5 4 15.5t4 15.5q3 12 3 22v6q0 3 -3 9q0 4 3 10q1 2 2 6.5t2 7.5q8 19 8 43l-2 4q0 4 -2 6q2 2 4 6l2 3v2q0 2 6 67q6 18 8 21
q2 10 6 26q2 10 5.5 32t5.5 32q2 13 9 35.5t9 33.5q6 23 26 40.5t42 17.5q26 0 26 -19q0 -8 -4 -24q-27 -44 -27 -86q0 -31 -10 -76q-12 -41 -18 -78l-19 -113q0 -22 -8.5 -70.5t-15.5 -68.5v-8q2 -6 2 -16q0 -13 -2 -19q-4 -16 -4 -22q-2 -11 -3.5 -39t-4.5 -43l-5 -15
q-1 -1 -2 -4t-2 -4q0 -2 -1 -5t-1 -5q-6 -30 -10.5 -87.5t-5.5 -70.5v-4l2 -4q0 -11 -13.5 -41.5t-21.5 -42.5q-7 -12 -29 -12q-15 0 -20 22q-1 3 -2 12t-2 13q0 17 -2 25z" />
    <glyph glyph-name="m" unicode="m" horiz-adv-x="1302" 
d="M115 -2q0 20 16 63q5 15 15 39.5t12 30.5q4 11 8 33q2 4 5 14.5t5 14.5q4 8 6 10q1 2 3 7t3 7q10 34 11 43q5 30 8 39q0 4 2 4q0 1 1 3t1 3q6 6 6 21q0 2 21.5 68t25.5 73q2 2 17 9t20 7q13 0 21 -12t8 -31q0 -14 -6 -26l-5 -17q-1 -3 -2 -8t-2 -8v-4l23 -45l8 20
q4 8 4 13q4 4 4 6q3 7 13 10q2 2 28 12q3 1 33 19q2 1 12.5 8.5t16.5 9.5q2 2 6 2q2 2 4 2h4q2 -2 6 -2q59 0 83 -21t40 -79q13 -31 27 -41l4 -4l6 2q10 6 22 22q0 1 5.5 9.5t9.5 13.5q3 6 53 49t61 49q8 5 25 12.5t23 10.5q28 17 47 22.5t51 5.5h35q23 0 52.5 -31.5
t29.5 -56.5q0 -2 -1 -7t-1 -7q-2 -4 -2 -14q-11 -48 -11 -109q0 -1 1 -4t1 -4v-8q2 -4 2 -13q-2 -6 -2 -10q0 -66 34.5 -110.5t98.5 -44.5q40 0 78 49q6 9 27 30q13 13 24 13q7 -7 7 -15q6 -18 6 -28l-4 -8q-4 -12 -4 -15q-5 -10 -5 -14l-4 -8q-17 -26 -48.5 -49t-57.5 -23
q-1 0 -3 -1t-3 -1q-2 -1 -8 -2t-9 -2q-4 -2 -14 -2q-33 0 -63 12q-20 8 -62 29l-6 6l-4 4q-4 4 -6 4v2v-2l-4 8l-11 11q-18 5 -30.5 62.5t-12.5 90.5q0 29 2 43v2l-2 4l-2 2q0 9 4 33q5 20 5 21q2 6 2 20v6l-2 4q0 1 -3 4l3 7q2 2 2 8q0 19 -6.5 28t-26.5 9
q-62 0 -118.5 -41t-98.5 -101q-5 -7 -15.5 -22.5t-15.5 -22.5q-11 -17 -49 -86q-31 -57 -51 -71l-15 -5q-3 0 -8.5 -1t-7.5 -1q-12 0 -21.5 14t-9.5 29q0 18 8 54l2 4l-2 2q-2 4 -2 8q0 7 4 23q1 2 5 14q0 151 -58 151q-46 0 -82 -45q-4 -6 -16 -14q-4 -3 -12.5 -8t-12.5 -8
q-20 -16 -35 -41q-13 -21 -28 -47q-3 -8 -10 -15q-2 -3 -6.5 -9t-6.5 -9q0 -1 -1 -3.5t-1 -4.5q-2 -2 -2 -7v-6q-2 -2 -2 -4q-18 -27 -22 -31q-7 -14 -7 -18q-1 -2 -2 -7t-2 -7q-3 -11 -10 -29q-12 -19 -14 -31q-1 -1 -2 -4.5t-2 -5.5q0 -1 -1 -2t-1 -2l-6 -6q-1 -1 -3.5 -3
t-3.5 -3t-5.5 -7t-8.5 -8q-9 -6 -12 -6q-23 0 -35 6q-10 3 -10 25z" />
    <glyph glyph-name="n" unicode="n" horiz-adv-x="897" 
d="M100 -29q0 14 13 37q6 9 10 21q8 16 10 24q0 2 1 7t1 8q2 4 2 8l4 4q0 2 4 6l7 14q3 11 8.5 34t7.5 32q11 40 20 57q1 4 5 11l4 6q4 16 4 22t-2 8q0 9 8 25q4 12 8 16q4 12 4 17q2 7 6 21.5t6 21.5q7 26 15 41q16 39 49 55q2 0 10 4l6 2q8 0 14.5 -7.5t6.5 -16.5
q0 -12 -6 -27q-1 -3 -3.5 -8t-3.5 -8q-2 -6 -2 -19v-10l15 -12h4q13 0 47 24q4 3 11.5 9.5t11.5 9.5q3 3 8.5 7.5t7.5 6.5q26 19 78.5 35t85.5 16q2 -1 6 -2t6 -2q4 -1 27 -6l24 -8q4 -2 8 -2q2 -2 2 -4q0 -4 3 -7q0 -6 2 -8v-2l4 -2q14 -11 14 -39v-2l2 -4q8 -11 8 -23v-14
q1 -3 2 -8t2 -8l-4 -23l2 -2q8 -24 8 -35q0 -4 -2 -4v-6q-4 -4 -4 -18q0 -27 6 -64q6 -52 21 -63q15 -15 51 -15q24 0 76 21q6 4 17 8.5t12 5.5q20 4 28 4q3 0 13 -9.5t10 -12.5q0 -29 -28.5 -54.5t-57.5 -25.5q-6 0 -10 -2q-7 0 -9 -2q-20 -4 -30 -8q-20 -4 -29 -4
q-104 0 -135 65v18q0 15 -2 23l-6 18q-9 31 -9 37q0 14 1 40t1 40q0 129 -63 129q-90 0 -223 -149l-17 -17q-6 -6 -18 -22q-1 -2 -6 -17v-6q-18 -9 -35 -39q-4 -9 -11 -25t-10 -22l-2 -4v-4q0 -8 -6 -20q-1 -2 -3 -6.5t-3 -6.5q-2 -6 -6 -14q-5 -20 -6 -23q0 -6 -4 -22
q-2 -5 -23.5 -31.5t-27.5 -30.5q-6 -6 -29 -6q-23 33 -23 43z" />
    <glyph glyph-name="o" unicode="o" horiz-adv-x="686" 
d="M156 98q-6 11 -10.5 39t-4.5 43q0 13 17 79.5t22 72.5q7 7 13 16q1 1 2.5 5.5t3.5 8.5l2 5l10 10q6 8 27 29q12 12 29 28t18 17q20 17 37 28q10 8 38 27h9q4 0 6 2q6 0 10 2l8 4q0 4 4 4l4 4q8 4 25 4h25h28q9 0 13 -2q2 -2 7 -5t7 -5q28 -14 43 -14q11 0 36 -43t25 -62
v-4l2 -2q8 -12 14.5 -58.5t6.5 -74.5q0 -49 -33 -145q-4 -14 -54.5 -67t-68.5 -64q-3 0 -6 -3q-8 0 -10 -2q-20 -4 -31 -12q-8 -4 -35 -4h-12q-4 -4 -8 -4q-8 -4 -13 -4l-4 4q-2 0 -6 2t-6 2q-7 0 -20 -2t-19 -2q-35 0 -85 44t-58 81v4l-4 2q-4 8 -4 12zM225 203
q0 -16 15 -76v-4l4 -2q7 -5 14 -19q8 -14 14 -28q22 -37 68 -37q14 0 18 4q3 -1 4.5 -2t2.5 -1.5t2 -0.5l2 -2h12q33 0 65 14t50 39q1 1 2 4t2 4q0 4 2 6q0 2 2 4q20 24 35 60q1 1 5.5 13t4.5 14q2 6 2 18v14v4l-2 4v7q-2 4 -2 14q0 6 1 15t1 12q0 26 -6 47q0 2 -15 41
q-28 82 -90 82q-46 0 -120 -64t-74 -108q0 -1 1 -3.5t1 -3.5q0 -6 -2 -10q-4 -8 -6 -14q-13 -22 -13 -45z" />
    <glyph glyph-name="p" unicode="p" horiz-adv-x="600" 
d="M29 -811q0 9 4 29q33 139 33 258l4 4q0 1 1 3.5t1 4.5q3 12 8 47q0 31 2 45v6q0 4 2 6v46v8q4 8 4 12q10 48 10 90q1 1 2 3t2 3q0 2 1 5t1 5q2 2 2 11v6q-2 0 -2 4q0 13 9 49q3 15 6 27q2 10 2 28q0 4 -1 12.5t-1 12.5v6q4 6 6 8q3 6 10 52q0 10 4 34l8 56v2q0 20 -16 24
q0 47 16 68q8 8 9 10q5 2 8 12q8 20 8 45q0 3 -1 8.5t-1 8.5v14l2 4l-2 2q-1 1 -2.5 4.5t-3.5 6.5q0 6 21 50t28 54q12 12 45 12q17 0 35 6q5 2 15.5 6.5t15.5 6.5q19 6 45 10q36 6 45 8q8 0 20 4q16 4 21 4q51 0 104 -38.5t53 -86.5q0 -3 -1 -10.5t-1 -11.5q0 -8 2 -10
q0 -4 2 -4q-1 -5 -2 -14t-2 -13q-1 -13 -21 -45.5t-32 -44.5q-2 -1 -5 -3t-5 -3q-4 -1 -11 -5l-6 -4q-35 -24 -84 -44.5t-88 -26.5q-50 -13 -100 -13q-2 -1 -6 -2t-6 -2h-6q-2 -2 -4 -2q-17 -9 -17 -32q-2 -12 -2 -35v-4q0 -5 2 -9q0 -6 -4 -26q-1 -4 -3 -12.5t-3 -12.5
l-2 -4l2 -2q0 -17 -8 -45q-4 -16 -4 -22q-4 -16 -4 -25q0 -6 2 -6v-6q-2 -18 -9 -56t-8 -59q-1 -11 -3 -32.5t-3 -33.5q-10 -33 -10 -63q0 -4 2 -4v-4v-6q-1 -1 -2 -3.5t-2 -3.5v-10q0 -2 -2 -4q0 -2 -1 -5.5t-1 -4.5q-7 -41 -17 -132.5t-20 -139.5q-2 -4 -2 -11
q0 -35 -16 -67.5t-48 -32.5q-15 0 -18 12q-6 12 -6 33zM242 170q0 -33 30 -33q47 0 148 36t110 75q5 15 5 18q0 6 -7 27q-14 38 -35 49.5t-61 11.5q-74 0 -133 -24l-16 -8q-11 -4 -17 -13q-6 -8 -6 -22v-15q-5 -8 -11.5 -49.5t-6.5 -52.5z" />
    <glyph glyph-name="q" unicode="q" horiz-adv-x="970" 
d="M133 111q0 28 21 75q2 4 13.5 27.5t22.5 45t11 22.5q30 24 32 26q13 10 23 23q6 6 8 10q9 9 59 41.5t56 32.5q12 0 18 2q8 2 29 10q12 6 23 6q2 0 4 -2h8h8q1 0 3 1t3 1q4 2 10 2q33 0 77.5 -17.5t72.5 -41.5q4 -4 10 -13q1 -1 2 -3t2 -3l-14 -34l-10 -5q-1 -1 -3.5 -3
t-3.5 -3l-8 -8q-4 -11 -8 -65t-6 -68q-1 -14 -4 -28t-7.5 -31t-6.5 -27v-4l2 -4q0 -1 -1 -3t-1 -3q-1 -1 -2.5 -3.5t-2.5 -3.5q0 -6 -2 -8q0 -10 2 -12v-4q0 -13 -6 -25q-1 -3 -3 -8t-3 -8q-4 -8 -4 -16l-2 -9l8 -4q1 0 3 -1t3 -1q4 -4 13 -4q28 0 90 17q7 2 37 11t47 13h4
h6l4 -2q9 0 65 19t62 24l10 10l4 4q4 2 15 2q8 0 26 9q4 2 12.5 6t12.5 6q25 18 41 18q12 0 12 -20q0 -54 -141 -113q-15 -9 -72 -29t-69 -20q-11 0 -11 4q-6 0 -10 -2q-28 -12 -43 -14q-12 0 -33.5 -4.5t-29.5 -10.5q-15 -15 -15 -24q0 -2 1 -5t1 -5q1 -1 2 -4t2 -5
q2 -3 6.5 -10t6.5 -10q6 -8 13.5 -21t8.5 -14l6 -12q0 -6 4 -14q27 -56 39.5 -99t12.5 -96v-74q-21 -53 -25 -57q-68 -90 -147 -90q-28 0 -49.5 10t-34 29t-20.5 38.5t-11.5 48t-4.5 47.5t-1 46q0 15 4 43v4v4q2 18 10 49v6q-1 1 -2 4.5t-2 4.5v6q0 2 2 6l2 2v4q1 2 2 7t2 7
q2 6 2 21q0 33 10 78q4 24 17 80q0 2 5.5 23t6.5 24q0 1 1 4t1 4v6v6q0 1 -1 3t-1 3q0 15 4 47q2 7 7.5 24.5t7.5 27.5q13 44 16.5 65t3.5 60q-4 12 -4 16l-6 16l-10 -12l-29 -29q-4 -4 -12 -13.5t-13 -14.5q-16 -26 -34 -37t-27 -23q-4 -4 -12.5 -12t-12.5 -12
q-30 -34 -53 -45q-6 -3 -18 -11q-30 -10 -64 -10q-31 0 -43 6q-2 1 -14 13q-7 7 -19 16zM494 -434q0 -8 2 -10q0 -7 2 -11q0 -2 1 -6.5t1 -7.5q0 -21 -2 -31l-2 -2l2 -4q4 -16 8 -24q10 -48 57 -48q32 0 62 54q10 23 10 80v14l-2 2q-6 6 -6 10q-6 47 -17 84q-4 20 -15 51.5
t-20 40.5l-4 4q-4 0 -4 5q-6 9 -6 10q-4 12 -18 12q-9 0 -11 -2l-4 -2l-6 -6q-9 -35 -12 -64q0 -1 -2 -25t-4 -36l2 -8q0 -3 -4 -15q0 -1 -1 -4t-1 -4q-1 -2 -2 -6t-2 -6l2 -6q0 -6 -2 -19.5t-2 -19.5zM223 156q-6 -12 -6 -31q0 -16 9.5 -30.5t27.5 -14.5q22 0 61 39
q4 5 12.5 15.5t12.5 15.5q4 4 10.5 11.5t9.5 10.5q3 2 5 2l6 4q30 30 63 78q19 27 51 59l2 2l5 25l-19 14h-4q-50 -10 -74 -18q-6 0 -14 -4q-2 -4 -10 -8q-14 -9 -19 -11q-12 -4 -49.5 -38.5t-46.5 -47.5l-12 -24q-1 -5 -4.5 -13.5t-3.5 -9.5z" />
    <glyph glyph-name="r" unicode="r" horiz-adv-x="536" 
d="M145 -23q-9 0 -15.5 10t-6.5 23t8 53q1 2 4 12.5t4 16.5q2 10 2 31q0 2 2 4q0 4 2 6q3 6 5 8q0 2 1 6t1 5q4 20 4 30q0 19 2 27q0 4 6 22q2 10 2 31v25v6q16 45 16 108v5l-2 2q0 6 4 18q1 2 5 11t6 12q1 4 4 12t4 12q10 20 12 23q11 18 33 18q12 0 22.5 -6.5t10.5 -13.5
q0 -16 -11 -66q-1 -8 -14 -72v-2l16 -37l11 13q13 17 24 22q4 4 14.5 11t14.5 10q2 4 6 8t6 8l10 10q7 0 21 7q5 3 16.5 9t16.5 9q20 12 30 20q60 36 62 37q51 17 65 17q21 0 31 -4q12 -6 12 -19q0 -27 -37 -45q-12 -5 -35.5 -12t-35.5 -12q-7 -4 -21.5 -12.5t-21.5 -12.5
q-16 -9 -41 -27q-5 -3 -22.5 -14.5t-26 -17.5t-22 -16.5t-24 -20t-18.5 -19.5q-26 -26 -53 -71t-27 -74v-10q-2 -14 -6 -25v-4l-4 -4q-3 -7 -6 -17q-4 -8 -4 -22v-19l-4 -4l-8 -8q-9 -12 -15 -18q-1 -1 -2 -3t-2 -3q-6 -6 -8 -7h-23z" />
    <glyph glyph-name="s" unicode="s" horiz-adv-x="626" 
d="M104 -18v6q1 4 18 13t23 9q10 0 25 -6q2 0 6 -1t6 -1q6 -2 15 -2q5 0 15 2t15 2q11 0 33 -2t33 -2q19 0 64.5 16.5t56.5 30.5l2 4v10q0 9 2 13v8q2 2 2 8q0 45 -31 64q-3 4 -10.5 7.5t-9.5 4.5q-9 6 -11 8q-6 9 -24 21q-4 0 -4 2h-4l-4 4l-7 6q-27 5 -74.5 50t-47.5 69
q0 23 13 52t30 46q6 6 19 17.5t19 17.5q29 24 41 39q10 5 13 6q3 2 6 3t6.5 1.5t5.5 1.5q16 8 19 12q2 0 6 4q0 2 4 6q4 2 25 7.5t28 5.5h4l2 2q28 24 111 24q14 0 46 -19t32 -28q-2 -2 -2 -4q0 -3 -3 -6q0 -6 -2 -8q0 -13 -4.5 -17.5t-17.5 -7.5q-16 -8 -35 -8l-8 4
q-4 0 -12 4q-5 1 -12 4t-9 4l-2 3h-14h-8q-6 -3 -11 -3q-4 -2 -12 -2h-4l-2 -2q-6 -5 -33 -14q-3 -1 -9 -2t-9 -2q-22 -6 -37 -21q-8 -8 -12 -10q-1 -1 -7 -4q-1 0 -4 -1t-4 -1q-10 -7 -12 -10q-1 -1 -3 -4t-3 -4t-4.5 -5t-5.5 -6q-10 -3 -17 -10q-24 -19 -24 -39
q0 -28 36 -51q7 -4 22.5 -11t22.5 -11q9 -9 29 -21q5 -3 16.5 -9t16.5 -9q44 -24 60 -58t16 -90l-2 -4l2 -4q1 0 4 -6q0 -2 -4 -10q-1 -4 -4.5 -9t-3.5 -6q-3 -9 -3 -14v-6q-8 -33 -53 -57.5t-90 -34.5q-7 -1 -20 -6.5t-19 -6.5q-10 -2 -31 -2q-10 -2 -32 -2h-8q-5 0 -7 -2
q-2 0 -4.5 -1t-3.5 -1q-117 0 -117 62z" />
    <glyph glyph-name="t" unicode="t" horiz-adv-x="745" 
d="M147 563q0 1 3 4q0 2 4 6l4 5q18 38 67 45q7 1 21.5 3t21.5 3q32 5 45 12q19 8 23 29q1 5 3 16t3 16q0 9 6 21q12 28 12 53q0 17 2 25q1 1 3 3.5t4 4.5q0 2 4 6q0 4 4 8v8q0 22 12 52q8 16 10 26q7 14 7 25q2 2 14 10l12 6l8 4q7 0 21 -10.5t14 -15.5l-2 -4q-4 -8 -4 -11
q-4 -20 -2 -30v-27q0 -2 -2 -4q-8 -8 -8 -14q-2 -4 -2 -11v-8v-6l-2 -4q-1 -5 -4.5 -13t-4.5 -10q-5 -9 -8 -26q0 -17 -2 -27q0 -14 -2 -18q-3 -9 -6 -15q-4 -8 -4 -16l-2 -4l14 -18h15q12 0 24 8q1 0 4 1t4 1q2 2 6 2t13 -2t14 -2q1 0 33 4q14 0 20 2h6q7 0 7 2q10 4 26 8
q12 4 25 4q8 0 20 -6h17q3 -1 8.5 -2t7.5 -2q12 -2 12 -12t-23 -32t-34 -22h-10q-22 0 -72 -8q-12 -2 -34.5 -7t-33.5 -7q-6 -1 -19 -2t-19 -2q-37 -5 -43 -8q-19 -5 -19 -29q-1 -4 -2 -13.5t-2 -13.5q0 -2 -4 -14l-6 -12q-8 -20 -8 -41l-2 -4q-1 -1 -2.5 -2t-2.5 -2
q0 -1 -1 -3.5t-1 -3.5q-8 -13 -8 -34q-1 -5 -2 -15.5t-2 -15.5q0 -4 -4 -12q-25 -77 -25 -150q2 -2 2 -8q3 -9 3 -17l-5 -10q-8 -12 -8 -30q0 -4 1 -13.5t1 -13.5q1 -5 3 -14.5t3 -14.5q9 -27 9 -43l-2 -4l4 -4q4 -6 14 -16q2 -3 16 -17q20 -16 43 -16q47 0 155 86t108 131
q-2 4 -2 12q0 12 14.5 24.5t28.5 12.5q4 -4 6 -4q17 -13 18 -14q0 -1 1 -2t1 -2v-13q1 -1 2.5 -9t3.5 -13q0 -5 -4 -13q-8 -12 -10 -18q-2 -3 -5 -12.5t-5 -12.5q-1 -6 -11 -20q-56 -71 -155 -141t-170 -70q-74 0 -111 66q-10 10 -26 38q0 21 -4 33q0 7 -5 17q-6 37 -6 112
q1 4 1.5 8.5t1 7.5t1.5 5q0 1 1 3t1 3t1 3.5t1 4.5q0 3 1.5 10t1.5 11q0 3 1 10t1 10v12q8 29 10 41q6 18 6 43q0 9 8 33q1 5 4 12t4 9q1 4 3 11t3 11v14q-2 2 -2 9q3 2 13 22q0 2 1 7t1 7q1 1 3 4.5t3 4.5l2 4v6v4q0 1 1 3t1 3q4 12 4 21v16l-6 2q-4 0 -6 2h-4h-6
q-17 0 -27 -2q-4 -1 -12.5 -3t-12.5 -3q-27 -10 -45 -10h-18q-6 4 -10 12q-2 2 -5 5.5t-4 4.5z" />
    <glyph glyph-name="u" unicode="u" horiz-adv-x="823" 
d="M139 152v10q0 2 2 4q0 6 4 10q7 16 7 41q1 6 2 18.5t2 18.5q1 4 2 11.5t2 10.5q4 16 4 27l4 4l6 6q0 2 4 6q6 18 15 33q6 15 14 27q21 28 49 37l4 2h6q1 -1 4 -3t4 -3q8 -4 11 -4q2 -2 4 -2v-11q0 -20 -4 -28q-1 -2 -4.5 -5.5t-4.5 -5.5q-7 -14 -8 -18
q-14 -30 -28.5 -79.5t-14.5 -74.5q0 -4 2 -4v-4q-1 -3 -2 -7.5t-2 -6.5q-4 -12 -4 -23q0 -29 18 -53.5t46 -24.5q23 0 46 14t35.5 27t32.5 37q13 13 29 33l4 4l4 4q6 6 8 10q13 13 13 25q6 12 12 21l4 4l4 4q4 4 12 16q11 32 40.5 77.5t52.5 45.5q18 0 29.5 -10t11.5 -27
q0 -3 -1.5 -7.5t-1.5 -6.5t-1 -7.5t-1 -7.5q-8 -49 -8 -110q0 -73 66 -94q5 -3 35 -13q14 -24 53 -24q4 0 12 4t43 4h43q2 0 7 -8t5 -13q0 -9 -23.5 -32.5t-35.5 -26.5q-6 -2 -20 -2q-8 2 -25 2q-8 0 -16 -4q-1 -1 -3.5 -2t-3.5 -2q-15 0 -47 8q-38 5 -73 33q-2 2 -7.5 7
t-7.5 7l-18 12q-6 3 -10 3h-4v2l2 4l-5 2q-30 35 -53 86l-6 14l-33 -35v-4q0 -2 -1 -4.5t-1 -3.5q-2 -4 -4 -6q-15 -6 -22 -21q-2 -2 -2 -6q-4 -6 -19 -16q-4 -4 -16 -12q-22 -13 -31 -27q-1 0 -3 -2t-3 -2q0 -1 -1 -3t-1 -3l-2 -4q-5 -5 -10 -5t-7 -2q-6 0 -8 -2
q-6 0 -10 -4q-4 -2 -8 -6t-8 -6q-2 -2 -4 -2q-3 -1 -34.5 -7.5t-33.5 -6.5q-22 0 -64 18q-6 9 -14 12q-2 0 -4 2h-4q-5 5 -14 36.5t-9 43.5v4l-2 2q-1 1 -1.5 3.5t-1 6t-1.5 5.5q0 4 1 11t1 11q0 9 -2 13z" />
    <glyph glyph-name="v" unicode="v" horiz-adv-x="632" 
d="M98 479q0 6 9.5 20t15.5 15q8 0 12 2h15q31 0 62.5 -65t33.5 -101v-6l2 -2q8 -8 8 -12v-4l2 -2q7 -11 29.5 -83t27.5 -96v-6l4 -2q1 0 3.5 -1t3.5 -1q4 -4 10 -4q8 0 16 8q3 6 10 13q13 17 15 24q2 3 16 31q7 14 17 29q82 111 125 188q27 34 38 57q5 5 5 8l4 7l4 4l8 8
q12 12 16 18q3 9 11 17q6 8 24 8q13 0 22 -8.5t9 -22.5q-1 -2 -29 -53q-6 -11 -13.5 -23t-13.5 -21.5t-8 -12.5q-13 -25 -77 -121q-15 -24 -33 -52.5t-27.5 -43t-9.5 -15.5q-19 -17 -43 -53q-4 -7 -16 -26.5t-19 -28.5q-38 -58 -86 -58q-36 0 -49 23q-7 15 -10 28
q-2 4 -11 37q-4 4 -4 21v12q-1 2 -2 6t-2 6q0 1 -1 3.5t-1 3.5l-4 4l-2 4q-4 12 -4 14q0 3 -1 7.5t-1 6.5q-5 25 -10 33q-9 15 -19 35q0 25 -8 33q-4 4 -4 8l-4 4q-2 4 -2 10q-2 6 -2 15q-6 25 -10 30q-2 4 -7 9l-8 4q0 6 2 8q0 6 2 8v4l-39 68q2 2 2 8t-4 14z" />
    <glyph glyph-name="w" unicode="w" horiz-adv-x="1007" 
d="M133 438q0 1 -1 3t-1 3q6 9 10 11l4 4q5 22 39 22q23 -12 31 -22v-6q1 -4 2 -12t2 -11q0 -16 2 -24q0 -34 17 -80q6 -15 6 -25q0 -8 -2 -23t-2 -22q0 -26 5 -80t5 -80q0 -27 24 -35l7 -2l4 4q14 11 46.5 64.5t41.5 75.5l6 18q3 9 6 15q4 8 47 75q16 22 31 51q28 50 29 52
l6 6q13 13 16 22q16 27 21 33q13 23 28 32.5t43 12.5l8 -8q32 -28 41 -63q7 -20 19 -78q2 -8 7.5 -23.5t6.5 -17.5q10 -22 12 -37q1 -7 3.5 -21.5t3.5 -21.5q0 -20 10 -43q0 -2 1 -5t1 -5q0 -1 1 -4.5t1 -4.5q3 -13 10 -24l4 -8q2 -2 2 -4q1 -4 2 -12.5t2 -12.5l2 -16l13 8
q32 19 53 67q2 2 2 9q2 4 2 10q2 4 2 8q12 18 14 20q1 1 4 5t5 6q1 2 3 5t3 5q6 6 6 12q4 8 4 10q11 16 12 17l2 2v2q2 4 2 10v4q1 1 3.5 2t3.5 2q3 6 6 9l6 6l18 30q3 10 17 33q18 42 34 60l3 4v4q0 10 2 12l4 4q3 1 10 12q6 12 6 19q1 4 14 22.5t15 20.5q18 6 41 6l8 -4
l6 -6l-2 -12l2 -5q0 -1 1 -2t1 -2v-2l-8 -28l-4 -4q-2 -3 -4 -3q-1 -2 -4.5 -5t-4.5 -5q-5 -7 -10 -26q0 -1 -1 -5t-1 -6q-1 -1 -2 -4t-2 -4q-7 -16 -29 -51q0 -2 -2 -4l-4 -4q-3 -2 -12 -15q-17 -38 -47 -86q-37 -71 -45 -94q-11 -22 -21 -37q-12 -21 -24 -39
q-15 -45 -29 -59l-45 -63q-2 -2 -6 -2q-2 -1 -6 -3.5t-6 -3.5q-10 -2 -27 -2q-7 0 -22.5 15t-20.5 26q-10 30 -20 70q-7 43 -15 74l-6 18q-6 12 -8 14q-7 18 -10 29q-3 18 -10.5 50t-10.5 46v6l-4 3v6v4l2 4l-2 4q-8 13 -8 20q-4 4 -4 23v12l-13 -4q-2 0 -5.5 -1t-4.5 -1
q-4 -2 -10 -8q-11 -13 -51 -90q-4 -8 -13.5 -25.5t-13.5 -25.5q-12 -24 -24 -39l-2 -4v-2q-1 -10 -7 -21q-1 -1 -4 -3t-4 -3q-8 -8 -12 -14q-20 -35 -25 -45q-1 -2 -9.5 -18.5t-14.5 -24.5q0 -6 -11 -17q-8 -12 -12 -20l-4 -13v-4q-6 -10 -32 -46.5t-31 -41.5
q-11 -11 -21 -16l-24 -12q-8 -4 -17 -7q-4 -4 -10 -4q-5 0 -14 9q-8 5 -15 16q-5 31 -8 41q-12 58 -12 115q0 8 2 25.5t2 25.5q0 44 -8 84l-4 8q0 1 -1 3t-1 3q-2 2 -2 4q0 5 4 17q0 2 1 6t1 6t1 6t1 6q0 13 -4 33q0 4 -3 14t-4 15q-10 41 -10 100q0 8 -2 10q0 4 -2 6z" />
    <glyph glyph-name="x" unicode="x" horiz-adv-x="675" 
d="M57 -115q-14 0 -14 21q0 18 34 65.5t60 77.5q4 4 8 6q5 5 11 8q2 2 6 5.5t6 5.5q6 6 8 10q6 8 16 19.5t11 13.5q40 34 53 55q9 12 18 27q32 37 41 43q2 2 7.5 5t7.5 5q12 4 12 22q0 7 -4 15q-7 13 -29 35t-37 34q-17 17 -18 19q-4 4 -6 8l-4 8q-12 18 -15 21q-8 6 -28 22
l-23 23v6v14v13q2 6 19 18t26 12q21 0 53 -37q3 -4 9 -10.5t8 -9.5q12 -12 18 -16q3 -2 8.5 -5.5t8.5 -5.5q2 -3 6 -8t6 -8l4 -2h4h6q0 -1 1 -4t1 -4q0 -5 2 -9q0 -2 4 -10q3 -3 9.5 -10t9.5 -10q3 -2 18 -17l2 -2l19 -4l4 4q3 3 13 11t14 12q17 17 26 29q0 1 1 3t1 3
q2 2 2 4q2 2 2 6q6 7 25 22q2 1 5 4.5t5 4.5q57 63 68 73q2 0 6 4q1 1 3 3.5t3 3.5q3 2 8 6t8 6q72 82 117 82q8 0 15.5 -8t7.5 -17q0 -18 -12.5 -34.5t-30.5 -24.5l-6 -4q-7 -14 -7 -15l-8 -4q-8 -4 -14 -8q-18 -16 -35 -39q-3 -3 -8 -9t-8 -9q-4 -6 -17 -19l-10 -10
q-4 -2 -10 -8q-21 -18 -39 -39q-3 -3 -9.5 -9t-9.5 -9t-9 -9.5t-9 -9.5l-27 -27q-14 -14 -22 -30l-4 -8l2 -5q2 -22 31 -55l18 -24q13 -17 14 -21q7 -10 15 -29q4 -10 16 -30q25 -28 41 -60q2 -2 4 -8q0 -27 -15 -43t-40 -16q-7 0 -14 9.5t-9 16.5q-1 2 -3.5 5.5t-4 5.5
t-2.5 4q-1 1 -3 2t-3 2q-1 0 -2 1t-2 1q-8 8 -10 16v6l-7 2q-7 3 -12 17q-1 3 -3 8t-3 8q-4 8 -10 17l-6 2h2v2q-4 0 -7 6q-4 4 -16 24q-3 4 -9 13.5t-9 13.5q-11 15 -17 18l-2 5h-12q-2 0 -16 -7q-2 -2 -6.5 -6t-6.5 -6q-8 -6 -30 -33q-7 -7 -31 -37q-19 -19 -21 -20
q-2 -2 -5.5 -4.5t-4.5 -3.5l-12 -12q-1 -2 -3 -6.5t-3 -6.5l-2 -6l-4 -4q-11 -18 -27 -29q-16 -16 -31 -28q-42 -42 -57 -78q-4 -4 -6 -4q-3 -2 -10.5 -5.5t-10.5 -4.5q-36 -9 -37 -9z" />
    <glyph glyph-name="y" unicode="y" horiz-adv-x="798" 
d="M-102 -532q0 2 -4 14v4q2 2 2 4q0 72 57 72q7 -15 10 -25q1 -3 3 -10t3 -10q0 -7 2 -9q30 -52 127.5 -96.5t161.5 -44.5q9 0 47 12.5t45 18.5q8 4 10 8q2 1 9 8q12 12 14 13q8 5 16 8q8 4 17 10q51 51 84 119q1 3 4.5 8t3.5 6q33 39 43 96q0 11 2 15v8q3 12 8 22
q11 23 12 25q2 4 3 9.5l2 11t2 8.5q0 4 1 13t1 13q2 11 9 33.5t9 30.5v18v15q0 10 2 16q0 6 4 18v2l-2 5v24q2 4 6 16q9 74 9 97q0 10 -3.5 29.5t-3.5 29.5q0 13 7 31v4l-21 35l-8 -4q-23 -11 -55 -62q-5 -10 -23 -37q-14 -18 -25 -26q-4 -4 -8 -4q-1 -1 -3 -2t-3 -2
q-2 -3 -4 -5l-12 -12l-4 -4l-2 -4q-28 -33 -74 -51.5t-92 -18.5l-6 4q-59 4 -79 44t-24 118q0 8 -2 23t-2 22q25 113 27 119q3 6 23.5 19.5t27.5 13.5q24 0 24 -35q0 -16 -6 -31q-2 -8 -6 -20q-2 -6 -2 -21v-6q0 -2 2 -4v-4q-3 -9 -4 -10q-6 -18 -6 -27q0 -14 2 -20
q1 -3 3 -8.5t3 -8.5q1 -5 3.5 -14.5t2.5 -13.5q0 -3 -2 -5q0 -24 14 -42.5t37 -18.5q5 0 36.5 11.5t39.5 15.5q29 17 64 65q10 12 21 26t21 28t15 20q6 6 10 14q0 19 49.5 73t67.5 54h4q10 -4 12 -4h9q4 -2 8 -8q9 -18 10 -21q18 -45 18 -143v-6l-2 -4v-4q0 -1 1 -3.5
t1 -4.5v-9l-4 -8l-2 -4l2 -4q2 -4 2 -14q0 -8 -1 -24.5t-1 -24.5q0 -19 -2 -29q-4 -20 -4 -31q-8 -42 -4 -67q0 -5 4 -13q0 -2 2 -4q0 -8 -6 -14q-6 -36 -6 -39q0 -2 -1 -6t-1 -6q-4 -16 -4 -29q0 -4 -2 -6q-5 -15 -6 -17q-2 -8 -2 -24q0 -21 -13.5 -61.5t-25.5 -59.5
q-4 -8 -4 -14q-6 -36 -11 -41l-4 -4q-3 -3 -8 -27q0 -4 -2 -8q-2 -8 -64.5 -89.5t-68.5 -82.5q-3 -2 -13 -9t-16 -12q-15 -15 -45.5 -37t-42.5 -22q-14 0 -22 -8q-8 -4 -9 -4h-32l-4 -2l-7 -5h-14q-10 0 -30 -3t-29 -3q-3 0 -35 9q-21 10 -35 14q-18 6 -27 6q-4 1 -11.5 2
t-10.5 2q-48 24 -62 35q-8 8 -14 10q-10 10 -16 12l-10 5h-7q-2 2 -6 2l-4 2l-8 8q-2 4 -6 8q-2 4 -8 10q-3 0 -7 4q-2 0 -4 2q-1 0 -3 1t-3 1l-2 3q0 2 -2 4q0 4 -2 6q0 1 -1 3t-1 3l-6 6q-4 4 -4 6l-6 6q-2 4 -2 9z" />
    <glyph glyph-name="z" unicode="z" horiz-adv-x="794" 
d="M172 -37q0 30 25 78q1 2 8.5 16.5t11.5 22.5q10 14 21 41q0 3 8 8l6 6q5 3 8 8q7 7 14 21q3 9 14 28t17 25q0 2 4 2q4 4 6 4q19 14 33 41q5 5 17 29q1 2 4 7t4 7q2 2 3 3.5t1.5 2t1.5 0.5l6 6q7 7 8 9q9 12 15 24q0 5 4 13q1 1 2 4t2 4q38 50 43 57q25 36 28 72v12h-32
q-9 0 -17 -4q-1 0 -2 -1t-2 -1t-3 -1t-3 -1q-12 -2 -74 -12q-30 -5 -45 -5q-34 -4 -45 -8q-16 -4 -22 -8q-16 -4 -21 -4q-12 0 -20 7t-8 16q0 30 38 45q14 9 35 12q5 2 11.5 3.5t12.5 2.5t9 2t10 3t10 3q2 1 7.5 2t7.5 2h16q8 0 10 2q7 0 11 4q11 7 24 7q10 2 29 2q7 0 37 6
q6 2 17 5t16 5h8h28q2 1 6 2t5 2q16 4 20 4q14 0 33.5 -13.5t19.5 -23.5q0 -3 -12 -39q-3 -6 -7.5 -15.5t-7.5 -16t-5 -9.5l-4 -8q-9 -9 -11 -12q-10 -10 -22 -29t-15 -32q-6 -12 -12 -21q-14 -16 -56 -74t-48 -71q-12 -30 -41 -66q-8 -10 -24.5 -29.5t-24.5 -29.5
q-11 -14 -27 -41q-2 -3 -10 -18.5t-13 -22.5l-2 -4l7 -29h28q6 0 8 2q7 0 9 2q1 0 3 1t3 1h4q3 0 10.5 -1t11.5 -1q19 0 39 8q15 5 35 13q6 2 19 2q40 0 110 16q19 3 54.5 11.5t52.5 11.5q16 2 53 14q4 1 13 3t13 3q28 6 29 6q18 6 35 6q10 0 16 -6l4 -2h13q4 0 6 -4t2 -16
q0 -18 -19 -31q-3 -2 -6 -3.5l-7 -3.5t-7 -3t-10 -3t-10 -3q-4 0 -9 -5q-1 0 -3 -1t-3 -1l-4 -4l-4 2l-4 2h-10q-5 0 -33.5 -6t-34.5 -8q-8 -4 -10 -6l-4 -2l-39 -4q-8 0 -12 -2q-3 0 -11 -4q-3 -1 -11.5 -2t-12.5 -2h-15q-2 -1 -8 -2.5t-8 -2.5q-33 -7 -63 -20
q-20 -4 -29 -4q-10 0 -14 -2q-31 -12 -89 -19q-1 0 -92 -6q-2 0 -4.5 -1t-3.5 -1l-8 -4q-2 -2 -4 -2q-8 0 -12 2q-3 1 -8.5 4t-8.5 4l-18 6q-29 8 -29 29z" />
    <glyph glyph-name="braceleft" unicode="{" horiz-adv-x="694" 
d="M74 -264q0 94 22 153q3 5 10 19q7 11 7 26l2 5q6 12 6 18q1 2 2 5.5t2 4.5q7 7 10 13q29 58 82 129q3 4 100 124q82 111 82 138q0 18 -11.5 28.5t-29.5 10.5h-16q-1 0 -3.5 1t-4.5 1q-10 5 -19 8q-2 1 -8 4.5t-8 5.5q-4 0 -4 2q0 27 7.5 40t31.5 28q10 6 33.5 19t31.5 18
q40 29 71.5 67.5t31.5 75.5q0 1 -1 3t-1 3q0 2 -2 4q0 9 2 25t2 24q0 28 -43 129q-10 15 -26.5 53t-16.5 50q0 10 4 30t4 33v4l-2 4q1 38 48 85t93 73q9 6 21 10q4 1 24 11q8 3 24.5 11t24.5 11q24 12 50 12q7 0 21.5 -2t21.5 -2q5 0 15 2t15 2q8 0 18.5 -11.5t10.5 -20.5
q0 -21 -14 -31q-3 -2 -9.5 -5t-9.5 -5q-3 -1 -18 -11h-4q-1 0 -2.5 1l-3 2t-3.5 2q-18 6 -24 6q-43 0 -111 -35.5t-98 -71.5q-12 -14 -12 -51q0 -49 55 -150q3 -9 8 -14q1 -4 4 -8q1 -3 2 -4q3 -11 11 -56.5t8 -54.5q0 -41 -23 -108q-1 -2 -3 -9.5t-3 -9.5q0 -6 -2 -8l-2 -4
q-6 -8 -19 -22.5t-14 -16.5q-6 -6 -18 -19t-17 -18q-4 0 -10 -6q-8 -4 -14 -10q-6 -4 -14 -12q-11 -11 -9 -21q1 -6 11 -20q2 -2 6 -7.5t6 -7.5q8 -12 10 -14q2 -4 2 -10q-2 -13 4 -25q0 -4 2 -6q-2 -4 -4 -6q0 -1 -1 -3t-1 -3q-29 -88 -137 -232q-36 -43 -64 -80
q-2 -3 -7 -9t-7 -9q-31 -31 -63.5 -105.5t-32.5 -115.5q0 -7 -3 -20.5t-3 -20.5q0 -5 4 -21q53 -103 164 -149q3 -1 7 -2t9 -2t8 -2q21 -4 33 -9q35 -12 35 -18q0 -24 -33 -41q-30 -12 -61 -12q-15 0 -59.5 17.5t-53.5 27.5l-2 4h-4q-17 3 -52.5 42.5t-46.5 61.5
q-3 4 -8 14.5t-8 14.5l-4 6q-12 12 -12 25z" />
    <glyph glyph-name="bar" unicode="|" horiz-adv-x="485" 
d="M168 -205q-12 38 -12 72q0 41 14 102q7 29 10 51q6 27 6 56q0 4 -2 4v4l11 14q1 9 4 30.5t4 33.5q5 33 20 92.5t19 77.5q0 1 20 102q14 70 23 90q5 8 10 33q1 5 3 14.5t3 14.5q3 10 11.5 30.5t11.5 30.5q4 8 4 10q4 8 4 15q0 4 -2 8v4q0 1 -1 2t-1 2q1 2 2 7t2 7
q0 1 3.5 13t4.5 18q11 36 22 101q0 17 7 34q0 1 1 2t1 2l2 5q1 2 3 7t3 7q1 4 5 29.5t9 40.5q12 40 31 40l4 -4q20 -5 23 -6q9 -3 14 -8q12 -9 12 -33q0 -56 -17.5 -137.5t-39.5 -146.5q-3 -9 -8 -39q-5 -37 -6 -39q0 -8 -7 -19q-2 -6 -10 -18q-16 -37 -16 -86
q-4 -16 -4 -37q-3 -22 -7 -35q-16 -27 -20 -45q-2 -9 -4 -28.5t-4 -28.5q-2 -7 -23 -74q-15 -62 -16 -78q-7 -53 -10 -67q-6 -43 -19 -56l-2 -2v-4q-4 -16 -4 -26q0 -15 4 -19v-6q0 -1 1 -2t1 -2q-2 -2 -2 -6q0 -2 -4 -10q-1 -5 -3.5 -13t-2.5 -10q-18 -67 -18 -115
q0 -21 -8 -34t-21 -13q-23 0 -39 41z" />
    <glyph glyph-name="braceright" unicode="}" horiz-adv-x="544" 
d="M117 -377q-25 0 -43.5 12.5t-18.5 34.5t11.5 28.5t35.5 6.5q5 0 15.5 -1t15.5 -1q11 0 31 8q4 2 12 6.5t12 6.5q152 72 152 151q0 4 -2 4v2q0 5 1 15.5t1 15.5q0 56 -55 168q-4 12 -6 16q-1 2 -3 4q-51 76 -51 146q0 78 32 145t91 111l4 2v4q0 4 2 4v6v8q-2 0 -2 4v7
l-6 2q-74 38 -74 118q0 30 15 60q4 8 15 24.5t17 28.5q1 2 11 23q4 10 16 22l6 6q2 3 7.5 8.5t7.5 8.5t7 10t7 10q2 4 6 11.5t6 11.5q20 35 25 41l8 8l6 6l6 6q15 21 33 72.5t18 77.5q0 35 -21 64.5t-54 29.5q-2 0 -6.5 -1t-6.5 -1q-1 0 -4.5 -1t-5.5 -1q-6 -2 -14 -2l-8 8
q-2 2 -5 4.5t-4 3.5q0 8 2 14q0 1 1.5 4.5t1.5 4.5v8q15 22 29.5 29.5t39.5 7.5q70 0 102.5 -51.5t32.5 -125.5q0 -6 -0.5 -11t-0.5 -7t-0.5 -3.5t-0.5 -2.5q-1 -3 -5 -10.5t-7 -14.5q-18 -55 -43 -104q-16 -23 -29 -45q-10 -19 -28 -45q-20 -20 -35 -41q-51 -59 -66 -105
q-6 -18 -6 -22q0 -10 10 -25q2 -3 6.5 -9t6.5 -9q24 -31 47 -49q4 -2 11 -6.5t11 -6.5q24 -14 31 -32q2 -5 4 -9v-4q0 -3 -6 -12l-20 -20q-11 -10 -29 -23t-19 -14q-7 -5 -12 -15q-4 -4 -4 -8q-4 0 -4 -4l-4 -4q-1 0 -3 -1t-3 -1l-6 -6q-5 0 -9 -4q-49 -46 -49 -160
q0 -12 -2 -18v-5l2 -4q5 -11 25.5 -43.5t29.5 -48.5q37 -68 37 -88v-4l4 -4q6 -6 11 -21l4 -20t4 -23q10 -52 10 -77q0 -14 -12 -50q-17 -35 -21 -51l-10 -10q-11 -22 -59 -70q-19 -6 -29 -14q-5 -3 -14.5 -9t-14.5 -9q-102 -62 -155 -62z" />
    <glyph glyph-name="asciitilde" unicode="~" horiz-adv-x="815" 
d="M244 487q-3 0 -11 8t-8 11q0 28 23 51q3 2 26 16q4 3 13.5 8.5t13.5 8.5q11 5 25 16q2 -2 4 -2h4h6q6 0 10 2h17q10 0 22 4q1 1 3 2t3 2q10 -5 11 -6q4 -2 14 -2t30.5 -12.5t28.5 -22.5l2 -4h2q10 -3 25 -18q4 -6 13.5 -18.5t13.5 -18.5q11 -17 28 -37q17 -17 35 -22
q20 -4 33 -4q15 -3 31 -3q59 0 102 54q16 24 22 32q13 13 19 13l4 -4q12 -24 12 -56q-1 -1 -2 -3t-2 -3l-6 -10q-12 -25 -14 -27q-13 -22 -74.5 -45.5t-93.5 -23.5q-23 0 -41 6q-55 5 -74 29l-12 18q-5 10 -15 20q-1 2 -4 5.5t-4 5.5q-6 2 -18 14q-2 4 -4 4q0 6 -2 6
q0 7 -6 13q-11 15 -32.5 30t-39.5 15q-6 0 -10 -4q-2 0 -5 -3q-2 -1 -40 -6q-10 -2 -25 -10q-12 -8 -18 -14q-23 -15 -35 -15z" />
    <glyph glyph-name="asciitilde" unicode="&#xe904;" horiz-adv-x="815" 
d="M244 487q-3 0 -11 8t-8 11q0 28 23 51q3 2 26 16q4 3 13.5 8.5t13.5 8.5q11 5 25 16q2 -2 4 -2h4h6q6 0 10 2h17q10 0 22 4q1 1 3 2t3 2q10 -5 11 -6q4 -2 14 -2t30.5 -12.5t28.5 -22.5l2 -4h2q10 -3 25 -18q4 -6 13.5 -18.5t13.5 -18.5q11 -17 28 -37q17 -17 35 -22
q20 -4 33 -4q15 -3 31 -3q59 0 102 54q16 24 22 32q13 13 19 13l4 -4q12 -24 12 -56q-1 -1 -2 -3t-2 -3l-6 -10q-12 -25 -14 -27q-13 -22 -74.5 -45.5t-93.5 -23.5q-23 0 -41 6q-55 5 -74 29l-12 18q-5 10 -15 20q-1 2 -4 5.5t-4 5.5q-6 2 -18 14q-2 4 -4 4q0 6 -2 6
q0 7 -6 13q-11 15 -32.5 30t-39.5 15q-6 0 -10 -4q-2 0 -5 -3q-2 -1 -40 -6q-10 -2 -25 -10q-12 -8 -18 -14q-23 -15 -35 -15z" />
    <glyph glyph-name="uni007F" horiz-adv-x="770" 
 />
    <glyph glyph-name="uni00A0" unicode="&#xa0;" horiz-adv-x="581" 
 />
    <glyph glyph-name="exclamdown" unicode="&#xa1;" horiz-adv-x="348" 
d="M119 68q0 14 14 61q1 7 19 68q1 2 2.5 3.5t1.5 2.5l4 4q0 2 4 6q1 4 2 12.5t2 12.5v18q2 8 10 33q2 5 6 16.5t6 16.5q1 2 6 13.5t7 18.5q1 2 3 9.5t3 9.5q2 6 2 16v8v6q-2 0 -2 5t23.5 77.5t29.5 83.5q4 12 4 37v15q0 2 1 6t1 6q1 1 2 3t2 3q1 2 3.5 5t3.5 5q6 12 6 29
v24q0 17 16 49.5t25 32.5q10 0 16 -2q8 -10 16 -26q0 -1 4.5 -13.5t8.5 -19.5q0 -1 -1 -3t-1 -3l-2 -6l-2 -4v-13q0 -21 -7 -49q-1 -6 -4 -17t-5 -20t-3 -16q0 -1 -1 -3t-1 -3l-2 -6q-6 -6 -6 -19q-2 -4 -2 -10t-2 -8q0 -6 -2 -6l-2 -5q-6 -6 -6 -30q0 -3 -2 -9t-5 -13
t-4 -9q-4 -16 -6 -22q-3 -14 -6 -19q-5 -27 -19.5 -79t-19.5 -77v-4l-4 -4l-4 -8q0 -1 -1 -3.5t-1 -4.5q-4 -12 -4 -19v-14q-4 -24 -23 -72q-12 -31 -22 -63v-8q-18 -29 -54 -29q-7 0 -17.5 9t-10.5 14zM383 1163q-1 0 -11 10.5t-10 12.5q0 11 17.5 41t21.5 30h37l4 -4
q2 -2 2 -4l5 -2h4q4 -4 4 -12q0 -30 -22 -51t-52 -21z" />
    <glyph glyph-name="cent" unicode="&#xa2;" horiz-adv-x="663" 
d="M129 260q0 29 8 66t21 53q0 2 4 6l4 4q4 4 4 6q7 9 14 27l6 12q4 4 7 10q35 51 82 82q2 1 10 9l6 6q8 8 14 10q9 4 19 8t14 6q11 5 35 27l2 2l2 16l-2 2q-4 16 -4 25q0 28 6 55q8 36 8 58v6q-1 1 -2 3t-2 3q0 2 1 3.5t1 2.5l8 12q4 5 8 23q1 4 3.5 13t3.5 13q6 26 12 37
q6 5 20 23q2 2 5 4.5t4 3.5l4 4h4h12q4 0 8 2h6q0 2 4 2q4 -2 7 -8q4 -16 4 -20q0 -13 -4 -21q-1 -2 -4 -8.5t-5 -13.5q-4 -12 -4 -19q-2 -6 -2 -18q-4 -19 -10 -25l-2 -2l-2 -22l2 -5q0 -6 -2 -8q0 -6 -4 -18q-10 -23 -10 -49q0 -7 2 -9q0 -4 2 -6v-4l-2 -2v-4
q8 -20 24 -20q4 0 6 2q3 0 7 2h26q70 0 111 -41q6 -3 18 -15q4 -8 4 -16q0 -12 -16.5 -27.5t-28.5 -15.5q-19 0 -47 14q-34 17 -57 17q-60 0 -124 -37t-102 -90q-19 -22 -38 -54q-21 -42 -21 -65q0 -25 10 -55t29 -39q2 -2 2 -6l3 -5q3 -6 7 -8q41 -39 84.5 -52t106.5 -13
q15 0 46 3t48 3h10h8l4 -4q1 -39 -55.5 -61.5t-103.5 -22.5q-15 0 -30.5 2t-34.5 5.5t-29 4.5q-47 7 -108 58.5t-81 99.5q0 1 -0.5 4.5t-1 9t-0.5 10.5q-2 12 -2 29zM252 -324q-6 0 -22.5 17.5t-16.5 23.5q0 29 6 56l2 6l-4 4q-2 2 -2 4q0 9 4 38.5t4 45.5v18q0 3 1 9.5
t1 9.5q6 12 8 18v13q3 6 11 14l4 4q9 23 45 23q10 0 14 -11q4 -8 4 -28q0 -10 -3 -30t-3 -30q0 -6 2 -8l2 -8v-4v-4v-4q0 -1 -1 -4t-1 -5q-6 -18 -6 -24v-6l2 -7q0 -4 2 -8q0 -3 -1 -7.5t-1 -6.5q-1 -3 -2 -8t-2 -8q-6 -15 -6 -39q0 -17 -14.5 -35.5t-26.5 -18.5z" />
    <glyph glyph-name="sterling" unicode="&#xa3;" horiz-adv-x="972" 
d="M94 -14q0 24 12 38t37 31q3 2 7.5 8t5.5 7q0 2 2 4l2 4q8 8 14 12q7 2 21 16q40 51 90.5 135t54.5 126v6l-4 2q-7 7 -27 12h-24q-9 0 -25 -4q-4 -1 -11 -3t-11 -3q-8 -2 -27 -2h-31q-24 0 -37 8q-18 6 -18 25q0 2 1 4.5t1 3.5q2 2 5.5 4t4.5 4q4 0 8 4q0 1 5 6l4 4
q13 8 76 20.5t85 12.5q6 0 18.5 -1t18.5 -1h23h2l4 2q24 12 29 31q1 5 2 13.5t2 12.5q1 1 2 4.5t2 4.5q1 3 2.5 5.5t2.5 4t1 2.5q8 13 18 47q7 14 9 22q1 3 4 10.5t4 10.5q5 10 16.5 29.5t16.5 29.5q19 32 28 68q0 2 4 6q2 5 13 12q55 55 104 88q14 11 51.5 20t61.5 9
q34 0 75.5 -13t51.5 -34q2 -2 2 -6q0 -13 10 -23q-2 0 -2 -4q-1 -3 -4 -9t-4 -9q-2 -4 -7 -12.5t-6 -10.5q-4 -2 -10 -2q-2 -1 -5.5 -2t-4.5 -2q-2 0 -4.5 -1t-3.5 -1h-6q-3 0 -7 4q-41 41 -94 41q-46 0 -91 -28.5t-56 -75.5l-4 -4l-4 -7q-3 0 -7 -4q-17 -19 -31 -52.5
t-14 -57.5q0 -4 -2 -6q-4 -4 -4 -7q-6 -3 -10 -14q-5 -6 -12.5 -30t-7.5 -33v-6l16 -13h12q9 0 26.5 -2t26.5 -2q17 0 52 6t53 6q8 0 16 -4h6q1 1 5 2t6 2h8q2 0 6 -4q8 -4 25 -4q2 2 4 2q22 0 58.5 -8t49.5 -18q10 -6 10 -13q-8 -8 -14 -10q-18 -9 -65.5 -19t-67.5 -10
q-10 0 -29.5 3.5t-29.5 3.5q-9 0 -13 -2q-6 0 -10 -2h-55q-46 0 -117 -11q-24 -5 -31 -14q-3 -5 -9 -15.5t-9 -15.5q-9 -23 -14 -31q-4 -8 -20.5 -39t-25.5 -49q-31 -60 -47 -73l-6 -8q0 -5 -8 -17q-2 -3 -7 -10t-7 -10q-9 -9 -17 -21q-8 -8 -8 -20v-4l14 -15q5 0 15 -1
t14 -1q17 0 53 4h7l6 4q4 0 8 2q4 0 12 -1t12 -1q5 0 15.5 -0.5t18.5 -0.5t14 1q5 1 15 3.5t15 3.5q20 4 31 4q12 0 38 -1t38 -1q43 0 98 10q68 12 98 16q9 0 25 4q12 4 20 4q5 -2 9 -14q4 -20 4 -29q0 -8 -33.5 -27.5t-48.5 -19.5q-23 0 -55 -12q-4 -2 -15 -2q-24 0 -33 6
l-4 2l-4 -2q-18 -6 -24 -6h-27q-3 0 -27 -6q-16 -4 -22 -4q-15 -2 -84 -2q-6 0 -19 -2t-20 -2q-18 0 -55.5 -3.5t-57.5 -3.5h-8q-2 2 -6 2h-16q-1 -1 -4.5 -2t-4.5 -2q-1 0 -3 -1t-3 -1h-4h-82q-3 0 -8 -1t-8 -1q-3 -1 -8 -2t-8 -2q-20 -4 -29 -4q-4 0 -15.5 11t-11.5 14z
" />
    <glyph glyph-name="yen" unicode="&#xa5;" horiz-adv-x="819" 
d="M111 33q0 12 9.5 27.5t18.5 15.5q78 12 111 12q12 -6 18 -6q4 0 12 1t11 1q4 1 11 3t11 3q28 4 39 4h4l13 10v5l2 4v8v6v4q-2 0 -2 4q0 13 8 49q1 4 3 12.5t3 12.5q4 20 4 29q0 36 -31 36q-14 0 -40.5 -3.5t-34.5 -4.5l-5 -2l-4 -2h-6h-4q-1 0 -3 1t-3 1h-6q-10 0 -14 -4
q-1 0 -3.5 -1t-3.5 -1q-8 -4 -20 -4h-21q-4 0 -12 -1t-12 -1q-11 0 -19 4q-14 4 -14 29q0 5 6 14q2 3 6.5 8t6.5 8q28 25 38 25q9 3 21 0h31q6 0 8 2q6 0 8 2q10 3 58 6.5t65 3.5q41 0 41 76q0 22 -17 29q-8 4 -14 4h-12q-13 0 -39.5 47t-26.5 63l2 5q0 6 -4 14q0 2 -4 14
q-19 37 -30 103.5t-11 115.5v13v10q2 4 20.5 13t26.5 9q12 0 21.5 -18t11.5 -33q4 -13 8 -47t10 -49q18 -55 25 -80q15 -49 37 -78l20 -6l2 2q14 7 17 10q4 4 4 7q3 0 6 6q25 25 39 37q6 6 19.5 18t19.5 18q10 7 14 19q4 4 6 8q1 1 3.5 3t3.5 3q4 4 8 6q7 7 8 9q12 8 18 16
q15 17 44.5 51t45.5 51l43 43q32 25 46 25q26 0 26 -23q0 -34 -115 -149q-20 -25 -28 -33q-8 -10 -29 -31q-7 -5 -14.5 -12.5t-15.5 -16.5t-13 -14q-12 -16 -39 -43q-6 -5 -17.5 -14t-17.5 -14q-27 -27 -32 -33q-9 -14 -9 -25q0 -8 2 -10q1 -2 3.5 -5t3.5 -5q0 -10 -1 -31
t-1 -31q0 -36 34 -36q28 0 82 8t82 8q13 0 19 2q6 1 17 3t17 3q10 2 33 2q25 0 37 -4q19 -3 19 -14q0 -31 -43 -47q-22 -7 -82 -18t-78 -11l-2 2q-29 0 -80.5 -7t-63.5 -16q-14 -10 -14 -30q-4 -24 -4 -37q2 -2 2 -4q-8 -8 -8 -15q-1 -1 -2 -5.5t-2 -6.5q0 -10 -2 -16v-31
q0 -21 16 -27q4 -2 12 -2h13q14 0 20 2q1 0 21 5q28 4 41 4q2 -2 4 -2q14 0 22 4q4 0 12 4q11 0 17 2q44 0 94 -17q4 -4 6 -4q-2 -4 -14 -16q-18 -14 -41 -23q-51 -23 -76 -28q-2 0 -6 2h-6q-1 0 -3 1t-3 1q-9 0 -28 -4t-28 -4q-3 0 -9.5 2t-10.5 2q-7 0 -19 -6
q-7 -7 -10 -7h-8q-9 3 -14 3q-11 0 -21 -8t-10 -19q-2 -4 -2 -8q-18 -88 -25 -115q-7 -26 -21 -34.5t-44 -8.5q-2 2 -8 14q-7 21 -7 29q0 2 3 8q0 5 4 13q8 21 8 40v5q0 1 -1 2t-1 2q0 8 6 20q8 16 8 27v6l-14 16h-17q-19 0 -54.5 -6t-53.5 -6h-43h-19q-3 0 -9 1t-9 1
q-3 2 -9.5 13t-6.5 18z" />
    <glyph glyph-name="dieresis" unicode="&#xa8;" horiz-adv-x="514" 
d="M473 829l-4 5q0 19 4 47q3 3 35.5 25t36.5 22q13 0 30 -20.5t17 -35.5q0 -4 -2 -8q-18 -67 -84 -67q-1 1 -3 2t-3 2q-2 2 -7 6.5t-8 7.5q-10 10 -12 14zM193 836q0 28 6 49q63 45 69 45q19 0 33 -22t14 -42q-21 -67 -86 -67q-1 1 -3 2t-3 2l-14 14q-10 10 -12 14z" />
    <glyph glyph-name="copyright" unicode="&#xa9;" horiz-adv-x="1273" 
d="M184 393q0 13 4 45q5 15 7 23q0 4 1 12t1 12v4q12 17 12 29q0 13 2 19q0 9 6 18q1 2 3 5t3 5t2 6.5t2 6.5q2 6 2 16q1 1 1 4.5t1 5.5q0 8 11 23q3 8 8 16q2 4 6 16v9q0 4 4 8l6 6q2 2 6 10q26 59 71.5 115.5t94.5 93.5q31 20 78 64q2 2 6 2q2 2 6 2q1 1 3.5 2t3.5 2l6 6
q4 0 4 4l4 4h6q8 0 12 2q6 1 27 17q4 2 10 8q10 6 12 6h7q2 0 26 6q3 2 21 8q12 6 82 6q24 0 69 -18q23 -12 68 -39q8 -4 24 -4q9 0 11 -2h4q13 -8 34 -23.5t31 -21.5q1 -1 23 -8h8q7 -5 19 -13.5t16 -11.5q18 -6 33 -18q48 -35 98 -107t63 -131v-2v-4q0 -1 -1 -3t-1 -3
q0 -2 -1 -4.5t-1 -3.5q0 -33 8 -64q7 -27 7 -61q-1 -4 -3.5 -12.5t-3.5 -12.5q-6 -42 -6 -47v-6q1 -1 2 -3t2 -3q0 -12 -19 -63.5t-30 -71.5q-4 -7 -13 -21.5t-13 -21.5t-10.5 -24t-10.5 -24l-4 -4q-50 -59 -61 -69q-18 -18 -39 -33q-27 -19 -43 -33q-9 -9 -35 -22
q-21 -8 -43 -21q-80 -42 -137 -59t-144 -21q-1 0 -4 -1t-4 -1t-4 -1t-4 -1q-4 -2 -10 -2q-4 0 -6 2q-5 0 -7 2h-8q-9 0 -27.5 -3t-27.5 -3q-4 0 -14 10l-2 2h-13q-6 0 -8 -2q-4 0 -6 -2q-1 0 -3 -1t-3 -1q-7 4 -21 8h-20q-1 0 -2 1t-2 1q-2 1 -8 7q-19 9 -35 12q-2 1 -7.5 3
t-7.5 3q-6 0 -14 4q-3 2 -18 17l-7 4q-32 6 -88 80.5t-59 113.5q0 3 -6 21q-4 16 -6 20q-3 11 -10 49t-7 47t3 28t3 28q0 13 -6 22zM274 416v-64v-24q0 -7 5 -27q1 -4 3 -11t3 -11q4 -12 4 -17q0 -30 20 -76q5 -10 16.5 -30.5t16.5 -30.5q6 -16 20 -23q5 -3 13 -8t10 -6
q4 -2 8 -6l4 -8q1 -1 3 -4t3 -4q38 -31 107 -46.5t131 -15.5q1 0 4 1t4 1l4 2h4q7 0 21 -2t20 -2q24 0 76 21q45 18 60 18h4l2 2q6 3 17 8t17 8q12 3 21 9q6 2 18 10q91 55 149.5 114t80.5 146q2 12 10 22q11 17 17 59.5t6 70.5q0 14 -5.5 40t-5.5 39q2 4 2 9q2 2 2 6v10
q-2 5 -5 17.5t-5 17.5q-8 23 -20 33q-1 2 -3 7t-3 7q0 3 -5 18q-5 20 -20 35l-10 10l-13 13h-2q-21 33 -39 50t-51 34q-9 3 -14 8q-12 8 -14 10q-15 9 -37 12q-2 1 -8 6t-9 7q-17 11 -20 12q-133 68 -197 68q-15 0 -41 -11q-33 -16 -35 -18q-62 -30 -101 -60.5t-87 -85.5
q-29 -29 -45 -53q-13 -16 -16 -33l-7 -14q-7 -17 -14 -24q-1 -1 -6 -11q-11 -11 -14 -26q-1 -4 -13.5 -44.5t-17.5 -62.5q-1 -3 -3 -8t-3 -8q-4 -8 -4 -10q-4 -8 -4 -13q-5 -27 -9 -63zM535 358q-13 22 -13 41q0 20 6 41q2 7 7.5 21.5t7.5 21.5q0 11 14 21q6 6 14 10
q11 11 13 14q42 47 62.5 62.5t72.5 36.5l20 10q9 6 21 6q4 -2 8 -2q2 -2 6 -2h2l4 2q4 4 15 4q20 0 36.5 -12t16.5 -29q0 -14 -15.5 -26.5t-31.5 -12.5q-9 0 -13 2q-2 0 -4.5 1t-3.5 1h-10h-16q-12 -4 -15 -4q-10 -2 -54 -35t-44 -41l-6 -6l-8 -8q-19 -22 -19 -59
q0 -25 37 -41q2 -1 23 -8q9 -6 12 -9l4 -4h4q19 0 51 -4q4 -2 6 -2q6 -6 15 -6q1 0 3 1t3 1h6q2 2 4 2h6l4 -4q12 -4 19 -4q11 0 31 4q5 2 14 5t14 5q39 13 51 13q11 0 17 -17q-10 -45 -55.5 -66.5t-100.5 -21.5q-30 0 -57 6q-24 3 -57 10q-12 3 -27 3q-25 10 -41 18
q-26 15 -39 20q-1 5 -4.5 13.5t-3.5 9.5z" />
    <glyph glyph-name="uni00AD" unicode="&#xad;" horiz-adv-x="0" 
 />
    <glyph glyph-name="registered" unicode="&#xae;" horiz-adv-x="1302" 
d="M334 176q-66 48 -105 119.5t-39 148.5q0 144 50 250q15 29 18 41q11 27 16 45q6 23 33 62q8 11 24.5 32.5t22.5 30.5q58 89 152 152q17 7 39 22q14 8 57.5 28.5t50.5 20.5q18 0 51.5 5.5t49.5 5.5q17 0 53 -9q9 -2 27.5 -7t27.5 -7q14 -3 41.5 -5t40.5 -5q9 0 21 -4h20
q9 0 29 -10q35 -9 55 -29q16 -12 35 -16q7 -1 63 -57.5t56 -61.5v-4l2 -2q25 -27 55.5 -74t30.5 -68q0 -15 10 -45q0 -2 4 -14l4 -8q0 -13 -8 -41q-1 -4 -3 -12.5t-3 -12.5q-2 -8 -2 -24v-9q2 -2 2 -4t2 -4q0 -5 -6 -14l-8 -8q-1 -2 -3.5 -6.5t-3.5 -6.5q-6 -24 -6 -26
q-11 -32 -55.5 -96.5t-65.5 -77.5l-4 -4l-4 -2q-1 0 -3 -1.5t-3 -1.5q-4 -4 -6 -4q-18 -15 -33 -30q-4 -3 -16 -12.5t-19 -12.5q-12 -8 -20 -14q-11 -11 -17 -15l-16 -8q-3 -2 -9 -5t-9 -5q-2 0 -6 -4q-20 -16 -62 -37q-22 -7 -33 -14q-13 -5 -30 -19q-6 -6 -21 -6
q-6 -2 -18 -2q-3 -1 -8.5 -3t-8.5 -3q-20 -8 -47 -23q-16 -8 -24 -10q-12 -6 -15 -6q-6 0 -10 2h-12q-5 0 -29 -6q-2 -1 -5 -3t-5 -3q-2 0 -5 -1t-5 -1q-108 0 -129 -2q-9 0 -11 -2q-15 0 -30 6q-5 2 -29 10q-51 14 -55 16q-10 3 -52 23q-8 4 -10 4zM276 498q0 -98 13 -121
q26 -61 45 -72q2 -2 4 -2q10 -10 18 -22q13 -13 23 -19q2 -1 6 -2t6 -2l6 -6q2 -1 9 -8q9 -10 14 -11q3 0 7.5 -1t6.5 -1q1 -1 5.5 -2t6.5 -2q1 0 13 -6q8 -8 14 -10q12 -7 59 -12.5t68 -5.5q27 0 39 2q8 0 20 4t17 4q22 6 65 10q44 8 68 18q3 1 18 11q2 1 7.5 4t7.5 4h12
q6 0 10 4q7 0 13 6q21 9 75 47q14 0 60 30.5t53 47.5l4 4l12 6q6 2 15 11q2 3 5.5 6.5t4.5 5.5l4 4q0 3 12 10q8 3 23 23q1 2 3.5 6t4.5 7t4 5l6 6l6 6q11 11 15 17q1 2 4 8.5t4 11.5q1 3 3 9.5t3 9.5q6 22 14 30l5 4q3 12 8 52q3 25 12 43l2 4l-2 4q-8 36 -8 49q0 14 -6 23
q-2 7 -11 20q-2 4 -6 11.5t-6 11.5q-1 3 -4.5 8t-3.5 6q-18 48 -76 106l-6 2q-1 0 -2 1.5t-2 1.5h-2v4q-1 1 -3.5 5.5t-4.5 6.5q-9 6 -13 10l-8 4q-3 2 -18 19q-3 5 -34 23t-38 20q-2 2 -8 2t-8 2h-6q-2 1 -5 2t-4 2l-6 6q-9 6 -20 6q-15 0 -35 -10q-16 -8 -25 -8
q-8 0 -24 8q-25 10 -37 10q-3 0 -8 -1t-8 -1q-9 0 -29 12q-1 1 -3 3.5t-3 3.5q-4 4 -8 4q-9 6 -21 6q-77 0 -123 -33q-5 -5 -18 -8q-8 -4 -13 -4q-9 -3 -14 -8q-63 -44 -94 -84q-2 -2 -6 -6.5t-6 -6.5t-6.5 -6t-6.5 -6q-19 -19 -24 -29l-8 -16l-7 -14q-1 -1 -3.5 -5t-4.5 -6
l-6 -6q-1 -1 -3 -4t-3 -4q-41 -69 -55 -123q-6 -20 -15.5 -43t-11.5 -31q-16 -37 -16 -92v-4q0 -2 -2 -4l-2 -8q0 -1 -1.5 -4t-1.5 -4zM573 350q-20 0 -20 76q0 15 4 43q1 4 3 11.5t3 11.5q0 4 1 12t1 12q0 8 -4 12q0 1 -1 3.5t-1 3.5v26q0 2 2 4l4 2l4 21l-2 4q-2 2 -2 10
q0 9 4 29q0 3 1 8.5t1 7.5q2 6 2 19v8l-4 8l2 4q4 8 4 12q2 5 7 35q0 23 2 33q2 34 16 84q58 35 68 35q2 -2 6 -2q2 -2 6 -2q2 -2 8 -2q7 0 20.5 2t20.5 2q9 0 29 -4q18 -7 35 -7q4 0 4 2h4l2 3q2 -3 6 -5q8 -4 14 -10q3 -2 8.5 -6t8.5 -6q7 -7 16 -10q6 -2 10 -6
q0 -3 2 -11v-2l2 -4q6 -6 7 -8q1 -1 3 -4t3 -4q6 -9 6 -17q0 -2 -1 -5t-1 -5q-1 -1 -2 -4.5t-2 -5.5q-5 -14 -2 -29q-3 -6 -11 -14l-6 -12q-10 -10 -12 -11q-3 -2 -14.5 -11.5t-12.5 -12.5q-6 -6 -12 -15q-15 -15 -27 -22l-16 -8q-29 -10 -35 -37l-2 -10l8 -4q9 -3 13 -5
q4 0 6 -2q2 0 10 -10l2 -4h2q5 -2 29 -14q18 -11 37 -11q4 0 26 -16t42 -32l20 -17q0 -34 -12.5 -47.5t-41.5 -13.5q-4 0 -4 2q-8 4 -14 6q-3 2 -8 5l-7.5 4.5t-2.5 2.5q-6 3 -21 8q-1 1 -4 2t-4 2q-4 0 -8 4q-8 4 -31.5 18.5t-34.5 20.5q-57 29 -73 31h-5l-12 -12v-4
q-4 -17 -6 -19q-4 -16 -4 -20q0 -17 -2.5 -33.5t-8.5 -34t-19 -28.5t-32 -11zM659 709q-4 -12 -4 -23q0 -29 21 -29q5 0 12 7q8 4 12 8q9 5 11 8q4 4 8 4q2 2 18 10q5 2 14.5 6.5t14.5 6.5q37 23 37 49q0 16 -21 26q-17 10 -34 13q-42 10 -60 10h-4l-2 -2
q-12 -5 -17.5 -28.5t-5.5 -43.5q0 -5 5 -10q0 -2 -5 -12z" />
    <glyph glyph-name="acute" unicode="&#xb4;" horiz-adv-x="495" 
d="M279 721l6 18q2 4 6 11.5t6 11.5q6 12 14 20q8 6 21 19q9 9 39 49l18 24q12 16 19 23q0 1 2.5 3.5t3.5 4.5l4 4q22 4 26 4q7 0 15 -4q6 -4 6 -8q0 -17 -25 -45q-6 -7 -21.5 -23.5t-19.5 -21.5q-9 -14 -10 -16q-3 -3 -8 -13q-16 -20 -45.5 -41t-50.5 -24q-4 4 -6 4z" />
    <glyph glyph-name="cedilla" unicode="&#xb8;" horiz-adv-x="331" 
d="M41 -262q11 19 31 22q8 2 23 2.5t20 1.5q9 1 26.5 4.5t26.5 4.5q3 0 7.5 1t6.5 1q2 1 5.5 3t5.5 3q12 4 18 4h4l14 14v2q2 4 2 9q0 26 -14 40q-31 40 -90 48q-35 5 -41 6q-22 9 -25 12q0 2 -2 6q0 8 9 31q10 37 20 63q11 22 17 26.5t28 4.5v-4q1 -2 2 -5t2 -5
q-1 -2 -3 -6.5t-3 -6.5q-4 -8 -8 -14q-13 -33 -14 -39v-8l6 -4q9 -7 22 -10q2 -2 10 -2h13q18 -3 43 -21q1 0 3.5 -1t4.5 -1q2 -2 6 -2l8 -4q54 -38 54 -102q0 -27 -26.5 -49.5t-53.5 -22.5q-4 -1 -11.5 -3t-11.5 -3q-8 -4 -18 -4h-13q-10 0 -14 -2q-1 0 -4 -1t-4 -1l-8 -5
q-2 0 -5.5 -1t-5.5 -1h-20q-43 0 -43 19z" />
    <glyph glyph-name="questiondown" unicode="&#xbf;" horiz-adv-x="739" 
d="M82 -6q0 14 10 45.5t19 48.5q9 9 16 23q4 12 4 14q4 8 4 10q14 27 53 72q8 9 30 31.5t32 35.5q6 9 12 15q1 3 4.5 8t3.5 6q21 35 47 55q12 10 33 31q23 24 62.5 70t54.5 63q4 4 12.5 11.5t12.5 11.5q18 18 26 37q2 2 2 6l4 8q5 7 42.5 47.5t41.5 44.5q8 8 33 8
q11 0 18 -14q7 -18 7 -35q0 -6 -2 -10v-6q0 -1 -1 -2t-1 -2q-1 -1 -3.5 -4.5t-3.5 -4.5q-4 -4 -20 -24q-28 -32 -35 -39l-2 -2v-4q-3 -11 -16 -21q-3 -2 -8.5 -6t-8.5 -6q-10 -10 -14 -16q0 -1 -1 -3t-1 -3q-2 -2 -2 -7q-2 -2 -2 -6q-2 0 -4 -2q-4 0 -6 -2q-13 -4 -19 -12
q-4 -4 -8 -12q-1 -2 -3 -6.5t-3 -6.5q-6 -9 -15 -18q-79 -75 -114 -125q-4 -4 -4 -8q-1 -1 -2 -4t-2 -4q-1 -4 -4 -8t-3 -5l-4 -4q-1 0 -3 -1t-3 -1q-13 -6 -22 -20q-6 -7 -16.5 -23.5t-10.5 -17.5q-2 -2 -3.5 -5l-2.5 -5t-2 -3q-37 -33 -72 -86t-35 -94q0 -10 2 -14
q0 -1 1 -4t1 -4q12 -52 74 -66q38 -12 86 -12q7 0 52 9.5t49 12.5q5 2 11.5 8t8.5 7q12 4 18 4q2 -1 4 -1.5t3.5 -1t1.5 -1.5h14q1 0 2.5 1t3.5 1q0 -1 1 -2t1 -2l6 -6l-4 -29q-1 -7 -29 -32.5t-40 -31.5q-4 -3 -69.5 -13.5t-76.5 -10.5q-12 0 -52.5 7t-55.5 11q-1 0 -5 1
q-1 1 -2.5 1.5t-3.5 1.5q-45 23 -71.5 50.5t-26.5 68.5q0 8 -2 12q0 2 -1 6.5t-1 6.5q-2 2 -2 8zM608 1051q-12 0 -20 8.5t-8 21.5q0 12 14 33l4 2v12q6 9 14 9q2 1 7.5 3t7.5 3q2 0 4 2q25 0 37 -6q5 -10 6 -11q4 -8 4 -10q0 -20 -17.5 -43.5t-31.5 -23.5h-21z" />
    <glyph glyph-name="Agrave" unicode="&#xc0;" 
d="M29 -125q-2 6 -6 14q24 70 57 103q3 4 12 22q1 3 6 23q13 31 23 39l4 8q1 17 20 57t33 60l2 2v4q0 4 2 8v4q1 1 3 2t3 2q7 7 9 13q2 5 5 14t5 14l10 25q17 25 31 61l24 60q5 10 16.5 30.5t16.5 30.5q2 4 6 12.5t6 12.5q5 10 13 22q23 31 30 51q2 5 9 20.5t10 22.5
q6 19 22 37l5 6q0 12 16 41q19 34 24 49q2 3 5.5 8.5t5.5 8.5q2 2 6 7t6 7q16 20 23 41q3 9 47 64t53 61q22 11 70 27l4 -4q8 -4 20 -4q2 2 6 2q2 0 4 2q6 0 24 -11t23 -16q8 -13 18.5 -43t10.5 -43v-6q6 -7 10 -31t2 -35l-2 -6l4 -4q13 -13 13 -39q0 -5 -2 -16t-2 -17
q0 -10 4 -31.5t4 -31.5v-29q0 -1 1 -3t1 -3l2 -4q0 -15 -1 -43t-1 -41v-31q0 -10 4 -30q0 -14 6 -23l6 -6q1 -1 3 -2t3 -2v-4q-2 -2 -2 -6q-2 -2 -2 -9v-6q2 -2 2 -6q-2 -1 -5 -3t-5 -3q-16 -12 -16 -35v-4l4 -4q2 -2 2 -6q0 -10 -6 -25q0 -6 -4 -14q0 -3 -1 -8.5t-1 -8.5
v-67v-8q0 -4 2 -6v-5v-4q0 -2 -1 -4.5t-1 -3.5q-2 -4 -2 -8q-3 -6 -3 -10q1 -17 5 -17v-4l-5 -30q-1 -3 -2 -9t-2 -8q0 -3 -1 -9.5t-1 -10.5q0 -5 4 -21v-4q-2 -2 -2 -8v-8l2 -4q0 -4 2 -4q0 -5 -2 -7v-6l-2 -6q0 -2 -1 -5.5t-1 -4.5q0 -10 4 -14q0 -5 2 -7q0 -27 -18 -49
t-41 -22q-1 0 -2 1t-2 1q-2 2 -10 6l-8 8q-2 6 -2 14v17q0 5 -1.5 13.5t-1.5 12.5q-2 4 -2 13q-2 2 -2 8l2 4q2 2 5 8v19q0 12 3 37.5t3 39.5v9q-2 2 -2 4v4q0 11 -1 36.5t-1 39.5q0 45 6 69q0 5 4 17q2 6 2 18q0 49 -37 49h-53q-32 0 -56 -6q-11 -2 -34 -7t-35 -7
q-46 -8 -68 -8q-16 0 -43 -9q-8 -2 -23.5 -7.5t-17.5 -6.5h-8h-16q-11 0 -17 -2q-6 0 -14 -8q-20 -28 -25 -62q-2 -6 -10 -18q-2 -4 -4.5 -7.5t-5.5 -7.5t-4 -6q-22 -39 -33 -77q-1 -2 -2 -6.5t-2 -6.5q0 -4 -1 -7l-1 -3q-4 -4 -4 -6q-6 -6 -8 -10q0 -1 -1 -4.5t-1 -4.5v-6
l-2 -4q0 -1 -2 -2q-1 -1 -1.5 -1t-1.5 -1q-15 -8 -20 -37q0 -6 -2 -8q0 -4 -4 -8q-3 -8 -17 -28t-18 -23l-2 -4v-2q-7 -19 -10 -23q-2 -3 -7.5 -9t-9.5 -11q-1 -1 -2 -4.5t-2 -4.5t-2 -3t-2 -3q-1 -2 -2 -5.5t-2 -4.5l-4 -2v-2q0 -8 -2 -10q-1 0 -3.5 -1t-4.5 -1h-2l-4 -2
q-5 -5 -9 -5q-12 0 -22 13q-4 8 -6 14zM358 401l-2 -12l11 -2q4 0 8 -2h8q19 0 27 2q4 1 11 3t11 3q21 8 45 8q2 0 10.5 1.5t20.5 3t22 2.5q17 0 33 4q3 0 7 1t5 1h5l4 2q6 4 14 8q1 0 6.5 -1t11.5 -1q52 0 82 12q15 5 21 19v14v12q0 7 2 21.5t2 21.5q0 21 -8 29q0 2 2 4v6
q2 2 2 8q2 2 2 11q0 57 -2 84q-1 2 -2 7t-2 7q0 4 -4 8q-4 20 -4 31v31q0 3 -1 6.5t-1 5.5q-1 2 -11 49q-4 36 -8 43v2l-2 2q-1 2 -3 4.5t-3 4t-2 3.5q-1 1 -2.5 4.5t-3.5 6.5q-4 10 -19 10q-19 0 -55 -41q-12 -15 -37 -53q-3 -5 -8.5 -15t-7.5 -14q-8 -15 -15 -25
q0 -2 -2 -4q-1 -1 -3 -2t-3 -2q-8 -8 -12 -14q-4 -8 -11.5 -24.5t-11.5 -24.5q-10 -21 -30.5 -57.5t-28.5 -53.5q-7 -16 -14 -41q-1 -2 -2 -5t-2 -5q-1 -1 -6 -9.5t-9 -13.5l-12 -24q-4 -4 -4 -6q-8 -22 -10 -29q-1 -2 -2.5 -6t-2.5 -6t-2 -6.5t-2 -6.5zM582 1286
q-15 12 -15 25q0 6 11 14q12 6 24 6q1 -1 3 -2t3 -2q14 -7 17 -8q20 -16 24 -16q0 -5 4 -5q1 -2 4.5 -6t4.5 -6q4 -4 11.5 -12.5t10.5 -11.5q4 -3 23 -18.5t30 -24.5q19 -19 25 -27q8 -11 8 -16q0 -19 -22 -19q-20 0 -52 25l-24 24q-4 4 -13 12t-12 11q-1 0 -2.5 1t-3.5 2.5
t-4 2.5l-12 6q-2 1 -6.5 3t-6.5 3l-4 4v4q-4 17 -20 25z" />
    <glyph glyph-name="Aacute" unicode="&#xc1;" 
d="M23 -111q24 70 57 103q3 4 12 22q1 3 6 23q13 31 23 39l4 8q1 17 20 57t33 60l2 2v4q0 4 2 8v4q1 1 3 2t3 2q7 7 9 13q2 5 5 14t5 14l10 25q17 25 31 61l24 60q5 10 16.5 30.5t16.5 30.5q2 4 6 12.5t6 12.5q5 10 13 22q23 31 30 51q2 5 9 20.5t10 22.5q6 19 22 37l5 6
q0 12 16 41q19 34 24 49q2 3 5.5 8.5t5.5 8.5q2 2 6 7t6 7q16 20 23 41q3 9 47 64t53 61q22 11 70 27l4 -4q8 -4 20 -4q2 2 6 2q2 0 4 2q6 0 24 -11t23 -16q8 -13 18.5 -43t10.5 -43v-6q6 -7 10 -31t2 -35l-2 -6l4 -4q13 -13 13 -39q0 -5 -2 -16t-2 -17q0 -10 4 -31.5
t4 -31.5v-29q0 -1 1 -3t1 -3l2 -4q0 -15 -1 -43t-1 -41v-31q0 -10 4 -30q0 -14 6 -23l6 -6q1 -1 3 -2t3 -2v-4q-2 -2 -2 -6q-2 -2 -2 -9v-6q2 -2 2 -6q-2 -1 -5 -3t-5 -3q-16 -12 -16 -35v-4l4 -4q2 -2 2 -6q0 -10 -6 -25q0 -6 -4 -14q0 -3 -1 -8.5t-1 -8.5v-67v-8
q0 -4 2 -6v-5v-4q0 -2 -1 -4.5t-1 -3.5q-2 -4 -2 -8q-3 -6 -3 -10q1 -17 5 -17v-4l-5 -30q-1 -3 -2 -9t-2 -8q0 -3 -1 -9.5t-1 -10.5q0 -5 4 -21v-4q-2 -2 -2 -8v-8l2 -4q0 -4 2 -4q0 -5 -2 -7v-6l-2 -6q0 -2 -1 -5.5t-1 -4.5q0 -10 4 -14q0 -5 2 -7q0 -27 -18 -49t-41 -22
q-1 0 -2 1t-2 1q-2 2 -10 6l-8 8q-2 6 -2 14v17q0 5 -1.5 13.5t-1.5 12.5q-2 4 -2 13q-2 2 -2 8l2 4q2 2 5 8v19q0 12 3 37.5t3 39.5v9q-2 2 -2 4v4q0 11 -1 36.5t-1 39.5q0 45 6 69q0 5 4 17q2 6 2 18q0 49 -37 49h-53q-32 0 -56 -6q-11 -2 -34 -7t-35 -7q-46 -8 -68 -8
q-16 0 -43 -9q-8 -2 -23.5 -7.5t-17.5 -6.5h-8h-16q-11 0 -17 -2q-6 0 -14 -8q-20 -28 -25 -62q-2 -6 -10 -18q-2 -4 -4.5 -7.5t-5.5 -7.5t-4 -6q-22 -39 -33 -77q-1 -2 -2 -6.5t-2 -6.5q0 -4 -1 -7l-1 -3q-4 -4 -4 -6q-6 -6 -8 -10q0 -1 -1 -4.5t-1 -4.5v-6l-2 -4
q0 -1 -2 -2q-1 -1 -1.5 -1t-1.5 -1q-15 -8 -20 -37q0 -6 -2 -8q0 -4 -4 -8q-3 -8 -17 -28t-18 -23l-2 -4v-2q-7 -19 -10 -23q-2 -3 -7.5 -9t-9.5 -11q-1 -1 -2 -4.5t-2 -4.5t-2 -3t-2 -3q-1 -2 -2 -5.5t-2 -4.5l-4 -2v-2q0 -8 -2 -10q-1 0 -3.5 -1t-4.5 -1h-2l-4 -2
q-5 -5 -9 -5q-12 0 -22 13q-4 8 -6 14t-6 14zM356 389l11 -2q4 0 8 -2h8q19 0 27 2q4 1 11 3t11 3q21 8 45 8q2 0 10.5 1.5t20.5 3t22 2.5q17 0 33 4q3 0 7 1t5 1h5l4 2q6 4 14 8q1 0 6.5 -1t11.5 -1q52 0 82 12q15 5 21 19v14v12q0 7 2 21.5t2 21.5q0 21 -8 29q0 2 2 4v6
q2 2 2 8q2 2 2 11q0 57 -2 84q-1 2 -2 7t-2 7q0 4 -4 8q-4 20 -4 31v31q0 3 -1 6.5t-1 5.5q-1 2 -11 49q-4 36 -8 43v2l-2 2q-1 2 -3 4.5t-3 4t-2 3.5q-1 1 -2.5 4.5t-3.5 6.5q-4 10 -19 10q-19 0 -55 -41q-12 -15 -37 -53q-3 -5 -8.5 -15t-7.5 -14q-8 -15 -15 -25
q0 -2 -2 -4q-1 -1 -3 -2t-3 -2q-8 -8 -12 -14q-4 -8 -11.5 -24.5t-11.5 -24.5q-10 -21 -30.5 -57.5t-28.5 -53.5q-7 -16 -14 -41q-1 -2 -2 -5t-2 -5q-1 -1 -6 -9.5t-9 -13.5l-12 -24q-4 -4 -4 -6q-8 -22 -10 -29q-1 -2 -2.5 -6t-2.5 -6t-2 -6.5t-2 -6.5zM662 1075
q-1 1 -3.5 2t-3.5 2q0 10 7 17l12 24q10 15 14 19q1 1 9 8t12 12q19 19 39 49q3 4 9 12.5t9 12.5q4 8 18 22q0 2 4 6.5t7 4.5q22 4 24 4q13 0 17 -4q6 -2 6 -6q0 -18 -25 -46q-7 -9 -22 -25t-19 -22q-6 -6 -10 -14q-2 -2 -5 -6t-5 -6q-14 -20 -44 -41.5t-50 -24.5z" />
    <glyph glyph-name="Acircumflex" unicode="&#xc2;" 
d="M29 -125q-2 6 -6 14q24 70 57 103q3 4 12 22q1 3 6 23q13 31 23 39l4 8q1 17 20 57t33 60l2 2v4q0 4 2 8v4q1 1 3 2t3 2q7 7 9 13q2 5 5 14t5 14l10 25q17 25 31 61l24 60q5 10 16.5 30.5t16.5 30.5q2 4 6 12.5t6 12.5q5 10 13 22q23 31 30 51q2 5 9 20.5t10 22.5
q6 19 22 37l5 6q0 12 16 41q19 34 24 49q2 3 5.5 8.5t5.5 8.5q2 2 6 7t6 7q16 20 23 41q3 9 47 64t53 61q22 11 70 27l4 -4q8 -4 20 -4q2 2 6 2q2 0 4 2q6 0 24 -11t23 -16q8 -13 18.5 -43t10.5 -43v-6q6 -7 10 -31t2 -35l-2 -6l4 -4q13 -13 13 -39q0 -5 -2 -16t-2 -17
q0 -10 4 -31.5t4 -31.5v-29q0 -1 1 -3t1 -3l2 -4q0 -15 -1 -43t-1 -41v-31q0 -10 4 -30q0 -14 6 -23l6 -6q1 -1 3 -2t3 -2v-4q-2 -2 -2 -6q-2 -2 -2 -9v-6q2 -2 2 -6q-2 -1 -5 -3t-5 -3q-16 -12 -16 -35v-4l4 -4q2 -2 2 -6q0 -10 -6 -25q0 -6 -4 -14q0 -3 -1 -8.5t-1 -8.5
v-67v-8q0 -4 2 -6v-5v-4q0 -2 -1 -4.5t-1 -3.5q-2 -4 -2 -8q-3 -6 -3 -10q1 -17 5 -17v-4l-5 -30q-1 -3 -2 -9t-2 -8q0 -3 -1 -9.5t-1 -10.5q0 -5 4 -21v-4q-2 -2 -2 -8v-8l2 -4q0 -4 2 -4q0 -5 -2 -7v-6l-2 -6q0 -2 -1 -5.5t-1 -4.5q0 -10 4 -14q0 -5 2 -7q0 -27 -18 -49
t-41 -22q-1 0 -2 1t-2 1q-2 2 -10 6l-8 8q-2 6 -2 14v17q0 5 -1.5 13.5t-1.5 12.5q-2 4 -2 13q-2 2 -2 8l2 4q2 2 5 8v19q0 12 3 37.5t3 39.5v9q-2 2 -2 4v4q0 11 -1 36.5t-1 39.5q0 45 6 69q0 5 4 17q2 6 2 18q0 49 -37 49h-53q-32 0 -56 -6q-11 -2 -34 -7t-35 -7
q-46 -8 -68 -8q-16 0 -43 -9q-8 -2 -23.5 -7.5t-17.5 -6.5h-8h-16q-11 0 -17 -2q-6 0 -14 -8q-20 -28 -25 -62q-2 -6 -10 -18q-2 -4 -4.5 -7.5t-5.5 -7.5t-4 -6q-22 -39 -33 -77q-1 -2 -2 -6.5t-2 -6.5q0 -4 -1 -7l-1 -3q-4 -4 -4 -6q-6 -6 -8 -10q0 -1 -1 -4.5t-1 -4.5v-6
l-2 -4q0 -1 -2 -2q-1 -1 -1.5 -1t-1.5 -1q-15 -8 -20 -37q0 -6 -2 -8q0 -4 -4 -8q-3 -8 -17 -28t-18 -23l-2 -4v-2q-7 -19 -10 -23q-2 -3 -7.5 -9t-9.5 -11q-1 -1 -2 -4.5t-2 -4.5t-2 -3t-2 -3q-1 -2 -2 -5.5t-2 -4.5l-4 -2v-2q0 -8 -2 -10q-1 0 -3.5 -1t-4.5 -1h-2l-4 -2
q-5 -5 -9 -5q-12 0 -22 13q-4 8 -6 14zM356 389l11 -2q4 0 8 -2h8q19 0 27 2q4 1 11 3t11 3q21 8 45 8q2 0 10.5 1.5t20.5 3t22 2.5q17 0 33 4q3 0 7 1t5 1h5l4 2q6 4 14 8q1 0 6.5 -1t11.5 -1q52 0 82 12q15 5 21 19v14v12q0 7 2 21.5t2 21.5q0 21 -8 29q0 2 2 4v6q2 2 2 8
q2 2 2 11q0 57 -2 84q-1 2 -2 7t-2 7q0 4 -4 8q-4 20 -4 31v31q0 3 -1 6.5t-1 5.5q-1 2 -11 49q-4 36 -8 43v2l-2 2q-1 2 -3 4.5t-3 4t-2 3.5q-1 1 -2.5 4.5t-3.5 6.5q-4 10 -19 10q-19 0 -55 -41q-12 -15 -37 -53q-3 -5 -8.5 -15t-7.5 -14q-8 -15 -15 -25q0 -2 -2 -4
q-1 -1 -3 -2t-3 -2q-8 -8 -12 -14q-4 -8 -11.5 -24.5t-11.5 -24.5q-10 -21 -30.5 -57.5t-28.5 -53.5q-7 -16 -14 -41q-1 -2 -2 -5t-2 -5q-1 -1 -6 -9.5t-9 -13.5l-12 -24q-4 -4 -4 -6q-8 -22 -10 -29q-1 -2 -2.5 -6t-2.5 -6t-2 -6.5t-2 -6.5zM492 1104q-3 0 -7 6t-4 14
q0 22 33 72q6 7 16 20.5t13 16.5q6 9 18 33q2 2 2 6l8 2l4 2v4q6 9 15 18q6 9 16 19q24 30 27 33q8 10 24 26q29 25 68 25q14 0 39.5 -21t26.5 -34v-5l4 -4q16 -11 26 -30q2 -3 5 -9.5t5 -9.5q2 -4 6.5 -11t6.5 -11q4 -4 39 -34.5t39 -33.5l8 -4q2 0 4 -2q0 -18 -14 -27
q-12 -6 -31 -6q-4 0 -17 8q-10 5 -26 21q-32 26 -45 43q-12 12 -17 22q-6 11 -16 25q-3 4 -14.5 16t-16.5 19q-4 4 -4 6q-1 1 -2 4t-2 4q-6 12 -14 16l-2 3h-8q-17 0 -39 -29q-8 -15 -31 -41q-13 -13 -17 -19q-15 -20 -16 -22q-3 -4 -8 -12.5t-8 -12.5q-10 -10 -17 -24
q-23 -46 -39 -62q-17 -20 -38 -20z" />
    <glyph glyph-name="Atilde" unicode="&#xc3;" 
d="M29 -125q-2 6 -6 14q24 70 57 103q3 4 12 22q1 3 6 23q13 31 23 39l4 4v4q1 17 20 57t33 60l2 2v4q0 1 1 3.5t1 4.5v4q1 1 3 2t3 2q7 7 9 13q2 5 5 14t5 14l10 25q17 25 31 61q2 4 11 26t15 34q5 12 17 35t14 26q2 4 6 12.5t6 12.5q5 10 13 22q23 31 30 51q2 5 9 20.5
t10 22.5q6 19 22 37l5 6q0 5 16 41q19 34 24 49q2 3 5.5 8.5t5.5 8.5q2 2 6 7t6 7q16 20 23 41q3 9 47 64t53 61q22 11 70 27l4 -4q8 -4 20 -4q2 2 6 2q2 0 4 2q6 0 24 -11t23 -16q8 -13 18.5 -43t10.5 -43v-6q6 -7 10 -31t2 -35l-2 -6l4 -4q13 -13 13 -39q0 -5 -2 -16
t-2 -17q0 -10 4 -31.5t4 -31.5v-29q0 -1 1 -3t1 -3l2 -4q0 -15 -1 -43t-1 -41v-31q0 -10 4 -30q0 -14 6 -23l6 -6q1 -1 3 -2t3 -2v-4q-2 -2 -2 -6q-2 -2 -2 -9v-6q2 -2 2 -4v-2q-2 -1 -5 -3t-5 -3q-16 -12 -16 -35v-4l4 -4q2 -2 2 -6q0 -10 -6 -25q0 -6 -4 -14q0 -3 -1 -8.5
t-1 -8.5v-67v-8q0 -4 2 -6v-5v-4q0 -2 -1 -4.5t-1 -3.5q-2 -4 -2 -8q-3 -6 -3 -10v-8q3 -3 3 -5q0 -4 2 -4v-4l-5 -30q-1 -3 -2 -9t-2 -8v-20q0 -13 2 -21v-4q-2 -2 -2 -8t2 -8v-4l2 -4v-7q-2 -2 -2 -6q-4 -4 -4 -16q0 -2 2.5 -10.5t3.5 -8.5q0 -28 -18 -50.5t-41 -22.5
q-1 0 -2 1t-2 1q-1 1 -4 3t-4 3q-4 2 -10 8h-2v14v17q0 5 -1.5 13.5t-1.5 12.5q-2 4 -2 13q-2 2 -2 8l2 4q2 2 5 8v19q0 12 3 37.5t3 39.5v9q0 2 -2 4v4q0 11 -1 36.5t-1 39.5q0 45 6 69q0 5 4 17t4 18q0 19 -8.5 34t-28.5 15h-55q-32 0 -56 -6q-11 -2 -34 -7t-35 -7
q-46 -8 -68 -8q-12 0 -43 -9q-8 -2 -23.5 -7.5t-17.5 -6.5h-8h-16q-11 0 -17 -2q-6 0 -14 -8q-20 -28 -25 -62q-2 -6 -10 -18q-2 -4 -4.5 -7.5t-5.5 -7.5t-4 -6q-22 -39 -33 -77q-1 -2 -2 -6.5t-2 -6.5q0 -4 -1 -7l-1 -3q-4 -4 -4 -6q-6 -6 -8 -10q0 -1 -1 -4.5t-1 -4.5v-6
l-2 -4q0 -1 -2 -2q-1 -1 -1.5 -1t-1.5 -1q-14 -14 -20 -37q0 -6 -2 -8q0 -2 -1 -4.5t-1 -3.5q-26 -44 -37 -51l-2 -4v-2q-7 -19 -10 -23q-2 -3 -7.5 -9t-9.5 -11q-1 -1 -2 -4.5t-2 -4.5q0 -2 -4 -6q-1 -2 -2 -5.5t-2 -4.5l-4 -2v-2q0 -8 -2 -10q-1 0 -3.5 -1t-4.5 -1h-2
l-4 -2q-5 -5 -9 -5q-12 0 -22 13q-4 8 -6 14zM356 389l11 -2q4 0 8 -2h8q19 0 27 2q4 1 11 3t11 3q21 8 45 8q2 0 10.5 1.5t20.5 3t22 2.5q17 0 33 4q3 0 7 1t5 1h5q2 2 6 2q4 4 12 8q1 0 6.5 -1t11.5 -1q52 0 82 12q15 5 21 19v14v12q0 7 2 21.5t2 21.5q0 13 -4 21
q-2 4 -2 8q-2 2 0 4v6q1 1 2 4t2 4v11q0 57 -2 84q-1 2 -2 7t-2 7q0 1 -1 4t-1 4q-2 6 -4 18t-2 13v31q0 3 -1 6.5t-1 5.5q-1 2 -11 49q-5 38 -6 43l-4 4q-1 2 -3 4.5t-3 4t-2 3.5q-1 1 -2.5 4.5t-3.5 6.5q-4 10 -19 10q-21 0 -53 -41q-15 -17 -39 -53q-3 -5 -8.5 -15
t-7.5 -14q-8 -15 -15 -25q0 -2 -2 -4q-1 -1 -3 -2t-3 -2q-1 -2 -5.5 -6.5t-6.5 -7.5q-4 -8 -11.5 -24.5t-11.5 -24.5q-10 -21 -30.5 -57.5t-28.5 -53.5q-7 -16 -14 -41q-1 -2 -2 -5t-2 -5q-1 -1 -6 -9.5t-9 -13.5l-12 -24q-4 -4 -4 -6q-2 -9 -5.5 -17.5t-4.5 -11.5
q-1 -2 -2.5 -6t-2.5 -6t-2 -6.5t-2 -6.5zM479 1227q-1 1 -2 3t-2 3q0 23 23 39q8 8 20 16q12 6 21 12h8q5 0 12 1.5t10 1.5q6 3 15 6q2 -2 10 -6q2 -1 14 -5q18 -9 25 -20l2 -4h2q4 -2 14 -12q3 -4 8.5 -13.5t8.5 -13.5q27 -43 45 -47q12 -4 22 -4q36 0 56 7t36 34
q4 4 19 24q0 4 4 4q0 -1 1 -4.5t1 -5.5q2 -10 2 -26q-1 -3 -3 -6q-1 -4 -1 -5l-10 -20q-7 -13 -48 -31t-59 -18q-10 0 -26 4q-4 1 -13.5 4t-13.5 4q-8 2 -16 10q-7 14 -13 23q-4 8 -18 22l-4 4q-7 18 -24.5 36t-35.5 18q-2 0 -4.5 -1t-3.5 -1q-1 -1 -3 -2.5t-3 -2.5
q-2 -1 -6 -2t-6 -2h-13q-18 -4 -32 -20q-8 -8 -15 -8z" />
    <glyph glyph-name="Adieresis" unicode="&#xc4;" 
d="M23 -111q24 70 57 103q3 4 12 22q1 3 6 23q13 31 23 39l4 8q1 17 20 57t33 60l2 2v4q0 4 2 8v4q1 1 3 2t3 2q7 7 9 13q2 5 5 14t5 14l10 25q17 25 31 61l24 60q5 10 16.5 30.5t16.5 30.5q2 4 6 12.5t6 12.5q5 10 13 22q23 31 30 51q2 5 9 20.5t10 22.5q6 19 22 37l5 6
q0 12 16 41q19 34 24 49q2 3 5.5 8.5t5.5 8.5q2 2 6 7t6 7q16 20 23 41q3 9 47 64t53 61q22 11 70 27l4 -4q8 -4 20 -4q2 2 6 2q2 0 4 2q6 0 24 -11t23 -16q8 -13 18.5 -43t10.5 -43v-6q6 -7 10 -31t2 -35l-2 -6l4 -4q13 -13 13 -39q0 -5 -2 -16t-2 -17q0 -10 4 -31.5
t4 -31.5v-29q0 -1 1 -3t1 -3l2 -4q0 -15 -1 -43t-1 -41v-31q0 -10 4 -30q0 -14 6 -23l6 -6q1 -1 3 -2t3 -2v-4q-2 -2 -2 -6q-2 -2 -2 -9v-6q2 -2 2 -6q-2 -1 -5 -3t-5 -3q-16 -12 -16 -35v-4l4 -4q2 -2 2 -6q0 -10 -6 -25q0 -6 -4 -14q0 -3 -1 -8.5t-1 -8.5v-67v-8
q0 -4 2 -6v-5v-4q0 -2 -1 -4.5t-1 -3.5q-2 -4 -2 -8q-3 -6 -3 -10q1 -17 5 -17v-4l-5 -30q-1 -3 -2 -9t-2 -8q0 -3 -1 -9.5t-1 -10.5q0 -5 4 -21v-4q-2 -2 -2 -8v-8l2 -4q0 -4 2 -4q0 -5 -2 -7v-6l-2 -6q0 -2 -1 -5.5t-1 -4.5q0 -10 4 -14q0 -5 2 -7q0 -27 -18 -49t-41 -22
q-1 0 -2 1t-2 1q-2 2 -10 6l-8 8q-2 6 -2 14v17q0 5 -1.5 13.5t-1.5 12.5q-2 4 -2 13q-2 2 -2 8l2 4q2 2 5 8v19q0 12 3 37.5t3 39.5v9q-2 2 -2 4v4q0 11 -1 36.5t-1 39.5q0 45 6 69q0 5 4 17q2 6 2 18q0 49 -37 49h-53q-32 0 -56 -6q-11 -2 -34 -7t-35 -7q-46 -8 -68 -8
q-16 0 -43 -9q-8 -2 -23.5 -7.5t-17.5 -6.5h-8h-16q-11 0 -17 -2q-6 0 -14 -8q-20 -28 -25 -62q-2 -6 -10 -18q-2 -4 -4.5 -7.5t-5.5 -7.5t-4 -6q-22 -39 -33 -77q-1 -2 -2 -6.5t-2 -6.5q0 -4 -1 -7l-1 -3q-4 -4 -4 -6q-6 -6 -8 -10q0 -1 -1 -4.5t-1 -4.5v-6l-2 -4
q0 -1 -2 -2q-1 -1 -1.5 -1t-1.5 -1q-15 -8 -20 -37q0 -6 -2 -8q0 -4 -4 -8q-3 -8 -17 -28t-18 -23l-2 -4v-2q-7 -19 -10 -23q-2 -3 -7.5 -9t-9.5 -11q-1 -1 -2 -4.5t-2 -4.5t-2 -3t-2 -3q-1 -2 -2 -5.5t-2 -4.5l-4 -2v-2q0 -8 -2 -10q-1 0 -3.5 -1t-4.5 -1h-2l-4 -2
q-5 -5 -9 -5q-12 0 -22 13q-4 8 -6 14t-6 14zM358 401l-2 -12l11 -2q4 0 8 -2h8q19 0 27 2q4 1 11 3t11 3q21 8 45 8q2 0 10.5 1.5t20.5 3t22 2.5q17 0 33 4q3 0 7 1t5 1h5l4 2q6 4 14 8q1 0 6.5 -1t11.5 -1q52 0 82 12q15 5 21 19v14v12q0 7 2 21.5t2 21.5q0 21 -8 29
q0 2 2 4v6q2 2 2 8q2 2 2 11q0 57 -2 84q-1 2 -2 7t-2 7q0 4 -4 8q-4 20 -4 31v31q0 3 -1 6.5t-1 5.5q-1 2 -11 49q-4 36 -8 43v2l-2 2q-1 2 -3 4.5t-3 4t-2 3.5q-1 1 -2.5 4.5t-3.5 6.5q-4 10 -19 10q-19 0 -55 -41q-12 -15 -37 -53q-3 -5 -8.5 -15t-7.5 -14
q-8 -15 -15 -25q0 -2 -2 -4q-1 -1 -3 -2t-3 -2q-8 -8 -12 -14q-4 -8 -11.5 -24.5t-11.5 -24.5q-10 -21 -30.5 -57.5t-28.5 -53.5q-7 -16 -14 -41q-1 -2 -2 -5t-2 -5q-1 -1 -6 -9.5t-9 -13.5l-12 -24q-4 -4 -4 -6q-8 -22 -10 -29q-1 -2 -2.5 -6t-2.5 -6t-2 -6.5t-2 -6.5z
M467 1307q0 19 4 47q3 3 35.5 24t36.5 21q13 0 30 -19t17 -34q0 -7 -2 -9q-18 -67 -84 -67q-2 0 -6 4q-2 2 -7 6.5t-8 7.5q-9 9 -12 15zM745 1300q0 1 -1 2.5t-1 2.5q0 29 5 47q0 2 33.5 23.5t37.5 21.5q13 0 30 -19.5t17 -34.5q0 -6 -2 -8q-18 -67 -84 -67q-2 0 -6 4
q-8 8 -14 12q-2 3 -15 16z" />
    <glyph glyph-name="Aring" unicode="&#xc5;" 
d="M29 -125q-2 6 -6 14q24 70 57 103q3 4 12 22q1 3 6 23q13 31 23 39l4 8q1 17 20 57t33 60l2 2v4q0 4 2 8v4q1 1 3 2t3 2q7 7 9 13q2 5 5 14t5 14l10 25q17 25 31 61l24 60q5 10 16.5 30.5t16.5 30.5q2 4 6 12.5t6 12.5q5 10 13 22q23 31 30 51q2 5 9 20.5t10 22.5
q6 19 22 37l5 6q0 12 16 41q19 34 24 49q2 3 5.5 8.5t5.5 8.5q2 2 6 7t6 7q16 20 23 41q3 9 47 64t53 61q22 11 70 27l4 -4q8 -4 20 -4q2 2 6 2q2 0 4 2q6 0 24 -11t23 -16q8 -13 18.5 -43t10.5 -43v-6q6 -7 10 -31t2 -35l-2 -6l4 -4q13 -13 13 -39q0 -5 -2 -16t-2 -17
q0 -10 4 -31.5t4 -31.5v-29q0 -1 1 -3t1 -3l2 -4q0 -15 -1 -43t-1 -41v-31q0 -10 4 -30q0 -14 6 -23l6 -6q1 -1 3 -2t3 -2v-4q-2 -2 -2 -6q-2 -2 -2 -9v-6q2 -2 2 -6q-2 -1 -5 -3t-5 -3q-16 -12 -16 -35v-4l4 -4q2 -2 2 -6q0 -10 -6 -25q0 -6 -4 -14q0 -3 -1 -8.5t-1 -8.5
v-67v-8q0 -4 2 -6v-5v-4q0 -2 -1 -4.5t-1 -3.5q-2 -4 -2 -8q-3 -6 -3 -10q1 -17 5 -17v-4l-5 -30q-1 -3 -2 -9t-2 -8q0 -3 -1 -9.5t-1 -10.5q0 -5 4 -21v-4q-2 -2 -2 -8v-8l2 -4q0 -4 2 -4q0 -5 -2 -7v-6l-2 -6q0 -2 -1 -5.5t-1 -4.5q0 -10 4 -14q0 -5 2 -7q0 -27 -18 -49
t-41 -22q-1 0 -2 1t-2 1q-2 2 -10 6l-8 8q-2 6 -2 14v17q0 5 -1.5 13.5t-1.5 12.5q-2 4 -2 13q-2 2 -2 8l2 4q2 2 5 8v19q0 12 3 37.5t3 39.5v9q-2 2 -2 4v4q0 11 -1 36.5t-1 39.5q0 45 6 69q0 5 4 17q2 6 2 18q0 49 -37 49h-53q-32 0 -56 -6q-11 -2 -34 -7t-35 -7
q-46 -8 -68 -8q-16 0 -43 -9q-8 -2 -23.5 -7.5t-17.5 -6.5h-8h-16q-11 0 -17 -2q-6 0 -14 -8q-20 -28 -25 -62q-2 -6 -10 -18q-2 -4 -4.5 -7.5t-5.5 -7.5t-4 -6q-22 -39 -33 -77q-1 -2 -2 -6.5t-2 -6.5q0 -4 -1 -7l-1 -3q-4 -4 -4 -6q-6 -6 -8 -10q0 -1 -1 -4.5t-1 -4.5v-6
l-2 -4q0 -1 -2 -2q-1 -1 -1.5 -1t-1.5 -1q-15 -8 -20 -37q0 -6 -2 -8q0 -4 -4 -8q-3 -8 -17 -28t-18 -23l-2 -4v-2q-7 -19 -10 -23q-2 -3 -7.5 -9t-9.5 -11q-1 -1 -2 -4.5t-2 -4.5t-2 -3t-2 -3q-1 -2 -2 -5.5t-2 -4.5l-4 -2v-2q0 -8 -2 -10q-1 0 -3.5 -1t-4.5 -1h-2l-4 -2
q-5 -5 -9 -5q-12 0 -22 13q-4 8 -6 14zM356 389l11 -2q4 0 8 -2h8q19 0 27 2q4 1 11 3t11 3q21 8 45 8q2 0 10.5 1.5t20.5 3t22 2.5q17 0 33 4q3 0 7 1t5 1h5l4 2q6 4 14 8q1 0 6.5 -1t11.5 -1q52 0 82 12q15 5 21 19v14v12q0 7 2 21.5t2 21.5q0 21 -8 29q0 2 2 4v6q2 2 2 8
q2 2 2 11q0 57 -2 84q-1 2 -2 7t-2 7q0 4 -4 8q-4 20 -4 31v31q0 3 -1 6.5t-1 5.5q-1 2 -11 49q-4 36 -8 43v2l-2 2q-1 2 -3 4.5t-3 4t-2 3.5q-1 1 -2.5 4.5t-3.5 6.5q-4 10 -19 10q-19 0 -55 -41q-12 -15 -37 -53q-3 -5 -8.5 -15t-7.5 -14q-8 -15 -15 -25q0 -2 -2 -4
q-1 -1 -3 -2t-3 -2q-8 -8 -12 -14q-4 -8 -11.5 -24.5t-11.5 -24.5q-10 -21 -30.5 -57.5t-28.5 -53.5q-7 -16 -14 -41q-1 -2 -2 -5t-2 -5q-1 -1 -6 -9.5t-9 -13.5l-12 -24q-4 -4 -4 -6q-8 -22 -10 -29q-1 -2 -2.5 -6t-2.5 -6t-2 -6.5t-2 -6.5zM563 1190q-3 4 -9 14.5t-9 14.5
v12q2 2 2 8l-2 -2l4 10q0 42 54.5 93t96.5 51q3 0 5.5 -1t6.5 -2t7 -2q35 -14 45 -30q1 -3 2 -12t2 -13v-41v-4q-1 -13 -14.5 -39t-24.5 -37l-8 -8q0 -2 -2 -4q-10 -12 -49.5 -22.5t-63.5 -10.5zM684 1343q-21 0 -57.5 -34t-36.5 -58q0 -23 19.5 -34t37.5 -11q31 0 55.5 31
t24.5 63q0 19 -14 31t-29 12z" />
    <glyph glyph-name="AE" unicode="&#xc6;" horiz-adv-x="1333" 
d="M-59 -193q29 57 75 99q15 15 17 18q9 17 10 23q14 24 31 39l2 2v2q8 22 35 57q4 4 11 13.5t11 13.5q12 15 21 30q2 2 2 7q2 2 2 6l2 4l6 4q7 3 10 10q1 1 8 15q6 6 9 14q2 4 14 22q28 35 39 56q27 40 35 55q8 11 24.5 31t24.5 32q6 11 16 25q10 15 16 21q9 12 19 22
q9 10 20 27q18 25 27 41q15 22 29 34l4 5q2 6 24 40q27 36 33 46q8 8 12 14q6 6 15 12q21 21 26 31q16 25 63 74t66 57q17 10 76 27q13 -9 19 -9q1 0 3 1t3 1h6q2 2 4 2q6 0 8 -2l8 -4q2 -1 4.5 -3t4.5 -3t3.5 -2t2.5 -2l4 -4l6 2q12 7 55.5 20t55.5 13q6 0 10 -2
q50 0 106 16q7 2 22.5 6t22.5 6q2 0 19.5 3.5t25.5 3.5q7 0 9 2q2 0 4.5 1t3.5 1l4 2l4 2q5 0 15.5 -2t15.5 -2q8 0 12 4q2 0 4 2q14 0 31 -17q4 -12 4 -14q1 -1 2 -3t2 -3q0 -34 -35 -41q-12 -2 -37 -2h-37q-2 0 -7 -1t-7 -1l-12 -6q-9 -5 -12 -2l-5 2l-4 -2
q-29 -6 -88 -18.5t-88 -18.5q-16 -4 -20 -4q-4 -2 -8 -2l-7 -4q-4 -4 -17 -51t-13 -56v-4q2 -2 2 -4q0 -18 -11 -47q-1 -4 -3 -13.5t-3 -13.5t-3 -13t-3 -13v-5l2 -2q2 -4 2 -10v-6q0 -2 -4 -10q-4 -22 -8 -33q-16 -65 -16 -68v-6l16 -14h29q19 0 55 8q9 2 26.5 7.5
t26.5 7.5q10 4 22 6t27 3.5t23 2.5q1 1 4 2t4 2t4 2t4 2l8 4q7 0 21.5 -2t21.5 -2h15q8 0 10 -2q6 -3 6 -14q0 -39 -35 -50q-9 -3 -39 -8q-23 -3 -43 -12q-20 -10 -40 -10h-9q-8 0 -24 -4q-3 -1 -10.5 -4.5t-10.5 -4.5q-20 -4 -30 -4q-17 0 -41 -8q-25 -8 -35 -10h-4l-2 -2
q-1 -1 -17 -12l-8 -7l4 -8q0 -4 2 -8q0 -11 -4 -31l-6 -30v-9q2 -2 2 -6q0 -14 -6 -32q-4 -11 -8 -37q-5 -19 -9 -78q-4 -22 -8 -35q-6 -36 -6 -39q0 -14 11.5 -31.5t27.5 -17.5q26 0 80 7t82 7q8 0 24 4q4 0 11.5 1t11.5 1h65q16 0 45.5 5.5t43.5 5.5q23 0 38 -9
q15 -8 15 -26q0 -51 -127 -51q-2 0 -4 2q-1 0 -6 1t-7 1q-10 0 -16 -2h-10h-4l-2 -2q-2 -2 -6 -2q-11 3 -11 4h-6q-16 0 -22 -2q-4 -1 -11.5 -2t-11.5 -2q-21 -7 -39 -7q-2 2 -4 2h-8q-14 0 -44 -5t-44 -5h-2l-4 -2q-40 -8 -62 -8h-4q-2 2 -8 2q-5 0 -15.5 -2t-15.5 -2
q-2 2 -4 2t-10 4q-16 8 -21 8l-4 2l-4 -2l-24 -12q-12 -6 -23 -6q-8 4 -10 6l-6 6l-2 2l4.5 31.5t3.5 38.5q0 1 1 2t1 2q2 2 6 10q0 1 1 4.5t1 5.5q1 2 2 7.5t2 7.5q1 4 2 11.5t2 10.5q7 13 9 23q2 6 6 22v6q2 21 13 76t17 70q1 4 4.5 11l4.5 9q6 12 6 29q0 15 -8.5 26
t-24.5 11h-55q-6 -1 -17.5 -1.5t-21 -1.5t-17.5 -3q-13 -2 -36 -7.5t-35 -7.5q-46 -8 -70 -8t-45 -6q-8 -2 -23.5 -7.5t-17.5 -6.5h-10h-15q-24 0 -32 -11q-18 -18 -29 -51q-1 -2 -4 -6t-4 -6q-5 -7 -15 -14q-1 -1 -3 -4.5t-3 -4.5l-8 -8q-42 -59 -51 -84q-4 -8 -6 -10
t-2 -4q-1 0 -2 -1t-2 -1q-8 -8 -9 -10q-1 -1 -2 -3t-2 -3q0 -5 -2 -7q0 -2 -2 -4q-4 -6 -6 -8q-5 0 -13.5 -12t-10.5 -19l-5 -10l-6 -6q-6 -12 -14 -20q-28 -28 -49 -58q-1 -2 -4 -6t-4 -6q-2 -2 -6.5 -6t-6.5 -6q-17 -17 -24 -31q-2 -1 -7.5 -3t-7.5 -3q-1 0 -4 -1t-4 -1
t-2 -1t-2 -1q-13 0 -16 10l-4 12q0 2 -1 6.5t-1 7.5zM369 299l-7 -12l15 -4q4 0 6 -2h10q19 0 27 2l24 6q32 8 45 8q12 0 57.5 4.5t53.5 7.5q9 6 12 6q2 0 4 2q1 0 3 -0.5t6.5 -1t9.5 -0.5q66 0 90 17q18 11 18 41q1 2 2.5 6t2.5 6q8 20 8 37q0 2 -1 5t-1 5v4q0 4 2 6
q0 5 4 13q14 27 14 102v6v33v6q0 4 2 6q0 1 1 4t1 4v11v12q-2 4 -2 8v17q0 37 2 55v6l-4 6q-4 4 -4 6q-5 25 -25 25q-8 0 -24 -8q-7 -7 -23 -19q-46 -46 -82 -90q-2 -2 -10 -14q-2 -4 -6 -8q0 -1 -4 -5q-1 -1 -3 -2t-3 -2q-10 -5 -15 -12q-6 -7 -16 -23.5t-16 -23.5
q-8 -13 -26.5 -36t-24.5 -32q-42 -58 -48 -75q-2 -8 -18 -23q-4 -5 -23 -24q-3 -5 -18 -33.5t-16 -32.5z" />
    <glyph glyph-name="Ccedilla" unicode="&#xc7;" horiz-adv-x="811" 
d="M166 336q0 4 2 10q6 12 6 14q16 60 16 117q0 62 52.5 174.5t97.5 155.5q47 45 107 87t96 42q12 0 18 6q1 0 3 1t3 1h4l4 -2h7h8l8 2q1 0 2 1t2 1h4q19 0 23 -6l4 -2h8q15 0 44.5 -29t29.5 -51q2 -2 2 -8l4 -10q-1 -2 -3 -7.5t-3 -7.5q0 -6 -4 -14q-9 -6 -17 -10
q-18 -6 -24 -6q-14 0 -25 14q-1 1 -4 6t-4 8q-5 10 -10 15q-3 2 -10.5 6t-10.5 6q-8 4 -20 12l-4 2h-2q-46 -7 -74 -17.5t-55 -37.5q-1 -1 -2.5 -3t-2.5 -3l-8 -8q-1 -3 -10 -7q-4 -2 -12 -10l-5 -5t-10 -9.5t-10 -9.5q-3 -3 -7.5 -9t-6.5 -8l-6 -6l-4 -8q0 -6 -2 -8v-4
q-6 -6 -9 -6q-11 -11 -16 -19q-2 -6 -10 -27.5t-13 -31.5q-1 -1 -6 -9.5t-6 -13.5q-8 -16 -8 -29q0 -8 -2 -14q0 -6 -4 -14q-10 -30 -10 -55q0 -10 -9 -37q-10 -35 -12 -41q-4 -20 -4 -33q0 -4 2 -6v-6q0 -5 -2 -7q-4 -8 -4 -18q0 -34 2 -70t10.5 -89t22 -92.5t39.5 -68
t61 -28.5q8 0 16 4q4 4 7 4q4 4 12 4h10q23 6 27 8t12.5 9t13.5 10q137 83 152 94q8 6 24.5 20.5t24.5 20.5q25 18 45 18q5 0 8 -8q4 -8 4 -20q0 -8 -6 -24.5t-10 -20.5q-33 -29 -68 -52q-57 -40 -69 -49q-23 -19 -105 -59.5t-100 -40.5q-23 0 -63 14q-13 -21 -15 -39l-2 -6
l6 -4q10 -8 23 -12h12q2 -2 10 -2q12 0 45 -19q1 -1 3.5 -2t3.5 -2q6 0 8 -2l8 -4q53 -39 53 -100q0 -23 -18 -41.5t-43 -26.5q-3 -2 -6 -3t-7 -1.5t-6 -1.5q-21 -5 -22 -6q-6 -2 -21 -2h-12q-4 -2 -12 -2q-1 -1 -4 -2t-4 -2l-9 -2q-4 -2 -12 -2h-18q-17 0 -23 2
q-13 1 -15.5 4.5t-2.5 13.5q9 16 28 21q6 1 21 2t22 2t16 2t20.5 2t17.5 2q6 0 14 4q4 4 10 4q9 6 19 6h4l14 12v5q0 4 2 8q0 27 -14 41q-30 39 -92 47q-6 1 -19.5 3t-19.5 3q-14 3 -25 10q0 4 -2 4v4q0 6 2.5 16.5t3.5 14.5q2 4 3.5 8.5t3.5 11.5t3 11q3 14 13 31
q-3 6 -6 6q-13 8 -29.5 25t-22.5 30q-8 12 -8 20q-3 14 -10 21l-4 4q-2 2 -2 4q-1 2 -2 6t-2 6q-1 3 -2 9t-2 8q-4 19 -15 33q-4 29 -8 79q0 55 -2 84q0 13 -4 33q0 5 -1 14.5t-1 14.5z" />
    <glyph glyph-name="Egrave" unicode="&#xc8;" horiz-adv-x="772" 
d="M115 -86v4q0 13 2 19q0 2 1 6t1 6v12q4 8 4 16q4 18 6 23q6 24 10 72l2 4l-2 4l-2 4q0 2 1 3.5t1 2.5q2 4 2 10q2 2 2 9q4 16 11 51q8 40 8 51q0 6 -2 8v6q-2 0 -2 4q0 1 1 3.5t1 3.5q4 8 4 10l2 4v2q-2 12 -2 41q0 6 5.5 30.5t8.5 28.5l2 2v4q0 6 17 86q12 58 12 93
q0 2 8 22q4 8 4 14q4 8 4 17l-2 8q0 2 1 5t1 5q1 2 3 6.5t3 6.5v6q0 2 -2 4q0 9 9 41q2 5 7 20.5t7 24.5q4 17 8 43q4 24 6 28q10 27 49 39q51 19 76 19q6 0 10 -2q51 0 107 16q8 2 23.5 6t23.5 6q3 0 19 3.5t24 3.5t10 2q1 0 3 1t3 1q8 4 11 4q5 0 14 -2t14 -2q8 0 17 6
q15 0 27 -12t12 -27q0 -33 -35 -39q-12 -2 -37 -2h-35q-3 0 -7.5 -1t-6.5 -1q-2 -1 -6.5 -3t-6.5 -3q-11 -5 -14 -2l-4 2l-2 -2q-30 -6 -88.5 -18.5t-87.5 -18.5q-20 -4 -23 -4l-6 -2l-8 -4q-4 -4 -17.5 -51t-13.5 -56l2 -4q0 -19 -8 -51q-1 -4 -4 -13.5t-4 -13.5
q-4 -16 -4 -26v-7q4 -8 4 -10t-4 -18q-1 -8 -10 -33q-15 -50 -15 -66v-6l17 -14h26q20 0 56 8q10 2 28 7.5t25 7.5q15 4 41.5 7.5t30.5 4.5q2 1 5.5 2t4.5 2q4 4 6 4l8 4q7 0 21.5 -2t21.5 -2h14q9 0 11 -2q8 -4 8 -14q0 -39 -35 -50q-11 -4 -41 -8q-31 -9 -43 -14
q-28 -8 -41 -8q-16 0 -22 -2q-20 -5 -23 -6q-32 -9 -39 -9q-14 0 -26 -6q-3 -1 -10.5 -4t-10.5 -4q-8 0 -12 -2h-8q-7 0 -9 -2q-12 -3 -17.5 -9.5t-6 -11.5t-0.5 -16q0 -5 -1 -15.5t-1 -15.5q-1 -5 -4 -15t-4 -15v-4l2 -5q0 -14 -7 -38q-1 -6 -4 -18.5t-4 -18.5
q-2 -13 -4 -39t-4 -39q0 -5 -1 -11t-2.5 -13t-2.5 -11q-6 -18 -6 -39q0 -14 11.5 -31.5t25.5 -17.5q28 0 81.5 7t79.5 7q9 0 25 4q4 0 11.5 1t11.5 1h67q14 0 43 5.5t43 5.5q24 0 39 -9q16 -6 16 -26q0 -51 -127 -51q-2 0 -4 2q-2 0 -6.5 1t-7.5 1q-10 0 -14 -2h-13h-2
l-4 -2q-2 -2 -6 -2l-8 4h-8q-15 0 -23 -2q-12 -4 -20 -4q-25 -7 -39 -7q-1 0 -3 1t-3 1h-9q-14 0 -44 -5t-44 -5h-2l-2 -2q-51 -10 -55 -10h-4q-2 2 -4 2h-4q-2 2 -6 2q-5 0 -16.5 -2t-16.5 -2q-8 4 -10 4q-2 1 -5.5 2.5t-6 2.5t-3.5 1q-19 10 -24 19v18q0 3 1 14t1 17
q0 4 -2 6v4zM399 1149q-14 11 -14 25q0 6 10 14q12 6 27 6l4 -4q1 -1 4 -2.5l6 -3t6 -2.5q5 -3 11 -7.5t9.5 -7t4.5 -2.5l4 -4q2 -4 10 -12q12 -16 21 -25q20 -13 53 -43q8 -6 20.5 -21t12.5 -22q0 -18 -23 -18q-22 0 -49 27q-12 7 -27 22q-20 20 -24 23q-1 0 -2.5 1
t-3.5 2.5t-4 2.5t-6.5 3t-6.5 3l-12 6q0 1 -1 2t-1 2q-2 2 -2 4q-3 13 -12 19l-6 6z" />
    <glyph glyph-name="Eacute" unicode="&#xc9;" horiz-adv-x="772" 
d="M115 -82q0 13 2 19q0 2 1 6t1 6v12q4 8 4 16q4 18 6 23q6 24 10 72l2 4l-2 4l-2 4q0 2 1 3.5t1 2.5q2 4 2 10q2 2 2 9q4 16 11 51q8 40 8 51q0 6 -2 8v6q-2 0 -2 4q0 1 1 3.5t1 3.5q4 8 4 10l2 4v2q-2 12 -2 41q0 6 5.5 30.5t8.5 28.5l2 2v4q0 6 17 86q12 58 12 93
q0 2 8 22q4 8 4 14q4 8 4 17l-2 8q0 2 1 5t1 5q1 2 3 6.5t3 6.5v6q0 2 -2 4q0 9 9 41q2 5 7 20.5t7 24.5q4 17 8 43q4 24 6 28q10 27 49 39q51 19 76 19q6 0 10 -2q51 0 107 16q8 2 23.5 6t23.5 6q3 0 19 3.5t24 3.5t10 2q1 0 3 1t3 1q8 4 11 4q5 0 14 -2t14 -2q8 0 17 6
q15 0 27 -12t12 -27q0 -33 -35 -39q-12 -2 -37 -2h-35q-3 0 -7.5 -1t-6.5 -1q-2 -1 -6.5 -3t-6.5 -3q-11 -5 -14 -2l-4 2l-2 -2q-30 -6 -88.5 -18.5t-87.5 -18.5q-20 -4 -23 -4l-6 -2l-8 -4q-4 -4 -17.5 -51t-13.5 -56l2 -4q0 -19 -8 -51q-1 -4 -4 -13.5t-4 -13.5
q-4 -16 -4 -26v-7q4 -8 4 -10t-4 -18q-1 -8 -10 -33q-15 -50 -15 -66v-6l17 -14h26q20 0 56 8q10 2 28 7.5t25 7.5q15 4 41.5 7.5t30.5 4.5q2 1 5.5 2t4.5 2q4 4 6 4l8 4q7 0 21.5 -2t21.5 -2h14q9 0 11 -2q8 -4 8 -14q0 -39 -35 -50q-11 -4 -41 -8q-31 -9 -43 -14
q-28 -8 -41 -8q-16 0 -22 -2q-20 -5 -23 -6q-32 -9 -39 -9q-14 0 -26 -6q-3 -1 -10.5 -4t-10.5 -4q-8 0 -12 -2h-8q-7 0 -9 -2q-12 -3 -17.5 -9.5t-6 -11.5t-0.5 -16q0 -5 -1 -15.5t-1 -15.5q-1 -5 -4 -15t-4 -15v-4l2 -5q0 -14 -7 -38q-1 -6 -4 -18.5t-4 -18.5
q-2 -13 -4 -39t-4 -39q0 -5 -1 -11t-2.5 -13t-2.5 -11q-6 -18 -6 -39q0 -14 11.5 -31.5t25.5 -17.5q28 0 81.5 7t79.5 7q9 0 25 4q4 0 11.5 1t11.5 1h67q14 0 43 5.5t43 5.5q24 0 39 -9q16 -6 16 -26q0 -51 -127 -51q-2 0 -4 2q-2 0 -6.5 1t-7.5 1q-10 0 -14 -2h-13h-2
l-4 -2q-2 -2 -6 -2l-8 4h-8q-15 0 -23 -2q-12 -4 -20 -4q-25 -7 -39 -7q-1 0 -3 1t-3 1h-9q-14 0 -44 -5t-44 -5h-2l-2 -2q-51 -10 -55 -10h-4q-2 2 -4 2h-4q-2 2 -6 2q-5 0 -16.5 -2t-16.5 -2q-8 4 -10 4q-2 1 -5.5 2.5t-6 2.5t-3.5 1q-19 10 -24 19v18q0 3 1 14t1 17
q0 4 -2 6v4v4zM461 977q-4 4 -6 4q0 9 6 18q2 8 12 23q6 12 14 20q39 39 60 68q3 4 9 12.5t9 12.5q9 12 19 22q0 2 4.5 7t5.5 5q23 5 27 5t14 -5q6 -4 6 -8q0 -17 -25 -45q-6 -7 -21.5 -23.5t-19.5 -21.5q-9 -14 -10 -16q-2 -2 -5 -6.5t-5 -6.5q-14 -20 -43.5 -41t-50.5 -24
z" />
    <glyph glyph-name="Ecircumflex" unicode="&#xca;" horiz-adv-x="772" 
d="M115 -82q0 13 2 19q0 2 1 6t1 6v12q4 8 4 16q4 18 6 23q6 24 10 72l2 4l-2 4l-2 4q0 2 1 3.5t1 2.5q2 4 2 10q2 2 2 9q4 16 11 51q8 40 8 51q0 6 -2 8v6q-2 0 -2 4q0 1 1 3.5t1 3.5q4 8 4 10l2 4v2q-2 12 -2 41q0 6 5.5 30.5t8.5 28.5l2 2v4q0 6 17 86q12 58 12 93
q0 2 8 22q4 8 4 14q4 8 4 17l-2 8q0 2 1 5t1 5q1 2 3 6.5t3 6.5v6q0 2 -2 4q0 9 9 41q2 5 7 20.5t7 24.5q4 17 8 43q4 24 6 28q10 27 49 39q51 19 76 19q6 0 10 -2q51 0 107 16q8 2 23.5 6t23.5 6q3 0 19 3.5t24 3.5t10 2q1 0 3 1t3 1q8 4 11 4q5 0 14 -2t14 -2q8 0 17 6
q15 0 27 -12t12 -27q0 -33 -35 -39q-12 -2 -37 -2h-35q-3 0 -7.5 -1t-6.5 -1q-2 -1 -6.5 -3t-6.5 -3q-11 -5 -14 -2l-4 2l-2 -2q-30 -6 -88.5 -18.5t-87.5 -18.5q-20 -4 -23 -4l-6 -2l-8 -4q-4 -4 -17.5 -51t-13.5 -56l2 -4q0 -19 -8 -51q-1 -4 -4 -13.5t-4 -13.5
q-4 -16 -4 -26v-7q4 -8 4 -10t-4 -18q-1 -8 -10 -33q-15 -50 -15 -66v-6l17 -14h26q20 0 56 8q10 2 28 7.5t25 7.5q15 4 41.5 7.5t30.5 4.5q2 1 5.5 2t4.5 2q4 4 6 4l8 4q7 0 21.5 -2t21.5 -2h14q9 0 11 -2q8 -4 8 -14q0 -39 -35 -50q-11 -4 -41 -8q-31 -9 -43 -14
q-28 -8 -41 -8q-16 0 -22 -2q-20 -5 -23 -6q-32 -9 -39 -9q-14 0 -26 -6q-3 -1 -10.5 -4t-10.5 -4q-8 0 -12 -2h-8q-7 0 -9 -2q-12 -3 -17.5 -9.5t-6 -11.5t-0.5 -16q0 -5 -1 -15.5t-1 -15.5q-1 -5 -4 -15t-4 -15v-4l2 -5q0 -14 -7 -38q-1 -6 -4 -18.5t-4 -18.5
q-2 -13 -4 -39t-4 -39q0 -5 -1 -11t-2.5 -13t-2.5 -11q-6 -18 -6 -39q0 -14 11.5 -31.5t25.5 -17.5q28 0 81.5 7t79.5 7q9 0 25 4q4 0 11.5 1t11.5 1h67q14 0 43 5.5t43 5.5q24 0 39 -9q16 -6 16 -26q0 -51 -127 -51q-2 0 -4 2q-2 0 -6.5 1t-7.5 1q-10 0 -14 -2h-13h-2
l-4 -2q-2 -2 -6 -2l-8 4h-8q-15 0 -23 -2q-12 -4 -20 -4q-25 -7 -39 -7q-1 0 -3 1t-3 1h-9q-14 0 -44 -5t-44 -5h-2l-2 -2q-51 -10 -55 -10h-4q-2 2 -4 2h-4q-2 2 -6 2q-5 0 -16.5 -2t-16.5 -2q-8 4 -10 4q-2 1 -5.5 2.5t-6 2.5t-3.5 1q-19 10 -24 19v18q0 3 1 14t1 17
q0 4 -2 6v4v4zM315 1044q0 25 35 72q5 8 15 22t12 17q14 17 20 33q0 2 2 4q1 1 4.5 2t4.5 2l4 4q1 2 12 19q3 3 8 9t8 9q15 18 27 33q15 18 25 26q29 25 67 25q13 0 38.5 -20.5t27.5 -32.5l2 -6l4 -2q14 -11 24 -31q8 -12 11 -21q12 -18 14 -20q4 -6 41.5 -39t42.5 -33l4 -2
q0 -1 1 -3.5t1 -4.5q0 -12 -14 -19q-13 -8 -33 -8q-7 2 -43 29q-38 34 -45 43q-1 2 -4 6t-4 6q-1 1 -6 11q-3 4 -9.5 13t-9.5 13q-11 11 -31 35l-4 4q0 4 -4 8q-4 12 -12 17l-4 2h-8q-17 0 -39 -29q-12 -24 -47 -59q-17 -22 -17 -23q-6 -12 -16 -22q-2 -5 -8.5 -14t-8.5 -13
t-7.5 -15.5t-8.5 -17.5q-11 -17 -22 -29q-17 -20 -37 -20q-5 0 -9 5.5t-4 14.5z" />
    <glyph glyph-name="Edieresis" unicode="&#xcb;" horiz-adv-x="772" 
d="M115 -82q0 13 2 19q0 2 1 6t1 6v12q4 8 4 16q4 18 6 23q6 24 10 72l2 4l-2 4l-2 4q0 2 1 3.5t1 2.5q2 4 2 10q2 2 2 9q4 16 11 51q8 40 8 51q0 6 -2 8v6q-2 0 -2 4q0 1 1 3.5t1 3.5q4 8 4 10l2 4v2q-2 12 -2 41q0 6 5.5 30.5t8.5 28.5l2 2v4q0 6 17 86q12 58 12 93
q0 2 8 22q4 8 4 14q4 8 4 17l-2 8q0 2 1 5t1 5q1 2 3 6.5t3 6.5v6q0 2 -2 4q0 9 9 41q2 5 7 20.5t7 24.5q4 17 8 43q4 24 6 28q10 27 49 39q51 19 76 19q6 0 10 -2q51 0 107 16q8 2 23.5 6t23.5 6q3 0 19 3.5t24 3.5t10 2q1 0 3 1t3 1q8 4 11 4q5 0 14 -2t14 -2q8 0 17 6
q15 0 27 -12t12 -27q0 -33 -35 -39q-12 -2 -37 -2h-35q-3 0 -7.5 -1t-6.5 -1q-2 -1 -6.5 -3t-6.5 -3q-11 -5 -14 -2l-4 2l-2 -2q-30 -6 -88.5 -18.5t-87.5 -18.5q-20 -4 -23 -4l-6 -2l-8 -4q-4 -4 -17.5 -51t-13.5 -56l2 -4q0 -19 -8 -51q-1 -4 -4 -13.5t-4 -13.5
q-4 -16 -4 -26v-7q4 -8 4 -10t-4 -18q-1 -8 -10 -33q-15 -50 -15 -66v-6l17 -14h26q20 0 56 8q10 2 28 7.5t25 7.5q15 4 41.5 7.5t30.5 4.5q2 1 5.5 2t4.5 2q4 4 6 4l8 4q7 0 21.5 -2t21.5 -2h14q9 0 11 -2q8 -4 8 -14q0 -39 -35 -50q-11 -4 -41 -8q-31 -9 -43 -14
q-28 -8 -41 -8q-16 0 -22 -2q-20 -5 -23 -6q-32 -9 -39 -9q-14 0 -26 -6q-3 -1 -10.5 -4t-10.5 -4q-8 0 -12 -2h-8q-7 0 -9 -2q-12 -3 -17.5 -9.5t-6 -11.5t-0.5 -16q0 -5 -1 -15.5t-1 -15.5q-1 -5 -4 -15t-4 -15v-4l2 -5q0 -14 -7 -38q-1 -6 -4 -18.5t-4 -18.5
q-2 -13 -4 -39t-4 -39q0 -5 -1 -11t-2.5 -13t-2.5 -11q-6 -18 -6 -39q0 -14 11.5 -31.5t25.5 -17.5q28 0 81.5 7t79.5 7q9 0 25 4q4 0 11.5 1t11.5 1h67q14 0 43 5.5t43 5.5q24 0 39 -9q16 -6 16 -26q0 -51 -127 -51q-2 0 -4 2q-2 0 -6.5 1t-7.5 1q-10 0 -14 -2h-13h-2
l-4 -2q-2 -2 -6 -2l-8 4h-8q-15 0 -23 -2q-12 -4 -20 -4q-25 -7 -39 -7q-1 0 -3 1t-3 1h-9q-14 0 -44 -5t-44 -5h-2l-2 -2q-51 -10 -55 -10h-4q-2 2 -4 2h-4q-2 2 -6 2q-5 0 -16.5 -2t-16.5 -2q-8 4 -10 4q-2 1 -5.5 2.5t-6 2.5t-3.5 1q-19 10 -24 19v18q0 3 1 14t1 17
q0 4 -2 6v4v4zM633 1106q0 26 6 47q0 2 33 23.5t37 21.5q19 0 33 -21t14 -40q-21 -68 -86 -68q-4 0 -4 4q-3 2 -8.5 6t-8.5 6q-1 2 -6 8.5t-6 8.5zM360 1104l-4 4q0 26 6 47q0 2 33 23.5t37 21.5q19 0 33 -21t14 -40q-21 -68 -86 -68l-4 4q-3 2 -16 15q-2 2 -6.5 7t-6.5 7z
" />
    <glyph glyph-name="Igrave" unicode="&#xcc;" horiz-adv-x="331" 
d="M176 -88q-13 0 -23 15t-10 34q0 30 5 101t10 83l4 5l-4 6q0 16 2 24q1 1 2 4.5t2 5.5v13v8q0 2 -2 4q0 12 2 18q1 2 2 5.5t2 5.5q0 1 1 4.5t1 5.5v14v17q4 8 4 10q8 28 15.5 84.5t7.5 85.5q0 9 4 33q8 29 10 39q4 12 4 41q0 16 4 36q1 2 3 6.5t3 6.5q4 8 4 18v8l-2 6
q0 5 -2 7q0 17 16.5 35t30.5 18q13 0 23 -7.5t10 -15.5l-2 -4l4 -4q2 -4 2 -8q0 -12 -2 -18q0 -3 -1 -9.5t-1 -9.5q-8 -32 -8 -55q-4 -12 -4 -15q-1 -6 -2 -19t-2 -19q0 -18 -6 -33q-15 -39 -15 -119q0 -21 -6 -45q-2 -7 -12 -47v-23v-22q0 -9 -2 -15q-4 -4 -4 -8
q-2 -4 -2 -14v-4q0 -2 2 -6q0 -8 -3 -26.5t-3 -27.5q0 -6 2 -8v-4q0 -8 -2 -12q0 -5 -5 -15q-8 -20 -8 -34q0 -11 4 -23q-4 -16 -4 -20q0 -117 -49 -117zM162 1042q0 9 13.5 15t23.5 6q1 0 2 -1t2 -1q2 -1 16 -10q7 -3 16.5 -10t10.5 -7q2 -2 2 -4l10 -10q13 -18 23 -25
q5 -5 24 -20.5t27 -22.5q18 -18 24 -26q9 -12 9 -17q0 -18 -23 -18q-27 0 -76 49q-18 18 -24 21q-1 1 -11 6q-4 4 -12 8t-10 6l-4 2l-2 4q-3 14 -13 21l-6 6q-1 1 -4 3t-4 3q-14 10 -14 22z" />
    <glyph glyph-name="Iacute" unicode="&#xcd;" horiz-adv-x="331" 
d="M176 -88q-13 0 -23 15t-10 34q0 30 5 101t10 83l4 5l-4 6q0 16 2 24q1 1 2 4.5t2 5.5v13v8q0 2 -2 4q0 12 2 18q1 2 2 5.5t2 5.5q0 1 1 4.5t1 5.5v14v17q4 8 4 10q8 28 15.5 84.5t7.5 85.5q0 9 4 33q8 29 10 39q4 12 4 41q0 16 4 36q1 2 3 6.5t3 6.5q4 8 4 18v8l-2 6
q0 5 -2 7q0 17 16.5 35t30.5 18q13 0 23 -7.5t10 -15.5l-2 -4l4 -4q2 -4 2 -8q0 -12 -2 -18q0 -3 -1 -9.5t-1 -9.5q-8 -32 -8 -55q-4 -12 -4 -15q-1 -6 -2 -19t-2 -19q0 -18 -6 -33q-15 -39 -15 -119q0 -21 -6 -45q-2 -7 -12 -47v-23v-22q0 -9 -2 -15q-4 -4 -4 -8
q-2 -4 -2 -14v-4q0 -2 2 -6q0 -8 -3 -26.5t-3 -27.5q0 -6 2 -8v-4q0 -8 -2 -12q0 -5 -5 -15q-8 -20 -8 -34q0 -11 4 -23q-4 -16 -4 -20q0 -117 -49 -117zM303 907q-2 0 -6 4q1 2 6 17l12 24q16 21 37 37l12 15t14.5 18.5t10.5 15.5q3 4 9.5 12.5t9.5 12.5l18 24q15 15 37 15
q4 0 16 -4q6 -3 6 -8q0 -14 -26 -43q-8 -11 -23.5 -28t-17.5 -20q-2 -2 -5 -7t-5 -7q-1 -2 -4.5 -7t-4.5 -7q-15 -20 -45 -41.5t-51 -22.5z" />
    <glyph glyph-name="Icircumflex" unicode="&#xce;" horiz-adv-x="331" 
d="M143 -39q0 30 5 101t10 83l4 5l-2 6q-2 2 -2 6q0 2 4 18q0 1 1 4.5t1 5.5v21q0 2 -2 6q0 4 4 16q0 7 2 11q0 1 1 4.5t1 5.5v14q0 1 -1 4t-1 4q1 1 2 4.5t2 4.5q0 6 4 10q7 27 14 83.5t7 86.5q0 15 6 33q1 7 5 20.5t5 18.5q2 12 2 41q5 33 6 36q0 5 4 13q6 12 6 18
q0 2 -1 4.5t-1 3.5l-2 6q0 5 -2 9q0 15 16.5 33t30.5 18q13 0 23 -7.5t10 -15.5v-4l2 -4q2 -4 2 -8v-18q-1 -3 -2 -9.5t-2 -9.5q-6 -42 -6 -47q0 -1 -1 -3.5t-1 -4.5q-4 -12 -4 -15q-1 -6 -2 -19t-2 -19q0 -18 -6 -33q-15 -46 -15 -119q0 -21 -6 -45q-7 -26 -10 -47
q-2 -8 -2 -23q0 -4 1 -11t1 -11q0 -3 -4 -15q-4 -4 -4 -8q-2 -4 -2 -14v-4q0 -2 2 -4q0 -9 -3 -28t-3 -28q0 -1 1 -4t1 -4v-4q0 -8 -2 -12q0 -5 -5 -15q-6 -30 -6 -34q0 -17 2 -23q-4 -16 -4 -20q0 -117 -49 -117q-13 0 -23 15t-10 34zM121 852q-12 0 -12 18q0 25 34 74
q4 6 13.5 18.5t13.5 18.5q17 26 20 33q0 1 1.5 2t1.5 2l8 4l4 4l12 18q10 10 16 19q6 7 15 19l12 16q4 5 25 26q30 23 69 23q12 0 37.5 -20.5t28.5 -32.5v-4l4 -5q15 -10 25 -30q6 -9 12 -21q2 -7 12 -20q3 -5 38.5 -36t39.5 -32l8 -4q4 -4 4 -10q0 -13 -15 -19t-30 -6
q-4 0 -16 6q-31 23 -74 66q-1 1 -3.5 4.5t-4.5 5.5l-6 12q-18 24 -19 25q-5 6 -15 17.5t-15 17.5q0 1 -1.5 3t-1.5 3q-4 4 -4 6q-10 15 -14 19l-2 2h-8q-11 0 -23 -11.5t-16 -19.5q-9 -13 -31 -39q-12 -12 -18 -20q-3 -3 -5.5 -6.5t-6 -8.5t-5.5 -8q-2 -4 -7 -11.5t-7 -11.5
q-15 -20 -35 -59q-10 -16 -20 -29q-18 -18 -39 -18z" />
    <glyph glyph-name="Idieresis" unicode="&#xcf;" horiz-adv-x="331" 
d="M143 -39q0 30 5 101t10 83l4 5l-4 6q0 16 2 24q1 1 2 4.5t2 5.5v13v8l-2 4q0 12 2 18q1 2 2 5.5t2 5.5q0 1 1 4.5t1 5.5v14q0 1 -1 4t-1 4q2 2 2 9q4 8 4 10q8 28 15.5 84.5t7.5 85.5q0 15 6 33q1 8 4 21t4 18q4 12 4 41q0 21 6 36q0 5 4 13t4 18q0 17 -4 23
q0 15 16.5 33t30.5 18q13 0 23 -7.5t10 -15.5v-4l2 -4q2 -4 2 -8q0 -12 -2 -18q0 -3 -1 -9.5t-1 -9.5q-6 -42 -6 -47q0 -1 -1 -3.5t-1 -4.5q-4 -12 -4 -15q-1 -6 -2 -19t-2 -19q0 -18 -6 -33q-15 -39 -15 -119q0 -21 -6 -45q-2 -7 -12 -47v-23v-22q0 -9 -2 -15q-4 -4 -4 -8
q-2 -4 -2 -14v-4q0 -2 2 -6q0 -8 -3 -26.5t-3 -27.5q0 -6 2 -8v-4q0 -8 -2 -12q0 -5 -5 -15q-8 -20 -8 -34q0 -11 4 -23q-4 -16 -4 -20q0 -117 -49 -117q-13 0 -23 15t-10 34zM410 915q0 27 6 48q0 2 32.5 24.5t36.5 22.5q19 0 33 -22t14 -42q-21 -67 -86 -67l-4 4l-28 28z
M133 918q0 26 6 47q0 2 33 24.5t37 22.5q19 0 33 -22t14 -42q-21 -67 -86 -67l-4 4q-1 1 -4 3.5t-5.5 5t-4.5 5.5q-3 2 -15 14q-1 1 -2 3t-2 2z" />
    <glyph glyph-name="Ntilde" unicode="&#xd1;" horiz-adv-x="995" 
d="M131 -190q0 31 10 61q2 8 2 23v8l-2 4l2 4q0 2 1 6.5t1 7.5v10q-2 2 -2 9q-2 6 -2 14q0 4 4 20q1 3 4 13t3 16v4l-2 4l-5 6q0 3 2 7l5 10q6 24 6 31q0 12 4 32q1 3 2 9.5t2 9.5q0 3 1 9.5t1 10.5q0 3 -2 10.5t-2 10.5q2 4 2 8q1 3 2 9t2 9t2 9.5t2 9.5v6l2 12q0 34 6 64
l4 8q0 1 1 3.5t1 4.5q7 11 7 23v8q0 4 -2 6v6q0 13 2 19q1 3 3 10t3 10v18q0 2 -1 7.5t-1 7.5q0 20 10 47q4 16 6 22q4 16 4 23q3 12 0 25q0 14 2 20l-2 8q0 18 21 104.5t28 98.5q7 7 22.5 13.5t26.5 6.5q2 -2 5 -3.5t4 -2.5l2 -2h4h4q6 0 6 -2v-6q2 -4 2 -8q1 -2 2 -5.5
t2 -4.5q10 -15 14 -19q2 -2 7 -6.5t8 -7.5q14 -15 22 -27q14 -22 30.5 -45.5t37 -51.5t31.5 -44q54 -69 90 -143q10 -21 87 -135.5t87 -120.5q2 -2 8 -2h4h4l10 10v4q4 15 15.5 45t15.5 45l6 6l4 4q6 6 7 8q8 10 24 78q4 15 9 34.5t8.5 32.5t5.5 19v8l-2 5q6 10 10 18
q4 12 4 20v17q2 11 5 23.5t7 27t6 23.5q0 3 7 10q0 2 4 6q0 2 4 10q10 43 26 129q3 15 19.5 40.5t23.5 25.5q47 0 47 -37q0 -6 -2 -10q-3 -9 -6 -15q-10 -25 -10 -39q0 -17 -10 -30l-2 -2l-4 -19l2 -4q0 -13 -6 -31q-22 -65 -29 -106q-6 -38 -19 -70q-8 -16 -8 -30
q0 -5 2 -5v-4v-2v-2l-49 -147q-9 -19 -26.5 -59t-26.5 -60q-4 -11 -2 -14v-4q0 -7 -2 -9q-1 -1 -3 -2t-3 -2t-4.5 -3t-4.5 -3q-6 -6 -10 -14q0 -4 -2 -6q0 -1 -1 -3.5t-1 -3.5q-6 -10 -24.5 -18t-32.5 -8l-4 2q-36 18 -39 20q-13 8 -31 29q-2 0 -2 4q-1 2 -2 5.5t-2 4.5
q-4 11 -21 37q-5 6 -15 19.5t-15 19.5q-36 42 -39 68v6l-12 12q-3 6 -11 10q-8 11 -8 17v4l-2 2q-7 11 -20.5 28.5t-18.5 24.5q0 1 -1 4.5t-1 5.5q-2 2 -2 7l-4 8q-7 14 -33.5 51.5t-36.5 44.5q-1 1 -3 2t-3 2q0 2 -2 4q-2 9 -8 19t-20 28.5t-17 22.5q-5 6 -15.5 18.5
t-15.5 18.5q-13 17 -20 30l-6 13l-11 -8q-24 -21 -24 -70q0 -6 2 -17.5t2 -17.5t-4 -18q-4 -8 -4 -11q-4 -8 -4 -14q-5 -28 -15 -164q0 -1 -2 -7t-2 -7q-2 -2 -2 -6q-1 -7 -1 -21.5t-1 -21.5q-5 -30 -16 -66q-8 -46 -8 -71q0 -5 1 -14t1 -13q-2 -4 -2 -10q-4 -16 -4 -17
q-13 -76 -13 -106v-2q0 -13 2 -21q0 -2 -2 -4q0 -2 -1 -6.5t-1 -7.5l2 -6q0 -4 -2 -8q-4 -4 -4 -9q-1 -1 -2 -4.5t-2 -5.5v-4l6 -14q0 -2 -1 -6.5t-1 -6.5q-4 -12 -4 -37q0 -26 -13.5 -49.5t-31.5 -23.5q-2 0 -7 1t-7 1q-23 18 -23 74zM475 981q0 23 21 41q3 4 11.5 9
t10.5 7q3 2 9.5 6.5t9.5 6.5h8q16 0 22 2q2 1 7 2t8 2q4 -4 10 -4q8 -4 14 -6q12 -3 25 -19l2 -4h2q6 -3 14 -14q2 -2 17 -27q3 -4 9 -13.5t9 -13.5q11 -14 27 -20q8 -2 22 -2q8 -2 23 -2q39 0 71 41q11 18 17 24q1 1 2 3.5t2 3.5q0 -2 1 -5.5t1 -5.5q4 -24 4 -26
q-2 -2 -2 -4q-4 -4 -4 -9l-10 -18q-7 -13 -47.5 -31t-59.5 -18q-33 0 -53 12q-11 3 -16 10q-14 28 -31 45q-2 2 -2 4q-9 19 -26.5 35.5t-35.5 16.5q-6 0 -8 -2q-1 0 -3 -1t-3 -1q-10 -5 -12 -5q-9 0 -13 -2q-11 0 -32 -18q-8 -8 -15 -8q-1 0 -2 1t-2 1q0 1 -1 3t-1 3z" />
    <glyph glyph-name="Ograve" unicode="&#xd2;" horiz-adv-x="849" 
d="M158 326q0 12 2 18q0 9 4 21q8 28 6 45v6q2 8 6 12q6 10 10 31q1 4 2 13t2 13q11 11 21 31q3 5 9 16.5t9 16.5q17 39 37 59l4 6q0 5 2 7l4 4q5 0 9 4l4 4q4 0 4 4q2 2 5 6t5 6l21 21q11 11 30 14q11 4 37 8l8 4q4 4 7 4l4 5q4 0 10 -3h10q13 0 31 3q5 1 15.5 3t15.5 3
q46 8 63 8q24 0 45 -6q9 -1 43 -11q3 -2 9.5 -6t9.5 -6q10 -3 20 -10q4 -1 18 -8q9 -9 9 -10l4 -5q3 -2 6.5 -4.5t5 -3.5t2.5 -2q2 -2 6 -10q0 -2 8 -14q29 -39 43 -66q13 -34 21 -76q4 -12 4 -18q2 -6 2 -19q0 -10 -2 -16q0 -6 -2 -10v-10v-9q2 -2 2 -6v-49v-6v-4l2 -4
q0 -3 -4 -15l-4 -8q-2 -2 -2 -10q-12 -57 -25.5 -90.5t-44.5 -73.5q-3 -5 -14 -27l-12 -24q-32 -47 -103.5 -105.5t-114.5 -58.5q-8 -4 -14 -4q-4 -2 -10 -2q-98 0 -155 34t-101 120l-4.5 9t-6.5 10.5t-6 8.5q-32 66 -32 137q0 23 2 33v8q-2 2 -2 13v41zM240 240
q0 -17 14 -54q2 -4 6 -11t6 -11q4 -5 8 -23q4 -15 9 -28q6 -25 28 -54t45 -41q12 -8 13 -10l4 -6l12 2q22 0 39 -10l2 -2h4q6 0 17.5 -1t17.5 -1q18 0 27 6q10 10 16 10q12 4 16 4q36 9 81.5 65t80.5 113q13 16 19 37q0 3 1 9.5t1 9.5q0 2 1 7t1 7q22 75 22 127
q0 88 -37 147q-6 12 -12 21q-8 12 -10 18v4l-4 3q-12 8 -21 16q-21 21 -32 27t-40 10q-1 0 -2 1t-2 1q-12 6 -16 6h-6q-2 -2 -6 -2h-4q-2 -2 -4 -2q-3 0 -15 4q-6 0 -10 2q-61 0 -103 -13.5t-79 -52.5q-2 -3 -6.5 -9t-6.5 -9t-5 -9t-5 -9q-11 -22 -20 -31l-2 -2v-4
q-5 -15 -9 -21q-8 -16 -10 -24q-5 -13 -14 -54q-2 -8 -5 -25.5t-5 -25.5v-4l2 -2q2 -8 2 -27q0 -13 -2 -39t-2 -40zM461 995q-7 0 -15 11t-8 18q0 9 13 14.5t24 5.5l4 -4q3 -1 8.5 -4t8.5 -4q18 -12 26 -16l2 -4q2 -2 5.5 -6.5t5.5 -6.5q13 -17 22 -24q40 -32 51 -43
q12 -10 25 -27q10 -10 10 -16q0 -8 -7.5 -13.5t-17.5 -5.5q-19 0 -49 27q-12 9 -26 23q-13 13 -25 22q-2 2 -10 6l-12 6q-4 2 -11 9q-2 0 -4 2q0 2 -2 4q-3 11 -10 18z" />
    <glyph glyph-name="Oacute" unicode="&#xd3;" horiz-adv-x="849" 
d="M158 326q0 12 2 18q0 9 4 21q8 28 6 45v6q2 8 6 12q6 10 10 31q1 4 2 13t2 13q11 11 21 31q3 5 9 16.5t9 16.5q17 39 37 59l4 6q0 5 2 7l4 4q5 0 9 4l4 4q4 0 4 4q2 2 5 6t5 6l21 21q11 11 30 14q11 4 37 8l8 4q4 4 7 4l4 5q4 0 10 -3h10q13 0 31 3q5 1 15.5 3t15.5 3
q46 8 63 8q24 0 45 -6q9 -1 43 -11q3 -2 9.5 -6t9.5 -6q10 -3 20 -10q4 -1 18 -8q9 -9 9 -10l4 -5q3 -2 6.5 -4.5t5 -3.5t2.5 -2q2 -2 6 -10q0 -2 8 -14q29 -39 43 -66q13 -34 21 -76q4 -12 4 -18q2 -6 2 -19q0 -10 -2 -16q0 -6 -2 -10v-10v-9q2 -2 2 -6v-49v-6v-4l2 -4
q0 -3 -4 -15l-4 -8q-2 -2 -2 -10q-12 -57 -25.5 -90.5t-44.5 -73.5q-3 -5 -14 -27l-12 -24q-32 -47 -103.5 -105.5t-114.5 -58.5q-8 -4 -14 -4q-4 -2 -10 -2q-98 0 -155 34t-101 120l-4.5 9t-6.5 10.5t-6 8.5q-32 66 -32 137q0 23 2 33v8q-2 2 -2 13v41zM240 240
q0 -17 14 -54q2 -4 6 -11t6 -11q4 -5 8 -23q4 -15 9 -28q6 -25 28 -54t45 -41q12 -8 13 -10l4 -6l12 2q22 0 39 -10l2 -2h4q6 0 17.5 -1t17.5 -1q18 0 27 6q10 10 16 10q12 4 16 4q36 9 81.5 65t80.5 113q13 16 19 37q0 3 1 9.5t1 9.5q0 2 1 7t1 7q22 75 22 127
q0 88 -37 147q-6 12 -12 21q-8 12 -10 18v4l-4 3q-12 8 -21 16q-21 21 -32 27t-40 10q-1 0 -2 1t-2 1q-12 6 -16 6h-6q-2 -2 -6 -2h-4q-2 -2 -4 -2q-3 0 -15 4q-6 0 -10 2q-61 0 -103 -13.5t-79 -52.5q-2 -3 -6.5 -9t-6.5 -9t-5 -9t-5 -9q-11 -22 -20 -31l-2 -2v-4
q-5 -15 -9 -21q-8 -16 -10 -24q-5 -13 -14 -54q-2 -8 -5 -25.5t-5 -25.5v-4l2 -2q2 -8 2 -27q0 -13 -2 -39t-2 -40zM528 852q-1 1 -3 2t-3 2l6 18q2 4 6.5 11.5t6.5 11.5q8 12 14 18q17 17 20 21q19 19 39 49q3 4 9.5 12.5t9.5 12.5q12 16 18 22q0 3 6 6q2 4 5 4q22 5 26 5
q9 0 14 -5q7 -2 7 -6q0 -17 -25 -45q-8 -10 -23 -25.5t-18 -19.5q-9 -14 -10 -16q-2 -2 -5 -6t-5 -6q-14 -20 -44 -41.5t-51 -24.5z" />
    <glyph glyph-name="Ocircumflex" unicode="&#xd4;" horiz-adv-x="849" 
d="M158 326q0 12 2 18q0 9 4 21q8 28 6 45v6q2 8 6 12q6 10 10 31q1 4 2 13t2 13q11 11 21 31q3 5 9 16.5t9 16.5q17 39 37 59l4 6q0 5 2 7l4 4q5 0 9 4l4 4q4 0 4 4q2 2 5 6t5 6l21 21q11 11 30 14q11 4 37 8l8 4q4 4 7 4l4 5q4 0 10 -3h10q13 0 31 3q5 1 15.5 3t15.5 3
q46 8 63 8q24 0 45 -6q9 -1 43 -11q3 -2 9.5 -6t9.5 -6q10 -3 20 -10q4 -1 18 -8q9 -9 9 -10l4 -5q3 -2 6.5 -4.5t5 -3.5t2.5 -2q2 -2 6 -10q0 -2 8 -14q29 -39 43 -66q13 -34 21 -76q4 -12 4 -18q2 -6 2 -19q0 -10 -2 -16q0 -6 -2 -10v-10v-9q2 -2 2 -6v-49v-6v-4l2 -4
q0 -3 -4 -15l-4 -8q-2 -2 -2 -10q-12 -57 -25.5 -90.5t-44.5 -73.5q-3 -5 -14 -27l-12 -24q-32 -47 -103.5 -105.5t-114.5 -58.5q-8 -4 -14 -4q-4 -2 -10 -2q-98 0 -155 34t-101 120l-4.5 9t-6.5 10.5t-6 8.5q-32 66 -32 137q0 23 2 33v8q-2 2 -2 13v41zM240 240
q0 -17 14 -54q2 -4 6 -11t6 -11q4 -5 8 -23q4 -15 9 -28q6 -25 28 -54t45 -41q12 -8 13 -10l4 -6l12 2q22 0 39 -10l2 -2h4q6 0 17.5 -1t17.5 -1q18 0 27 6q10 10 16 10q12 4 16 4q36 9 81.5 65t80.5 113q13 16 19 37q0 3 1 9.5t1 9.5q0 2 1 7t1 7q22 75 22 127
q0 88 -37 147q-6 12 -12 21q-8 12 -10 18v4l-4 3q-12 8 -21 16q-21 21 -32 27t-40 10q-1 0 -2 1t-2 1q-12 6 -16 6h-6q-2 -2 -6 -2h-4q-2 -2 -4 -2q-3 0 -15 4q-6 0 -10 2q-61 0 -103 -13.5t-79 -52.5q-2 -3 -6.5 -9t-6.5 -9t-5 -9t-5 -9q-11 -22 -20 -31l-2 -2v-4
q-5 -15 -9 -21q-8 -16 -10 -24q-5 -13 -14 -54q-2 -8 -5 -25.5t-5 -25.5v-4l2 -2q2 -8 2 -27q0 -13 -2 -39t-2 -40zM362 836q-12 0 -12 20q0 25 35 72q13 19 27 37q16 24 20 32q0 5 2 7q4 2 8 2l4 6q2 3 6.5 9t6.5 9q3 3 8 9.5t8 9.5q7 7 27 32q12 15 24 27q28 22 70 22
q12 0 37.5 -20t28.5 -33v-4l4 -4q13 -9 24 -31q8 -12 10 -18q4 -9 15 -23q4 -4 39 -34t39 -33l8 -4q4 -4 4 -8q0 -13 -14 -21q-15 -6 -31 -6q-6 0 -17 8q-5 2 -28 21q-18 16 -45 43q-2 4 -8 10l-7 12q-1 2 -7 11t-11 14q-5 6 -15.5 17t-15.5 17q0 3 -4 7l-2 8q-1 1 -5.5 7.5
t-8.5 8.5l-2 2h-9q-11 0 -22.5 -10t-15.5 -18q-5 -7 -15.5 -20.5t-15.5 -20.5l-19 -19q-1 -2 -7 -10.5t-9 -11.5q-2 -4 -7 -12.5t-7 -12.5q-4 -4 -19 -24q-2 -4 -7.5 -15.5t-8.5 -17.5q-29 -49 -60 -49z" />
    <glyph glyph-name="Otilde" unicode="&#xd5;" horiz-adv-x="849" 
d="M160 305v39q1 3 3 10.5t3 10.5q8 28 6 45v6q2 8 6 12q6 10 10 31q1 4 2.5 13t2.5 13q9 9 20 31q8 14 16 33q22 42 39 59l4 6q0 5 2 7q0 1 2 2q1 1 1.5 1t1.5 1q4 0 8 4l4 4q4 0 4 4q2 2 5 6t5 6q5 5 11 12.5t8 8.5q14 11 32 14q11 4 37 8l8 4q4 4 7 4l4 5q4 0 10 -3h10
q14 0 29 3q5 1 16.5 3t16.5 3q46 8 63 8q24 0 45 -6q9 -1 43 -11q3 -2 9.5 -6t9.5 -6q10 -3 20 -10q4 -1 18 -8q9 -9 9 -10l4 -5q3 -2 6.5 -4.5t5 -3.5t2.5 -2q2 -2 6 -10q0 -2 8 -14q35 -51 43 -66q7 -19 21 -76q4 -12 4 -18q2 -6 2 -19q0 -10 -2 -16q0 -1 -1 -4.5t-1 -5.5
v-10v-9q2 -2 2 -6v-49v-6v-4l2 -4q0 -3 -4 -15l-4 -8q-1 -1 -2 -4.5t-2 -5.5q0 -81 -68 -164q-3 -5 -14 -27l-12 -24q-32 -47 -103.5 -105.5t-114.5 -58.5q-12 -4 -14 -4q-4 -2 -10 -2q-97 0 -156 34.5t-100 119.5q-2 5 -8 14t-8 14q-33 68 -33 137q0 23 2 33v8q-2 2 -2 13
v20zM246 319q0 -13 -2 -39t-2 -40q0 -26 14 -54q2 -4 6 -11t6 -11q0 -1 3.5 -9.5t4.5 -13.5q4 -15 9 -28q6 -27 27.5 -55t45.5 -40q12 -8 13 -10l4 -6l12 2q22 0 39 -10l2 -2h4q5 0 17 -1t18 -1q18 0 27 6q10 10 16 10q12 4 16 4q68 23 162 178q14 18 17 37q1 3 2 9.5t2 9.5
q0 10 2 14q22 75 22 127q0 88 -37 147q-6 12 -12 21q-8 12 -10 18v4l-4 3q-6 4 -14 9.5t-9 6.5q-6 8 -14 14q-15 18 -58 23q-12 8 -18 8h-6q-2 -2 -6 -2h-4q-2 -2 -4 -2q-3 0 -15 4q-6 0 -10 2q-61 0 -103 -13.5t-79 -52.5q-2 -3 -6.5 -9t-6.5 -9q-8 -12 -10 -18
q-11 -22 -20 -31l-2 -2v-4q-5 -15 -9 -21q-8 -16 -10 -24q-5 -13 -14 -54q-2 -8 -5 -25.5t-5 -25.5v-4l2 -2q2 -8 2 -27zM412 1012q0 23 22 39q6 6 21 16q8 4 20 12h8q5 0 12.5 1t10.5 1q8 4 14 6q1 -1 4 -3t4 -3q3 -1 8.5 -2t8.5 -2q16 -8 22 -20l2 -4h4q4 -2 15 -13
q3 -4 8 -13t8 -13q11 -18 19 -29q16 -16 26 -18q12 -4 23 -4q42 0 66 14t42 51q4 4 6 4q0 -6 2 -10q3 -15 3 -27q-1 -5 -7 -10l-8 -20q-7 -13 -47.5 -31.5t-58.5 -18.5q-7 0 -27 5q-5 1 -14.5 4t-14.5 4q-6 2 -14 10q-10 20 -12 23q-9 12 -19 22l-4 4q-7 18 -24 35.5
t-35 17.5q-2 0 -4.5 -1t-3.5 -1q-1 -1 -3 -2t-3 -2q-2 -1 -6.5 -2t-6.5 -2h-12q-19 -4 -33 -20q-9 -9 -16 -9q-2 3 -2 5q-1 1 -2 3t-2 3z" />
    <glyph glyph-name="Odieresis" unicode="&#xd6;" horiz-adv-x="849" 
d="M158 326q0 12 2 18q0 9 4 21q8 28 6 45v6q2 8 6 12q6 10 10 31q1 4 2 13t2 13q11 11 21 31q3 5 9 16.5t9 16.5q17 39 37 59l4 6q0 5 2 7l4 4q5 0 9 4l4 4q4 0 4 4q2 2 5 6t5 6l21 21q11 11 30 14q11 4 37 8l8 4q4 4 7 4l4 5q4 0 10 -3h10q13 0 31 3q5 1 15.5 3t15.5 3
q46 8 63 8q24 0 45 -6q9 -1 43 -11q3 -2 9.5 -6t9.5 -6q10 -3 20 -10q4 -1 18 -8q9 -9 9 -10l4 -5q3 -2 6.5 -4.5t5 -3.5t2.5 -2q2 -2 6 -10q0 -2 8 -14q29 -39 43 -66q13 -34 21 -76q4 -12 4 -18q2 -6 2 -19q0 -10 -2 -16q0 -6 -2 -10v-10v-9q2 -2 2 -6v-49v-6v-4l2 -4
q0 -3 -4 -15l-4 -8q-2 -2 -2 -10q-12 -57 -25.5 -90.5t-44.5 -73.5q-3 -5 -14 -27l-12 -24q-32 -47 -103.5 -105.5t-114.5 -58.5q-8 -4 -14 -4q-4 -2 -10 -2q-98 0 -155 34t-101 120l-4.5 9t-6.5 10.5t-6 8.5q-32 66 -32 137q0 23 2 33v8q-2 2 -2 13v41zM240 240
q0 -17 14 -54q2 -4 6 -11t6 -11q4 -5 8 -23q4 -15 9 -28q6 -25 28 -54t45 -41q12 -8 13 -10l4 -6l12 2q22 0 39 -10l2 -2h4q6 0 17.5 -1t17.5 -1q18 0 27 6q10 10 16 10q12 4 16 4q36 9 81.5 65t80.5 113q13 16 19 37q0 3 1 9.5t1 9.5q0 2 1 7t1 7q22 75 22 127
q0 88 -37 147q-6 12 -12 21q-8 12 -10 18v4l-4 3q-12 8 -21 16q-21 21 -32 27t-40 10q-1 0 -2 1t-2 1q-12 6 -16 6h-6q-2 -2 -6 -2h-4q-2 -2 -4 -2q-3 0 -15 4q-6 0 -10 2q-61 0 -103 -13.5t-79 -52.5q-2 -3 -6.5 -9t-6.5 -9t-5 -9t-5 -9q-11 -22 -20 -31l-2 -2v-4
q-5 -15 -9 -21q-8 -16 -10 -24q-5 -13 -14 -54q-2 -8 -5 -25.5t-5 -25.5v-4l2 -2q2 -8 2 -27q0 -13 -2 -39t-2 -40zM655 973l-4 4q0 26 6 47q0 2 33 23.5t37 21.5q13 0 31 -20t18 -35q0 -1 -1 -3t-1 -3q-21 -68 -86 -68l-4 4q-14 7 -29 29zM375 979q0 26 6 47q0 2 33 23.5
t37 21.5q13 0 31 -20t18 -35q0 -4 -2 -6q-21 -68 -86 -68l-4 4q-14 7 -29 29z" />
    <glyph glyph-name="Oslash" unicode="&#xd8;" horiz-adv-x="808" 
d="M96 -78q0 31 37 78q18 26 60 74l6 6l-4 8q-24 47 -29.5 80.5t-5.5 95.5l2 4l-2 4q-2 2 -2 13v41q0 15 8 39q4 36 4 51q2 8 6 12q9 15 12 31q0 6 5 26q14 18 18 31q5 6 10.5 18t7.5 15q14 33 37 59l4 2v4q0 2 1 4t1 3q6 3 7 4l8 4q6 4 10 12l4 4v4q23 26 41 31q10 4 49 12
q8 4 10 4q0 4 5 4q5 5 6 5q3 0 9.5 -1.5t10.5 -1.5q14 0 29 3t33 6q40 8 63 8q21 0 45 -6q9 -1 43 -11q10 -8 27 -16q26 -13 30 -16l7 -2l6 4q19 24 53 59t47 35q6 0 12.5 -6.5t6.5 -9.5q-1 -3 -3 -7q0 -2 -2.5 -6.5t-3.5 -7.5q-5 -6 -14 -19.5t-12 -17.5q-11 -14 -30 -36
t-21 -25l-7 -6l7 -9q28 -41 38 -63q6 -13 9 -29q7 -22 12 -43q0 -6 4 -18v-19v-16q-4 -4 -4 -20q0 -11 4 -15v-6q0 -8 -1 -22t-1 -21v-6q0 -1 1 -2t1 -2v-4q0 -9 -4 -15q0 -1 -1 -3.5t-1 -4.5q-4 -4 -4 -10q-1 -5 -2 -16.5t-2 -16.5q-13 -67 -64 -131q-15 -25 -16 -27
q-1 -3 -3 -7.5t-4 -8.5t-5 -8q-25 -39 -98.5 -101.5t-104.5 -62.5h-15q-8 -4 -14 -4q-4 -2 -10 -2q-80 0 -135 24t-99 87l-8 10l-8 -8q-19 -24 -57 -68q-1 -2 -6.5 -8t-6.5 -10q-1 -1 -3 -4.5t-3 -4.5q-2 -4 -6 -8q-13 -16 -27 -16q-8 0 -8 16zM289 113l-6 -7l4 -6
q8 -19 26.5 -43t34.5 -32q1 -1 4 -3.5t4 -3.5l15 -10l2 -6l14 2q24 0 37 -10l4 -2h2q6 0 18.5 -1t18.5 -1q16 0 25 6q4 2 8 6q8 4 10 4q8 4 16 4q35 12 82.5 69t79.5 109q19 30 19 56q1 2 2 7t2 7q20 82 20 127q0 96 -45 160l-6 10l-8 -8l-31 -31q-12 -18 -27 -33l-39 -39
q-16 -13 -38 -45q-3 -4 -9.5 -13t-9.5 -13q-11 -18 -20 -25q-12 -8 -35 -31q-5 -6 -15.5 -19t-15.5 -19q-13 -15 -38 -39.5t-34 -34.5q-6 -7 -36 -47q-6 -7 -17.5 -22.5t-17.5 -22.5zM240 240q0 -26 12 -47q1 -2 4 -6.5t4 -6.5l8 -14l8 12q13 17 113 127q10 11 30 35.5
t30 36.5q2 3 26 33q16 16 31 28q6 5 20 23q3 3 9.5 10t9.5 10q21 21 26 25q2 2 12 11t15 15q3 3 8 13q0 2 2 4v4q2 0 6 4q1 2 11 12q4 5 11 11.5t9 7.5l12 12l-14 6q-6 3 -18.5 9.5t-18.5 9.5q-2 2 -10 2q-2 2 -8 2h-6l-4 2h-5q0 1 -1 2t-1 2q-8 4 -22 4l-4 -2q-4 0 -8 -2
q-5 0 -17 4q-6 0 -10 2q-139 0 -195 -84q-2 -6 -10 -18q-13 -26 -18 -31l-4 -6q-5 -15 -9 -21q-2 -8 -10 -24q-5 -13 -14 -54q-1 -8 -4 -25.5t-4 -25.5v-6q4 -16 4 -27q0 -13 -3 -39t-3 -40z" />
    <glyph glyph-name="Ugrave" unicode="&#xd9;" horiz-adv-x="774" 
d="M178 184v66q0 20 3 59t3 58q0 3 1 9t1 9q1 4 2 11.5t2 11.5v2l-2 4l-2 6q0 43 15 112q4 21 14 59.5t14 55.5q0 4 2 4v6q0 2 -1 6.5t-1 6.5q-2 2 -2 4q1 2 9.5 41t15.5 61q19 66 47 66q21 0 29 -6.5t8 -24.5q0 -26 -17 -92q-2 -8 -6 -24.5t-6 -24.5q-6 -24 -6 -49
q0 -5 2 -7v-4v-4q0 -4 -2 -6l-6 -12q-2 -6 -2 -19q0 -37 -14 -98q-1 -8 -4.5 -24.5t-4.5 -24.5q-4 -36 -4 -53q0 -6 1 -18.5t1 -18.5q0 -17 -2 -27q-2 -4 -2 -14q-2 -4 -2 -15q0 -8 2 -23.5t2 -23.5q0 -4 -2 -6q0 -6 -2 -10v-6l4 -4q2 -4 2 -10q1 -4 2 -13t2 -14
q0 -172 105 -172q54 0 117 59q4 5 28 29q11 11 27 31q3 3 32.5 61t30.5 64q15 40 33 116.5t27 106.5q2 4 2 16q2 4 2 15q0 10 4 22q1 4 4 13.5t4 13.5q1 3 2.5 9t2.5 11t1 10q4 14 8 70q7 48 15 64q8 17 12 57q0 2 2 21.5t4 29.5q1 12 20 26.5t31 14.5q21 0 21 -51
q0 -25 -5.5 -70.5t-6.5 -64.5v-2l-2 -2l-5 -7q-8 -24 -12 -65q0 -19 -2 -29q0 -8 -4 -28v-5l-4 -4l-2 -6q-2 -2 -2 -8q-4 -10 -4 -29q-2 -10 -2 -26q-2 -15 -9.5 -42t-9.5 -36q-6 -32 -25 -90t-24 -78q-1 -1 -2 -3t-2 -3l-8 -8q-17 -19 -29 -52q-3 -8 -9 -25.5t-9 -25.5
q-2 0 -4 -2q-1 -1 -4 -3.5t-5 -4.5q-2 -1 -5 -4t-5 -4q-1 -1 -3 -4t-3 -4q-1 0 -8 -15v-6q-22 -33 -90 -79t-103 -50q-46 -4 -67 -4q-12 4 -13 4q-12 6 -22 6q-40 7 -67.5 51t-32.5 95q-1 3 -2 7.5t-2 6.5q-3 6 -7 10q0 4 -4 8v7q0 4 1 12t1 12v8l-2 6v9v4l-2 4q-2 6 -2 20z
M453 1104q0 20 36 20q3 0 5 -2q4 -2 16 -10q18 -9 25 -16q1 0 6.5 -6.5t5.5 -8.5q4 -4 11.5 -12.5t10.5 -11.5q7 -6 27.5 -22t26.5 -21q15 -15 24 -27q8 -11 8 -16q0 -19 -22 -19q-27 0 -76 49q-17 17 -25 21q-1 1 -4.5 3.5t-5.5 4.5l-12 6l-12 6l-4 7q-3 13 -13 20
q-4 4 -8 6l-6 6q-14 8 -14 23z" />
    <glyph glyph-name="Uacute" unicode="&#xda;" horiz-adv-x="774" 
d="M180 164q-2 6 -2 20v66q0 20 3 59t3 58q0 3 1 9t1 9q1 4 2 11.5t2 11.5v2l-2 4l-2 6q0 43 15 112q4 21 14 59.5t14 55.5q0 4 2 4v6q0 2 -1 6.5t-1 6.5q-2 2 -2 4q1 2 9.5 41t15.5 61q19 66 47 66q21 0 29 -6.5t8 -24.5q0 -26 -17 -92q-2 -8 -6 -24.5t-6 -24.5
q-6 -24 -6 -49q0 -5 2 -7v-4v-4q0 -4 -2 -6l-6 -12q-2 -6 -2 -19q0 -37 -14 -98q-1 -8 -4.5 -24.5t-4.5 -24.5q-4 -36 -4 -53q0 -6 1 -18.5t1 -18.5q0 -17 -2 -27q-2 -4 -2 -14q-2 -4 -2 -15q0 -8 2 -23.5t2 -23.5q0 -4 -2 -6q0 -6 -2 -10v-6l4 -4q2 -4 2 -10q1 -4 2 -13
t2 -14q0 -172 105 -172q54 0 117 59q4 5 28 29q11 11 27 31q3 3 32.5 61t30.5 64q15 40 33 116.5t27 106.5q2 4 2 16q2 4 2 15q0 10 4 22q1 4 4 13.5t4 13.5q1 3 2.5 9t2.5 11t1 10q4 14 8 70q7 48 15 64q8 17 12 57q0 2 2 21.5t4 29.5q1 12 20 26.5t31 14.5q21 0 21 -51
q0 -25 -5.5 -70.5t-6.5 -64.5v-2l-2 -2l-5 -7q-8 -24 -12 -65q0 -19 -2 -29q0 -8 -4 -28v-5l-4 -4l-2 -6q-2 -2 -2 -8q-4 -10 -4 -29q-2 -10 -2 -26q-2 -15 -9.5 -42t-9.5 -36q-6 -32 -25 -90t-24 -78q-1 -1 -2 -3t-2 -3l-8 -8q-17 -19 -29 -52q-3 -8 -9 -25.5t-9 -25.5
q-2 0 -4 -2q-1 -1 -4 -3.5t-5 -4.5q-2 -1 -5 -4t-5 -4q-1 -1 -3 -4t-3 -4q-1 0 -8 -15v-6q-22 -33 -90 -79t-103 -50q-46 -4 -67 -4q-12 4 -13 4q-12 6 -22 6q-40 7 -67.5 51t-32.5 95q-1 3 -2 7.5t-2 6.5q-3 6 -7 10q0 4 -4 8v7q0 4 1 12t1 12v8l-2 6v9v4zM520 938l6 18
q12 24 29 41q9 12 18 21q22 22 39 49q3 4 9.5 12.5t9.5 12.5q2 4 13.5 18t14.5 14q25 6 27 6q4 0 16 -4q7 -7 7 -8q0 -15 -27 -45q-14 -18 -41 -45q-9 -14 -10 -16t-4 -6.5t-4 -6.5q-14 -20 -45 -41t-52 -24q-1 1 -3 2t-3 2z" />
    <glyph glyph-name="Ucircumflex" unicode="&#xdb;" horiz-adv-x="774" 
d="M178 184v66q0 20 3 59t3 58q0 3 1 9t1 9q1 4 2 11.5t2 11.5v2l-2 4l-2 6q0 43 15 112q4 21 14 59.5t14 55.5q0 4 2 4v6q0 2 -1 6.5t-1 6.5q-2 2 -2 4q1 2 9.5 41t15.5 61q19 66 47 66q21 0 29 -6.5t8 -24.5q0 -26 -17 -92q-2 -8 -6 -24.5t-6 -24.5q-6 -24 -6 -49
q0 -5 2 -7v-4v-4q0 -4 -2 -6l-6 -12q-2 -6 -2 -19q0 -37 -14 -98q-1 -8 -4.5 -24.5t-4.5 -24.5q-4 -36 -4 -53q0 -6 1 -18.5t1 -18.5q0 -17 -2 -27q-2 -4 -2 -14q-2 -4 -2 -15q0 -8 2 -23.5t2 -23.5q0 -4 -2 -6q0 -6 -2 -10v-6l4 -4q2 -4 2 -10q1 -4 2 -13t2 -14
q0 -172 105 -172q54 0 117 59q4 5 28 29q11 11 27 31q3 3 32.5 61t30.5 64q15 40 33 116.5t27 106.5q2 4 2 16q2 4 2 15q0 10 4 22q1 4 4 13.5t4 13.5q1 3 2.5 9t2.5 11t1 10q4 14 8 70q7 48 15 64q8 17 12 57q0 2 2 21.5t4 29.5q1 12 20 26.5t31 14.5q21 0 21 -51
q0 -25 -5.5 -70.5t-6.5 -64.5v-2l-2 -2l-5 -7q-8 -24 -12 -65q0 -19 -2 -29q0 -8 -4 -28v-5l-4 -4l-2 -6q-2 -2 -2 -8q-4 -10 -4 -29q-2 -10 -2 -26q-2 -15 -9.5 -42t-9.5 -36q-6 -32 -25 -90t-24 -78q-1 -1 -2 -3t-2 -3l-8 -8q-17 -19 -29 -52q-3 -8 -9 -25.5t-9 -25.5
q-2 0 -4 -2q-1 -1 -4 -3.5t-5 -4.5q-2 -1 -5 -4t-5 -4q-1 -1 -3 -4t-3 -4q-1 0 -8 -15v-6q-22 -33 -90 -79t-103 -50q-46 -4 -67 -4q-12 4 -13 4q-12 6 -22 6q-40 7 -67.5 51t-32.5 95q-1 3 -2 7.5t-2 6.5q-3 6 -7 10q0 4 -4 8v7q0 4 1 12t1 12v8l-2 6v9v4l-2 4q-2 6 -2 20z
M332 1001q0 18 35 74q7 8 26 37q15 18 21 33q0 1 1 2t1 2l8 4l4 4q2 4 12 19q14 14 17 20q6 6 15.5 19t10.5 14q22 22 27 26q26 23 68 23q12 0 38 -20.5t27 -32.5v-4l4 -4q11 -8 27 -31q1 -3 10 -21q8 -12 12 -20q6 -6 40 -36.5t38 -31.5q1 -1 4 -2t4 -2q4 -2 4 -10
q0 -13 -14 -19q-12 -6 -31 -6q-1 0 -16 9q-14 7 -27 20q-20 16 -47 43q-2 2 -6 10q-3 3 -8 13t-19 24q-5 6 -15 17.5t-15 17.5q0 1 -1 3t-1 3q-4 4 -4 8q-1 1 -5.5 7t-9.5 10l-2 2h-8q-9 0 -22 -11.5t-17 -19.5t-15.5 -21t-15.5 -18q-12 -12 -18 -20q-10 -15 -14 -23
q-1 -2 -8 -9.5t-9 -12.5q-11 -15 -16 -27q-15 -25 -19 -33q-10 -16 -20 -29q-18 -18 -39 -18q-4 0 -8 5t-4 13z" />
    <glyph glyph-name="Udieresis" unicode="&#xdc;" horiz-adv-x="774" 
d="M180 164q-2 6 -2 20v66q0 20 3 59t3 58q0 3 1 9t1 9q1 4 2 11.5t2 11.5v2l-2 4l-2 6q0 43 15 112q4 21 14 59.5t14 55.5q0 4 2 4v6q0 2 -1 6.5t-1 6.5q-2 2 -2 4q1 2 9.5 41t15.5 61q19 66 47 66q21 0 29 -6.5t8 -24.5q0 -26 -17 -92q-2 -8 -6 -24.5t-6 -24.5
q-6 -24 -6 -49q0 -5 2 -7v-4v-4q0 -4 -2 -6l-6 -12q-2 -6 -2 -19q0 -37 -14 -98q-1 -8 -4.5 -24.5t-4.5 -24.5q-4 -36 -4 -53q0 -6 1 -18.5t1 -18.5q0 -17 -2 -27q-2 -4 -2 -14q-2 -4 -2 -15q0 -8 2 -23.5t2 -23.5q0 -4 -2 -6q0 -6 -2 -10v-6l4 -4q2 -4 2 -10q1 -4 2 -13
t2 -14q0 -172 105 -172q54 0 117 59q4 5 28 29q11 11 27 31q3 3 32.5 61t30.5 64q15 40 33 116.5t27 106.5q2 4 2 16q2 4 2 15q0 10 4 22q1 4 4 13.5t4 13.5q1 3 2.5 9t2.5 11t1 10q4 14 8 70q7 48 15 64q8 17 12 57q0 2 2 21.5t4 29.5q1 12 20 26.5t31 14.5q21 0 21 -51
q0 -25 -5.5 -70.5t-6.5 -64.5v-2l-2 -2l-5 -7q-8 -24 -12 -65q0 -19 -2 -29q0 -8 -4 -28v-5l-4 -4l-2 -6q-2 -2 -2 -8q-4 -10 -4 -29q-2 -10 -2 -26q-2 -15 -9.5 -42t-9.5 -36q-6 -32 -25 -90t-24 -78q-1 -1 -2 -3t-2 -3l-8 -8q-17 -19 -29 -52q-3 -8 -9 -25.5t-9 -25.5
q-2 0 -4 -2q-1 -1 -4 -3.5t-5 -4.5q-2 -1 -5 -4t-5 -4q-1 -1 -3 -4t-3 -4q-1 0 -8 -15v-6q-22 -33 -90 -79t-103 -50q-46 -4 -67 -4q-12 4 -13 4q-12 6 -22 6q-40 7 -67.5 51t-32.5 95q-1 3 -2 7.5t-2 6.5q-3 6 -7 10q0 4 -4 8v7q0 4 1 12t1 12v8l-2 6v9v4zM657 1016
q0 22 7 47q0 2 32.5 24.5t36.5 22.5q19 0 33 -21.5t14 -41.5q-21 -68 -86 -68q-2 0 -10 8.5t-8 9.5q-4 2 -8.5 8t-5.5 7q-4 4 -5 4zM385 1014l-4 4q0 26 6 47q0 2 33 24.5t37 22.5q13 0 31 -20t18 -35q0 -1 -1 -3.5t-1 -4.5q-21 -68 -86 -68l-4 4q-1 1 -7 5.5t-8 8.5
q-4 2 -8.5 8t-5.5 7z" />
    </font>
</defs>
</svg>
